%TF.GenerationSoftware,KiCad,Pcbnew,8.0.1*%
%TF.CreationDate,2024-04-11T20:05:41-05:00*%
%TF.ProjectId,One-to-One LA Adapter,4f6e652d-746f-42d4-9f6e-65204c412041,rev?*%
%TF.SameCoordinates,Original*%
%TF.FileFunction,Copper,L2,Bot*%
%TF.FilePolarity,Positive*%
%FSLAX46Y46*%
G04 Gerber Fmt 4.6, Leading zero omitted, Abs format (unit mm)*
G04 Created by KiCad (PCBNEW 8.0.1) date 2024-04-11 20:05:41*
%MOMM*%
%LPD*%
G01*
G04 APERTURE LIST*
%TA.AperFunction,ComponentPad*%
%ADD10R,1.700000X1.700000*%
%TD*%
%TA.AperFunction,ComponentPad*%
%ADD11O,1.700000X1.700000*%
%TD*%
%TA.AperFunction,ViaPad*%
%ADD12C,0.800000*%
%TD*%
G04 APERTURE END LIST*
D10*
%TO.P,J2,1,Pin_1*%
%TO.N,/XCLK*%
X137160000Y-66040000D03*
D11*
%TO.P,J2,2,Pin_2*%
%TO.N,GND*%
X139700000Y-66040000D03*
%TO.P,J2,3,Pin_3*%
%TO.N,+5V*%
X137160000Y-68580000D03*
%TO.P,J2,4,Pin_4*%
%TO.N,/XE*%
X139700000Y-68580000D03*
%TO.P,J2,5,Pin_5*%
%TO.N,/XBUSREQ*%
X137160000Y-71120000D03*
%TO.P,J2,6,Pin_6*%
%TO.N,/XSLC*%
X139700000Y-71120000D03*
%TO.P,J2,7,Pin_7*%
%TO.N,/XBUSACK*%
X137160000Y-73660000D03*
%TO.P,J2,8,Pin_8*%
%TO.N,/XIRQ*%
X139700000Y-73660000D03*
%TO.P,J2,9,Pin_9*%
%TO.N,/XRD*%
X137160000Y-76200000D03*
%TO.P,J2,10,Pin_10*%
%TO.N,/XWR*%
X139700000Y-76200000D03*
%TO.P,J2,11,Pin_11*%
%TO.N,/XA0*%
X137160000Y-78740000D03*
%TO.P,J2,12,Pin_12*%
%TO.N,/XA1*%
X139700000Y-78740000D03*
%TO.P,J2,13,Pin_13*%
%TO.N,/XA2*%
X137160000Y-81280000D03*
%TO.P,J2,14,Pin_14*%
%TO.N,/XA3*%
X139700000Y-81280000D03*
%TO.P,J2,15,Pin_15*%
%TO.N,/XA4*%
X137160000Y-83820000D03*
%TO.P,J2,16,Pin_16*%
%TO.N,/XA5*%
X139700000Y-83820000D03*
%TO.P,J2,17,Pin_17*%
%TO.N,/XA6*%
X137160000Y-86360000D03*
%TO.P,J2,18,Pin_18*%
%TO.N,/XA7*%
X139700000Y-86360000D03*
%TO.P,J2,19,Pin_19*%
%TO.N,/XA8*%
X137160000Y-88900000D03*
%TO.P,J2,20,Pin_20*%
%TO.N,/XA9*%
X139700000Y-88900000D03*
%TO.P,J2,21,Pin_21*%
%TO.N,/XA10*%
X137160000Y-91440000D03*
%TO.P,J2,22,Pin_22*%
%TO.N,/XA11*%
X139700000Y-91440000D03*
%TO.P,J2,23,Pin_23*%
%TO.N,/XA12*%
X137160000Y-93980000D03*
%TO.P,J2,24,Pin_24*%
%TO.N,/XA13*%
X139700000Y-93980000D03*
%TO.P,J2,25,Pin_25*%
%TO.N,/XA14*%
X137160000Y-96520000D03*
%TO.P,J2,26,Pin_26*%
%TO.N,/XA15*%
X139700000Y-96520000D03*
%TO.P,J2,27,Pin_27*%
%TO.N,/XD0*%
X137160000Y-99060000D03*
%TO.P,J2,28,Pin_28*%
%TO.N,/XD1*%
X139700000Y-99060000D03*
%TO.P,J2,29,Pin_29*%
%TO.N,/XD2*%
X137160000Y-101600000D03*
%TO.P,J2,30,Pin_30*%
%TO.N,/XD3*%
X139700000Y-101600000D03*
%TO.P,J2,31,Pin_31*%
%TO.N,/XD4*%
X137160000Y-104140000D03*
%TO.P,J2,32,Pin_32*%
%TO.N,/XD5*%
X139700000Y-104140000D03*
%TO.P,J2,33,Pin_33*%
%TO.N,/XD6*%
X137160000Y-106680000D03*
%TO.P,J2,34,Pin_34*%
%TO.N,/XD7*%
X139700000Y-106680000D03*
%TO.P,J2,35,Pin_35*%
%TO.N,+5V*%
X137160000Y-109220000D03*
%TO.P,J2,36,Pin_36*%
%TO.N,GND*%
X139700000Y-109220000D03*
%TO.P,J2,37,Pin_37*%
%TO.N,+5V*%
X137160000Y-111760000D03*
%TO.P,J2,38,Pin_38*%
%TO.N,GND*%
X139700000Y-111760000D03*
%TO.P,J2,39,Pin_39*%
%TO.N,/XIN*%
X137160000Y-114300000D03*
%TO.P,J2,40,Pin_40*%
%TO.N,GND*%
X139700000Y-114300000D03*
%TD*%
D10*
%TO.P,J3,1,Pin_1*%
%TO.N,/XCLK*%
X162560000Y-66040000D03*
D11*
%TO.P,J3,2,Pin_2*%
%TO.N,GND*%
X165100000Y-66040000D03*
%TO.P,J3,3,Pin_3*%
%TO.N,+5V*%
X162560000Y-68580000D03*
%TO.P,J3,4,Pin_4*%
%TO.N,/XE*%
X165100000Y-68580000D03*
%TO.P,J3,5,Pin_5*%
%TO.N,/XBUSREQ*%
X162560000Y-71120000D03*
%TO.P,J3,6,Pin_6*%
%TO.N,/XSLC*%
X165100000Y-71120000D03*
%TO.P,J3,7,Pin_7*%
%TO.N,/XBUSACK*%
X162560000Y-73660000D03*
%TO.P,J3,8,Pin_8*%
%TO.N,/XIRQ*%
X165100000Y-73660000D03*
%TO.P,J3,9,Pin_9*%
%TO.N,/XRD*%
X162560000Y-76200000D03*
%TO.P,J3,10,Pin_10*%
%TO.N,/XWR*%
X165100000Y-76200000D03*
%TO.P,J3,11,Pin_11*%
%TO.N,/XA0*%
X162560000Y-78740000D03*
%TO.P,J3,12,Pin_12*%
%TO.N,/XA1*%
X165100000Y-78740000D03*
%TO.P,J3,13,Pin_13*%
%TO.N,/XA2*%
X162560000Y-81280000D03*
%TO.P,J3,14,Pin_14*%
%TO.N,/XA3*%
X165100000Y-81280000D03*
%TO.P,J3,15,Pin_15*%
%TO.N,/XA4*%
X162560000Y-83820000D03*
%TO.P,J3,16,Pin_16*%
%TO.N,/XA5*%
X165100000Y-83820000D03*
%TO.P,J3,17,Pin_17*%
%TO.N,/XA6*%
X162560000Y-86360000D03*
%TO.P,J3,18,Pin_18*%
%TO.N,/XA7*%
X165100000Y-86360000D03*
%TO.P,J3,19,Pin_19*%
%TO.N,/XA8*%
X162560000Y-88900000D03*
%TO.P,J3,20,Pin_20*%
%TO.N,/XA9*%
X165100000Y-88900000D03*
%TO.P,J3,21,Pin_21*%
%TO.N,/XA10*%
X162560000Y-91440000D03*
%TO.P,J3,22,Pin_22*%
%TO.N,/XA11*%
X165100000Y-91440000D03*
%TO.P,J3,23,Pin_23*%
%TO.N,/XA12*%
X162560000Y-93980000D03*
%TO.P,J3,24,Pin_24*%
%TO.N,/XA13*%
X165100000Y-93980000D03*
%TO.P,J3,25,Pin_25*%
%TO.N,/XA14*%
X162560000Y-96520000D03*
%TO.P,J3,26,Pin_26*%
%TO.N,/XA15*%
X165100000Y-96520000D03*
%TO.P,J3,27,Pin_27*%
%TO.N,/XD0*%
X162560000Y-99060000D03*
%TO.P,J3,28,Pin_28*%
%TO.N,/XD1*%
X165100000Y-99060000D03*
%TO.P,J3,29,Pin_29*%
%TO.N,/XD2*%
X162560000Y-101600000D03*
%TO.P,J3,30,Pin_30*%
%TO.N,/XD3*%
X165100000Y-101600000D03*
%TO.P,J3,31,Pin_31*%
%TO.N,/XD4*%
X162560000Y-104140000D03*
%TO.P,J3,32,Pin_32*%
%TO.N,/XD5*%
X165100000Y-104140000D03*
%TO.P,J3,33,Pin_33*%
%TO.N,/XD6*%
X162560000Y-106680000D03*
%TO.P,J3,34,Pin_34*%
%TO.N,/XD7*%
X165100000Y-106680000D03*
%TO.P,J3,35,Pin_35*%
%TO.N,+5V*%
X162560000Y-109220000D03*
%TO.P,J3,36,Pin_36*%
%TO.N,GND*%
X165100000Y-109220000D03*
%TO.P,J3,37,Pin_37*%
%TO.N,+5V*%
X162560000Y-111760000D03*
%TO.P,J3,38,Pin_38*%
%TO.N,GND*%
X165100000Y-111760000D03*
%TO.P,J3,39,Pin_39*%
%TO.N,/XIN*%
X162560000Y-114300000D03*
%TO.P,J3,40,Pin_40*%
%TO.N,GND*%
X165100000Y-114300000D03*
%TD*%
D10*
%TO.P,J4,1,Pin_1*%
%TO.N,+5V*%
X148590000Y-61595000D03*
D11*
%TO.P,J4,2,Pin_2*%
%TO.N,/XE*%
X151130000Y-61595000D03*
%TO.P,J4,3,Pin_3*%
%TO.N,GND*%
X153670000Y-61595000D03*
%TD*%
D10*
%TO.P,J1,1,Pin_1*%
%TO.N,/XCLK*%
X149860000Y-66040000D03*
D11*
%TO.P,J1,2,Pin_2*%
%TO.N,GND*%
X152400000Y-66040000D03*
%TO.P,J1,3,Pin_3*%
%TO.N,+5V*%
X149860000Y-68580000D03*
%TO.P,J1,4,Pin_4*%
%TO.N,/XE*%
X152400000Y-68580000D03*
%TO.P,J1,5,Pin_5*%
%TO.N,/XBUSREQ*%
X149860000Y-71120000D03*
%TO.P,J1,6,Pin_6*%
%TO.N,/XSLC*%
X152400000Y-71120000D03*
%TO.P,J1,7,Pin_7*%
%TO.N,/XBUSACK*%
X149860000Y-73660000D03*
%TO.P,J1,8,Pin_8*%
%TO.N,/XIRQ*%
X152400000Y-73660000D03*
%TO.P,J1,9,Pin_9*%
%TO.N,/XRD*%
X149860000Y-76200000D03*
%TO.P,J1,10,Pin_10*%
%TO.N,/XWR*%
X152400000Y-76200000D03*
%TO.P,J1,11,Pin_11*%
%TO.N,/XA0*%
X149860000Y-78740000D03*
%TO.P,J1,12,Pin_12*%
%TO.N,/XA1*%
X152400000Y-78740000D03*
%TO.P,J1,13,Pin_13*%
%TO.N,/XA2*%
X149860000Y-81280000D03*
%TO.P,J1,14,Pin_14*%
%TO.N,/XA3*%
X152400000Y-81280000D03*
%TO.P,J1,15,Pin_15*%
%TO.N,/XA4*%
X149860000Y-83820000D03*
%TO.P,J1,16,Pin_16*%
%TO.N,/XA5*%
X152400000Y-83820000D03*
%TO.P,J1,17,Pin_17*%
%TO.N,/XA6*%
X149860000Y-86360000D03*
%TO.P,J1,18,Pin_18*%
%TO.N,/XA7*%
X152400000Y-86360000D03*
%TO.P,J1,19,Pin_19*%
%TO.N,/XA8*%
X149860000Y-88900000D03*
%TO.P,J1,20,Pin_20*%
%TO.N,/XA9*%
X152400000Y-88900000D03*
%TO.P,J1,21,Pin_21*%
%TO.N,/XA10*%
X149860000Y-91440000D03*
%TO.P,J1,22,Pin_22*%
%TO.N,/XA11*%
X152400000Y-91440000D03*
%TO.P,J1,23,Pin_23*%
%TO.N,/XA12*%
X149860000Y-93980000D03*
%TO.P,J1,24,Pin_24*%
%TO.N,/XA13*%
X152400000Y-93980000D03*
%TO.P,J1,25,Pin_25*%
%TO.N,/XA14*%
X149860000Y-96520000D03*
%TO.P,J1,26,Pin_26*%
%TO.N,/XA15*%
X152400000Y-96520000D03*
%TO.P,J1,27,Pin_27*%
%TO.N,/XD0*%
X149860000Y-99060000D03*
%TO.P,J1,28,Pin_28*%
%TO.N,/XD1*%
X152400000Y-99060000D03*
%TO.P,J1,29,Pin_29*%
%TO.N,/XD2*%
X149860000Y-101600000D03*
%TO.P,J1,30,Pin_30*%
%TO.N,/XD3*%
X152400000Y-101600000D03*
%TO.P,J1,31,Pin_31*%
%TO.N,/XD4*%
X149860000Y-104140000D03*
%TO.P,J1,32,Pin_32*%
%TO.N,/XD5*%
X152400000Y-104140000D03*
%TO.P,J1,33,Pin_33*%
%TO.N,/XD6*%
X149860000Y-106680000D03*
%TO.P,J1,34,Pin_34*%
%TO.N,/XD7*%
X152400000Y-106680000D03*
%TO.P,J1,35,Pin_35*%
%TO.N,+5V*%
X149860000Y-109220000D03*
%TO.P,J1,36,Pin_36*%
%TO.N,GND*%
X152400000Y-109220000D03*
%TO.P,J1,37,Pin_37*%
%TO.N,+5V*%
X149860000Y-111760000D03*
%TO.P,J1,38,Pin_38*%
%TO.N,GND*%
X152400000Y-111760000D03*
%TO.P,J1,39,Pin_39*%
%TO.N,/XIN*%
X149860000Y-114300000D03*
%TO.P,J1,40,Pin_40*%
%TO.N,GND*%
X152400000Y-114300000D03*
%TD*%
D12*
%TO.N,GND*%
X156464000Y-118110000D03*
%TD*%
%TA.AperFunction,Conductor*%
%TO.N,GND*%
G36*
X139950000Y-113866988D02*
G01*
X139892993Y-113834075D01*
X139765826Y-113800000D01*
X139634174Y-113800000D01*
X139507007Y-113834075D01*
X139450000Y-113866988D01*
X139450000Y-112193012D01*
X139507007Y-112225925D01*
X139634174Y-112260000D01*
X139765826Y-112260000D01*
X139892993Y-112225925D01*
X139950000Y-112193012D01*
X139950000Y-113866988D01*
G37*
%TD.AperFunction*%
%TA.AperFunction,Conductor*%
G36*
X152650000Y-113866988D02*
G01*
X152592993Y-113834075D01*
X152465826Y-113800000D01*
X152334174Y-113800000D01*
X152207007Y-113834075D01*
X152150000Y-113866988D01*
X152150000Y-112193012D01*
X152207007Y-112225925D01*
X152334174Y-112260000D01*
X152465826Y-112260000D01*
X152592993Y-112225925D01*
X152650000Y-112193012D01*
X152650000Y-113866988D01*
G37*
%TD.AperFunction*%
%TA.AperFunction,Conductor*%
G36*
X165350000Y-113866988D02*
G01*
X165292993Y-113834075D01*
X165165826Y-113800000D01*
X165034174Y-113800000D01*
X164907007Y-113834075D01*
X164850000Y-113866988D01*
X164850000Y-112193012D01*
X164907007Y-112225925D01*
X165034174Y-112260000D01*
X165165826Y-112260000D01*
X165292993Y-112225925D01*
X165350000Y-112193012D01*
X165350000Y-113866988D01*
G37*
%TD.AperFunction*%
%TA.AperFunction,Conductor*%
G36*
X139950000Y-111326988D02*
G01*
X139892993Y-111294075D01*
X139765826Y-111260000D01*
X139634174Y-111260000D01*
X139507007Y-111294075D01*
X139450000Y-111326988D01*
X139450000Y-109653012D01*
X139507007Y-109685925D01*
X139634174Y-109720000D01*
X139765826Y-109720000D01*
X139892993Y-109685925D01*
X139950000Y-109653012D01*
X139950000Y-111326988D01*
G37*
%TD.AperFunction*%
%TA.AperFunction,Conductor*%
G36*
X152650000Y-111326988D02*
G01*
X152592993Y-111294075D01*
X152465826Y-111260000D01*
X152334174Y-111260000D01*
X152207007Y-111294075D01*
X152150000Y-111326988D01*
X152150000Y-109653012D01*
X152207007Y-109685925D01*
X152334174Y-109720000D01*
X152465826Y-109720000D01*
X152592993Y-109685925D01*
X152650000Y-109653012D01*
X152650000Y-111326988D01*
G37*
%TD.AperFunction*%
%TA.AperFunction,Conductor*%
G36*
X165350000Y-111326988D02*
G01*
X165292993Y-111294075D01*
X165165826Y-111260000D01*
X165034174Y-111260000D01*
X164907007Y-111294075D01*
X164850000Y-111326988D01*
X164850000Y-109653012D01*
X164907007Y-109685925D01*
X165034174Y-109720000D01*
X165165826Y-109720000D01*
X165292993Y-109685925D01*
X165350000Y-109653012D01*
X165350000Y-111326988D01*
G37*
%TD.AperFunction*%
%TA.AperFunction,Conductor*%
G36*
X162388702Y-57912618D02*
G01*
X162402417Y-57913216D01*
X162805278Y-57930805D01*
X162816015Y-57931745D01*
X163226742Y-57985818D01*
X163237368Y-57987691D01*
X163641828Y-58077358D01*
X163652240Y-58080147D01*
X164047347Y-58204725D01*
X164057482Y-58208414D01*
X164440214Y-58366947D01*
X164450006Y-58371513D01*
X164817465Y-58562800D01*
X164826805Y-58568193D01*
X165152555Y-58775719D01*
X165176180Y-58790770D01*
X165185041Y-58796974D01*
X165513690Y-59049154D01*
X165521977Y-59056108D01*
X165827386Y-59335964D01*
X165835035Y-59343613D01*
X166114891Y-59649022D01*
X166121845Y-59657309D01*
X166374025Y-59985958D01*
X166380229Y-59994819D01*
X166588393Y-60321570D01*
X166602798Y-60344180D01*
X166608203Y-60353542D01*
X166685834Y-60502669D01*
X166799483Y-60720987D01*
X166804055Y-60730791D01*
X166962579Y-61113502D01*
X166966278Y-61123666D01*
X167036065Y-61345000D01*
X167090846Y-61518740D01*
X167093646Y-61529190D01*
X167183305Y-61933618D01*
X167185183Y-61944271D01*
X167239252Y-62354964D01*
X167240195Y-62365740D01*
X167258382Y-62782297D01*
X167258500Y-62787706D01*
X167258500Y-115647293D01*
X167258382Y-115652702D01*
X167240195Y-116069259D01*
X167239252Y-116080035D01*
X167185183Y-116490728D01*
X167183305Y-116501381D01*
X167093646Y-116905809D01*
X167090846Y-116916259D01*
X166966279Y-117311332D01*
X166962579Y-117321497D01*
X166804055Y-117704208D01*
X166799483Y-117714012D01*
X166608207Y-118081451D01*
X166602798Y-118090819D01*
X166380229Y-118440180D01*
X166374025Y-118449041D01*
X166121845Y-118777690D01*
X166114891Y-118785977D01*
X165835035Y-119091386D01*
X165827386Y-119099035D01*
X165521977Y-119378891D01*
X165513690Y-119385845D01*
X165185041Y-119638025D01*
X165176180Y-119644229D01*
X164826819Y-119866798D01*
X164817451Y-119872207D01*
X164450012Y-120063483D01*
X164440208Y-120068055D01*
X164057497Y-120226579D01*
X164047332Y-120230279D01*
X163652259Y-120354846D01*
X163641809Y-120357646D01*
X163237381Y-120447305D01*
X163226728Y-120449183D01*
X162816035Y-120503252D01*
X162805259Y-120504195D01*
X162388703Y-120522382D01*
X162383294Y-120522500D01*
X139876706Y-120522500D01*
X139871297Y-120522382D01*
X139454740Y-120504195D01*
X139443964Y-120503252D01*
X139033271Y-120449183D01*
X139022618Y-120447305D01*
X138758962Y-120388854D01*
X138618187Y-120357645D01*
X138607744Y-120354847D01*
X138212666Y-120230278D01*
X138202502Y-120226579D01*
X137819791Y-120068055D01*
X137809987Y-120063483D01*
X137689481Y-120000751D01*
X137442542Y-119872203D01*
X137433187Y-119866802D01*
X137258499Y-119755513D01*
X137083819Y-119644229D01*
X137074958Y-119638025D01*
X136746309Y-119385845D01*
X136738022Y-119378891D01*
X136432613Y-119099035D01*
X136424964Y-119091386D01*
X136145108Y-118785977D01*
X136138154Y-118777690D01*
X135885974Y-118449041D01*
X135879770Y-118440180D01*
X135775771Y-118276935D01*
X135657193Y-118090805D01*
X135651800Y-118081465D01*
X135460513Y-117714006D01*
X135455944Y-117704208D01*
X135377771Y-117515481D01*
X135297414Y-117321482D01*
X135293725Y-117311347D01*
X135169147Y-116916240D01*
X135166358Y-116905828D01*
X135076691Y-116501368D01*
X135074818Y-116490742D01*
X135020745Y-116080015D01*
X135019805Y-116069278D01*
X135001618Y-115652701D01*
X135001500Y-115647293D01*
X135001500Y-67220627D01*
X135772180Y-67220627D01*
X135772363Y-67224839D01*
X135794818Y-67741303D01*
X135805264Y-67823859D01*
X135812088Y-67856151D01*
X135841384Y-67949229D01*
X135858323Y-67977208D01*
X135876531Y-68007281D01*
X135894413Y-68074822D01*
X135886981Y-68113905D01*
X135886098Y-68116330D01*
X135824938Y-68344586D01*
X135824936Y-68344596D01*
X135804341Y-68579999D01*
X135804341Y-68580000D01*
X135824936Y-68815403D01*
X135824938Y-68815413D01*
X135886094Y-69043655D01*
X135886099Y-69043669D01*
X135935442Y-69149485D01*
X135945934Y-69218562D01*
X135936610Y-69251713D01*
X135907377Y-69318334D01*
X135890770Y-69378175D01*
X135887092Y-69392199D01*
X135872821Y-69535371D01*
X135888812Y-69903173D01*
X135896185Y-69969952D01*
X135896188Y-69969972D01*
X135900874Y-69996247D01*
X135921639Y-70075159D01*
X135921640Y-70075162D01*
X135988192Y-70202717D01*
X135988197Y-70202724D01*
X136020631Y-70247803D01*
X136043806Y-70313717D01*
X136027666Y-70381697D01*
X136021553Y-70391345D01*
X135991901Y-70433692D01*
X135985967Y-70442169D01*
X135985963Y-70442174D01*
X135886098Y-70656335D01*
X135886094Y-70656344D01*
X135824938Y-70884586D01*
X135824936Y-70884596D01*
X135804341Y-71119999D01*
X135804341Y-71120000D01*
X135824936Y-71355403D01*
X135824938Y-71355413D01*
X135886094Y-71583655D01*
X135886096Y-71583659D01*
X135886097Y-71583663D01*
X135890000Y-71592032D01*
X135985965Y-71797830D01*
X135985967Y-71797834D01*
X136094281Y-71952521D01*
X136121501Y-71991396D01*
X136121506Y-71991402D01*
X136288597Y-72158493D01*
X136288603Y-72158498D01*
X136474158Y-72288425D01*
X136517783Y-72343002D01*
X136524977Y-72412500D01*
X136493454Y-72474855D01*
X136474158Y-72491575D01*
X136288597Y-72621505D01*
X136121505Y-72788597D01*
X135985965Y-72982169D01*
X135985964Y-72982171D01*
X135886098Y-73196335D01*
X135886094Y-73196344D01*
X135824938Y-73424586D01*
X135824936Y-73424596D01*
X135804341Y-73659999D01*
X135804341Y-73660000D01*
X135824936Y-73895403D01*
X135824938Y-73895413D01*
X135886094Y-74123655D01*
X135886096Y-74123659D01*
X135886097Y-74123663D01*
X135890000Y-74132032D01*
X135985965Y-74337830D01*
X135985967Y-74337834D01*
X136094281Y-74492521D01*
X136121501Y-74531396D01*
X136121506Y-74531402D01*
X136288597Y-74698493D01*
X136288603Y-74698498D01*
X136474158Y-74828425D01*
X136517783Y-74883002D01*
X136524977Y-74952500D01*
X136493454Y-75014855D01*
X136474158Y-75031575D01*
X136288597Y-75161505D01*
X136121505Y-75328597D01*
X135985965Y-75522169D01*
X135985964Y-75522171D01*
X135886098Y-75736335D01*
X135886094Y-75736344D01*
X135824938Y-75964586D01*
X135824936Y-75964596D01*
X135804341Y-76199999D01*
X135804341Y-76200000D01*
X135824936Y-76435403D01*
X135824938Y-76435413D01*
X135886094Y-76663655D01*
X135886096Y-76663659D01*
X135886097Y-76663663D01*
X135890000Y-76672032D01*
X135985965Y-76877830D01*
X135985967Y-76877834D01*
X136094281Y-77032521D01*
X136121501Y-77071396D01*
X136121506Y-77071402D01*
X136288597Y-77238493D01*
X136288603Y-77238498D01*
X136474158Y-77368425D01*
X136517783Y-77423002D01*
X136524977Y-77492500D01*
X136493454Y-77554855D01*
X136474158Y-77571575D01*
X136288597Y-77701505D01*
X136121505Y-77868597D01*
X135985965Y-78062169D01*
X135985964Y-78062171D01*
X135886098Y-78276335D01*
X135886094Y-78276344D01*
X135824938Y-78504586D01*
X135824936Y-78504596D01*
X135804341Y-78739999D01*
X135804341Y-78740000D01*
X135824936Y-78975403D01*
X135824938Y-78975413D01*
X135886094Y-79203655D01*
X135886096Y-79203659D01*
X135886097Y-79203663D01*
X135890000Y-79212032D01*
X135985965Y-79417830D01*
X135985967Y-79417834D01*
X136094281Y-79572521D01*
X136121501Y-79611396D01*
X136121506Y-79611402D01*
X136288597Y-79778493D01*
X136288603Y-79778498D01*
X136474158Y-79908425D01*
X136517783Y-79963002D01*
X136524977Y-80032500D01*
X136493454Y-80094855D01*
X136474158Y-80111575D01*
X136288597Y-80241505D01*
X136121505Y-80408597D01*
X135985965Y-80602169D01*
X135985964Y-80602171D01*
X135886098Y-80816335D01*
X135886094Y-80816344D01*
X135824938Y-81044586D01*
X135824936Y-81044596D01*
X135804341Y-81279999D01*
X135804341Y-81280000D01*
X135824936Y-81515403D01*
X135824938Y-81515413D01*
X135886094Y-81743655D01*
X135886096Y-81743659D01*
X135886097Y-81743663D01*
X135890000Y-81752032D01*
X135985965Y-81957830D01*
X135985967Y-81957834D01*
X136094281Y-82112521D01*
X136121501Y-82151396D01*
X136121506Y-82151402D01*
X136288597Y-82318493D01*
X136288603Y-82318498D01*
X136474158Y-82448425D01*
X136517783Y-82503002D01*
X136524977Y-82572500D01*
X136493454Y-82634855D01*
X136474158Y-82651575D01*
X136288597Y-82781505D01*
X136121505Y-82948597D01*
X135985965Y-83142169D01*
X135985964Y-83142171D01*
X135886098Y-83356335D01*
X135886094Y-83356344D01*
X135824938Y-83584586D01*
X135824936Y-83584596D01*
X135804341Y-83819999D01*
X135804341Y-83820000D01*
X135824936Y-84055403D01*
X135824938Y-84055413D01*
X135886094Y-84283655D01*
X135886096Y-84283659D01*
X135886097Y-84283663D01*
X135890000Y-84292032D01*
X135985965Y-84497830D01*
X135985967Y-84497834D01*
X136094281Y-84652521D01*
X136121501Y-84691396D01*
X136121506Y-84691402D01*
X136288597Y-84858493D01*
X136288603Y-84858498D01*
X136474158Y-84988425D01*
X136517783Y-85043002D01*
X136524977Y-85112500D01*
X136493454Y-85174855D01*
X136474158Y-85191575D01*
X136288597Y-85321505D01*
X136121505Y-85488597D01*
X135985965Y-85682169D01*
X135985964Y-85682171D01*
X135886098Y-85896335D01*
X135886094Y-85896344D01*
X135824938Y-86124586D01*
X135824936Y-86124596D01*
X135804341Y-86359999D01*
X135804341Y-86360000D01*
X135824936Y-86595403D01*
X135824938Y-86595413D01*
X135886094Y-86823655D01*
X135886096Y-86823659D01*
X135886097Y-86823663D01*
X135890000Y-86832032D01*
X135985965Y-87037830D01*
X135985967Y-87037834D01*
X136094281Y-87192521D01*
X136121501Y-87231396D01*
X136121506Y-87231402D01*
X136288597Y-87398493D01*
X136288603Y-87398498D01*
X136474158Y-87528425D01*
X136517783Y-87583002D01*
X136524977Y-87652500D01*
X136493454Y-87714855D01*
X136474158Y-87731575D01*
X136288597Y-87861505D01*
X136121505Y-88028597D01*
X135985965Y-88222169D01*
X135985964Y-88222171D01*
X135886098Y-88436335D01*
X135886094Y-88436344D01*
X135824938Y-88664586D01*
X135824936Y-88664596D01*
X135804341Y-88899999D01*
X135804341Y-88900000D01*
X135824936Y-89135403D01*
X135824938Y-89135413D01*
X135886094Y-89363655D01*
X135886096Y-89363659D01*
X135886097Y-89363663D01*
X135890000Y-89372032D01*
X135985965Y-89577830D01*
X135985967Y-89577834D01*
X136094281Y-89732521D01*
X136121501Y-89771396D01*
X136121506Y-89771402D01*
X136288597Y-89938493D01*
X136288603Y-89938498D01*
X136474158Y-90068425D01*
X136517783Y-90123002D01*
X136524977Y-90192500D01*
X136493454Y-90254855D01*
X136474158Y-90271575D01*
X136288597Y-90401505D01*
X136121505Y-90568597D01*
X135985965Y-90762169D01*
X135985964Y-90762171D01*
X135886098Y-90976335D01*
X135886094Y-90976344D01*
X135824938Y-91204586D01*
X135824936Y-91204596D01*
X135804341Y-91439999D01*
X135804341Y-91440000D01*
X135824936Y-91675403D01*
X135824938Y-91675413D01*
X135886094Y-91903655D01*
X135886096Y-91903659D01*
X135886097Y-91903663D01*
X135890000Y-91912032D01*
X135985965Y-92117830D01*
X135985967Y-92117834D01*
X136094281Y-92272521D01*
X136121501Y-92311396D01*
X136121506Y-92311402D01*
X136288597Y-92478493D01*
X136288603Y-92478498D01*
X136474158Y-92608425D01*
X136517783Y-92663002D01*
X136524977Y-92732500D01*
X136493454Y-92794855D01*
X136474158Y-92811575D01*
X136288597Y-92941505D01*
X136121505Y-93108597D01*
X135985965Y-93302169D01*
X135985964Y-93302171D01*
X135886098Y-93516335D01*
X135886094Y-93516344D01*
X135824938Y-93744586D01*
X135824936Y-93744596D01*
X135804341Y-93979999D01*
X135804341Y-93980000D01*
X135824936Y-94215403D01*
X135824938Y-94215413D01*
X135886094Y-94443655D01*
X135886096Y-94443659D01*
X135886097Y-94443663D01*
X135890000Y-94452032D01*
X135985965Y-94657830D01*
X135985967Y-94657834D01*
X136094281Y-94812521D01*
X136121501Y-94851396D01*
X136121506Y-94851402D01*
X136288597Y-95018493D01*
X136288603Y-95018498D01*
X136474158Y-95148425D01*
X136517783Y-95203002D01*
X136524977Y-95272500D01*
X136493454Y-95334855D01*
X136474158Y-95351575D01*
X136288597Y-95481505D01*
X136121505Y-95648597D01*
X135985965Y-95842169D01*
X135985964Y-95842171D01*
X135886098Y-96056335D01*
X135886094Y-96056344D01*
X135824938Y-96284586D01*
X135824936Y-96284596D01*
X135804341Y-96519999D01*
X135804341Y-96520000D01*
X135824936Y-96755403D01*
X135824938Y-96755413D01*
X135886094Y-96983655D01*
X135886096Y-96983659D01*
X135886097Y-96983663D01*
X135890000Y-96992032D01*
X135985965Y-97197830D01*
X135985967Y-97197834D01*
X136094281Y-97352521D01*
X136121501Y-97391396D01*
X136121506Y-97391402D01*
X136288597Y-97558493D01*
X136288603Y-97558498D01*
X136474158Y-97688425D01*
X136517783Y-97743002D01*
X136524977Y-97812500D01*
X136493454Y-97874855D01*
X136474158Y-97891575D01*
X136288597Y-98021505D01*
X136121505Y-98188597D01*
X135985965Y-98382169D01*
X135985964Y-98382171D01*
X135886098Y-98596335D01*
X135886094Y-98596344D01*
X135824938Y-98824586D01*
X135824936Y-98824596D01*
X135804341Y-99059999D01*
X135804341Y-99060000D01*
X135824936Y-99295403D01*
X135824938Y-99295413D01*
X135886094Y-99523655D01*
X135886096Y-99523659D01*
X135886097Y-99523663D01*
X135890000Y-99532032D01*
X135985965Y-99737830D01*
X135985967Y-99737834D01*
X136094281Y-99892521D01*
X136121501Y-99931396D01*
X136121506Y-99931402D01*
X136288597Y-100098493D01*
X136288603Y-100098498D01*
X136474158Y-100228425D01*
X136517783Y-100283002D01*
X136524977Y-100352500D01*
X136493454Y-100414855D01*
X136474158Y-100431575D01*
X136288597Y-100561505D01*
X136121505Y-100728597D01*
X135985965Y-100922169D01*
X135985964Y-100922171D01*
X135886098Y-101136335D01*
X135886094Y-101136344D01*
X135824938Y-101364586D01*
X135824936Y-101364596D01*
X135804341Y-101599999D01*
X135804341Y-101600000D01*
X135824936Y-101835403D01*
X135824938Y-101835413D01*
X135886094Y-102063655D01*
X135886096Y-102063659D01*
X135886097Y-102063663D01*
X135890000Y-102072032D01*
X135985965Y-102277830D01*
X135985967Y-102277834D01*
X136094281Y-102432521D01*
X136121501Y-102471396D01*
X136121506Y-102471402D01*
X136288597Y-102638493D01*
X136288603Y-102638498D01*
X136474158Y-102768425D01*
X136517783Y-102823002D01*
X136524977Y-102892500D01*
X136493454Y-102954855D01*
X136474158Y-102971575D01*
X136288597Y-103101505D01*
X136121505Y-103268597D01*
X135985965Y-103462169D01*
X135985964Y-103462171D01*
X135886098Y-103676335D01*
X135886094Y-103676344D01*
X135824938Y-103904586D01*
X135824936Y-103904596D01*
X135804341Y-104139999D01*
X135804341Y-104140000D01*
X135824936Y-104375403D01*
X135824938Y-104375413D01*
X135886094Y-104603655D01*
X135886096Y-104603659D01*
X135886097Y-104603663D01*
X135890000Y-104612032D01*
X135985965Y-104817830D01*
X135985967Y-104817834D01*
X136094281Y-104972521D01*
X136121501Y-105011396D01*
X136121506Y-105011402D01*
X136288597Y-105178493D01*
X136288603Y-105178498D01*
X136474158Y-105308425D01*
X136517783Y-105363002D01*
X136524977Y-105432500D01*
X136493454Y-105494855D01*
X136474158Y-105511575D01*
X136288597Y-105641505D01*
X136121505Y-105808597D01*
X135985965Y-106002169D01*
X135985964Y-106002171D01*
X135886098Y-106216335D01*
X135886094Y-106216344D01*
X135824938Y-106444586D01*
X135824936Y-106444596D01*
X135804341Y-106679999D01*
X135804341Y-106680000D01*
X135824936Y-106915403D01*
X135824938Y-106915413D01*
X135886094Y-107143655D01*
X135886096Y-107143659D01*
X135886097Y-107143663D01*
X135890000Y-107152032D01*
X135985965Y-107357830D01*
X135985967Y-107357834D01*
X136094281Y-107512521D01*
X136121501Y-107551396D01*
X136121506Y-107551402D01*
X136288597Y-107718493D01*
X136288603Y-107718498D01*
X136474158Y-107848425D01*
X136517783Y-107903002D01*
X136524977Y-107972500D01*
X136493454Y-108034855D01*
X136474158Y-108051575D01*
X136288597Y-108181505D01*
X136121505Y-108348597D01*
X135985965Y-108542169D01*
X135985964Y-108542171D01*
X135886098Y-108756335D01*
X135886094Y-108756344D01*
X135824938Y-108984586D01*
X135824936Y-108984596D01*
X135804341Y-109219999D01*
X135804341Y-109220000D01*
X135824936Y-109455403D01*
X135824938Y-109455413D01*
X135886094Y-109683655D01*
X135886096Y-109683659D01*
X135886097Y-109683663D01*
X135969155Y-109861781D01*
X135985965Y-109897830D01*
X135985967Y-109897834D01*
X136094281Y-110052521D01*
X136121501Y-110091396D01*
X136121506Y-110091402D01*
X136288597Y-110258493D01*
X136288603Y-110258498D01*
X136474158Y-110388425D01*
X136517783Y-110443002D01*
X136524977Y-110512500D01*
X136493454Y-110574855D01*
X136474158Y-110591575D01*
X136288597Y-110721505D01*
X136121505Y-110888597D01*
X135985965Y-111082169D01*
X135985964Y-111082171D01*
X135886098Y-111296335D01*
X135886094Y-111296344D01*
X135824938Y-111524586D01*
X135824936Y-111524596D01*
X135804341Y-111759999D01*
X135804341Y-111760000D01*
X135824936Y-111995403D01*
X135824938Y-111995413D01*
X135886094Y-112223655D01*
X135886096Y-112223659D01*
X135886097Y-112223663D01*
X135969155Y-112401781D01*
X135985965Y-112437830D01*
X135985967Y-112437834D01*
X136094281Y-112592521D01*
X136121501Y-112631396D01*
X136121506Y-112631402D01*
X136288597Y-112798493D01*
X136288603Y-112798498D01*
X136474158Y-112928425D01*
X136517783Y-112983002D01*
X136524977Y-113052500D01*
X136493454Y-113114855D01*
X136474158Y-113131575D01*
X136288597Y-113261505D01*
X136121505Y-113428597D01*
X135985965Y-113622169D01*
X135985964Y-113622171D01*
X135886098Y-113836335D01*
X135886094Y-113836344D01*
X135824938Y-114064586D01*
X135824936Y-114064596D01*
X135804341Y-114299999D01*
X135804341Y-114300000D01*
X135824936Y-114535403D01*
X135824938Y-114535413D01*
X135886094Y-114763655D01*
X135886096Y-114763659D01*
X135886097Y-114763663D01*
X135969155Y-114941781D01*
X135985965Y-114977830D01*
X135985967Y-114977834D01*
X136094281Y-115132521D01*
X136121505Y-115171401D01*
X136288599Y-115338495D01*
X136385384Y-115406265D01*
X136482165Y-115474032D01*
X136482167Y-115474033D01*
X136482170Y-115474035D01*
X136696337Y-115573903D01*
X136924592Y-115635063D01*
X137095319Y-115650000D01*
X137159999Y-115655659D01*
X137160000Y-115655659D01*
X137160001Y-115655659D01*
X137224681Y-115650000D01*
X137395408Y-115635063D01*
X137623663Y-115573903D01*
X137837830Y-115474035D01*
X138031401Y-115338495D01*
X138198495Y-115171401D01*
X138328730Y-114985405D01*
X138383307Y-114941781D01*
X138452805Y-114934587D01*
X138515160Y-114966110D01*
X138531879Y-114985405D01*
X138661890Y-115171078D01*
X138828917Y-115338105D01*
X139022421Y-115473600D01*
X139236507Y-115573429D01*
X139236516Y-115573433D01*
X139450000Y-115630634D01*
X139450000Y-114733012D01*
X139507007Y-114765925D01*
X139634174Y-114800000D01*
X139765826Y-114800000D01*
X139892993Y-114765925D01*
X139950000Y-114733012D01*
X139950000Y-115630633D01*
X140163483Y-115573433D01*
X140163492Y-115573429D01*
X140377578Y-115473600D01*
X140571082Y-115338105D01*
X140738105Y-115171082D01*
X140873600Y-114977578D01*
X140973429Y-114763492D01*
X140973432Y-114763486D01*
X141030636Y-114550000D01*
X140133012Y-114550000D01*
X140165925Y-114492993D01*
X140200000Y-114365826D01*
X140200000Y-114234174D01*
X140165925Y-114107007D01*
X140133012Y-114050000D01*
X141030636Y-114050000D01*
X141030635Y-114049999D01*
X140973432Y-113836513D01*
X140973429Y-113836507D01*
X140873600Y-113622422D01*
X140873599Y-113622420D01*
X140738113Y-113428926D01*
X140738108Y-113428920D01*
X140571082Y-113261894D01*
X140384968Y-113131575D01*
X140341344Y-113076998D01*
X140334151Y-113007499D01*
X140365673Y-112945145D01*
X140384968Y-112928425D01*
X140571082Y-112798105D01*
X140738105Y-112631082D01*
X140873600Y-112437578D01*
X140973429Y-112223492D01*
X140973432Y-112223486D01*
X141030636Y-112010000D01*
X140133012Y-112010000D01*
X140165925Y-111952993D01*
X140200000Y-111825826D01*
X140200000Y-111694174D01*
X140165925Y-111567007D01*
X140133012Y-111510000D01*
X141030636Y-111510000D01*
X141030635Y-111509999D01*
X140973432Y-111296513D01*
X140973429Y-111296507D01*
X140873600Y-111082422D01*
X140873599Y-111082420D01*
X140738113Y-110888926D01*
X140738108Y-110888920D01*
X140571082Y-110721894D01*
X140384968Y-110591575D01*
X140341344Y-110536998D01*
X140334151Y-110467499D01*
X140365673Y-110405145D01*
X140384968Y-110388425D01*
X140571082Y-110258105D01*
X140738105Y-110091082D01*
X140873600Y-109897578D01*
X140973429Y-109683492D01*
X140973432Y-109683486D01*
X141030636Y-109470000D01*
X140133012Y-109470000D01*
X140165925Y-109412993D01*
X140200000Y-109285826D01*
X140200000Y-109154174D01*
X140165925Y-109027007D01*
X140133012Y-108970000D01*
X141030636Y-108970000D01*
X141030635Y-108969999D01*
X140973432Y-108756513D01*
X140973429Y-108756507D01*
X140873600Y-108542422D01*
X140873599Y-108542420D01*
X140738113Y-108348926D01*
X140738108Y-108348920D01*
X140571078Y-108181890D01*
X140385405Y-108051879D01*
X140341780Y-107997302D01*
X140334588Y-107927804D01*
X140366110Y-107865449D01*
X140385406Y-107848730D01*
X140385842Y-107848425D01*
X140571401Y-107718495D01*
X140738495Y-107551401D01*
X140874035Y-107357830D01*
X140973903Y-107143663D01*
X141035063Y-106915408D01*
X141055659Y-106680000D01*
X141035063Y-106444592D01*
X140973903Y-106216337D01*
X140874035Y-106002171D01*
X140868425Y-105994158D01*
X140738494Y-105808597D01*
X140571402Y-105641506D01*
X140571396Y-105641501D01*
X140385842Y-105511575D01*
X140342217Y-105456998D01*
X140335023Y-105387500D01*
X140366546Y-105325145D01*
X140385842Y-105308425D01*
X140408026Y-105292891D01*
X140571401Y-105178495D01*
X140738495Y-105011401D01*
X140874035Y-104817830D01*
X140973903Y-104603663D01*
X141035063Y-104375408D01*
X141055659Y-104140000D01*
X141035063Y-103904592D01*
X140973903Y-103676337D01*
X140874035Y-103462171D01*
X140868425Y-103454158D01*
X140738494Y-103268597D01*
X140571402Y-103101506D01*
X140571396Y-103101501D01*
X140385842Y-102971575D01*
X140342217Y-102916998D01*
X140335023Y-102847500D01*
X140366546Y-102785145D01*
X140385842Y-102768425D01*
X140408026Y-102752891D01*
X140571401Y-102638495D01*
X140738495Y-102471401D01*
X140874035Y-102277830D01*
X140973903Y-102063663D01*
X141035063Y-101835408D01*
X141055659Y-101600000D01*
X141035063Y-101364592D01*
X140973903Y-101136337D01*
X140874035Y-100922171D01*
X140868425Y-100914158D01*
X140738494Y-100728597D01*
X140571402Y-100561506D01*
X140571396Y-100561501D01*
X140385842Y-100431575D01*
X140342217Y-100376998D01*
X140335023Y-100307500D01*
X140366546Y-100245145D01*
X140385842Y-100228425D01*
X140408026Y-100212891D01*
X140571401Y-100098495D01*
X140738495Y-99931401D01*
X140874035Y-99737830D01*
X140973903Y-99523663D01*
X141035063Y-99295408D01*
X141055659Y-99060000D01*
X141035063Y-98824592D01*
X140973903Y-98596337D01*
X140874035Y-98382171D01*
X140868425Y-98374158D01*
X140738494Y-98188597D01*
X140571402Y-98021506D01*
X140571396Y-98021501D01*
X140385842Y-97891575D01*
X140342217Y-97836998D01*
X140335023Y-97767500D01*
X140366546Y-97705145D01*
X140385842Y-97688425D01*
X140408026Y-97672891D01*
X140571401Y-97558495D01*
X140738495Y-97391401D01*
X140874035Y-97197830D01*
X140973903Y-96983663D01*
X141035063Y-96755408D01*
X141055659Y-96520000D01*
X141035063Y-96284592D01*
X140973903Y-96056337D01*
X140874035Y-95842171D01*
X140868425Y-95834158D01*
X140738494Y-95648597D01*
X140571402Y-95481506D01*
X140571396Y-95481501D01*
X140385842Y-95351575D01*
X140342217Y-95296998D01*
X140335023Y-95227500D01*
X140366546Y-95165145D01*
X140385842Y-95148425D01*
X140408026Y-95132891D01*
X140571401Y-95018495D01*
X140738495Y-94851401D01*
X140874035Y-94657830D01*
X140973903Y-94443663D01*
X141035063Y-94215408D01*
X141055659Y-93980000D01*
X141035063Y-93744592D01*
X140973903Y-93516337D01*
X140874035Y-93302171D01*
X140868425Y-93294158D01*
X140738494Y-93108597D01*
X140571402Y-92941506D01*
X140571396Y-92941501D01*
X140385842Y-92811575D01*
X140342217Y-92756998D01*
X140335023Y-92687500D01*
X140366546Y-92625145D01*
X140385842Y-92608425D01*
X140408026Y-92592891D01*
X140571401Y-92478495D01*
X140738495Y-92311401D01*
X140874035Y-92117830D01*
X140973903Y-91903663D01*
X141035063Y-91675408D01*
X141055659Y-91440000D01*
X141035063Y-91204592D01*
X140973903Y-90976337D01*
X140874035Y-90762171D01*
X140868425Y-90754158D01*
X140738494Y-90568597D01*
X140571402Y-90401506D01*
X140571396Y-90401501D01*
X140385842Y-90271575D01*
X140342217Y-90216998D01*
X140335023Y-90147500D01*
X140366546Y-90085145D01*
X140385842Y-90068425D01*
X140408026Y-90052891D01*
X140571401Y-89938495D01*
X140738495Y-89771401D01*
X140874035Y-89577830D01*
X140973903Y-89363663D01*
X141035063Y-89135408D01*
X141055659Y-88900000D01*
X141035063Y-88664592D01*
X140973903Y-88436337D01*
X140874035Y-88222171D01*
X140868425Y-88214158D01*
X140738494Y-88028597D01*
X140571402Y-87861506D01*
X140571396Y-87861501D01*
X140385842Y-87731575D01*
X140342217Y-87676998D01*
X140335023Y-87607500D01*
X140366546Y-87545145D01*
X140385842Y-87528425D01*
X140408026Y-87512891D01*
X140571401Y-87398495D01*
X140738495Y-87231401D01*
X140874035Y-87037830D01*
X140973903Y-86823663D01*
X141035063Y-86595408D01*
X141055659Y-86360000D01*
X141035063Y-86124592D01*
X140973903Y-85896337D01*
X140874035Y-85682171D01*
X140868425Y-85674158D01*
X140738494Y-85488597D01*
X140571402Y-85321506D01*
X140571396Y-85321501D01*
X140385842Y-85191575D01*
X140342217Y-85136998D01*
X140335023Y-85067500D01*
X140366546Y-85005145D01*
X140385842Y-84988425D01*
X140408026Y-84972891D01*
X140571401Y-84858495D01*
X140738495Y-84691401D01*
X140874035Y-84497830D01*
X140973903Y-84283663D01*
X141035063Y-84055408D01*
X141055659Y-83820000D01*
X141035063Y-83584592D01*
X140973903Y-83356337D01*
X140874035Y-83142171D01*
X140868425Y-83134158D01*
X140738494Y-82948597D01*
X140571402Y-82781506D01*
X140571396Y-82781501D01*
X140385842Y-82651575D01*
X140342217Y-82596998D01*
X140335023Y-82527500D01*
X140366546Y-82465145D01*
X140385842Y-82448425D01*
X140408026Y-82432891D01*
X140571401Y-82318495D01*
X140738495Y-82151401D01*
X140874035Y-81957830D01*
X140973903Y-81743663D01*
X141035063Y-81515408D01*
X141055659Y-81280000D01*
X141035063Y-81044592D01*
X140973903Y-80816337D01*
X140874035Y-80602171D01*
X140868425Y-80594158D01*
X140738494Y-80408597D01*
X140571402Y-80241506D01*
X140571396Y-80241501D01*
X140385842Y-80111575D01*
X140342217Y-80056998D01*
X140335023Y-79987500D01*
X140366546Y-79925145D01*
X140385842Y-79908425D01*
X140408026Y-79892891D01*
X140571401Y-79778495D01*
X140738495Y-79611401D01*
X140874035Y-79417830D01*
X140973903Y-79203663D01*
X141035063Y-78975408D01*
X141055659Y-78740000D01*
X141035063Y-78504592D01*
X140973903Y-78276337D01*
X140874035Y-78062171D01*
X140868425Y-78054158D01*
X140738494Y-77868597D01*
X140571402Y-77701506D01*
X140571396Y-77701501D01*
X140385842Y-77571575D01*
X140342217Y-77516998D01*
X140335023Y-77447500D01*
X140366546Y-77385145D01*
X140385842Y-77368425D01*
X140408026Y-77352891D01*
X140571401Y-77238495D01*
X140738495Y-77071401D01*
X140874035Y-76877830D01*
X140973903Y-76663663D01*
X141035063Y-76435408D01*
X141055659Y-76200000D01*
X141035063Y-75964592D01*
X140973903Y-75736337D01*
X140874035Y-75522171D01*
X140868425Y-75514158D01*
X140738494Y-75328597D01*
X140571402Y-75161506D01*
X140571396Y-75161501D01*
X140385842Y-75031575D01*
X140342217Y-74976998D01*
X140335023Y-74907500D01*
X140366546Y-74845145D01*
X140385842Y-74828425D01*
X140408026Y-74812891D01*
X140571401Y-74698495D01*
X140738495Y-74531401D01*
X140874035Y-74337830D01*
X140973903Y-74123663D01*
X141035063Y-73895408D01*
X141055659Y-73660000D01*
X141035063Y-73424592D01*
X140973903Y-73196337D01*
X140874035Y-72982171D01*
X140868425Y-72974158D01*
X140738494Y-72788597D01*
X140571402Y-72621506D01*
X140571396Y-72621501D01*
X140385842Y-72491575D01*
X140342217Y-72436998D01*
X140335023Y-72367500D01*
X140366546Y-72305145D01*
X140385842Y-72288425D01*
X140408026Y-72272891D01*
X140571401Y-72158495D01*
X140738495Y-71991401D01*
X140874035Y-71797830D01*
X140973903Y-71583663D01*
X141035063Y-71355408D01*
X141055659Y-71120000D01*
X141035063Y-70884592D01*
X140974976Y-70660341D01*
X140976639Y-70590493D01*
X141015802Y-70532631D01*
X141080030Y-70505127D01*
X141095318Y-70504251D01*
X148456693Y-70538331D01*
X148523638Y-70558326D01*
X148569148Y-70611341D01*
X148578771Y-70680545D01*
X148575891Y-70694423D01*
X148524938Y-70884586D01*
X148524936Y-70884596D01*
X148504341Y-71119999D01*
X148504341Y-71120000D01*
X148524936Y-71355403D01*
X148524938Y-71355413D01*
X148586094Y-71583655D01*
X148586096Y-71583659D01*
X148586097Y-71583663D01*
X148590000Y-71592032D01*
X148685965Y-71797830D01*
X148685967Y-71797834D01*
X148794281Y-71952521D01*
X148821501Y-71991396D01*
X148821506Y-71991402D01*
X148988597Y-72158493D01*
X148988603Y-72158498D01*
X149174158Y-72288425D01*
X149217783Y-72343002D01*
X149224977Y-72412500D01*
X149193454Y-72474855D01*
X149174158Y-72491575D01*
X148988597Y-72621505D01*
X148821505Y-72788597D01*
X148685965Y-72982169D01*
X148685964Y-72982171D01*
X148586098Y-73196335D01*
X148586094Y-73196344D01*
X148524938Y-73424586D01*
X148524936Y-73424596D01*
X148504341Y-73659999D01*
X148504341Y-73660000D01*
X148524936Y-73895403D01*
X148524938Y-73895413D01*
X148586094Y-74123655D01*
X148586096Y-74123659D01*
X148586097Y-74123663D01*
X148590000Y-74132032D01*
X148685965Y-74337830D01*
X148685967Y-74337834D01*
X148794281Y-74492521D01*
X148821501Y-74531396D01*
X148821506Y-74531402D01*
X148988597Y-74698493D01*
X148988603Y-74698498D01*
X149174158Y-74828425D01*
X149217783Y-74883002D01*
X149224977Y-74952500D01*
X149193454Y-75014855D01*
X149174158Y-75031575D01*
X148988597Y-75161505D01*
X148821505Y-75328597D01*
X148685965Y-75522169D01*
X148685964Y-75522171D01*
X148586098Y-75736335D01*
X148586094Y-75736344D01*
X148524938Y-75964586D01*
X148524936Y-75964596D01*
X148504341Y-76199999D01*
X148504341Y-76200000D01*
X148524936Y-76435403D01*
X148524938Y-76435413D01*
X148586094Y-76663655D01*
X148586096Y-76663659D01*
X148586097Y-76663663D01*
X148590000Y-76672032D01*
X148685965Y-76877830D01*
X148685967Y-76877834D01*
X148794281Y-77032521D01*
X148821501Y-77071396D01*
X148821506Y-77071402D01*
X148988597Y-77238493D01*
X148988603Y-77238498D01*
X149174158Y-77368425D01*
X149217783Y-77423002D01*
X149224977Y-77492500D01*
X149193454Y-77554855D01*
X149174158Y-77571575D01*
X148988597Y-77701505D01*
X148821505Y-77868597D01*
X148685965Y-78062169D01*
X148685964Y-78062171D01*
X148586098Y-78276335D01*
X148586094Y-78276344D01*
X148524938Y-78504586D01*
X148524936Y-78504596D01*
X148504341Y-78739999D01*
X148504341Y-78740000D01*
X148524936Y-78975403D01*
X148524938Y-78975413D01*
X148586094Y-79203655D01*
X148586096Y-79203659D01*
X148586097Y-79203663D01*
X148590000Y-79212032D01*
X148685965Y-79417830D01*
X148685967Y-79417834D01*
X148794281Y-79572521D01*
X148821501Y-79611396D01*
X148821506Y-79611402D01*
X148988597Y-79778493D01*
X148988603Y-79778498D01*
X149174158Y-79908425D01*
X149217783Y-79963002D01*
X149224977Y-80032500D01*
X149193454Y-80094855D01*
X149174158Y-80111575D01*
X148988597Y-80241505D01*
X148821505Y-80408597D01*
X148685965Y-80602169D01*
X148685964Y-80602171D01*
X148586098Y-80816335D01*
X148586094Y-80816344D01*
X148524938Y-81044586D01*
X148524936Y-81044596D01*
X148504341Y-81279999D01*
X148504341Y-81280000D01*
X148524936Y-81515403D01*
X148524938Y-81515413D01*
X148586094Y-81743655D01*
X148586096Y-81743659D01*
X148586097Y-81743663D01*
X148590000Y-81752032D01*
X148685965Y-81957830D01*
X148685967Y-81957834D01*
X148794281Y-82112521D01*
X148821501Y-82151396D01*
X148821506Y-82151402D01*
X148988597Y-82318493D01*
X148988603Y-82318498D01*
X149174158Y-82448425D01*
X149217783Y-82503002D01*
X149224977Y-82572500D01*
X149193454Y-82634855D01*
X149174158Y-82651575D01*
X148988597Y-82781505D01*
X148821505Y-82948597D01*
X148685965Y-83142169D01*
X148685964Y-83142171D01*
X148586098Y-83356335D01*
X148586094Y-83356344D01*
X148524938Y-83584586D01*
X148524936Y-83584596D01*
X148504341Y-83819999D01*
X148504341Y-83820000D01*
X148524936Y-84055403D01*
X148524938Y-84055413D01*
X148586094Y-84283655D01*
X148586096Y-84283659D01*
X148586097Y-84283663D01*
X148590000Y-84292032D01*
X148685965Y-84497830D01*
X148685967Y-84497834D01*
X148794281Y-84652521D01*
X148821501Y-84691396D01*
X148821506Y-84691402D01*
X148988597Y-84858493D01*
X148988603Y-84858498D01*
X149174158Y-84988425D01*
X149217783Y-85043002D01*
X149224977Y-85112500D01*
X149193454Y-85174855D01*
X149174158Y-85191575D01*
X148988597Y-85321505D01*
X148821505Y-85488597D01*
X148685965Y-85682169D01*
X148685964Y-85682171D01*
X148586098Y-85896335D01*
X148586094Y-85896344D01*
X148524938Y-86124586D01*
X148524936Y-86124596D01*
X148504341Y-86359999D01*
X148504341Y-86360000D01*
X148524936Y-86595403D01*
X148524938Y-86595413D01*
X148586094Y-86823655D01*
X148586096Y-86823659D01*
X148586097Y-86823663D01*
X148590000Y-86832032D01*
X148685965Y-87037830D01*
X148685967Y-87037834D01*
X148794281Y-87192521D01*
X148821501Y-87231396D01*
X148821506Y-87231402D01*
X148988597Y-87398493D01*
X148988603Y-87398498D01*
X149174158Y-87528425D01*
X149217783Y-87583002D01*
X149224977Y-87652500D01*
X149193454Y-87714855D01*
X149174158Y-87731575D01*
X148988597Y-87861505D01*
X148821505Y-88028597D01*
X148685965Y-88222169D01*
X148685964Y-88222171D01*
X148586098Y-88436335D01*
X148586094Y-88436344D01*
X148524938Y-88664586D01*
X148524936Y-88664596D01*
X148504341Y-88899999D01*
X148504341Y-88900000D01*
X148524936Y-89135403D01*
X148524938Y-89135413D01*
X148586094Y-89363655D01*
X148586096Y-89363659D01*
X148586097Y-89363663D01*
X148590000Y-89372032D01*
X148685965Y-89577830D01*
X148685967Y-89577834D01*
X148794281Y-89732521D01*
X148821501Y-89771396D01*
X148821506Y-89771402D01*
X148988597Y-89938493D01*
X148988603Y-89938498D01*
X149174158Y-90068425D01*
X149217783Y-90123002D01*
X149224977Y-90192500D01*
X149193454Y-90254855D01*
X149174158Y-90271575D01*
X148988597Y-90401505D01*
X148821505Y-90568597D01*
X148685965Y-90762169D01*
X148685964Y-90762171D01*
X148586098Y-90976335D01*
X148586094Y-90976344D01*
X148524938Y-91204586D01*
X148524936Y-91204596D01*
X148504341Y-91439999D01*
X148504341Y-91440000D01*
X148524936Y-91675403D01*
X148524938Y-91675413D01*
X148586094Y-91903655D01*
X148586096Y-91903659D01*
X148586097Y-91903663D01*
X148590000Y-91912032D01*
X148685965Y-92117830D01*
X148685967Y-92117834D01*
X148794281Y-92272521D01*
X148821501Y-92311396D01*
X148821506Y-92311402D01*
X148988597Y-92478493D01*
X148988603Y-92478498D01*
X149174158Y-92608425D01*
X149217783Y-92663002D01*
X149224977Y-92732500D01*
X149193454Y-92794855D01*
X149174158Y-92811575D01*
X148988597Y-92941505D01*
X148821505Y-93108597D01*
X148685965Y-93302169D01*
X148685964Y-93302171D01*
X148586098Y-93516335D01*
X148586094Y-93516344D01*
X148524938Y-93744586D01*
X148524936Y-93744596D01*
X148504341Y-93979999D01*
X148504341Y-93980000D01*
X148524936Y-94215403D01*
X148524938Y-94215413D01*
X148586094Y-94443655D01*
X148586096Y-94443659D01*
X148586097Y-94443663D01*
X148590000Y-94452032D01*
X148685965Y-94657830D01*
X148685967Y-94657834D01*
X148794281Y-94812521D01*
X148821501Y-94851396D01*
X148821506Y-94851402D01*
X148988597Y-95018493D01*
X148988603Y-95018498D01*
X149174158Y-95148425D01*
X149217783Y-95203002D01*
X149224977Y-95272500D01*
X149193454Y-95334855D01*
X149174158Y-95351575D01*
X148988597Y-95481505D01*
X148821505Y-95648597D01*
X148685965Y-95842169D01*
X148685964Y-95842171D01*
X148586098Y-96056335D01*
X148586094Y-96056344D01*
X148524938Y-96284586D01*
X148524936Y-96284596D01*
X148504341Y-96519999D01*
X148504341Y-96520000D01*
X148524936Y-96755403D01*
X148524938Y-96755413D01*
X148586094Y-96983655D01*
X148586096Y-96983659D01*
X148586097Y-96983663D01*
X148590000Y-96992032D01*
X148685965Y-97197830D01*
X148685967Y-97197834D01*
X148794281Y-97352521D01*
X148821501Y-97391396D01*
X148821506Y-97391402D01*
X148988597Y-97558493D01*
X148988603Y-97558498D01*
X149174158Y-97688425D01*
X149217783Y-97743002D01*
X149224977Y-97812500D01*
X149193454Y-97874855D01*
X149174158Y-97891575D01*
X148988597Y-98021505D01*
X148821505Y-98188597D01*
X148685965Y-98382169D01*
X148685964Y-98382171D01*
X148586098Y-98596335D01*
X148586094Y-98596344D01*
X148524938Y-98824586D01*
X148524936Y-98824596D01*
X148504341Y-99059999D01*
X148504341Y-99060000D01*
X148524936Y-99295403D01*
X148524938Y-99295413D01*
X148586094Y-99523655D01*
X148586096Y-99523659D01*
X148586097Y-99523663D01*
X148590000Y-99532032D01*
X148685965Y-99737830D01*
X148685967Y-99737834D01*
X148794281Y-99892521D01*
X148821501Y-99931396D01*
X148821506Y-99931402D01*
X148988597Y-100098493D01*
X148988603Y-100098498D01*
X149174158Y-100228425D01*
X149217783Y-100283002D01*
X149224977Y-100352500D01*
X149193454Y-100414855D01*
X149174158Y-100431575D01*
X148988597Y-100561505D01*
X148821505Y-100728597D01*
X148685965Y-100922169D01*
X148685964Y-100922171D01*
X148586098Y-101136335D01*
X148586094Y-101136344D01*
X148524938Y-101364586D01*
X148524936Y-101364596D01*
X148504341Y-101599999D01*
X148504341Y-101600000D01*
X148524936Y-101835403D01*
X148524938Y-101835413D01*
X148586094Y-102063655D01*
X148586096Y-102063659D01*
X148586097Y-102063663D01*
X148590000Y-102072032D01*
X148685965Y-102277830D01*
X148685967Y-102277834D01*
X148794281Y-102432521D01*
X148821501Y-102471396D01*
X148821506Y-102471402D01*
X148988597Y-102638493D01*
X148988603Y-102638498D01*
X149174158Y-102768425D01*
X149217783Y-102823002D01*
X149224977Y-102892500D01*
X149193454Y-102954855D01*
X149174158Y-102971575D01*
X148988597Y-103101505D01*
X148821505Y-103268597D01*
X148685965Y-103462169D01*
X148685964Y-103462171D01*
X148586098Y-103676335D01*
X148586094Y-103676344D01*
X148524938Y-103904586D01*
X148524936Y-103904596D01*
X148504341Y-104139999D01*
X148504341Y-104140000D01*
X148524936Y-104375403D01*
X148524938Y-104375413D01*
X148586094Y-104603655D01*
X148586096Y-104603659D01*
X148586097Y-104603663D01*
X148590000Y-104612032D01*
X148685965Y-104817830D01*
X148685967Y-104817834D01*
X148794281Y-104972521D01*
X148821501Y-105011396D01*
X148821506Y-105011402D01*
X148988597Y-105178493D01*
X148988603Y-105178498D01*
X149174158Y-105308425D01*
X149217783Y-105363002D01*
X149224977Y-105432500D01*
X149193454Y-105494855D01*
X149174158Y-105511575D01*
X148988597Y-105641505D01*
X148821505Y-105808597D01*
X148685965Y-106002169D01*
X148685964Y-106002171D01*
X148586098Y-106216335D01*
X148586094Y-106216344D01*
X148524938Y-106444586D01*
X148524936Y-106444596D01*
X148504341Y-106679999D01*
X148504341Y-106680000D01*
X148524936Y-106915403D01*
X148524938Y-106915413D01*
X148586094Y-107143655D01*
X148586096Y-107143659D01*
X148586097Y-107143663D01*
X148590000Y-107152032D01*
X148685965Y-107357830D01*
X148685967Y-107357834D01*
X148794281Y-107512521D01*
X148821501Y-107551396D01*
X148821506Y-107551402D01*
X148988597Y-107718493D01*
X148988603Y-107718498D01*
X149174158Y-107848425D01*
X149217783Y-107903002D01*
X149224977Y-107972500D01*
X149193454Y-108034855D01*
X149174158Y-108051575D01*
X148988597Y-108181505D01*
X148821505Y-108348597D01*
X148685965Y-108542169D01*
X148685964Y-108542171D01*
X148586098Y-108756335D01*
X148586094Y-108756344D01*
X148524938Y-108984586D01*
X148524936Y-108984596D01*
X148504341Y-109219999D01*
X148504341Y-109220000D01*
X148524936Y-109455403D01*
X148524938Y-109455413D01*
X148586094Y-109683655D01*
X148586096Y-109683659D01*
X148586097Y-109683663D01*
X148669155Y-109861781D01*
X148685965Y-109897830D01*
X148685967Y-109897834D01*
X148794281Y-110052521D01*
X148821501Y-110091396D01*
X148821506Y-110091402D01*
X148988597Y-110258493D01*
X148988603Y-110258498D01*
X149174158Y-110388425D01*
X149217783Y-110443002D01*
X149224977Y-110512500D01*
X149193454Y-110574855D01*
X149174158Y-110591575D01*
X148988597Y-110721505D01*
X148821505Y-110888597D01*
X148685965Y-111082169D01*
X148685964Y-111082171D01*
X148586098Y-111296335D01*
X148586094Y-111296344D01*
X148524938Y-111524586D01*
X148524936Y-111524596D01*
X148504341Y-111759999D01*
X148504341Y-111760000D01*
X148524936Y-111995403D01*
X148524938Y-111995413D01*
X148586094Y-112223655D01*
X148586096Y-112223659D01*
X148586097Y-112223663D01*
X148669155Y-112401781D01*
X148685965Y-112437830D01*
X148685967Y-112437834D01*
X148794281Y-112592521D01*
X148821501Y-112631396D01*
X148821506Y-112631402D01*
X148988597Y-112798493D01*
X148988603Y-112798498D01*
X149174158Y-112928425D01*
X149217783Y-112983002D01*
X149224977Y-113052500D01*
X149193454Y-113114855D01*
X149174158Y-113131575D01*
X148988597Y-113261505D01*
X148821505Y-113428597D01*
X148685965Y-113622169D01*
X148685964Y-113622171D01*
X148586098Y-113836335D01*
X148586094Y-113836344D01*
X148524938Y-114064586D01*
X148524936Y-114064596D01*
X148504341Y-114299999D01*
X148504341Y-114300000D01*
X148524936Y-114535403D01*
X148524938Y-114535413D01*
X148586094Y-114763655D01*
X148586096Y-114763659D01*
X148586097Y-114763663D01*
X148669155Y-114941781D01*
X148685965Y-114977830D01*
X148685967Y-114977834D01*
X148794281Y-115132521D01*
X148821505Y-115171401D01*
X148988599Y-115338495D01*
X149085384Y-115406265D01*
X149182165Y-115474032D01*
X149182167Y-115474033D01*
X149182170Y-115474035D01*
X149396337Y-115573903D01*
X149624592Y-115635063D01*
X149795319Y-115650000D01*
X149859999Y-115655659D01*
X149860000Y-115655659D01*
X149860001Y-115655659D01*
X149924681Y-115650000D01*
X150095408Y-115635063D01*
X150323663Y-115573903D01*
X150537830Y-115474035D01*
X150731401Y-115338495D01*
X150898495Y-115171401D01*
X151028730Y-114985405D01*
X151083307Y-114941781D01*
X151152805Y-114934587D01*
X151215160Y-114966110D01*
X151231879Y-114985405D01*
X151361890Y-115171078D01*
X151528917Y-115338105D01*
X151722421Y-115473600D01*
X151936507Y-115573429D01*
X151936516Y-115573433D01*
X152150000Y-115630634D01*
X152150000Y-114733012D01*
X152207007Y-114765925D01*
X152334174Y-114800000D01*
X152465826Y-114800000D01*
X152592993Y-114765925D01*
X152650000Y-114733012D01*
X152650000Y-115630633D01*
X152863483Y-115573433D01*
X152863492Y-115573429D01*
X153077578Y-115473600D01*
X153271082Y-115338105D01*
X153438105Y-115171082D01*
X153573600Y-114977578D01*
X153673429Y-114763492D01*
X153673432Y-114763486D01*
X153730636Y-114550000D01*
X152833012Y-114550000D01*
X152865925Y-114492993D01*
X152900000Y-114365826D01*
X152900000Y-114234174D01*
X152865925Y-114107007D01*
X152833012Y-114050000D01*
X153730636Y-114050000D01*
X153730635Y-114049999D01*
X153673432Y-113836513D01*
X153673429Y-113836507D01*
X153573600Y-113622422D01*
X153573599Y-113622420D01*
X153438113Y-113428926D01*
X153438108Y-113428920D01*
X153271082Y-113261894D01*
X153084968Y-113131575D01*
X153041344Y-113076998D01*
X153034151Y-113007499D01*
X153065673Y-112945145D01*
X153084968Y-112928425D01*
X153271082Y-112798105D01*
X153438105Y-112631082D01*
X153573600Y-112437578D01*
X153673429Y-112223492D01*
X153673432Y-112223486D01*
X153730636Y-112010000D01*
X152833012Y-112010000D01*
X152865925Y-111952993D01*
X152900000Y-111825826D01*
X152900000Y-111694174D01*
X152865925Y-111567007D01*
X152833012Y-111510000D01*
X153730636Y-111510000D01*
X153730635Y-111509999D01*
X153673432Y-111296513D01*
X153673429Y-111296507D01*
X153573600Y-111082422D01*
X153573599Y-111082420D01*
X153438113Y-110888926D01*
X153438108Y-110888920D01*
X153271082Y-110721894D01*
X153084968Y-110591575D01*
X153041344Y-110536998D01*
X153034151Y-110467499D01*
X153065673Y-110405145D01*
X153084968Y-110388425D01*
X153271082Y-110258105D01*
X153438105Y-110091082D01*
X153573600Y-109897578D01*
X153673429Y-109683492D01*
X153673432Y-109683486D01*
X153730636Y-109470000D01*
X152833012Y-109470000D01*
X152865925Y-109412993D01*
X152900000Y-109285826D01*
X152900000Y-109154174D01*
X152865925Y-109027007D01*
X152833012Y-108970000D01*
X153730636Y-108970000D01*
X153730635Y-108969999D01*
X153673432Y-108756513D01*
X153673429Y-108756507D01*
X153573600Y-108542422D01*
X153573599Y-108542420D01*
X153438113Y-108348926D01*
X153438108Y-108348920D01*
X153271078Y-108181890D01*
X153085405Y-108051879D01*
X153041780Y-107997302D01*
X153034588Y-107927804D01*
X153066110Y-107865449D01*
X153085406Y-107848730D01*
X153085842Y-107848425D01*
X153271401Y-107718495D01*
X153438495Y-107551401D01*
X153574035Y-107357830D01*
X153673903Y-107143663D01*
X153735063Y-106915408D01*
X153755659Y-106680000D01*
X153735063Y-106444592D01*
X153673903Y-106216337D01*
X153574035Y-106002171D01*
X153568425Y-105994158D01*
X153438494Y-105808597D01*
X153271402Y-105641506D01*
X153271396Y-105641501D01*
X153085842Y-105511575D01*
X153042217Y-105456998D01*
X153035023Y-105387500D01*
X153066546Y-105325145D01*
X153085842Y-105308425D01*
X153108026Y-105292891D01*
X153271401Y-105178495D01*
X153438495Y-105011401D01*
X153574035Y-104817830D01*
X153673903Y-104603663D01*
X153735063Y-104375408D01*
X153755659Y-104140000D01*
X153735063Y-103904592D01*
X153673903Y-103676337D01*
X153574035Y-103462171D01*
X153568425Y-103454158D01*
X153438494Y-103268597D01*
X153271402Y-103101506D01*
X153271396Y-103101501D01*
X153085842Y-102971575D01*
X153042217Y-102916998D01*
X153035023Y-102847500D01*
X153066546Y-102785145D01*
X153085842Y-102768425D01*
X153108026Y-102752891D01*
X153271401Y-102638495D01*
X153438495Y-102471401D01*
X153574035Y-102277830D01*
X153673903Y-102063663D01*
X153735063Y-101835408D01*
X153755659Y-101600000D01*
X153735063Y-101364592D01*
X153673903Y-101136337D01*
X153574035Y-100922171D01*
X153568425Y-100914158D01*
X153438494Y-100728597D01*
X153271402Y-100561506D01*
X153271396Y-100561501D01*
X153085842Y-100431575D01*
X153042217Y-100376998D01*
X153035023Y-100307500D01*
X153066546Y-100245145D01*
X153085842Y-100228425D01*
X153108026Y-100212891D01*
X153271401Y-100098495D01*
X153438495Y-99931401D01*
X153574035Y-99737830D01*
X153673903Y-99523663D01*
X153735063Y-99295408D01*
X153755659Y-99060000D01*
X153735063Y-98824592D01*
X153673903Y-98596337D01*
X153574035Y-98382171D01*
X153568425Y-98374158D01*
X153438494Y-98188597D01*
X153271402Y-98021506D01*
X153271396Y-98021501D01*
X153085842Y-97891575D01*
X153042217Y-97836998D01*
X153035023Y-97767500D01*
X153066546Y-97705145D01*
X153085842Y-97688425D01*
X153108026Y-97672891D01*
X153271401Y-97558495D01*
X153438495Y-97391401D01*
X153574035Y-97197830D01*
X153673903Y-96983663D01*
X153735063Y-96755408D01*
X153755659Y-96520000D01*
X153735063Y-96284592D01*
X153673903Y-96056337D01*
X153574035Y-95842171D01*
X153568425Y-95834158D01*
X153438494Y-95648597D01*
X153271402Y-95481506D01*
X153271396Y-95481501D01*
X153085842Y-95351575D01*
X153042217Y-95296998D01*
X153035023Y-95227500D01*
X153066546Y-95165145D01*
X153085842Y-95148425D01*
X153108026Y-95132891D01*
X153271401Y-95018495D01*
X153438495Y-94851401D01*
X153574035Y-94657830D01*
X153673903Y-94443663D01*
X153735063Y-94215408D01*
X153755659Y-93980000D01*
X153735063Y-93744592D01*
X153673903Y-93516337D01*
X153574035Y-93302171D01*
X153568425Y-93294158D01*
X153438494Y-93108597D01*
X153271402Y-92941506D01*
X153271396Y-92941501D01*
X153085842Y-92811575D01*
X153042217Y-92756998D01*
X153035023Y-92687500D01*
X153066546Y-92625145D01*
X153085842Y-92608425D01*
X153108026Y-92592891D01*
X153271401Y-92478495D01*
X153438495Y-92311401D01*
X153574035Y-92117830D01*
X153673903Y-91903663D01*
X153735063Y-91675408D01*
X153755659Y-91440000D01*
X153735063Y-91204592D01*
X153673903Y-90976337D01*
X153574035Y-90762171D01*
X153568425Y-90754158D01*
X153438494Y-90568597D01*
X153271402Y-90401506D01*
X153271396Y-90401501D01*
X153085842Y-90271575D01*
X153042217Y-90216998D01*
X153035023Y-90147500D01*
X153066546Y-90085145D01*
X153085842Y-90068425D01*
X153108026Y-90052891D01*
X153271401Y-89938495D01*
X153438495Y-89771401D01*
X153574035Y-89577830D01*
X153673903Y-89363663D01*
X153735063Y-89135408D01*
X153755659Y-88900000D01*
X153735063Y-88664592D01*
X153673903Y-88436337D01*
X153574035Y-88222171D01*
X153568425Y-88214158D01*
X153438494Y-88028597D01*
X153271402Y-87861506D01*
X153271396Y-87861501D01*
X153085842Y-87731575D01*
X153042217Y-87676998D01*
X153035023Y-87607500D01*
X153066546Y-87545145D01*
X153085842Y-87528425D01*
X153108026Y-87512891D01*
X153271401Y-87398495D01*
X153438495Y-87231401D01*
X153574035Y-87037830D01*
X153673903Y-86823663D01*
X153735063Y-86595408D01*
X153755659Y-86360000D01*
X153735063Y-86124592D01*
X153673903Y-85896337D01*
X153574035Y-85682171D01*
X153568425Y-85674158D01*
X153438494Y-85488597D01*
X153271402Y-85321506D01*
X153271396Y-85321501D01*
X153085842Y-85191575D01*
X153042217Y-85136998D01*
X153035023Y-85067500D01*
X153066546Y-85005145D01*
X153085842Y-84988425D01*
X153108026Y-84972891D01*
X153271401Y-84858495D01*
X153438495Y-84691401D01*
X153574035Y-84497830D01*
X153673903Y-84283663D01*
X153735063Y-84055408D01*
X153755659Y-83820000D01*
X153735063Y-83584592D01*
X153673903Y-83356337D01*
X153574035Y-83142171D01*
X153568425Y-83134158D01*
X153438494Y-82948597D01*
X153271402Y-82781506D01*
X153271396Y-82781501D01*
X153085842Y-82651575D01*
X153042217Y-82596998D01*
X153035023Y-82527500D01*
X153066546Y-82465145D01*
X153085842Y-82448425D01*
X153108026Y-82432891D01*
X153271401Y-82318495D01*
X153438495Y-82151401D01*
X153574035Y-81957830D01*
X153673903Y-81743663D01*
X153735063Y-81515408D01*
X153755659Y-81280000D01*
X153735063Y-81044592D01*
X153673903Y-80816337D01*
X153574035Y-80602171D01*
X153568425Y-80594158D01*
X153438494Y-80408597D01*
X153271402Y-80241506D01*
X153271396Y-80241501D01*
X153085842Y-80111575D01*
X153042217Y-80056998D01*
X153035023Y-79987500D01*
X153066546Y-79925145D01*
X153085842Y-79908425D01*
X153108026Y-79892891D01*
X153271401Y-79778495D01*
X153438495Y-79611401D01*
X153574035Y-79417830D01*
X153673903Y-79203663D01*
X153735063Y-78975408D01*
X153755659Y-78740000D01*
X153735063Y-78504592D01*
X153673903Y-78276337D01*
X153574035Y-78062171D01*
X153568425Y-78054158D01*
X153438494Y-77868597D01*
X153271402Y-77701506D01*
X153271396Y-77701501D01*
X153085842Y-77571575D01*
X153042217Y-77516998D01*
X153035023Y-77447500D01*
X153066546Y-77385145D01*
X153085842Y-77368425D01*
X153108026Y-77352891D01*
X153271401Y-77238495D01*
X153438495Y-77071401D01*
X153574035Y-76877830D01*
X153673903Y-76663663D01*
X153735063Y-76435408D01*
X153755659Y-76200000D01*
X153735063Y-75964592D01*
X153673903Y-75736337D01*
X153574035Y-75522171D01*
X153568425Y-75514158D01*
X153438494Y-75328597D01*
X153271402Y-75161506D01*
X153271396Y-75161501D01*
X153085842Y-75031575D01*
X153042217Y-74976998D01*
X153035023Y-74907500D01*
X153066546Y-74845145D01*
X153085842Y-74828425D01*
X153108026Y-74812891D01*
X153271401Y-74698495D01*
X153438495Y-74531401D01*
X153574035Y-74337830D01*
X153673903Y-74123663D01*
X153735063Y-73895408D01*
X153755659Y-73660000D01*
X153735063Y-73424592D01*
X153673903Y-73196337D01*
X153574035Y-72982171D01*
X153568425Y-72974158D01*
X153438494Y-72788597D01*
X153271402Y-72621506D01*
X153271396Y-72621501D01*
X153085842Y-72491575D01*
X153042217Y-72436998D01*
X153035023Y-72367500D01*
X153066546Y-72305145D01*
X153085842Y-72288425D01*
X153108026Y-72272891D01*
X153271401Y-72158495D01*
X153438495Y-71991401D01*
X153574035Y-71797830D01*
X153673903Y-71583663D01*
X153735063Y-71355408D01*
X153755659Y-71120000D01*
X153735063Y-70884592D01*
X153690750Y-70719211D01*
X153692413Y-70649362D01*
X153731576Y-70591500D01*
X153795804Y-70563996D01*
X153811095Y-70563120D01*
X161140958Y-70597054D01*
X161207904Y-70617049D01*
X161253414Y-70670064D01*
X161263037Y-70739268D01*
X161260157Y-70753146D01*
X161224938Y-70884586D01*
X161224936Y-70884596D01*
X161204341Y-71119999D01*
X161204341Y-71120000D01*
X161224936Y-71355403D01*
X161224938Y-71355413D01*
X161286094Y-71583655D01*
X161286096Y-71583659D01*
X161286097Y-71583663D01*
X161290000Y-71592032D01*
X161385965Y-71797830D01*
X161385967Y-71797834D01*
X161494281Y-71952521D01*
X161521501Y-71991396D01*
X161521506Y-71991402D01*
X161688597Y-72158493D01*
X161688603Y-72158498D01*
X161874158Y-72288425D01*
X161917783Y-72343002D01*
X161924977Y-72412500D01*
X161893454Y-72474855D01*
X161874158Y-72491575D01*
X161688597Y-72621505D01*
X161521505Y-72788597D01*
X161385965Y-72982169D01*
X161385964Y-72982171D01*
X161286098Y-73196335D01*
X161286094Y-73196344D01*
X161224938Y-73424586D01*
X161224936Y-73424596D01*
X161204341Y-73659999D01*
X161204341Y-73660000D01*
X161224936Y-73895403D01*
X161224938Y-73895413D01*
X161286094Y-74123655D01*
X161286096Y-74123659D01*
X161286097Y-74123663D01*
X161290000Y-74132032D01*
X161385965Y-74337830D01*
X161385967Y-74337834D01*
X161494281Y-74492521D01*
X161521501Y-74531396D01*
X161521506Y-74531402D01*
X161688597Y-74698493D01*
X161688603Y-74698498D01*
X161874158Y-74828425D01*
X161917783Y-74883002D01*
X161924977Y-74952500D01*
X161893454Y-75014855D01*
X161874158Y-75031575D01*
X161688597Y-75161505D01*
X161521505Y-75328597D01*
X161385965Y-75522169D01*
X161385964Y-75522171D01*
X161286098Y-75736335D01*
X161286094Y-75736344D01*
X161224938Y-75964586D01*
X161224936Y-75964596D01*
X161204341Y-76199999D01*
X161204341Y-76200000D01*
X161224936Y-76435403D01*
X161224938Y-76435413D01*
X161286094Y-76663655D01*
X161286096Y-76663659D01*
X161286097Y-76663663D01*
X161290000Y-76672032D01*
X161385965Y-76877830D01*
X161385967Y-76877834D01*
X161494281Y-77032521D01*
X161521501Y-77071396D01*
X161521506Y-77071402D01*
X161688597Y-77238493D01*
X161688603Y-77238498D01*
X161874158Y-77368425D01*
X161917783Y-77423002D01*
X161924977Y-77492500D01*
X161893454Y-77554855D01*
X161874158Y-77571575D01*
X161688597Y-77701505D01*
X161521505Y-77868597D01*
X161385965Y-78062169D01*
X161385964Y-78062171D01*
X161286098Y-78276335D01*
X161286094Y-78276344D01*
X161224938Y-78504586D01*
X161224936Y-78504596D01*
X161204341Y-78739999D01*
X161204341Y-78740000D01*
X161224936Y-78975403D01*
X161224938Y-78975413D01*
X161286094Y-79203655D01*
X161286096Y-79203659D01*
X161286097Y-79203663D01*
X161290000Y-79212032D01*
X161385965Y-79417830D01*
X161385967Y-79417834D01*
X161494281Y-79572521D01*
X161521501Y-79611396D01*
X161521506Y-79611402D01*
X161688597Y-79778493D01*
X161688603Y-79778498D01*
X161874158Y-79908425D01*
X161917783Y-79963002D01*
X161924977Y-80032500D01*
X161893454Y-80094855D01*
X161874158Y-80111575D01*
X161688597Y-80241505D01*
X161521505Y-80408597D01*
X161385965Y-80602169D01*
X161385964Y-80602171D01*
X161286098Y-80816335D01*
X161286094Y-80816344D01*
X161224938Y-81044586D01*
X161224936Y-81044596D01*
X161204341Y-81279999D01*
X161204341Y-81280000D01*
X161224936Y-81515403D01*
X161224938Y-81515413D01*
X161286094Y-81743655D01*
X161286096Y-81743659D01*
X161286097Y-81743663D01*
X161290000Y-81752032D01*
X161385965Y-81957830D01*
X161385967Y-81957834D01*
X161494281Y-82112521D01*
X161521501Y-82151396D01*
X161521506Y-82151402D01*
X161688597Y-82318493D01*
X161688603Y-82318498D01*
X161874158Y-82448425D01*
X161917783Y-82503002D01*
X161924977Y-82572500D01*
X161893454Y-82634855D01*
X161874158Y-82651575D01*
X161688597Y-82781505D01*
X161521505Y-82948597D01*
X161385965Y-83142169D01*
X161385964Y-83142171D01*
X161286098Y-83356335D01*
X161286094Y-83356344D01*
X161224938Y-83584586D01*
X161224936Y-83584596D01*
X161204341Y-83819999D01*
X161204341Y-83820000D01*
X161224936Y-84055403D01*
X161224938Y-84055413D01*
X161286094Y-84283655D01*
X161286096Y-84283659D01*
X161286097Y-84283663D01*
X161290000Y-84292032D01*
X161385965Y-84497830D01*
X161385967Y-84497834D01*
X161494281Y-84652521D01*
X161521501Y-84691396D01*
X161521506Y-84691402D01*
X161688597Y-84858493D01*
X161688603Y-84858498D01*
X161874158Y-84988425D01*
X161917783Y-85043002D01*
X161924977Y-85112500D01*
X161893454Y-85174855D01*
X161874158Y-85191575D01*
X161688597Y-85321505D01*
X161521505Y-85488597D01*
X161385965Y-85682169D01*
X161385964Y-85682171D01*
X161286098Y-85896335D01*
X161286094Y-85896344D01*
X161224938Y-86124586D01*
X161224936Y-86124596D01*
X161204341Y-86359999D01*
X161204341Y-86360000D01*
X161224936Y-86595403D01*
X161224938Y-86595413D01*
X161286094Y-86823655D01*
X161286096Y-86823659D01*
X161286097Y-86823663D01*
X161290000Y-86832032D01*
X161385965Y-87037830D01*
X161385967Y-87037834D01*
X161494281Y-87192521D01*
X161521501Y-87231396D01*
X161521506Y-87231402D01*
X161688597Y-87398493D01*
X161688603Y-87398498D01*
X161874158Y-87528425D01*
X161917783Y-87583002D01*
X161924977Y-87652500D01*
X161893454Y-87714855D01*
X161874158Y-87731575D01*
X161688597Y-87861505D01*
X161521505Y-88028597D01*
X161385965Y-88222169D01*
X161385964Y-88222171D01*
X161286098Y-88436335D01*
X161286094Y-88436344D01*
X161224938Y-88664586D01*
X161224936Y-88664596D01*
X161204341Y-88899999D01*
X161204341Y-88900000D01*
X161224936Y-89135403D01*
X161224938Y-89135413D01*
X161286094Y-89363655D01*
X161286096Y-89363659D01*
X161286097Y-89363663D01*
X161290000Y-89372032D01*
X161385965Y-89577830D01*
X161385967Y-89577834D01*
X161494281Y-89732521D01*
X161521501Y-89771396D01*
X161521506Y-89771402D01*
X161688597Y-89938493D01*
X161688603Y-89938498D01*
X161874158Y-90068425D01*
X161917783Y-90123002D01*
X161924977Y-90192500D01*
X161893454Y-90254855D01*
X161874158Y-90271575D01*
X161688597Y-90401505D01*
X161521505Y-90568597D01*
X161385965Y-90762169D01*
X161385964Y-90762171D01*
X161286098Y-90976335D01*
X161286094Y-90976344D01*
X161224938Y-91204586D01*
X161224936Y-91204596D01*
X161204341Y-91439999D01*
X161204341Y-91440000D01*
X161224936Y-91675403D01*
X161224938Y-91675413D01*
X161286094Y-91903655D01*
X161286096Y-91903659D01*
X161286097Y-91903663D01*
X161290000Y-91912032D01*
X161385965Y-92117830D01*
X161385967Y-92117834D01*
X161494281Y-92272521D01*
X161521501Y-92311396D01*
X161521506Y-92311402D01*
X161688597Y-92478493D01*
X161688603Y-92478498D01*
X161874158Y-92608425D01*
X161917783Y-92663002D01*
X161924977Y-92732500D01*
X161893454Y-92794855D01*
X161874158Y-92811575D01*
X161688597Y-92941505D01*
X161521505Y-93108597D01*
X161385965Y-93302169D01*
X161385964Y-93302171D01*
X161286098Y-93516335D01*
X161286094Y-93516344D01*
X161224938Y-93744586D01*
X161224936Y-93744596D01*
X161204341Y-93979999D01*
X161204341Y-93980000D01*
X161224936Y-94215403D01*
X161224938Y-94215413D01*
X161286094Y-94443655D01*
X161286096Y-94443659D01*
X161286097Y-94443663D01*
X161290000Y-94452032D01*
X161385965Y-94657830D01*
X161385967Y-94657834D01*
X161494281Y-94812521D01*
X161521501Y-94851396D01*
X161521506Y-94851402D01*
X161688597Y-95018493D01*
X161688603Y-95018498D01*
X161874158Y-95148425D01*
X161917783Y-95203002D01*
X161924977Y-95272500D01*
X161893454Y-95334855D01*
X161874158Y-95351575D01*
X161688597Y-95481505D01*
X161521505Y-95648597D01*
X161385965Y-95842169D01*
X161385964Y-95842171D01*
X161286098Y-96056335D01*
X161286094Y-96056344D01*
X161224938Y-96284586D01*
X161224936Y-96284596D01*
X161204341Y-96519999D01*
X161204341Y-96520000D01*
X161224936Y-96755403D01*
X161224938Y-96755413D01*
X161286094Y-96983655D01*
X161286096Y-96983659D01*
X161286097Y-96983663D01*
X161290000Y-96992032D01*
X161385965Y-97197830D01*
X161385967Y-97197834D01*
X161494281Y-97352521D01*
X161521501Y-97391396D01*
X161521506Y-97391402D01*
X161688597Y-97558493D01*
X161688603Y-97558498D01*
X161874158Y-97688425D01*
X161917783Y-97743002D01*
X161924977Y-97812500D01*
X161893454Y-97874855D01*
X161874158Y-97891575D01*
X161688597Y-98021505D01*
X161521505Y-98188597D01*
X161385965Y-98382169D01*
X161385964Y-98382171D01*
X161286098Y-98596335D01*
X161286094Y-98596344D01*
X161224938Y-98824586D01*
X161224936Y-98824596D01*
X161204341Y-99059999D01*
X161204341Y-99060000D01*
X161224936Y-99295403D01*
X161224938Y-99295413D01*
X161286094Y-99523655D01*
X161286096Y-99523659D01*
X161286097Y-99523663D01*
X161290000Y-99532032D01*
X161385965Y-99737830D01*
X161385967Y-99737834D01*
X161494281Y-99892521D01*
X161521501Y-99931396D01*
X161521506Y-99931402D01*
X161688597Y-100098493D01*
X161688603Y-100098498D01*
X161874158Y-100228425D01*
X161917783Y-100283002D01*
X161924977Y-100352500D01*
X161893454Y-100414855D01*
X161874158Y-100431575D01*
X161688597Y-100561505D01*
X161521505Y-100728597D01*
X161385965Y-100922169D01*
X161385964Y-100922171D01*
X161286098Y-101136335D01*
X161286094Y-101136344D01*
X161224938Y-101364586D01*
X161224936Y-101364596D01*
X161204341Y-101599999D01*
X161204341Y-101600000D01*
X161224936Y-101835403D01*
X161224938Y-101835413D01*
X161286094Y-102063655D01*
X161286096Y-102063659D01*
X161286097Y-102063663D01*
X161290000Y-102072032D01*
X161385965Y-102277830D01*
X161385967Y-102277834D01*
X161494281Y-102432521D01*
X161521501Y-102471396D01*
X161521506Y-102471402D01*
X161688597Y-102638493D01*
X161688603Y-102638498D01*
X161874158Y-102768425D01*
X161917783Y-102823002D01*
X161924977Y-102892500D01*
X161893454Y-102954855D01*
X161874158Y-102971575D01*
X161688597Y-103101505D01*
X161521505Y-103268597D01*
X161385965Y-103462169D01*
X161385964Y-103462171D01*
X161286098Y-103676335D01*
X161286094Y-103676344D01*
X161224938Y-103904586D01*
X161224936Y-103904596D01*
X161204341Y-104139999D01*
X161204341Y-104140000D01*
X161224936Y-104375403D01*
X161224938Y-104375413D01*
X161286094Y-104603655D01*
X161286096Y-104603659D01*
X161286097Y-104603663D01*
X161290000Y-104612032D01*
X161385965Y-104817830D01*
X161385967Y-104817834D01*
X161494281Y-104972521D01*
X161521501Y-105011396D01*
X161521506Y-105011402D01*
X161688597Y-105178493D01*
X161688603Y-105178498D01*
X161874158Y-105308425D01*
X161917783Y-105363002D01*
X161924977Y-105432500D01*
X161893454Y-105494855D01*
X161874158Y-105511575D01*
X161688597Y-105641505D01*
X161521505Y-105808597D01*
X161385965Y-106002169D01*
X161385964Y-106002171D01*
X161286098Y-106216335D01*
X161286094Y-106216344D01*
X161224938Y-106444586D01*
X161224936Y-106444596D01*
X161204341Y-106679999D01*
X161204341Y-106680000D01*
X161224936Y-106915403D01*
X161224938Y-106915413D01*
X161286094Y-107143655D01*
X161286096Y-107143659D01*
X161286097Y-107143663D01*
X161290000Y-107152032D01*
X161385965Y-107357830D01*
X161385967Y-107357834D01*
X161494281Y-107512521D01*
X161521501Y-107551396D01*
X161521506Y-107551402D01*
X161688597Y-107718493D01*
X161688603Y-107718498D01*
X161874158Y-107848425D01*
X161917783Y-107903002D01*
X161924977Y-107972500D01*
X161893454Y-108034855D01*
X161874158Y-108051575D01*
X161688597Y-108181505D01*
X161521505Y-108348597D01*
X161385965Y-108542169D01*
X161385964Y-108542171D01*
X161286098Y-108756335D01*
X161286094Y-108756344D01*
X161224938Y-108984586D01*
X161224936Y-108984596D01*
X161204341Y-109219999D01*
X161204341Y-109220000D01*
X161224936Y-109455403D01*
X161224938Y-109455413D01*
X161286094Y-109683655D01*
X161286096Y-109683659D01*
X161286097Y-109683663D01*
X161369155Y-109861781D01*
X161385965Y-109897830D01*
X161385967Y-109897834D01*
X161494281Y-110052521D01*
X161521501Y-110091396D01*
X161521506Y-110091402D01*
X161688597Y-110258493D01*
X161688603Y-110258498D01*
X161874158Y-110388425D01*
X161917783Y-110443002D01*
X161924977Y-110512500D01*
X161893454Y-110574855D01*
X161874158Y-110591575D01*
X161688597Y-110721505D01*
X161521505Y-110888597D01*
X161385965Y-111082169D01*
X161385964Y-111082171D01*
X161286098Y-111296335D01*
X161286094Y-111296344D01*
X161224938Y-111524586D01*
X161224936Y-111524596D01*
X161204341Y-111759999D01*
X161204341Y-111760000D01*
X161224936Y-111995403D01*
X161224938Y-111995413D01*
X161286094Y-112223655D01*
X161286096Y-112223659D01*
X161286097Y-112223663D01*
X161369155Y-112401781D01*
X161385965Y-112437830D01*
X161385967Y-112437834D01*
X161494281Y-112592521D01*
X161521501Y-112631396D01*
X161521506Y-112631402D01*
X161688597Y-112798493D01*
X161688603Y-112798498D01*
X161874158Y-112928425D01*
X161917783Y-112983002D01*
X161924977Y-113052500D01*
X161893454Y-113114855D01*
X161874158Y-113131575D01*
X161688597Y-113261505D01*
X161521505Y-113428597D01*
X161385965Y-113622169D01*
X161385964Y-113622171D01*
X161286098Y-113836335D01*
X161286094Y-113836344D01*
X161224938Y-114064586D01*
X161224936Y-114064596D01*
X161204341Y-114299999D01*
X161204341Y-114300000D01*
X161224936Y-114535403D01*
X161224938Y-114535413D01*
X161286094Y-114763655D01*
X161286096Y-114763659D01*
X161286097Y-114763663D01*
X161369155Y-114941781D01*
X161385965Y-114977830D01*
X161385967Y-114977834D01*
X161494281Y-115132521D01*
X161521505Y-115171401D01*
X161688599Y-115338495D01*
X161785384Y-115406265D01*
X161882165Y-115474032D01*
X161882167Y-115474033D01*
X161882170Y-115474035D01*
X162096337Y-115573903D01*
X162324592Y-115635063D01*
X162495319Y-115650000D01*
X162559999Y-115655659D01*
X162560000Y-115655659D01*
X162560001Y-115655659D01*
X162624681Y-115650000D01*
X162795408Y-115635063D01*
X163023663Y-115573903D01*
X163237830Y-115474035D01*
X163431401Y-115338495D01*
X163598495Y-115171401D01*
X163728730Y-114985405D01*
X163783307Y-114941781D01*
X163852805Y-114934587D01*
X163915160Y-114966110D01*
X163931879Y-114985405D01*
X164061890Y-115171078D01*
X164228917Y-115338105D01*
X164422421Y-115473600D01*
X164636507Y-115573429D01*
X164636516Y-115573433D01*
X164850000Y-115630634D01*
X164850000Y-114733012D01*
X164907007Y-114765925D01*
X165034174Y-114800000D01*
X165165826Y-114800000D01*
X165292993Y-114765925D01*
X165350000Y-114733012D01*
X165350000Y-115630633D01*
X165563483Y-115573433D01*
X165563492Y-115573429D01*
X165777578Y-115473600D01*
X165971082Y-115338105D01*
X166138105Y-115171082D01*
X166273600Y-114977578D01*
X166373429Y-114763492D01*
X166373432Y-114763486D01*
X166430636Y-114550000D01*
X165533012Y-114550000D01*
X165565925Y-114492993D01*
X165600000Y-114365826D01*
X165600000Y-114234174D01*
X165565925Y-114107007D01*
X165533012Y-114050000D01*
X166430636Y-114050000D01*
X166430635Y-114049999D01*
X166373432Y-113836513D01*
X166373429Y-113836507D01*
X166273600Y-113622422D01*
X166273599Y-113622420D01*
X166138113Y-113428926D01*
X166138108Y-113428920D01*
X165971082Y-113261894D01*
X165784968Y-113131575D01*
X165741344Y-113076998D01*
X165734151Y-113007499D01*
X165765673Y-112945145D01*
X165784968Y-112928425D01*
X165971082Y-112798105D01*
X166138105Y-112631082D01*
X166273600Y-112437578D01*
X166373429Y-112223492D01*
X166373432Y-112223486D01*
X166430636Y-112010000D01*
X165533012Y-112010000D01*
X165565925Y-111952993D01*
X165600000Y-111825826D01*
X165600000Y-111694174D01*
X165565925Y-111567007D01*
X165533012Y-111510000D01*
X166430636Y-111510000D01*
X166430635Y-111509999D01*
X166373432Y-111296513D01*
X166373429Y-111296507D01*
X166273600Y-111082422D01*
X166273599Y-111082420D01*
X166138113Y-110888926D01*
X166138108Y-110888920D01*
X165971082Y-110721894D01*
X165784968Y-110591575D01*
X165741344Y-110536998D01*
X165734151Y-110467499D01*
X165765673Y-110405145D01*
X165784968Y-110388425D01*
X165971082Y-110258105D01*
X166138105Y-110091082D01*
X166273600Y-109897578D01*
X166373429Y-109683492D01*
X166373432Y-109683486D01*
X166430636Y-109470000D01*
X165533012Y-109470000D01*
X165565925Y-109412993D01*
X165600000Y-109285826D01*
X165600000Y-109154174D01*
X165565925Y-109027007D01*
X165533012Y-108970000D01*
X166430636Y-108970000D01*
X166430635Y-108969999D01*
X166373432Y-108756513D01*
X166373429Y-108756507D01*
X166273600Y-108542422D01*
X166273599Y-108542420D01*
X166138113Y-108348926D01*
X166138108Y-108348920D01*
X165971078Y-108181890D01*
X165785405Y-108051879D01*
X165741780Y-107997302D01*
X165734588Y-107927804D01*
X165766110Y-107865449D01*
X165785406Y-107848730D01*
X165785842Y-107848425D01*
X165971401Y-107718495D01*
X166138495Y-107551401D01*
X166274035Y-107357830D01*
X166373903Y-107143663D01*
X166435063Y-106915408D01*
X166455659Y-106680000D01*
X166435063Y-106444592D01*
X166373903Y-106216337D01*
X166274035Y-106002171D01*
X166268425Y-105994158D01*
X166138494Y-105808597D01*
X165971402Y-105641506D01*
X165971396Y-105641501D01*
X165785842Y-105511575D01*
X165742217Y-105456998D01*
X165735023Y-105387500D01*
X165766546Y-105325145D01*
X165785842Y-105308425D01*
X165808026Y-105292891D01*
X165971401Y-105178495D01*
X166138495Y-105011401D01*
X166274035Y-104817830D01*
X166373903Y-104603663D01*
X166435063Y-104375408D01*
X166455659Y-104140000D01*
X166435063Y-103904592D01*
X166373903Y-103676337D01*
X166274035Y-103462171D01*
X166268425Y-103454158D01*
X166138494Y-103268597D01*
X165971402Y-103101506D01*
X165971396Y-103101501D01*
X165785842Y-102971575D01*
X165742217Y-102916998D01*
X165735023Y-102847500D01*
X165766546Y-102785145D01*
X165785842Y-102768425D01*
X165808026Y-102752891D01*
X165971401Y-102638495D01*
X166138495Y-102471401D01*
X166274035Y-102277830D01*
X166373903Y-102063663D01*
X166435063Y-101835408D01*
X166455659Y-101600000D01*
X166435063Y-101364592D01*
X166373903Y-101136337D01*
X166274035Y-100922171D01*
X166268425Y-100914158D01*
X166138494Y-100728597D01*
X165971402Y-100561506D01*
X165971396Y-100561501D01*
X165785842Y-100431575D01*
X165742217Y-100376998D01*
X165735023Y-100307500D01*
X165766546Y-100245145D01*
X165785842Y-100228425D01*
X165808026Y-100212891D01*
X165971401Y-100098495D01*
X166138495Y-99931401D01*
X166274035Y-99737830D01*
X166373903Y-99523663D01*
X166435063Y-99295408D01*
X166455659Y-99060000D01*
X166435063Y-98824592D01*
X166373903Y-98596337D01*
X166274035Y-98382171D01*
X166268425Y-98374158D01*
X166138494Y-98188597D01*
X165971402Y-98021506D01*
X165971396Y-98021501D01*
X165785842Y-97891575D01*
X165742217Y-97836998D01*
X165735023Y-97767500D01*
X165766546Y-97705145D01*
X165785842Y-97688425D01*
X165808026Y-97672891D01*
X165971401Y-97558495D01*
X166138495Y-97391401D01*
X166274035Y-97197830D01*
X166373903Y-96983663D01*
X166435063Y-96755408D01*
X166455659Y-96520000D01*
X166435063Y-96284592D01*
X166373903Y-96056337D01*
X166274035Y-95842171D01*
X166268425Y-95834158D01*
X166138494Y-95648597D01*
X165971402Y-95481506D01*
X165971396Y-95481501D01*
X165785842Y-95351575D01*
X165742217Y-95296998D01*
X165735023Y-95227500D01*
X165766546Y-95165145D01*
X165785842Y-95148425D01*
X165808026Y-95132891D01*
X165971401Y-95018495D01*
X166138495Y-94851401D01*
X166274035Y-94657830D01*
X166373903Y-94443663D01*
X166435063Y-94215408D01*
X166455659Y-93980000D01*
X166435063Y-93744592D01*
X166373903Y-93516337D01*
X166274035Y-93302171D01*
X166268425Y-93294158D01*
X166138494Y-93108597D01*
X165971402Y-92941506D01*
X165971396Y-92941501D01*
X165785842Y-92811575D01*
X165742217Y-92756998D01*
X165735023Y-92687500D01*
X165766546Y-92625145D01*
X165785842Y-92608425D01*
X165808026Y-92592891D01*
X165971401Y-92478495D01*
X166138495Y-92311401D01*
X166274035Y-92117830D01*
X166373903Y-91903663D01*
X166435063Y-91675408D01*
X166455659Y-91440000D01*
X166435063Y-91204592D01*
X166373903Y-90976337D01*
X166274035Y-90762171D01*
X166268425Y-90754158D01*
X166138494Y-90568597D01*
X165971402Y-90401506D01*
X165971396Y-90401501D01*
X165785842Y-90271575D01*
X165742217Y-90216998D01*
X165735023Y-90147500D01*
X165766546Y-90085145D01*
X165785842Y-90068425D01*
X165808026Y-90052891D01*
X165971401Y-89938495D01*
X166138495Y-89771401D01*
X166274035Y-89577830D01*
X166373903Y-89363663D01*
X166435063Y-89135408D01*
X166455659Y-88900000D01*
X166435063Y-88664592D01*
X166373903Y-88436337D01*
X166274035Y-88222171D01*
X166268425Y-88214158D01*
X166138494Y-88028597D01*
X165971402Y-87861506D01*
X165971396Y-87861501D01*
X165785842Y-87731575D01*
X165742217Y-87676998D01*
X165735023Y-87607500D01*
X165766546Y-87545145D01*
X165785842Y-87528425D01*
X165808026Y-87512891D01*
X165971401Y-87398495D01*
X166138495Y-87231401D01*
X166274035Y-87037830D01*
X166373903Y-86823663D01*
X166435063Y-86595408D01*
X166455659Y-86360000D01*
X166435063Y-86124592D01*
X166373903Y-85896337D01*
X166274035Y-85682171D01*
X166268425Y-85674158D01*
X166138494Y-85488597D01*
X165971402Y-85321506D01*
X165971396Y-85321501D01*
X165785842Y-85191575D01*
X165742217Y-85136998D01*
X165735023Y-85067500D01*
X165766546Y-85005145D01*
X165785842Y-84988425D01*
X165808026Y-84972891D01*
X165971401Y-84858495D01*
X166138495Y-84691401D01*
X166274035Y-84497830D01*
X166373903Y-84283663D01*
X166435063Y-84055408D01*
X166455659Y-83820000D01*
X166435063Y-83584592D01*
X166373903Y-83356337D01*
X166274035Y-83142171D01*
X166268425Y-83134158D01*
X166138494Y-82948597D01*
X165971402Y-82781506D01*
X165971396Y-82781501D01*
X165785842Y-82651575D01*
X165742217Y-82596998D01*
X165735023Y-82527500D01*
X165766546Y-82465145D01*
X165785842Y-82448425D01*
X165808026Y-82432891D01*
X165971401Y-82318495D01*
X166138495Y-82151401D01*
X166274035Y-81957830D01*
X166373903Y-81743663D01*
X166435063Y-81515408D01*
X166455659Y-81280000D01*
X166435063Y-81044592D01*
X166373903Y-80816337D01*
X166274035Y-80602171D01*
X166268425Y-80594158D01*
X166138494Y-80408597D01*
X165971402Y-80241506D01*
X165971396Y-80241501D01*
X165785842Y-80111575D01*
X165742217Y-80056998D01*
X165735023Y-79987500D01*
X165766546Y-79925145D01*
X165785842Y-79908425D01*
X165808026Y-79892891D01*
X165971401Y-79778495D01*
X166138495Y-79611401D01*
X166274035Y-79417830D01*
X166373903Y-79203663D01*
X166435063Y-78975408D01*
X166455659Y-78740000D01*
X166435063Y-78504592D01*
X166373903Y-78276337D01*
X166274035Y-78062171D01*
X166268425Y-78054158D01*
X166138494Y-77868597D01*
X165971402Y-77701506D01*
X165971396Y-77701501D01*
X165785842Y-77571575D01*
X165742217Y-77516998D01*
X165735023Y-77447500D01*
X165766546Y-77385145D01*
X165785842Y-77368425D01*
X165808026Y-77352891D01*
X165971401Y-77238495D01*
X166138495Y-77071401D01*
X166274035Y-76877830D01*
X166373903Y-76663663D01*
X166435063Y-76435408D01*
X166455659Y-76200000D01*
X166435063Y-75964592D01*
X166373903Y-75736337D01*
X166274035Y-75522171D01*
X166268425Y-75514158D01*
X166138494Y-75328597D01*
X165971402Y-75161506D01*
X165971396Y-75161501D01*
X165785842Y-75031575D01*
X165742217Y-74976998D01*
X165735023Y-74907500D01*
X165766546Y-74845145D01*
X165785842Y-74828425D01*
X165808026Y-74812891D01*
X165971401Y-74698495D01*
X166138495Y-74531401D01*
X166274035Y-74337830D01*
X166373903Y-74123663D01*
X166435063Y-73895408D01*
X166455659Y-73660000D01*
X166435063Y-73424592D01*
X166373903Y-73196337D01*
X166274035Y-72982171D01*
X166268425Y-72974158D01*
X166138494Y-72788597D01*
X165971402Y-72621506D01*
X165971396Y-72621501D01*
X165785842Y-72491575D01*
X165742217Y-72436998D01*
X165735023Y-72367500D01*
X165766546Y-72305145D01*
X165785842Y-72288425D01*
X165808026Y-72272891D01*
X165971401Y-72158495D01*
X166138495Y-71991401D01*
X166274035Y-71797830D01*
X166373903Y-71583663D01*
X166435063Y-71355408D01*
X166455659Y-71120000D01*
X166435063Y-70884592D01*
X166384108Y-70694423D01*
X166373905Y-70656344D01*
X166373904Y-70656343D01*
X166373903Y-70656337D01*
X166274035Y-70442171D01*
X166238447Y-70391345D01*
X166138494Y-70248597D01*
X165971402Y-70081506D01*
X165971396Y-70081501D01*
X165785842Y-69951575D01*
X165742217Y-69896998D01*
X165735023Y-69827500D01*
X165766546Y-69765145D01*
X165785842Y-69748425D01*
X165882423Y-69680798D01*
X165971401Y-69618495D01*
X166138495Y-69451401D01*
X166274035Y-69257830D01*
X166373903Y-69043663D01*
X166435063Y-68815408D01*
X166455659Y-68580000D01*
X166435063Y-68344592D01*
X166373903Y-68116337D01*
X166274035Y-67902171D01*
X166161395Y-67741303D01*
X166138494Y-67708597D01*
X165971402Y-67541506D01*
X165971401Y-67541505D01*
X165785405Y-67411269D01*
X165741781Y-67356692D01*
X165734588Y-67287193D01*
X165766110Y-67224839D01*
X165785405Y-67208119D01*
X165971082Y-67078105D01*
X166138105Y-66911082D01*
X166273600Y-66717578D01*
X166373429Y-66503492D01*
X166373432Y-66503486D01*
X166430636Y-66290000D01*
X165533012Y-66290000D01*
X165565925Y-66232993D01*
X165600000Y-66105826D01*
X165600000Y-65974174D01*
X165565925Y-65847007D01*
X165533012Y-65790000D01*
X166430636Y-65790000D01*
X166430635Y-65789999D01*
X166373432Y-65576513D01*
X166373429Y-65576507D01*
X166273600Y-65362422D01*
X166273599Y-65362420D01*
X166138113Y-65168926D01*
X166138108Y-65168920D01*
X165971082Y-65001894D01*
X165777578Y-64866399D01*
X165563492Y-64766570D01*
X165563486Y-64766567D01*
X165350000Y-64709364D01*
X165350000Y-65606988D01*
X165292993Y-65574075D01*
X165165826Y-65540000D01*
X165034174Y-65540000D01*
X164907007Y-65574075D01*
X164850000Y-65606988D01*
X164850000Y-64709364D01*
X164849999Y-64709364D01*
X164636513Y-64766567D01*
X164636507Y-64766570D01*
X164422422Y-64866399D01*
X164422420Y-64866400D01*
X164228926Y-65001886D01*
X164106865Y-65123947D01*
X164045542Y-65157431D01*
X163975850Y-65152447D01*
X163919917Y-65110575D01*
X163903002Y-65079598D01*
X163853797Y-64947671D01*
X163853793Y-64947664D01*
X163767547Y-64832455D01*
X163767544Y-64832452D01*
X163652335Y-64746206D01*
X163652328Y-64746202D01*
X163517482Y-64695908D01*
X163517483Y-64695908D01*
X163457883Y-64689501D01*
X163457881Y-64689500D01*
X163457873Y-64689500D01*
X163457864Y-64689500D01*
X161662129Y-64689500D01*
X161662123Y-64689501D01*
X161602516Y-64695908D01*
X161467671Y-64746202D01*
X161467664Y-64746206D01*
X161352455Y-64832452D01*
X161352452Y-64832455D01*
X161266206Y-64947664D01*
X161266202Y-64947671D01*
X161215908Y-65082517D01*
X161209501Y-65142116D01*
X161209500Y-65142135D01*
X161209500Y-66541373D01*
X161189815Y-66608412D01*
X161137011Y-66654167D01*
X161084926Y-66665372D01*
X153800117Y-66631645D01*
X153733169Y-66611650D01*
X153687659Y-66558635D01*
X153678036Y-66489431D01*
X153680916Y-66475552D01*
X153730636Y-66290000D01*
X152833012Y-66290000D01*
X152865925Y-66232993D01*
X152900000Y-66105826D01*
X152900000Y-65974174D01*
X152865925Y-65847007D01*
X152833012Y-65790000D01*
X153730636Y-65790000D01*
X153730635Y-65789999D01*
X153673432Y-65576513D01*
X153673429Y-65576507D01*
X153573600Y-65362422D01*
X153573599Y-65362420D01*
X153438113Y-65168926D01*
X153438108Y-65168920D01*
X153271082Y-65001894D01*
X153077578Y-64866399D01*
X152863492Y-64766570D01*
X152863486Y-64766567D01*
X152650000Y-64709364D01*
X152650000Y-65606988D01*
X152592993Y-65574075D01*
X152465826Y-65540000D01*
X152334174Y-65540000D01*
X152207007Y-65574075D01*
X152150000Y-65606988D01*
X152150000Y-64709364D01*
X152149999Y-64709364D01*
X151936513Y-64766567D01*
X151936507Y-64766570D01*
X151722422Y-64866399D01*
X151722420Y-64866400D01*
X151528926Y-65001886D01*
X151406865Y-65123947D01*
X151345542Y-65157431D01*
X151275850Y-65152447D01*
X151219917Y-65110575D01*
X151203002Y-65079598D01*
X151153797Y-64947671D01*
X151153793Y-64947664D01*
X151067547Y-64832455D01*
X151067544Y-64832452D01*
X150952335Y-64746206D01*
X150952328Y-64746202D01*
X150817482Y-64695908D01*
X150817483Y-64695908D01*
X150757883Y-64689501D01*
X150757881Y-64689500D01*
X150757873Y-64689500D01*
X150757864Y-64689500D01*
X148962129Y-64689500D01*
X148962123Y-64689501D01*
X148902516Y-64695908D01*
X148767671Y-64746202D01*
X148767664Y-64746206D01*
X148652455Y-64832452D01*
X148652452Y-64832455D01*
X148566206Y-64947664D01*
X148566202Y-64947671D01*
X148515908Y-65082517D01*
X148509501Y-65142116D01*
X148509500Y-65142135D01*
X148509500Y-66482577D01*
X148489815Y-66549616D01*
X148437011Y-66595371D01*
X148384926Y-66606576D01*
X141115852Y-66572922D01*
X141048904Y-66552927D01*
X141003394Y-66499912D01*
X140993771Y-66430708D01*
X140996651Y-66416829D01*
X141030636Y-66290000D01*
X140133012Y-66290000D01*
X140165925Y-66232993D01*
X140200000Y-66105826D01*
X140200000Y-65974174D01*
X140165925Y-65847007D01*
X140133012Y-65790000D01*
X141030636Y-65790000D01*
X141030635Y-65789999D01*
X140973432Y-65576513D01*
X140973429Y-65576507D01*
X140873600Y-65362422D01*
X140873599Y-65362420D01*
X140738113Y-65168926D01*
X140738108Y-65168920D01*
X140571082Y-65001894D01*
X140377578Y-64866399D01*
X140163492Y-64766570D01*
X140163486Y-64766567D01*
X139950000Y-64709364D01*
X139950000Y-65606988D01*
X139892993Y-65574075D01*
X139765826Y-65540000D01*
X139634174Y-65540000D01*
X139507007Y-65574075D01*
X139450000Y-65606988D01*
X139450000Y-64709364D01*
X139449999Y-64709364D01*
X139236513Y-64766567D01*
X139236507Y-64766570D01*
X139022422Y-64866399D01*
X139022420Y-64866400D01*
X138828926Y-65001886D01*
X138706865Y-65123947D01*
X138645542Y-65157431D01*
X138575850Y-65152447D01*
X138519917Y-65110575D01*
X138503002Y-65079598D01*
X138453797Y-64947671D01*
X138453793Y-64947664D01*
X138367547Y-64832455D01*
X138367544Y-64832452D01*
X138252335Y-64746206D01*
X138252328Y-64746202D01*
X138117482Y-64695908D01*
X138117483Y-64695908D01*
X138057883Y-64689501D01*
X138057881Y-64689500D01*
X138057873Y-64689500D01*
X138057864Y-64689500D01*
X136262129Y-64689500D01*
X136262123Y-64689501D01*
X136202516Y-64695908D01*
X136067671Y-64746202D01*
X136067664Y-64746206D01*
X135952455Y-64832452D01*
X135952452Y-64832455D01*
X135866206Y-64947664D01*
X135866202Y-64947671D01*
X135815908Y-65082517D01*
X135809501Y-65142116D01*
X135809500Y-65142135D01*
X135809500Y-66937870D01*
X135809501Y-66937879D01*
X135811287Y-66954491D01*
X135807481Y-67000902D01*
X135790107Y-67063506D01*
X135786453Y-67077442D01*
X135786450Y-67077463D01*
X135772180Y-67220614D01*
X135772180Y-67220626D01*
X135772180Y-67220627D01*
X135001500Y-67220627D01*
X135001500Y-62787706D01*
X135001618Y-62782298D01*
X135005764Y-62687328D01*
X135014254Y-62492870D01*
X147239500Y-62492870D01*
X147239501Y-62492876D01*
X147245908Y-62552483D01*
X147296202Y-62687328D01*
X147296206Y-62687335D01*
X147382452Y-62802544D01*
X147382455Y-62802547D01*
X147497664Y-62888793D01*
X147497671Y-62888797D01*
X147632517Y-62939091D01*
X147632516Y-62939091D01*
X147639444Y-62939835D01*
X147692127Y-62945500D01*
X149487872Y-62945499D01*
X149547483Y-62939091D01*
X149682331Y-62888796D01*
X149797546Y-62802546D01*
X149883796Y-62687331D01*
X149932810Y-62555916D01*
X149974681Y-62499984D01*
X150040145Y-62475566D01*
X150108418Y-62490417D01*
X150136673Y-62511569D01*
X150258599Y-62633495D01*
X150355384Y-62701265D01*
X150452165Y-62769032D01*
X150452167Y-62769033D01*
X150452170Y-62769035D01*
X150666337Y-62868903D01*
X150894592Y-62930063D01*
X151071034Y-62945500D01*
X151129999Y-62950659D01*
X151130000Y-62950659D01*
X151130001Y-62950659D01*
X151188966Y-62945500D01*
X151365408Y-62930063D01*
X151593663Y-62868903D01*
X151807830Y-62769035D01*
X152001401Y-62633495D01*
X152168495Y-62466401D01*
X152298730Y-62280405D01*
X152353307Y-62236781D01*
X152422805Y-62229587D01*
X152485160Y-62261110D01*
X152501879Y-62280405D01*
X152631890Y-62466078D01*
X152798917Y-62633105D01*
X152992421Y-62768600D01*
X153206507Y-62868429D01*
X153206516Y-62868433D01*
X153420000Y-62925634D01*
X153420000Y-62028012D01*
X153477007Y-62060925D01*
X153604174Y-62095000D01*
X153735826Y-62095000D01*
X153862993Y-62060925D01*
X153920000Y-62028012D01*
X153920000Y-62925633D01*
X154133483Y-62868433D01*
X154133492Y-62868429D01*
X154347578Y-62768600D01*
X154541082Y-62633105D01*
X154708105Y-62466082D01*
X154843600Y-62272578D01*
X154943429Y-62058492D01*
X154943432Y-62058486D01*
X155000636Y-61845000D01*
X154103012Y-61845000D01*
X154135925Y-61787993D01*
X154170000Y-61660826D01*
X154170000Y-61529174D01*
X154135925Y-61402007D01*
X154103012Y-61345000D01*
X155000636Y-61345000D01*
X155000635Y-61344999D01*
X154943432Y-61131513D01*
X154943429Y-61131507D01*
X154843600Y-60917422D01*
X154843599Y-60917420D01*
X154708113Y-60723926D01*
X154708108Y-60723920D01*
X154541082Y-60556894D01*
X154347578Y-60421399D01*
X154133492Y-60321570D01*
X154133486Y-60321567D01*
X153920000Y-60264364D01*
X153920000Y-61161988D01*
X153862993Y-61129075D01*
X153735826Y-61095000D01*
X153604174Y-61095000D01*
X153477007Y-61129075D01*
X153420000Y-61161988D01*
X153420000Y-60264364D01*
X153419999Y-60264364D01*
X153206513Y-60321567D01*
X153206507Y-60321570D01*
X152992422Y-60421399D01*
X152992420Y-60421400D01*
X152798926Y-60556886D01*
X152798920Y-60556891D01*
X152631891Y-60723920D01*
X152631890Y-60723922D01*
X152501880Y-60909595D01*
X152447303Y-60953219D01*
X152377804Y-60960412D01*
X152315450Y-60928890D01*
X152298730Y-60909594D01*
X152168494Y-60723597D01*
X152001402Y-60556506D01*
X152001395Y-60556501D01*
X151807834Y-60420967D01*
X151807830Y-60420965D01*
X151807828Y-60420964D01*
X151593663Y-60321097D01*
X151593659Y-60321096D01*
X151593655Y-60321094D01*
X151365413Y-60259938D01*
X151365403Y-60259936D01*
X151130001Y-60239341D01*
X151129999Y-60239341D01*
X150894596Y-60259936D01*
X150894586Y-60259938D01*
X150666344Y-60321094D01*
X150666335Y-60321098D01*
X150452171Y-60420964D01*
X150452169Y-60420965D01*
X150258600Y-60556503D01*
X150136673Y-60678430D01*
X150075350Y-60711914D01*
X150005658Y-60706930D01*
X149949725Y-60665058D01*
X149932810Y-60634081D01*
X149883797Y-60502671D01*
X149883793Y-60502664D01*
X149797547Y-60387455D01*
X149797544Y-60387452D01*
X149682335Y-60301206D01*
X149682328Y-60301202D01*
X149547482Y-60250908D01*
X149547483Y-60250908D01*
X149487883Y-60244501D01*
X149487881Y-60244500D01*
X149487873Y-60244500D01*
X149487864Y-60244500D01*
X147692129Y-60244500D01*
X147692123Y-60244501D01*
X147632516Y-60250908D01*
X147497671Y-60301202D01*
X147497664Y-60301206D01*
X147382455Y-60387452D01*
X147382452Y-60387455D01*
X147296206Y-60502664D01*
X147296202Y-60502671D01*
X147245908Y-60637517D01*
X147239501Y-60697116D01*
X147239500Y-60697135D01*
X147239500Y-62492870D01*
X135014254Y-62492870D01*
X135019805Y-62365719D01*
X135020745Y-62354986D01*
X135074819Y-61944253D01*
X135076691Y-61933634D01*
X135166359Y-61529165D01*
X135169146Y-61518765D01*
X135293727Y-61123645D01*
X135297411Y-61113524D01*
X135455950Y-60730776D01*
X135460508Y-60721002D01*
X135651805Y-60353524D01*
X135657187Y-60344203D01*
X135879776Y-59994809D01*
X135885967Y-59985966D01*
X136138161Y-59657299D01*
X136145099Y-59649031D01*
X136424974Y-59343602D01*
X136432602Y-59335974D01*
X136738031Y-59056099D01*
X136746299Y-59049161D01*
X137074966Y-58796967D01*
X137083809Y-58790776D01*
X137433203Y-58568187D01*
X137442524Y-58562805D01*
X137810002Y-58371508D01*
X137819776Y-58366950D01*
X138202524Y-58208411D01*
X138212645Y-58204727D01*
X138607765Y-58080146D01*
X138618165Y-58077359D01*
X139022634Y-57987691D01*
X139033253Y-57985819D01*
X139443986Y-57931745D01*
X139454719Y-57930805D01*
X139858206Y-57913189D01*
X139871298Y-57912618D01*
X139876706Y-57912500D01*
X139903101Y-57912500D01*
X162356899Y-57912500D01*
X162383294Y-57912500D01*
X162388702Y-57912618D01*
G37*
%TD.AperFunction*%
%TD*%
%TA.AperFunction,Conductor*%
%TO.N,+5V*%
G36*
X139453538Y-67070733D02*
G01*
X139482262Y-67075062D01*
X139493439Y-67078453D01*
X139700000Y-67098798D01*
X139906561Y-67078453D01*
X139910304Y-67077317D01*
X139939970Y-67072985D01*
X163607125Y-67182556D01*
X163666166Y-67202043D01*
X163702478Y-67252511D01*
X163707164Y-67278785D01*
X163746930Y-68193395D01*
X163730304Y-68253305D01*
X163681639Y-68292001D01*
X163619523Y-68294701D01*
X163567683Y-68260376D01*
X163550157Y-68226967D01*
X163534770Y-68176242D01*
X163534767Y-68176235D01*
X163437272Y-67993834D01*
X163437267Y-67993828D01*
X163306055Y-67833945D01*
X163306054Y-67833944D01*
X163146171Y-67702732D01*
X163146168Y-67702729D01*
X163060000Y-67656671D01*
X163060000Y-68514174D01*
X163025925Y-68387007D01*
X162960099Y-68272993D01*
X162867007Y-68179901D01*
X162752993Y-68114075D01*
X162625826Y-68080000D01*
X162494174Y-68080000D01*
X162367007Y-68114075D01*
X162252993Y-68179901D01*
X162159901Y-68272993D01*
X162094075Y-68387007D01*
X162060000Y-68514174D01*
X162060000Y-68645826D01*
X162094075Y-68772993D01*
X162159901Y-68887007D01*
X162252993Y-68980099D01*
X162367007Y-69045925D01*
X162494174Y-69080000D01*
X162625826Y-69080000D01*
X162752993Y-69045925D01*
X162867007Y-68980099D01*
X162960099Y-68887007D01*
X163025925Y-68772993D01*
X163060000Y-68645826D01*
X163060000Y-69503326D01*
X163146172Y-69457267D01*
X163306054Y-69326055D01*
X163306055Y-69326054D01*
X163437267Y-69166171D01*
X163437272Y-69166165D01*
X163534767Y-68983764D01*
X163534770Y-68983757D01*
X163579228Y-68837197D01*
X163614778Y-68786189D01*
X163673520Y-68765818D01*
X163733017Y-68783866D01*
X163770543Y-68833439D01*
X163776001Y-68862029D01*
X163825414Y-69998542D01*
X163808788Y-70058452D01*
X163760123Y-70097148D01*
X163724443Y-70103511D01*
X162839926Y-70099415D01*
X162811190Y-70095085D01*
X162766561Y-70081547D01*
X162560000Y-70061202D01*
X162353439Y-70081547D01*
X162353436Y-70081547D01*
X162353434Y-70081548D01*
X162317233Y-70092528D01*
X162287568Y-70096858D01*
X136493874Y-69977443D01*
X136434833Y-69957956D01*
X136398521Y-69907488D01*
X136393835Y-69881214D01*
X136377844Y-69513415D01*
X136394469Y-69453510D01*
X136443134Y-69414814D01*
X136505250Y-69412114D01*
X136542168Y-69431285D01*
X136573827Y-69457267D01*
X136660000Y-69503326D01*
X136660000Y-68645826D01*
X136694075Y-68772993D01*
X136759901Y-68887007D01*
X136852993Y-68980099D01*
X136967007Y-69045925D01*
X137094174Y-69080000D01*
X137225826Y-69080000D01*
X137660000Y-69080000D01*
X137660000Y-69503326D01*
X137746172Y-69457267D01*
X137906054Y-69326055D01*
X137906055Y-69326054D01*
X138037267Y-69166171D01*
X138037270Y-69166168D01*
X138083328Y-69080000D01*
X137660000Y-69080000D01*
X137225826Y-69080000D01*
X137352993Y-69045925D01*
X137467007Y-68980099D01*
X137560099Y-68887007D01*
X137625925Y-68772993D01*
X137660000Y-68645826D01*
X137660000Y-68580000D01*
X138641202Y-68580000D01*
X138661547Y-68786561D01*
X138661547Y-68786563D01*
X138661548Y-68786566D01*
X138721795Y-68985179D01*
X138721798Y-68985186D01*
X138819637Y-69168230D01*
X138819642Y-69168237D01*
X138951316Y-69328682D01*
X138951317Y-69328683D01*
X139111762Y-69460357D01*
X139111769Y-69460362D01*
X139294813Y-69558201D01*
X139294820Y-69558204D01*
X139456458Y-69607235D01*
X139493439Y-69618453D01*
X139700000Y-69638798D01*
X139906561Y-69618453D01*
X140005872Y-69588327D01*
X140105179Y-69558204D01*
X140105186Y-69558201D01*
X140288230Y-69460362D01*
X140288231Y-69460360D01*
X140288237Y-69460358D01*
X140448683Y-69328683D01*
X140580358Y-69168237D01*
X140581463Y-69166171D01*
X140627522Y-69080000D01*
X148936672Y-69080000D01*
X148982729Y-69166168D01*
X148982732Y-69166171D01*
X149113944Y-69326054D01*
X149113945Y-69326055D01*
X149273828Y-69457267D01*
X149273827Y-69457267D01*
X149360000Y-69503326D01*
X149360000Y-69080000D01*
X148936672Y-69080000D01*
X140627522Y-69080000D01*
X140678201Y-68985186D01*
X140678204Y-68985179D01*
X140738451Y-68786566D01*
X140738453Y-68786561D01*
X140752315Y-68645826D01*
X149360000Y-68645826D01*
X149394075Y-68772993D01*
X149459901Y-68887007D01*
X149552993Y-68980099D01*
X149667007Y-69045925D01*
X149794174Y-69080000D01*
X149925826Y-69080000D01*
X150360000Y-69080000D01*
X150360000Y-69503326D01*
X150446172Y-69457267D01*
X150606054Y-69326055D01*
X150606055Y-69326054D01*
X150737267Y-69166171D01*
X150737270Y-69166168D01*
X150783328Y-69080000D01*
X150360000Y-69080000D01*
X149925826Y-69080000D01*
X150052993Y-69045925D01*
X150167007Y-68980099D01*
X150260099Y-68887007D01*
X150325925Y-68772993D01*
X150360000Y-68645826D01*
X150360000Y-68580000D01*
X151341202Y-68580000D01*
X151361547Y-68786561D01*
X151361547Y-68786563D01*
X151361548Y-68786566D01*
X151421795Y-68985179D01*
X151421798Y-68985186D01*
X151519637Y-69168230D01*
X151519642Y-69168237D01*
X151651316Y-69328682D01*
X151651317Y-69328683D01*
X151811762Y-69460357D01*
X151811769Y-69460362D01*
X151994813Y-69558201D01*
X151994820Y-69558204D01*
X152156458Y-69607235D01*
X152193439Y-69618453D01*
X152400000Y-69638798D01*
X152606561Y-69618453D01*
X152705872Y-69588327D01*
X152805179Y-69558204D01*
X152805186Y-69558201D01*
X152988230Y-69460362D01*
X152988231Y-69460360D01*
X152988237Y-69460358D01*
X153148683Y-69328683D01*
X153280358Y-69168237D01*
X153281463Y-69166171D01*
X153327522Y-69080000D01*
X161636672Y-69080000D01*
X161682729Y-69166168D01*
X161682732Y-69166171D01*
X161813944Y-69326054D01*
X161813945Y-69326055D01*
X161973828Y-69457267D01*
X161973827Y-69457267D01*
X162060000Y-69503326D01*
X162060000Y-69080000D01*
X161636672Y-69080000D01*
X153327522Y-69080000D01*
X153378201Y-68985186D01*
X153378204Y-68985179D01*
X153438451Y-68786566D01*
X153438453Y-68786561D01*
X153458798Y-68580000D01*
X153438453Y-68373439D01*
X153427235Y-68336458D01*
X153378204Y-68174820D01*
X153378201Y-68174813D01*
X153327522Y-68079999D01*
X161636671Y-68079999D01*
X161636672Y-68080000D01*
X162060000Y-68080000D01*
X162060000Y-67656671D01*
X162059999Y-67656671D01*
X161973831Y-67702729D01*
X161973828Y-67702732D01*
X161813945Y-67833944D01*
X161813944Y-67833945D01*
X161682732Y-67993828D01*
X161682729Y-67993831D01*
X161636671Y-68079999D01*
X153327522Y-68079999D01*
X153280362Y-67991769D01*
X153280357Y-67991762D01*
X153148683Y-67831317D01*
X153148682Y-67831316D01*
X152988237Y-67699642D01*
X152988230Y-67699637D01*
X152805186Y-67601798D01*
X152805179Y-67601795D01*
X152606566Y-67541548D01*
X152606563Y-67541547D01*
X152606561Y-67541547D01*
X152400000Y-67521202D01*
X152193439Y-67541547D01*
X152193437Y-67541547D01*
X152193433Y-67541548D01*
X151994820Y-67601795D01*
X151994813Y-67601798D01*
X151811769Y-67699637D01*
X151811762Y-67699642D01*
X151651317Y-67831316D01*
X151651316Y-67831317D01*
X151519642Y-67991762D01*
X151519637Y-67991769D01*
X151421798Y-68174813D01*
X151421795Y-68174820D01*
X151361548Y-68373433D01*
X151361547Y-68373437D01*
X151361547Y-68373439D01*
X151341202Y-68580000D01*
X150360000Y-68580000D01*
X150360000Y-68514174D01*
X150325925Y-68387007D01*
X150260099Y-68272993D01*
X150167007Y-68179901D01*
X150052993Y-68114075D01*
X149925826Y-68080000D01*
X149794174Y-68080000D01*
X149667007Y-68114075D01*
X149552993Y-68179901D01*
X149459901Y-68272993D01*
X149394075Y-68387007D01*
X149360000Y-68514174D01*
X149360000Y-68645826D01*
X140752315Y-68645826D01*
X140758798Y-68580000D01*
X140738453Y-68373439D01*
X140727235Y-68336458D01*
X140678204Y-68174820D01*
X140678201Y-68174813D01*
X140627522Y-68079999D01*
X148936671Y-68079999D01*
X148936672Y-68080000D01*
X149360000Y-68080000D01*
X149360000Y-67656671D01*
X150360000Y-67656671D01*
X150360000Y-68080000D01*
X150783328Y-68080000D01*
X150783328Y-68079999D01*
X150737270Y-67993831D01*
X150737267Y-67993828D01*
X150606055Y-67833945D01*
X150606054Y-67833944D01*
X150446171Y-67702732D01*
X150446168Y-67702729D01*
X150360000Y-67656671D01*
X149360000Y-67656671D01*
X149359999Y-67656671D01*
X149273831Y-67702729D01*
X149273828Y-67702732D01*
X149113945Y-67833944D01*
X149113944Y-67833945D01*
X148982732Y-67993828D01*
X148982729Y-67993831D01*
X148936671Y-68079999D01*
X140627522Y-68079999D01*
X140580362Y-67991769D01*
X140580357Y-67991762D01*
X140448683Y-67831317D01*
X140448682Y-67831316D01*
X140288237Y-67699642D01*
X140288230Y-67699637D01*
X140105186Y-67601798D01*
X140105179Y-67601795D01*
X139906566Y-67541548D01*
X139906563Y-67541547D01*
X139906561Y-67541547D01*
X139700000Y-67521202D01*
X139493439Y-67541547D01*
X139493437Y-67541547D01*
X139493433Y-67541548D01*
X139294820Y-67601795D01*
X139294813Y-67601798D01*
X139111769Y-67699637D01*
X139111762Y-67699642D01*
X138951317Y-67831316D01*
X138951316Y-67831317D01*
X138819642Y-67991762D01*
X138819637Y-67991769D01*
X138721798Y-68174813D01*
X138721795Y-68174820D01*
X138661548Y-68373433D01*
X138661547Y-68373437D01*
X138661547Y-68373439D01*
X138641202Y-68580000D01*
X137660000Y-68580000D01*
X137660000Y-68514174D01*
X137625925Y-68387007D01*
X137560099Y-68272993D01*
X137467007Y-68179901D01*
X137352993Y-68114075D01*
X137225826Y-68080000D01*
X137094174Y-68080000D01*
X136967007Y-68114075D01*
X136852993Y-68179901D01*
X136759901Y-68272993D01*
X136694075Y-68387007D01*
X136660000Y-68514174D01*
X136660000Y-67656671D01*
X137660000Y-67656671D01*
X137660000Y-68080000D01*
X138083328Y-68080000D01*
X138083328Y-68079999D01*
X138037270Y-67993831D01*
X138037267Y-67993828D01*
X137906055Y-67833945D01*
X137906054Y-67833944D01*
X137746171Y-67702732D01*
X137746168Y-67702729D01*
X137660000Y-67656671D01*
X136660000Y-67656671D01*
X136659999Y-67656671D01*
X136573831Y-67702729D01*
X136573827Y-67702732D01*
X136464164Y-67792730D01*
X136406266Y-67815391D01*
X136346106Y-67799692D01*
X136306664Y-67751630D01*
X136299841Y-67719343D01*
X136277203Y-67198669D01*
X136293829Y-67138760D01*
X136342495Y-67100064D01*
X136377708Y-67093700D01*
X138030063Y-67093700D01*
X138030064Y-67093700D01*
X138089480Y-67081881D01*
X138089846Y-67081635D01*
X138090670Y-67081388D01*
X138098632Y-67078090D01*
X138098964Y-67078892D01*
X138146202Y-67064681D01*
X139453538Y-67070733D01*
G37*
%TD.AperFunction*%
%TD*%
M02*
