%TF.GenerationSoftware,KiCad,Pcbnew,8.0.1*%
%TF.CreationDate,2024-04-11T20:05:41-05:00*%
%TF.ProjectId,One-to-One LA Adapter,4f6e652d-746f-42d4-9f6e-65204c412041,rev?*%
%TF.SameCoordinates,Original*%
%TF.FileFunction,Soldermask,Top*%
%TF.FilePolarity,Negative*%
%FSLAX46Y46*%
G04 Gerber Fmt 4.6, Leading zero omitted, Abs format (unit mm)*
G04 Created by KiCad (PCBNEW 8.0.1) date 2024-04-11 20:05:41*
%MOMM*%
%LPD*%
G01*
G04 APERTURE LIST*
G04 Aperture macros list*
%AMRoundRect*
0 Rectangle with rounded corners*
0 $1 Rounding radius*
0 $2 $3 $4 $5 $6 $7 $8 $9 X,Y pos of 4 corners*
0 Add a 4 corners polygon primitive as box body*
4,1,4,$2,$3,$4,$5,$6,$7,$8,$9,$2,$3,0*
0 Add four circle primitives for the rounded corners*
1,1,$1+$1,$2,$3*
1,1,$1+$1,$4,$5*
1,1,$1+$1,$6,$7*
1,1,$1+$1,$8,$9*
0 Add four rect primitives between the rounded corners*
20,1,$1+$1,$2,$3,$4,$5,0*
20,1,$1+$1,$4,$5,$6,$7,0*
20,1,$1+$1,$6,$7,$8,$9,0*
20,1,$1+$1,$8,$9,$2,$3,0*%
G04 Aperture macros list end*
%ADD10RoundRect,0.267825X0.495475X0.657975X-0.495475X0.657975X-0.495475X-0.657975X0.495475X-0.657975X0*%
%ADD11RoundRect,0.050800X-0.850000X-0.850000X0.850000X-0.850000X0.850000X0.850000X-0.850000X0.850000X0*%
%ADD12O,1.801600X1.801600*%
%ADD13RoundRect,0.271166X-0.379634X-0.479634X0.379634X-0.479634X0.379634X0.479634X-0.379634X0.479634X0*%
%ADD14RoundRect,0.050800X0.850000X-0.850000X0.850000X0.850000X-0.850000X0.850000X-0.850000X-0.850000X0*%
%ADD15RoundRect,0.050800X0.850000X0.850000X-0.850000X0.850000X-0.850000X-0.850000X0.850000X-0.850000X0*%
G04 APERTURE END LIST*
D10*
%TO.C,D1*%
X155157500Y-118110000D03*
X152182500Y-118110000D03*
%TD*%
D11*
%TO.C,J2*%
X137160000Y-66040000D03*
D12*
X139700000Y-66040000D03*
X137160000Y-68580000D03*
X139700000Y-68580000D03*
X137160000Y-71120000D03*
X139700000Y-71120000D03*
X137160000Y-73660000D03*
X139700000Y-73660000D03*
X137160000Y-76200000D03*
X139700000Y-76200000D03*
X137160000Y-78740000D03*
X139700000Y-78740000D03*
X137160000Y-81280000D03*
X139700000Y-81280000D03*
X137160000Y-83820000D03*
X139700000Y-83820000D03*
X137160000Y-86360000D03*
X139700000Y-86360000D03*
X137160000Y-88900000D03*
X139700000Y-88900000D03*
X137160000Y-91440000D03*
X139700000Y-91440000D03*
X137160000Y-93980000D03*
X139700000Y-93980000D03*
X137160000Y-96520000D03*
X139700000Y-96520000D03*
X137160000Y-99060000D03*
X139700000Y-99060000D03*
X137160000Y-101600000D03*
X139700000Y-101600000D03*
X137160000Y-104140000D03*
X139700000Y-104140000D03*
X137160000Y-106680000D03*
X139700000Y-106680000D03*
X137160000Y-109220000D03*
X139700000Y-109220000D03*
X137160000Y-111760000D03*
X139700000Y-111760000D03*
X137160000Y-114300000D03*
X139700000Y-114300000D03*
%TD*%
D11*
%TO.C,J3*%
X162560000Y-66040000D03*
D12*
X165100000Y-66040000D03*
X162560000Y-68580000D03*
X165100000Y-68580000D03*
X162560000Y-71120000D03*
X165100000Y-71120000D03*
X162560000Y-73660000D03*
X165100000Y-73660000D03*
X162560000Y-76200000D03*
X165100000Y-76200000D03*
X162560000Y-78740000D03*
X165100000Y-78740000D03*
X162560000Y-81280000D03*
X165100000Y-81280000D03*
X162560000Y-83820000D03*
X165100000Y-83820000D03*
X162560000Y-86360000D03*
X165100000Y-86360000D03*
X162560000Y-88900000D03*
X165100000Y-88900000D03*
X162560000Y-91440000D03*
X165100000Y-91440000D03*
X162560000Y-93980000D03*
X165100000Y-93980000D03*
X162560000Y-96520000D03*
X165100000Y-96520000D03*
X162560000Y-99060000D03*
X165100000Y-99060000D03*
X162560000Y-101600000D03*
X165100000Y-101600000D03*
X162560000Y-104140000D03*
X165100000Y-104140000D03*
X162560000Y-106680000D03*
X165100000Y-106680000D03*
X162560000Y-109220000D03*
X165100000Y-109220000D03*
X162560000Y-111760000D03*
X165100000Y-111760000D03*
X162560000Y-114300000D03*
X165100000Y-114300000D03*
%TD*%
D13*
%TO.C,R1*%
X147590000Y-118110000D03*
X149590000Y-118110000D03*
%TD*%
D14*
%TO.C,J4*%
X148590000Y-61595000D03*
D12*
X151130000Y-61595000D03*
X153670000Y-61595000D03*
%TD*%
D15*
%TO.C,J1*%
X149860000Y-66040000D03*
D12*
X152400000Y-66040000D03*
X149860000Y-68580000D03*
X152400000Y-68580000D03*
X149860000Y-71120000D03*
X152400000Y-71120000D03*
X149860000Y-73660000D03*
X152400000Y-73660000D03*
X149860000Y-76200000D03*
X152400000Y-76200000D03*
X149860000Y-78740000D03*
X152400000Y-78740000D03*
X149860000Y-81280000D03*
X152400000Y-81280000D03*
X149860000Y-83820000D03*
X152400000Y-83820000D03*
X149860000Y-86360000D03*
X152400000Y-86360000D03*
X149860000Y-88900000D03*
X152400000Y-88900000D03*
X149860000Y-91440000D03*
X152400000Y-91440000D03*
X149860000Y-93980000D03*
X152400000Y-93980000D03*
X149860000Y-96520000D03*
X152400000Y-96520000D03*
X149860000Y-99060000D03*
X152400000Y-99060000D03*
X149860000Y-101600000D03*
X152400000Y-101600000D03*
X149860000Y-104140000D03*
X152400000Y-104140000D03*
X149860000Y-106680000D03*
X152400000Y-106680000D03*
X149860000Y-109220000D03*
X152400000Y-109220000D03*
X149860000Y-111760000D03*
X152400000Y-111760000D03*
X149860000Y-114300000D03*
X152400000Y-114300000D03*
%TD*%
M02*
