%TF.GenerationSoftware,KiCad,Pcbnew,8.0.1*%
%TF.CreationDate,2024-04-11T20:05:41-05:00*%
%TF.ProjectId,One-to-One LA Adapter,4f6e652d-746f-42d4-9f6e-65204c412041,rev?*%
%TF.SameCoordinates,Original*%
%TF.FileFunction,Legend,Top*%
%TF.FilePolarity,Positive*%
%FSLAX46Y46*%
G04 Gerber Fmt 4.6, Leading zero omitted, Abs format (unit mm)*
G04 Created by KiCad (PCBNEW 8.0.1) date 2024-04-11 20:05:41*
%MOMM*%
%LPD*%
G01*
G04 APERTURE LIST*
%ADD10C,0.150000*%
%ADD11C,0.200000*%
%ADD12C,0.120000*%
G04 APERTURE END LIST*
D10*
X154559000Y-64008000D02*
X158242000Y-64008000D01*
X158242000Y-116459000D02*
X154559000Y-116459000D01*
X158242000Y-64008000D02*
X158242000Y-116459000D01*
X147256500Y-116459000D02*
X143573500Y-116459000D01*
X143573500Y-64008000D02*
X147256500Y-64008000D01*
X143573500Y-116459000D02*
X143573500Y-64008000D01*
X163830000Y-65024000D02*
X167132000Y-65024000D01*
X167132000Y-67056000D01*
X163830000Y-67056000D01*
X163830000Y-65024000D01*
G36*
X163830000Y-65024000D02*
G01*
X167132000Y-65024000D01*
X167132000Y-67056000D01*
X163830000Y-67056000D01*
X163830000Y-65024000D01*
G37*
X163957000Y-108204000D02*
X167259000Y-108204000D01*
X167259000Y-110236000D01*
X163957000Y-110236000D01*
X163957000Y-108204000D01*
G36*
X163957000Y-108204000D02*
G01*
X167259000Y-108204000D01*
X167259000Y-110236000D01*
X163957000Y-110236000D01*
X163957000Y-108204000D01*
G37*
X163957000Y-110744000D02*
X167259000Y-110744000D01*
X167259000Y-112776000D01*
X163957000Y-112776000D01*
X163957000Y-110744000D01*
G36*
X163957000Y-110744000D02*
G01*
X167259000Y-110744000D01*
X167259000Y-112776000D01*
X163957000Y-112776000D01*
X163957000Y-110744000D01*
G37*
X163957000Y-113284000D02*
X167259000Y-113284000D01*
X167259000Y-115316000D01*
X163957000Y-115316000D01*
X163957000Y-113284000D01*
G36*
X163957000Y-113284000D02*
G01*
X167259000Y-113284000D01*
X167259000Y-115316000D01*
X163957000Y-115316000D01*
X163957000Y-113284000D01*
G37*
X138811000Y-113284000D02*
X142240000Y-113284000D01*
X142240000Y-115316000D01*
X138811000Y-115316000D01*
X138811000Y-113284000D01*
G36*
X138811000Y-113284000D02*
G01*
X142240000Y-113284000D01*
X142240000Y-115316000D01*
X138811000Y-115316000D01*
X138811000Y-113284000D01*
G37*
X138811000Y-110744000D02*
X142240000Y-110744000D01*
X142240000Y-112776000D01*
X138811000Y-112776000D01*
X138811000Y-110744000D01*
G36*
X138811000Y-110744000D02*
G01*
X142240000Y-110744000D01*
X142240000Y-112776000D01*
X138811000Y-112776000D01*
X138811000Y-110744000D01*
G37*
X138811000Y-108204000D02*
X142240000Y-108204000D01*
X142240000Y-110236000D01*
X138811000Y-110236000D01*
X138811000Y-108204000D01*
G36*
X138811000Y-108204000D02*
G01*
X142240000Y-108204000D01*
X142240000Y-110236000D01*
X138811000Y-110236000D01*
X138811000Y-108204000D01*
G37*
X138938000Y-65024000D02*
X142367000Y-65024000D01*
X142367000Y-67056000D01*
X138938000Y-67056000D01*
X138938000Y-65024000D01*
G36*
X138938000Y-65024000D02*
G01*
X142367000Y-65024000D01*
X142367000Y-67056000D01*
X138938000Y-67056000D01*
X138938000Y-65024000D01*
G37*
D11*
X143498673Y-61716266D02*
X144260578Y-61716266D01*
X143879625Y-62097219D02*
X143879625Y-61335314D01*
X145212958Y-61097219D02*
X144736768Y-61097219D01*
X144736768Y-61097219D02*
X144689149Y-61573409D01*
X144689149Y-61573409D02*
X144736768Y-61525790D01*
X144736768Y-61525790D02*
X144832006Y-61478171D01*
X144832006Y-61478171D02*
X145070101Y-61478171D01*
X145070101Y-61478171D02*
X145165339Y-61525790D01*
X145165339Y-61525790D02*
X145212958Y-61573409D01*
X145212958Y-61573409D02*
X145260577Y-61668647D01*
X145260577Y-61668647D02*
X145260577Y-61906742D01*
X145260577Y-61906742D02*
X145212958Y-62001980D01*
X145212958Y-62001980D02*
X145165339Y-62049600D01*
X145165339Y-62049600D02*
X145070101Y-62097219D01*
X145070101Y-62097219D02*
X144832006Y-62097219D01*
X144832006Y-62097219D02*
X144736768Y-62049600D01*
X144736768Y-62049600D02*
X144689149Y-62001980D01*
X145546292Y-61097219D02*
X145879625Y-62097219D01*
X145879625Y-62097219D02*
X146212958Y-61097219D01*
X150388435Y-58430219D02*
X151055101Y-59430219D01*
X151055101Y-58430219D02*
X150388435Y-59430219D01*
X151436054Y-58906409D02*
X151769387Y-58906409D01*
X151912244Y-59430219D02*
X151436054Y-59430219D01*
X151436054Y-59430219D02*
X151436054Y-58430219D01*
X151436054Y-58430219D02*
X151912244Y-58430219D01*
D10*
X152781000Y-60579000D02*
X156210000Y-60579000D01*
X156210000Y-62611000D01*
X152781000Y-62611000D01*
X152781000Y-60579000D01*
G36*
X152781000Y-60579000D02*
G01*
X156210000Y-60579000D01*
X156210000Y-62611000D01*
X152781000Y-62611000D01*
X152781000Y-60579000D01*
G37*
D11*
G36*
X158825551Y-61230198D02*
G01*
X158892692Y-61295685D01*
X158928312Y-61364289D01*
X158971791Y-61531856D01*
X158973197Y-61650664D01*
X158932957Y-61817936D01*
X158897035Y-61892606D01*
X158829726Y-61961614D01*
X158726544Y-61997307D01*
X158600105Y-61998250D01*
X158598594Y-61196485D01*
X158717706Y-61195597D01*
X158825551Y-61230198D01*
G37*
G36*
X159282831Y-62308330D02*
G01*
X156193943Y-62308330D01*
X156193943Y-61525790D01*
X156305054Y-61525790D01*
X156306681Y-61663363D01*
X156305172Y-61673508D01*
X156306943Y-61685486D01*
X156306975Y-61688156D01*
X156307539Y-61689519D01*
X156308040Y-61692901D01*
X156355544Y-61875980D01*
X156356224Y-61885536D01*
X156361815Y-61900148D01*
X156362254Y-61901837D01*
X156362684Y-61902417D01*
X156363230Y-61903844D01*
X156412566Y-61998866D01*
X156417144Y-62009918D01*
X156420302Y-62013766D01*
X156421292Y-62015672D01*
X156423286Y-62017401D01*
X156429581Y-62025071D01*
X156515526Y-62108902D01*
X156516531Y-62110912D01*
X156526055Y-62119172D01*
X156539972Y-62132747D01*
X156543291Y-62134122D01*
X156546007Y-62136477D01*
X156563907Y-62144468D01*
X156706991Y-62190374D01*
X156718878Y-62195298D01*
X156723870Y-62195789D01*
X156725879Y-62196434D01*
X156728513Y-62196246D01*
X156738387Y-62197219D01*
X156834529Y-62195609D01*
X156846132Y-62196434D01*
X156850968Y-62195334D01*
X156853134Y-62195298D01*
X156855576Y-62194286D01*
X156865248Y-62192087D01*
X156993625Y-62147678D01*
X156995992Y-62147678D01*
X157007984Y-62142710D01*
X157026005Y-62136477D01*
X157028720Y-62134122D01*
X157032040Y-62132747D01*
X157047193Y-62120310D01*
X157107249Y-62057537D01*
X157122180Y-62021488D01*
X157124101Y-62001980D01*
X157122180Y-61649138D01*
X157107248Y-61613090D01*
X157079658Y-61585500D01*
X157043610Y-61570568D01*
X157024101Y-61568647D01*
X156814116Y-61570568D01*
X156778068Y-61585500D01*
X156750478Y-61613090D01*
X156735546Y-61649138D01*
X156735546Y-61688156D01*
X156750478Y-61724204D01*
X156778068Y-61751794D01*
X156814116Y-61766726D01*
X156833625Y-61768647D01*
X156924640Y-61767814D01*
X156925688Y-61960224D01*
X156924059Y-61961927D01*
X156821448Y-61997422D01*
X156757961Y-61998485D01*
X156651221Y-61964240D01*
X156584082Y-61898752D01*
X156548461Y-61830145D01*
X156504982Y-61662580D01*
X156503576Y-61543773D01*
X156543816Y-61376500D01*
X156579738Y-61301830D01*
X156647045Y-61232824D01*
X156750384Y-61197077D01*
X156855585Y-61195832D01*
X156950069Y-61241287D01*
X156988989Y-61244053D01*
X157026005Y-61231714D01*
X157055482Y-61206149D01*
X157072931Y-61171251D01*
X157075696Y-61132331D01*
X157063993Y-61097219D01*
X157352673Y-61097219D01*
X157354594Y-62116728D01*
X157369526Y-62152776D01*
X157397116Y-62180366D01*
X157433164Y-62195298D01*
X157472182Y-62195298D01*
X157508230Y-62180366D01*
X157535820Y-62152776D01*
X157550752Y-62116728D01*
X157552673Y-62097219D01*
X157551492Y-61470475D01*
X157935990Y-62140793D01*
X157940954Y-62152776D01*
X157945433Y-62157255D01*
X157948624Y-62162818D01*
X157959140Y-62170962D01*
X157968544Y-62180366D01*
X157974431Y-62182804D01*
X157979473Y-62186709D01*
X157992305Y-62190208D01*
X158004592Y-62195298D01*
X158010968Y-62195298D01*
X158017117Y-62196975D01*
X158030310Y-62195298D01*
X158043610Y-62195298D01*
X158049498Y-62192858D01*
X158055823Y-62192055D01*
X158067372Y-62185454D01*
X158079658Y-62180366D01*
X158084165Y-62175858D01*
X158089700Y-62172696D01*
X158097844Y-62162179D01*
X158107248Y-62152776D01*
X158109686Y-62146888D01*
X158113591Y-62141847D01*
X158117090Y-62129014D01*
X158122180Y-62116728D01*
X158123162Y-62106750D01*
X158123857Y-62104204D01*
X158123606Y-62102236D01*
X158124101Y-62097219D01*
X158122217Y-61097219D01*
X158400292Y-61097219D01*
X158402213Y-62116728D01*
X158417145Y-62152776D01*
X158444735Y-62180366D01*
X158480783Y-62195298D01*
X158500292Y-62197219D01*
X158737092Y-62195453D01*
X158750894Y-62196434D01*
X158755821Y-62195313D01*
X158757896Y-62195298D01*
X158760338Y-62194286D01*
X158770010Y-62192087D01*
X158898387Y-62147678D01*
X158900754Y-62147678D01*
X158912746Y-62142710D01*
X158930767Y-62136477D01*
X158933482Y-62134122D01*
X158936802Y-62132747D01*
X158951955Y-62120310D01*
X159045972Y-62023920D01*
X159055482Y-62015673D01*
X159058148Y-62011437D01*
X159059630Y-62009918D01*
X159060641Y-62007476D01*
X159065925Y-61999082D01*
X159109353Y-61908810D01*
X159114520Y-61901837D01*
X159119748Y-61887202D01*
X159120550Y-61885536D01*
X159120601Y-61884815D01*
X159121115Y-61883377D01*
X159165694Y-61698064D01*
X159169799Y-61688156D01*
X159170991Y-61676046D01*
X159171602Y-61673508D01*
X159171384Y-61672049D01*
X159171720Y-61668647D01*
X159170092Y-61531073D01*
X159171602Y-61520929D01*
X159169830Y-61508950D01*
X159169799Y-61506281D01*
X159169234Y-61504917D01*
X159168734Y-61501536D01*
X159121229Y-61318456D01*
X159120550Y-61308901D01*
X159114957Y-61294285D01*
X159114520Y-61292600D01*
X159114090Y-61292020D01*
X159113544Y-61290592D01*
X159064201Y-61195558D01*
X159059629Y-61184519D01*
X159056473Y-61180674D01*
X159055482Y-61178764D01*
X159053484Y-61177031D01*
X159047193Y-61169365D01*
X158961248Y-61085536D01*
X158960243Y-61083526D01*
X158950713Y-61075260D01*
X158936801Y-61061691D01*
X158933482Y-61060316D01*
X158930767Y-61057961D01*
X158912866Y-61049970D01*
X158769786Y-61004065D01*
X158757896Y-60999140D01*
X158752902Y-60998648D01*
X158750894Y-60998004D01*
X158748260Y-60998191D01*
X158738387Y-60997219D01*
X158480783Y-60999140D01*
X158444735Y-61014072D01*
X158417145Y-61041662D01*
X158402213Y-61077710D01*
X158400292Y-61097219D01*
X158122217Y-61097219D01*
X158122180Y-61077710D01*
X158107248Y-61041662D01*
X158079658Y-61014072D01*
X158043610Y-60999140D01*
X158004592Y-60999140D01*
X157968544Y-61014072D01*
X157940954Y-61041662D01*
X157926022Y-61077710D01*
X157924101Y-61097219D01*
X157925281Y-61723962D01*
X157540783Y-61053644D01*
X157535820Y-61041662D01*
X157531340Y-61037182D01*
X157528150Y-61031620D01*
X157517635Y-61023477D01*
X157508230Y-61014072D01*
X157502339Y-61011632D01*
X157497301Y-61007730D01*
X157484472Y-61004231D01*
X157472182Y-60999140D01*
X157465807Y-60999140D01*
X157459658Y-60997463D01*
X157446465Y-60999140D01*
X157433164Y-60999140D01*
X157427275Y-61001579D01*
X157420951Y-61002383D01*
X157409401Y-61008983D01*
X157397116Y-61014072D01*
X157392608Y-61018579D01*
X157387074Y-61021742D01*
X157378931Y-61032256D01*
X157369526Y-61041662D01*
X157367086Y-61047552D01*
X157363184Y-61052591D01*
X157359685Y-61065419D01*
X157354594Y-61077710D01*
X157353611Y-61087687D01*
X157352917Y-61090234D01*
X157353167Y-61092201D01*
X157352673Y-61097219D01*
X157063993Y-61097219D01*
X157063358Y-61095315D01*
X157037793Y-61065838D01*
X157021203Y-61055395D01*
X156938185Y-61015456D01*
X156936801Y-61014072D01*
X156926051Y-61009619D01*
X156907657Y-61000770D01*
X156904073Y-61000515D01*
X156900753Y-60999140D01*
X156881244Y-60997219D01*
X156738583Y-60998906D01*
X156725879Y-60998004D01*
X156720993Y-60999114D01*
X156718878Y-60999140D01*
X156716436Y-61000151D01*
X156706764Y-61002351D01*
X156578390Y-61046759D01*
X156576021Y-61046759D01*
X156564024Y-61051728D01*
X156546007Y-61057961D01*
X156543291Y-61060316D01*
X156539973Y-61061691D01*
X156524819Y-61074127D01*
X156430802Y-61170516D01*
X156421292Y-61178765D01*
X156418625Y-61183001D01*
X156417145Y-61184519D01*
X156416134Y-61186958D01*
X156410849Y-61195355D01*
X156367420Y-61285626D01*
X156362254Y-61292600D01*
X156357026Y-61307232D01*
X156356224Y-61308901D01*
X156356172Y-61309623D01*
X156355659Y-61311061D01*
X156311079Y-61496371D01*
X156306975Y-61506281D01*
X156305782Y-61518390D01*
X156305172Y-61520929D01*
X156305389Y-61522387D01*
X156305054Y-61525790D01*
X156193943Y-61525790D01*
X156193943Y-60886108D01*
X159282831Y-60886108D01*
X159282831Y-62308330D01*
G37*
D10*
X151384000Y-65024000D02*
X154813000Y-65024000D01*
X154813000Y-67056000D01*
X151384000Y-67056000D01*
X151384000Y-65024000D01*
G36*
X151384000Y-65024000D02*
G01*
X154813000Y-65024000D01*
X154813000Y-67056000D01*
X151384000Y-67056000D01*
X151384000Y-65024000D01*
G37*
D11*
G36*
X157428551Y-65675198D02*
G01*
X157495692Y-65740685D01*
X157531312Y-65809289D01*
X157574791Y-65976856D01*
X157576197Y-66095664D01*
X157535957Y-66262936D01*
X157500035Y-66337606D01*
X157432726Y-66406614D01*
X157329544Y-66442307D01*
X157203105Y-66443250D01*
X157201594Y-65641485D01*
X157320706Y-65640597D01*
X157428551Y-65675198D01*
G37*
G36*
X157885831Y-66753330D02*
G01*
X154796943Y-66753330D01*
X154796943Y-65970790D01*
X154908054Y-65970790D01*
X154909681Y-66108363D01*
X154908172Y-66118508D01*
X154909943Y-66130486D01*
X154909975Y-66133156D01*
X154910539Y-66134519D01*
X154911040Y-66137901D01*
X154958544Y-66320980D01*
X154959224Y-66330536D01*
X154964815Y-66345148D01*
X154965254Y-66346837D01*
X154965684Y-66347417D01*
X154966230Y-66348844D01*
X155015566Y-66443866D01*
X155020144Y-66454918D01*
X155023302Y-66458766D01*
X155024292Y-66460672D01*
X155026286Y-66462401D01*
X155032581Y-66470071D01*
X155118526Y-66553902D01*
X155119531Y-66555912D01*
X155129055Y-66564172D01*
X155142972Y-66577747D01*
X155146291Y-66579122D01*
X155149007Y-66581477D01*
X155166907Y-66589468D01*
X155309991Y-66635374D01*
X155321878Y-66640298D01*
X155326870Y-66640789D01*
X155328879Y-66641434D01*
X155331513Y-66641246D01*
X155341387Y-66642219D01*
X155437529Y-66640609D01*
X155449132Y-66641434D01*
X155453968Y-66640334D01*
X155456134Y-66640298D01*
X155458576Y-66639286D01*
X155468248Y-66637087D01*
X155596625Y-66592678D01*
X155598992Y-66592678D01*
X155610984Y-66587710D01*
X155629005Y-66581477D01*
X155631720Y-66579122D01*
X155635040Y-66577747D01*
X155650193Y-66565310D01*
X155710249Y-66502537D01*
X155725180Y-66466488D01*
X155727101Y-66446980D01*
X155725180Y-66094138D01*
X155710248Y-66058090D01*
X155682658Y-66030500D01*
X155646610Y-66015568D01*
X155627101Y-66013647D01*
X155417116Y-66015568D01*
X155381068Y-66030500D01*
X155353478Y-66058090D01*
X155338546Y-66094138D01*
X155338546Y-66133156D01*
X155353478Y-66169204D01*
X155381068Y-66196794D01*
X155417116Y-66211726D01*
X155436625Y-66213647D01*
X155527640Y-66212814D01*
X155528688Y-66405224D01*
X155527059Y-66406927D01*
X155424448Y-66442422D01*
X155360961Y-66443485D01*
X155254221Y-66409240D01*
X155187082Y-66343752D01*
X155151461Y-66275145D01*
X155107982Y-66107580D01*
X155106576Y-65988773D01*
X155146816Y-65821500D01*
X155182738Y-65746830D01*
X155250045Y-65677824D01*
X155353384Y-65642077D01*
X155458585Y-65640832D01*
X155553069Y-65686287D01*
X155591989Y-65689053D01*
X155629005Y-65676714D01*
X155658482Y-65651149D01*
X155675931Y-65616251D01*
X155678696Y-65577331D01*
X155666993Y-65542219D01*
X155955673Y-65542219D01*
X155957594Y-66561728D01*
X155972526Y-66597776D01*
X156000116Y-66625366D01*
X156036164Y-66640298D01*
X156075182Y-66640298D01*
X156111230Y-66625366D01*
X156138820Y-66597776D01*
X156153752Y-66561728D01*
X156155673Y-66542219D01*
X156154492Y-65915475D01*
X156538990Y-66585793D01*
X156543954Y-66597776D01*
X156548433Y-66602255D01*
X156551624Y-66607818D01*
X156562140Y-66615962D01*
X156571544Y-66625366D01*
X156577431Y-66627804D01*
X156582473Y-66631709D01*
X156595305Y-66635208D01*
X156607592Y-66640298D01*
X156613968Y-66640298D01*
X156620117Y-66641975D01*
X156633310Y-66640298D01*
X156646610Y-66640298D01*
X156652498Y-66637858D01*
X156658823Y-66637055D01*
X156670372Y-66630454D01*
X156682658Y-66625366D01*
X156687165Y-66620858D01*
X156692700Y-66617696D01*
X156700844Y-66607179D01*
X156710248Y-66597776D01*
X156712686Y-66591888D01*
X156716591Y-66586847D01*
X156720090Y-66574014D01*
X156725180Y-66561728D01*
X156726162Y-66551750D01*
X156726857Y-66549204D01*
X156726606Y-66547236D01*
X156727101Y-66542219D01*
X156725217Y-65542219D01*
X157003292Y-65542219D01*
X157005213Y-66561728D01*
X157020145Y-66597776D01*
X157047735Y-66625366D01*
X157083783Y-66640298D01*
X157103292Y-66642219D01*
X157340092Y-66640453D01*
X157353894Y-66641434D01*
X157358821Y-66640313D01*
X157360896Y-66640298D01*
X157363338Y-66639286D01*
X157373010Y-66637087D01*
X157501387Y-66592678D01*
X157503754Y-66592678D01*
X157515746Y-66587710D01*
X157533767Y-66581477D01*
X157536482Y-66579122D01*
X157539802Y-66577747D01*
X157554955Y-66565310D01*
X157648972Y-66468920D01*
X157658482Y-66460673D01*
X157661148Y-66456437D01*
X157662630Y-66454918D01*
X157663641Y-66452476D01*
X157668925Y-66444082D01*
X157712353Y-66353810D01*
X157717520Y-66346837D01*
X157722748Y-66332202D01*
X157723550Y-66330536D01*
X157723601Y-66329815D01*
X157724115Y-66328377D01*
X157768694Y-66143064D01*
X157772799Y-66133156D01*
X157773991Y-66121046D01*
X157774602Y-66118508D01*
X157774384Y-66117049D01*
X157774720Y-66113647D01*
X157773092Y-65976073D01*
X157774602Y-65965929D01*
X157772830Y-65953950D01*
X157772799Y-65951281D01*
X157772234Y-65949917D01*
X157771734Y-65946536D01*
X157724229Y-65763456D01*
X157723550Y-65753901D01*
X157717957Y-65739285D01*
X157717520Y-65737600D01*
X157717090Y-65737020D01*
X157716544Y-65735592D01*
X157667201Y-65640558D01*
X157662629Y-65629519D01*
X157659473Y-65625674D01*
X157658482Y-65623764D01*
X157656484Y-65622031D01*
X157650193Y-65614365D01*
X157564248Y-65530536D01*
X157563243Y-65528526D01*
X157553713Y-65520260D01*
X157539801Y-65506691D01*
X157536482Y-65505316D01*
X157533767Y-65502961D01*
X157515866Y-65494970D01*
X157372786Y-65449065D01*
X157360896Y-65444140D01*
X157355902Y-65443648D01*
X157353894Y-65443004D01*
X157351260Y-65443191D01*
X157341387Y-65442219D01*
X157083783Y-65444140D01*
X157047735Y-65459072D01*
X157020145Y-65486662D01*
X157005213Y-65522710D01*
X157003292Y-65542219D01*
X156725217Y-65542219D01*
X156725180Y-65522710D01*
X156710248Y-65486662D01*
X156682658Y-65459072D01*
X156646610Y-65444140D01*
X156607592Y-65444140D01*
X156571544Y-65459072D01*
X156543954Y-65486662D01*
X156529022Y-65522710D01*
X156527101Y-65542219D01*
X156528281Y-66168962D01*
X156143783Y-65498644D01*
X156138820Y-65486662D01*
X156134340Y-65482182D01*
X156131150Y-65476620D01*
X156120635Y-65468477D01*
X156111230Y-65459072D01*
X156105339Y-65456632D01*
X156100301Y-65452730D01*
X156087472Y-65449231D01*
X156075182Y-65444140D01*
X156068807Y-65444140D01*
X156062658Y-65442463D01*
X156049465Y-65444140D01*
X156036164Y-65444140D01*
X156030275Y-65446579D01*
X156023951Y-65447383D01*
X156012401Y-65453983D01*
X156000116Y-65459072D01*
X155995608Y-65463579D01*
X155990074Y-65466742D01*
X155981931Y-65477256D01*
X155972526Y-65486662D01*
X155970086Y-65492552D01*
X155966184Y-65497591D01*
X155962685Y-65510419D01*
X155957594Y-65522710D01*
X155956611Y-65532687D01*
X155955917Y-65535234D01*
X155956167Y-65537201D01*
X155955673Y-65542219D01*
X155666993Y-65542219D01*
X155666358Y-65540315D01*
X155640793Y-65510838D01*
X155624203Y-65500395D01*
X155541185Y-65460456D01*
X155539801Y-65459072D01*
X155529051Y-65454619D01*
X155510657Y-65445770D01*
X155507073Y-65445515D01*
X155503753Y-65444140D01*
X155484244Y-65442219D01*
X155341583Y-65443906D01*
X155328879Y-65443004D01*
X155323993Y-65444114D01*
X155321878Y-65444140D01*
X155319436Y-65445151D01*
X155309764Y-65447351D01*
X155181390Y-65491759D01*
X155179021Y-65491759D01*
X155167024Y-65496728D01*
X155149007Y-65502961D01*
X155146291Y-65505316D01*
X155142973Y-65506691D01*
X155127819Y-65519127D01*
X155033802Y-65615516D01*
X155024292Y-65623765D01*
X155021625Y-65628001D01*
X155020145Y-65629519D01*
X155019134Y-65631958D01*
X155013849Y-65640355D01*
X154970420Y-65730626D01*
X154965254Y-65737600D01*
X154960026Y-65752232D01*
X154959224Y-65753901D01*
X154959172Y-65754623D01*
X154958659Y-65756061D01*
X154914079Y-65941371D01*
X154909975Y-65951281D01*
X154908782Y-65963390D01*
X154908172Y-65965929D01*
X154908389Y-65967387D01*
X154908054Y-65970790D01*
X154796943Y-65970790D01*
X154796943Y-65331108D01*
X157885831Y-65331108D01*
X157885831Y-66753330D01*
G37*
G36*
X157174551Y-113935198D02*
G01*
X157241692Y-114000685D01*
X157277312Y-114069289D01*
X157320791Y-114236856D01*
X157322197Y-114355664D01*
X157281957Y-114522936D01*
X157246035Y-114597606D01*
X157178726Y-114666614D01*
X157075544Y-114702307D01*
X156949105Y-114703250D01*
X156947594Y-113901485D01*
X157066706Y-113900597D01*
X157174551Y-113935198D01*
G37*
G36*
X157631831Y-115013330D02*
G01*
X154542943Y-115013330D01*
X154542943Y-114230790D01*
X154654054Y-114230790D01*
X154655681Y-114368363D01*
X154654172Y-114378508D01*
X154655943Y-114390486D01*
X154655975Y-114393156D01*
X154656539Y-114394519D01*
X154657040Y-114397901D01*
X154704544Y-114580980D01*
X154705224Y-114590536D01*
X154710815Y-114605148D01*
X154711254Y-114606837D01*
X154711684Y-114607417D01*
X154712230Y-114608844D01*
X154761566Y-114703866D01*
X154766144Y-114714918D01*
X154769302Y-114718766D01*
X154770292Y-114720672D01*
X154772286Y-114722401D01*
X154778581Y-114730071D01*
X154864526Y-114813902D01*
X154865531Y-114815912D01*
X154875055Y-114824172D01*
X154888972Y-114837747D01*
X154892291Y-114839122D01*
X154895007Y-114841477D01*
X154912907Y-114849468D01*
X155055991Y-114895374D01*
X155067878Y-114900298D01*
X155072870Y-114900789D01*
X155074879Y-114901434D01*
X155077513Y-114901246D01*
X155087387Y-114902219D01*
X155183529Y-114900609D01*
X155195132Y-114901434D01*
X155199968Y-114900334D01*
X155202134Y-114900298D01*
X155204576Y-114899286D01*
X155214248Y-114897087D01*
X155342625Y-114852678D01*
X155344992Y-114852678D01*
X155356984Y-114847710D01*
X155375005Y-114841477D01*
X155377720Y-114839122D01*
X155381040Y-114837747D01*
X155396193Y-114825310D01*
X155456249Y-114762537D01*
X155471180Y-114726488D01*
X155473101Y-114706980D01*
X155471180Y-114354138D01*
X155456248Y-114318090D01*
X155428658Y-114290500D01*
X155392610Y-114275568D01*
X155373101Y-114273647D01*
X155163116Y-114275568D01*
X155127068Y-114290500D01*
X155099478Y-114318090D01*
X155084546Y-114354138D01*
X155084546Y-114393156D01*
X155099478Y-114429204D01*
X155127068Y-114456794D01*
X155163116Y-114471726D01*
X155182625Y-114473647D01*
X155273640Y-114472814D01*
X155274688Y-114665224D01*
X155273059Y-114666927D01*
X155170448Y-114702422D01*
X155106961Y-114703485D01*
X155000221Y-114669240D01*
X154933082Y-114603752D01*
X154897461Y-114535145D01*
X154853982Y-114367580D01*
X154852576Y-114248773D01*
X154892816Y-114081500D01*
X154928738Y-114006830D01*
X154996045Y-113937824D01*
X155099384Y-113902077D01*
X155204585Y-113900832D01*
X155299069Y-113946287D01*
X155337989Y-113949053D01*
X155375005Y-113936714D01*
X155404482Y-113911149D01*
X155421931Y-113876251D01*
X155424696Y-113837331D01*
X155412993Y-113802219D01*
X155701673Y-113802219D01*
X155703594Y-114821728D01*
X155718526Y-114857776D01*
X155746116Y-114885366D01*
X155782164Y-114900298D01*
X155821182Y-114900298D01*
X155857230Y-114885366D01*
X155884820Y-114857776D01*
X155899752Y-114821728D01*
X155901673Y-114802219D01*
X155900492Y-114175475D01*
X156284990Y-114845793D01*
X156289954Y-114857776D01*
X156294433Y-114862255D01*
X156297624Y-114867818D01*
X156308140Y-114875962D01*
X156317544Y-114885366D01*
X156323431Y-114887804D01*
X156328473Y-114891709D01*
X156341305Y-114895208D01*
X156353592Y-114900298D01*
X156359968Y-114900298D01*
X156366117Y-114901975D01*
X156379310Y-114900298D01*
X156392610Y-114900298D01*
X156398498Y-114897858D01*
X156404823Y-114897055D01*
X156416372Y-114890454D01*
X156428658Y-114885366D01*
X156433165Y-114880858D01*
X156438700Y-114877696D01*
X156446844Y-114867179D01*
X156456248Y-114857776D01*
X156458686Y-114851888D01*
X156462591Y-114846847D01*
X156466090Y-114834014D01*
X156471180Y-114821728D01*
X156472162Y-114811750D01*
X156472857Y-114809204D01*
X156472606Y-114807236D01*
X156473101Y-114802219D01*
X156471217Y-113802219D01*
X156749292Y-113802219D01*
X156751213Y-114821728D01*
X156766145Y-114857776D01*
X156793735Y-114885366D01*
X156829783Y-114900298D01*
X156849292Y-114902219D01*
X157086092Y-114900453D01*
X157099894Y-114901434D01*
X157104821Y-114900313D01*
X157106896Y-114900298D01*
X157109338Y-114899286D01*
X157119010Y-114897087D01*
X157247387Y-114852678D01*
X157249754Y-114852678D01*
X157261746Y-114847710D01*
X157279767Y-114841477D01*
X157282482Y-114839122D01*
X157285802Y-114837747D01*
X157300955Y-114825310D01*
X157394972Y-114728920D01*
X157404482Y-114720673D01*
X157407148Y-114716437D01*
X157408630Y-114714918D01*
X157409641Y-114712476D01*
X157414925Y-114704082D01*
X157458353Y-114613810D01*
X157463520Y-114606837D01*
X157468748Y-114592202D01*
X157469550Y-114590536D01*
X157469601Y-114589815D01*
X157470115Y-114588377D01*
X157514694Y-114403064D01*
X157518799Y-114393156D01*
X157519991Y-114381046D01*
X157520602Y-114378508D01*
X157520384Y-114377049D01*
X157520720Y-114373647D01*
X157519092Y-114236073D01*
X157520602Y-114225929D01*
X157518830Y-114213950D01*
X157518799Y-114211281D01*
X157518234Y-114209917D01*
X157517734Y-114206536D01*
X157470229Y-114023456D01*
X157469550Y-114013901D01*
X157463957Y-113999285D01*
X157463520Y-113997600D01*
X157463090Y-113997020D01*
X157462544Y-113995592D01*
X157413201Y-113900558D01*
X157408629Y-113889519D01*
X157405473Y-113885674D01*
X157404482Y-113883764D01*
X157402484Y-113882031D01*
X157396193Y-113874365D01*
X157310248Y-113790536D01*
X157309243Y-113788526D01*
X157299713Y-113780260D01*
X157285801Y-113766691D01*
X157282482Y-113765316D01*
X157279767Y-113762961D01*
X157261866Y-113754970D01*
X157118786Y-113709065D01*
X157106896Y-113704140D01*
X157101902Y-113703648D01*
X157099894Y-113703004D01*
X157097260Y-113703191D01*
X157087387Y-113702219D01*
X156829783Y-113704140D01*
X156793735Y-113719072D01*
X156766145Y-113746662D01*
X156751213Y-113782710D01*
X156749292Y-113802219D01*
X156471217Y-113802219D01*
X156471180Y-113782710D01*
X156456248Y-113746662D01*
X156428658Y-113719072D01*
X156392610Y-113704140D01*
X156353592Y-113704140D01*
X156317544Y-113719072D01*
X156289954Y-113746662D01*
X156275022Y-113782710D01*
X156273101Y-113802219D01*
X156274281Y-114428962D01*
X155889783Y-113758644D01*
X155884820Y-113746662D01*
X155880340Y-113742182D01*
X155877150Y-113736620D01*
X155866635Y-113728477D01*
X155857230Y-113719072D01*
X155851339Y-113716632D01*
X155846301Y-113712730D01*
X155833472Y-113709231D01*
X155821182Y-113704140D01*
X155814807Y-113704140D01*
X155808658Y-113702463D01*
X155795465Y-113704140D01*
X155782164Y-113704140D01*
X155776275Y-113706579D01*
X155769951Y-113707383D01*
X155758401Y-113713983D01*
X155746116Y-113719072D01*
X155741608Y-113723579D01*
X155736074Y-113726742D01*
X155727931Y-113737256D01*
X155718526Y-113746662D01*
X155716086Y-113752552D01*
X155712184Y-113757591D01*
X155708685Y-113770419D01*
X155703594Y-113782710D01*
X155702611Y-113792687D01*
X155701917Y-113795234D01*
X155702167Y-113797201D01*
X155701673Y-113802219D01*
X155412993Y-113802219D01*
X155412358Y-113800315D01*
X155386793Y-113770838D01*
X155370203Y-113760395D01*
X155287185Y-113720456D01*
X155285801Y-113719072D01*
X155275051Y-113714619D01*
X155256657Y-113705770D01*
X155253073Y-113705515D01*
X155249753Y-113704140D01*
X155230244Y-113702219D01*
X155087583Y-113703906D01*
X155074879Y-113703004D01*
X155069993Y-113704114D01*
X155067878Y-113704140D01*
X155065436Y-113705151D01*
X155055764Y-113707351D01*
X154927390Y-113751759D01*
X154925021Y-113751759D01*
X154913024Y-113756728D01*
X154895007Y-113762961D01*
X154892291Y-113765316D01*
X154888973Y-113766691D01*
X154873819Y-113779127D01*
X154779802Y-113875516D01*
X154770292Y-113883765D01*
X154767625Y-113888001D01*
X154766145Y-113889519D01*
X154765134Y-113891958D01*
X154759849Y-113900355D01*
X154716420Y-113990626D01*
X154711254Y-113997600D01*
X154706026Y-114012232D01*
X154705224Y-114013901D01*
X154705172Y-114014623D01*
X154704659Y-114016061D01*
X154660079Y-114201371D01*
X154655975Y-114211281D01*
X154654782Y-114223390D01*
X154654172Y-114225929D01*
X154654389Y-114227387D01*
X154654054Y-114230790D01*
X154542943Y-114230790D01*
X154542943Y-113591108D01*
X157631831Y-113591108D01*
X157631831Y-115013330D01*
G37*
G36*
X157174551Y-111395198D02*
G01*
X157241692Y-111460685D01*
X157277312Y-111529289D01*
X157320791Y-111696856D01*
X157322197Y-111815664D01*
X157281957Y-111982936D01*
X157246035Y-112057606D01*
X157178726Y-112126614D01*
X157075544Y-112162307D01*
X156949105Y-112163250D01*
X156947594Y-111361485D01*
X157066706Y-111360597D01*
X157174551Y-111395198D01*
G37*
G36*
X157631831Y-112473330D02*
G01*
X154542943Y-112473330D01*
X154542943Y-111690790D01*
X154654054Y-111690790D01*
X154655681Y-111828363D01*
X154654172Y-111838508D01*
X154655943Y-111850486D01*
X154655975Y-111853156D01*
X154656539Y-111854519D01*
X154657040Y-111857901D01*
X154704544Y-112040980D01*
X154705224Y-112050536D01*
X154710815Y-112065148D01*
X154711254Y-112066837D01*
X154711684Y-112067417D01*
X154712230Y-112068844D01*
X154761566Y-112163866D01*
X154766144Y-112174918D01*
X154769302Y-112178766D01*
X154770292Y-112180672D01*
X154772286Y-112182401D01*
X154778581Y-112190071D01*
X154864526Y-112273902D01*
X154865531Y-112275912D01*
X154875055Y-112284172D01*
X154888972Y-112297747D01*
X154892291Y-112299122D01*
X154895007Y-112301477D01*
X154912907Y-112309468D01*
X155055991Y-112355374D01*
X155067878Y-112360298D01*
X155072870Y-112360789D01*
X155074879Y-112361434D01*
X155077513Y-112361246D01*
X155087387Y-112362219D01*
X155183529Y-112360609D01*
X155195132Y-112361434D01*
X155199968Y-112360334D01*
X155202134Y-112360298D01*
X155204576Y-112359286D01*
X155214248Y-112357087D01*
X155342625Y-112312678D01*
X155344992Y-112312678D01*
X155356984Y-112307710D01*
X155375005Y-112301477D01*
X155377720Y-112299122D01*
X155381040Y-112297747D01*
X155396193Y-112285310D01*
X155456249Y-112222537D01*
X155471180Y-112186488D01*
X155473101Y-112166980D01*
X155471180Y-111814138D01*
X155456248Y-111778090D01*
X155428658Y-111750500D01*
X155392610Y-111735568D01*
X155373101Y-111733647D01*
X155163116Y-111735568D01*
X155127068Y-111750500D01*
X155099478Y-111778090D01*
X155084546Y-111814138D01*
X155084546Y-111853156D01*
X155099478Y-111889204D01*
X155127068Y-111916794D01*
X155163116Y-111931726D01*
X155182625Y-111933647D01*
X155273640Y-111932814D01*
X155274688Y-112125224D01*
X155273059Y-112126927D01*
X155170448Y-112162422D01*
X155106961Y-112163485D01*
X155000221Y-112129240D01*
X154933082Y-112063752D01*
X154897461Y-111995145D01*
X154853982Y-111827580D01*
X154852576Y-111708773D01*
X154892816Y-111541500D01*
X154928738Y-111466830D01*
X154996045Y-111397824D01*
X155099384Y-111362077D01*
X155204585Y-111360832D01*
X155299069Y-111406287D01*
X155337989Y-111409053D01*
X155375005Y-111396714D01*
X155404482Y-111371149D01*
X155421931Y-111336251D01*
X155424696Y-111297331D01*
X155412993Y-111262219D01*
X155701673Y-111262219D01*
X155703594Y-112281728D01*
X155718526Y-112317776D01*
X155746116Y-112345366D01*
X155782164Y-112360298D01*
X155821182Y-112360298D01*
X155857230Y-112345366D01*
X155884820Y-112317776D01*
X155899752Y-112281728D01*
X155901673Y-112262219D01*
X155900492Y-111635475D01*
X156284990Y-112305793D01*
X156289954Y-112317776D01*
X156294433Y-112322255D01*
X156297624Y-112327818D01*
X156308140Y-112335962D01*
X156317544Y-112345366D01*
X156323431Y-112347804D01*
X156328473Y-112351709D01*
X156341305Y-112355208D01*
X156353592Y-112360298D01*
X156359968Y-112360298D01*
X156366117Y-112361975D01*
X156379310Y-112360298D01*
X156392610Y-112360298D01*
X156398498Y-112357858D01*
X156404823Y-112357055D01*
X156416372Y-112350454D01*
X156428658Y-112345366D01*
X156433165Y-112340858D01*
X156438700Y-112337696D01*
X156446844Y-112327179D01*
X156456248Y-112317776D01*
X156458686Y-112311888D01*
X156462591Y-112306847D01*
X156466090Y-112294014D01*
X156471180Y-112281728D01*
X156472162Y-112271750D01*
X156472857Y-112269204D01*
X156472606Y-112267236D01*
X156473101Y-112262219D01*
X156471217Y-111262219D01*
X156749292Y-111262219D01*
X156751213Y-112281728D01*
X156766145Y-112317776D01*
X156793735Y-112345366D01*
X156829783Y-112360298D01*
X156849292Y-112362219D01*
X157086092Y-112360453D01*
X157099894Y-112361434D01*
X157104821Y-112360313D01*
X157106896Y-112360298D01*
X157109338Y-112359286D01*
X157119010Y-112357087D01*
X157247387Y-112312678D01*
X157249754Y-112312678D01*
X157261746Y-112307710D01*
X157279767Y-112301477D01*
X157282482Y-112299122D01*
X157285802Y-112297747D01*
X157300955Y-112285310D01*
X157394972Y-112188920D01*
X157404482Y-112180673D01*
X157407148Y-112176437D01*
X157408630Y-112174918D01*
X157409641Y-112172476D01*
X157414925Y-112164082D01*
X157458353Y-112073810D01*
X157463520Y-112066837D01*
X157468748Y-112052202D01*
X157469550Y-112050536D01*
X157469601Y-112049815D01*
X157470115Y-112048377D01*
X157514694Y-111863064D01*
X157518799Y-111853156D01*
X157519991Y-111841046D01*
X157520602Y-111838508D01*
X157520384Y-111837049D01*
X157520720Y-111833647D01*
X157519092Y-111696073D01*
X157520602Y-111685929D01*
X157518830Y-111673950D01*
X157518799Y-111671281D01*
X157518234Y-111669917D01*
X157517734Y-111666536D01*
X157470229Y-111483456D01*
X157469550Y-111473901D01*
X157463957Y-111459285D01*
X157463520Y-111457600D01*
X157463090Y-111457020D01*
X157462544Y-111455592D01*
X157413201Y-111360558D01*
X157408629Y-111349519D01*
X157405473Y-111345674D01*
X157404482Y-111343764D01*
X157402484Y-111342031D01*
X157396193Y-111334365D01*
X157310248Y-111250536D01*
X157309243Y-111248526D01*
X157299713Y-111240260D01*
X157285801Y-111226691D01*
X157282482Y-111225316D01*
X157279767Y-111222961D01*
X157261866Y-111214970D01*
X157118786Y-111169065D01*
X157106896Y-111164140D01*
X157101902Y-111163648D01*
X157099894Y-111163004D01*
X157097260Y-111163191D01*
X157087387Y-111162219D01*
X156829783Y-111164140D01*
X156793735Y-111179072D01*
X156766145Y-111206662D01*
X156751213Y-111242710D01*
X156749292Y-111262219D01*
X156471217Y-111262219D01*
X156471180Y-111242710D01*
X156456248Y-111206662D01*
X156428658Y-111179072D01*
X156392610Y-111164140D01*
X156353592Y-111164140D01*
X156317544Y-111179072D01*
X156289954Y-111206662D01*
X156275022Y-111242710D01*
X156273101Y-111262219D01*
X156274281Y-111888962D01*
X155889783Y-111218644D01*
X155884820Y-111206662D01*
X155880340Y-111202182D01*
X155877150Y-111196620D01*
X155866635Y-111188477D01*
X155857230Y-111179072D01*
X155851339Y-111176632D01*
X155846301Y-111172730D01*
X155833472Y-111169231D01*
X155821182Y-111164140D01*
X155814807Y-111164140D01*
X155808658Y-111162463D01*
X155795465Y-111164140D01*
X155782164Y-111164140D01*
X155776275Y-111166579D01*
X155769951Y-111167383D01*
X155758401Y-111173983D01*
X155746116Y-111179072D01*
X155741608Y-111183579D01*
X155736074Y-111186742D01*
X155727931Y-111197256D01*
X155718526Y-111206662D01*
X155716086Y-111212552D01*
X155712184Y-111217591D01*
X155708685Y-111230419D01*
X155703594Y-111242710D01*
X155702611Y-111252687D01*
X155701917Y-111255234D01*
X155702167Y-111257201D01*
X155701673Y-111262219D01*
X155412993Y-111262219D01*
X155412358Y-111260315D01*
X155386793Y-111230838D01*
X155370203Y-111220395D01*
X155287185Y-111180456D01*
X155285801Y-111179072D01*
X155275051Y-111174619D01*
X155256657Y-111165770D01*
X155253073Y-111165515D01*
X155249753Y-111164140D01*
X155230244Y-111162219D01*
X155087583Y-111163906D01*
X155074879Y-111163004D01*
X155069993Y-111164114D01*
X155067878Y-111164140D01*
X155065436Y-111165151D01*
X155055764Y-111167351D01*
X154927390Y-111211759D01*
X154925021Y-111211759D01*
X154913024Y-111216728D01*
X154895007Y-111222961D01*
X154892291Y-111225316D01*
X154888973Y-111226691D01*
X154873819Y-111239127D01*
X154779802Y-111335516D01*
X154770292Y-111343765D01*
X154767625Y-111348001D01*
X154766145Y-111349519D01*
X154765134Y-111351958D01*
X154759849Y-111360355D01*
X154716420Y-111450626D01*
X154711254Y-111457600D01*
X154706026Y-111472232D01*
X154705224Y-111473901D01*
X154705172Y-111474623D01*
X154704659Y-111476061D01*
X154660079Y-111661371D01*
X154655975Y-111671281D01*
X154654782Y-111683390D01*
X154654172Y-111685929D01*
X154654389Y-111687387D01*
X154654054Y-111690790D01*
X154542943Y-111690790D01*
X154542943Y-111051108D01*
X157631831Y-111051108D01*
X157631831Y-112473330D01*
G37*
G36*
X157174551Y-108855198D02*
G01*
X157241692Y-108920685D01*
X157277312Y-108989289D01*
X157320791Y-109156856D01*
X157322197Y-109275664D01*
X157281957Y-109442936D01*
X157246035Y-109517606D01*
X157178726Y-109586614D01*
X157075544Y-109622307D01*
X156949105Y-109623250D01*
X156947594Y-108821485D01*
X157066706Y-108820597D01*
X157174551Y-108855198D01*
G37*
G36*
X157631831Y-109933330D02*
G01*
X154542943Y-109933330D01*
X154542943Y-109150790D01*
X154654054Y-109150790D01*
X154655681Y-109288363D01*
X154654172Y-109298508D01*
X154655943Y-109310486D01*
X154655975Y-109313156D01*
X154656539Y-109314519D01*
X154657040Y-109317901D01*
X154704544Y-109500980D01*
X154705224Y-109510536D01*
X154710815Y-109525148D01*
X154711254Y-109526837D01*
X154711684Y-109527417D01*
X154712230Y-109528844D01*
X154761566Y-109623866D01*
X154766144Y-109634918D01*
X154769302Y-109638766D01*
X154770292Y-109640672D01*
X154772286Y-109642401D01*
X154778581Y-109650071D01*
X154864526Y-109733902D01*
X154865531Y-109735912D01*
X154875055Y-109744172D01*
X154888972Y-109757747D01*
X154892291Y-109759122D01*
X154895007Y-109761477D01*
X154912907Y-109769468D01*
X155055991Y-109815374D01*
X155067878Y-109820298D01*
X155072870Y-109820789D01*
X155074879Y-109821434D01*
X155077513Y-109821246D01*
X155087387Y-109822219D01*
X155183529Y-109820609D01*
X155195132Y-109821434D01*
X155199968Y-109820334D01*
X155202134Y-109820298D01*
X155204576Y-109819286D01*
X155214248Y-109817087D01*
X155342625Y-109772678D01*
X155344992Y-109772678D01*
X155356984Y-109767710D01*
X155375005Y-109761477D01*
X155377720Y-109759122D01*
X155381040Y-109757747D01*
X155396193Y-109745310D01*
X155456249Y-109682537D01*
X155471180Y-109646488D01*
X155473101Y-109626980D01*
X155471180Y-109274138D01*
X155456248Y-109238090D01*
X155428658Y-109210500D01*
X155392610Y-109195568D01*
X155373101Y-109193647D01*
X155163116Y-109195568D01*
X155127068Y-109210500D01*
X155099478Y-109238090D01*
X155084546Y-109274138D01*
X155084546Y-109313156D01*
X155099478Y-109349204D01*
X155127068Y-109376794D01*
X155163116Y-109391726D01*
X155182625Y-109393647D01*
X155273640Y-109392814D01*
X155274688Y-109585224D01*
X155273059Y-109586927D01*
X155170448Y-109622422D01*
X155106961Y-109623485D01*
X155000221Y-109589240D01*
X154933082Y-109523752D01*
X154897461Y-109455145D01*
X154853982Y-109287580D01*
X154852576Y-109168773D01*
X154892816Y-109001500D01*
X154928738Y-108926830D01*
X154996045Y-108857824D01*
X155099384Y-108822077D01*
X155204585Y-108820832D01*
X155299069Y-108866287D01*
X155337989Y-108869053D01*
X155375005Y-108856714D01*
X155404482Y-108831149D01*
X155421931Y-108796251D01*
X155424696Y-108757331D01*
X155412993Y-108722219D01*
X155701673Y-108722219D01*
X155703594Y-109741728D01*
X155718526Y-109777776D01*
X155746116Y-109805366D01*
X155782164Y-109820298D01*
X155821182Y-109820298D01*
X155857230Y-109805366D01*
X155884820Y-109777776D01*
X155899752Y-109741728D01*
X155901673Y-109722219D01*
X155900492Y-109095475D01*
X156284990Y-109765793D01*
X156289954Y-109777776D01*
X156294433Y-109782255D01*
X156297624Y-109787818D01*
X156308140Y-109795962D01*
X156317544Y-109805366D01*
X156323431Y-109807804D01*
X156328473Y-109811709D01*
X156341305Y-109815208D01*
X156353592Y-109820298D01*
X156359968Y-109820298D01*
X156366117Y-109821975D01*
X156379310Y-109820298D01*
X156392610Y-109820298D01*
X156398498Y-109817858D01*
X156404823Y-109817055D01*
X156416372Y-109810454D01*
X156428658Y-109805366D01*
X156433165Y-109800858D01*
X156438700Y-109797696D01*
X156446844Y-109787179D01*
X156456248Y-109777776D01*
X156458686Y-109771888D01*
X156462591Y-109766847D01*
X156466090Y-109754014D01*
X156471180Y-109741728D01*
X156472162Y-109731750D01*
X156472857Y-109729204D01*
X156472606Y-109727236D01*
X156473101Y-109722219D01*
X156471217Y-108722219D01*
X156749292Y-108722219D01*
X156751213Y-109741728D01*
X156766145Y-109777776D01*
X156793735Y-109805366D01*
X156829783Y-109820298D01*
X156849292Y-109822219D01*
X157086092Y-109820453D01*
X157099894Y-109821434D01*
X157104821Y-109820313D01*
X157106896Y-109820298D01*
X157109338Y-109819286D01*
X157119010Y-109817087D01*
X157247387Y-109772678D01*
X157249754Y-109772678D01*
X157261746Y-109767710D01*
X157279767Y-109761477D01*
X157282482Y-109759122D01*
X157285802Y-109757747D01*
X157300955Y-109745310D01*
X157394972Y-109648920D01*
X157404482Y-109640673D01*
X157407148Y-109636437D01*
X157408630Y-109634918D01*
X157409641Y-109632476D01*
X157414925Y-109624082D01*
X157458353Y-109533810D01*
X157463520Y-109526837D01*
X157468748Y-109512202D01*
X157469550Y-109510536D01*
X157469601Y-109509815D01*
X157470115Y-109508377D01*
X157514694Y-109323064D01*
X157518799Y-109313156D01*
X157519991Y-109301046D01*
X157520602Y-109298508D01*
X157520384Y-109297049D01*
X157520720Y-109293647D01*
X157519092Y-109156073D01*
X157520602Y-109145929D01*
X157518830Y-109133950D01*
X157518799Y-109131281D01*
X157518234Y-109129917D01*
X157517734Y-109126536D01*
X157470229Y-108943456D01*
X157469550Y-108933901D01*
X157463957Y-108919285D01*
X157463520Y-108917600D01*
X157463090Y-108917020D01*
X157462544Y-108915592D01*
X157413201Y-108820558D01*
X157408629Y-108809519D01*
X157405473Y-108805674D01*
X157404482Y-108803764D01*
X157402484Y-108802031D01*
X157396193Y-108794365D01*
X157310248Y-108710536D01*
X157309243Y-108708526D01*
X157299713Y-108700260D01*
X157285801Y-108686691D01*
X157282482Y-108685316D01*
X157279767Y-108682961D01*
X157261866Y-108674970D01*
X157118786Y-108629065D01*
X157106896Y-108624140D01*
X157101902Y-108623648D01*
X157099894Y-108623004D01*
X157097260Y-108623191D01*
X157087387Y-108622219D01*
X156829783Y-108624140D01*
X156793735Y-108639072D01*
X156766145Y-108666662D01*
X156751213Y-108702710D01*
X156749292Y-108722219D01*
X156471217Y-108722219D01*
X156471180Y-108702710D01*
X156456248Y-108666662D01*
X156428658Y-108639072D01*
X156392610Y-108624140D01*
X156353592Y-108624140D01*
X156317544Y-108639072D01*
X156289954Y-108666662D01*
X156275022Y-108702710D01*
X156273101Y-108722219D01*
X156274281Y-109348962D01*
X155889783Y-108678644D01*
X155884820Y-108666662D01*
X155880340Y-108662182D01*
X155877150Y-108656620D01*
X155866635Y-108648477D01*
X155857230Y-108639072D01*
X155851339Y-108636632D01*
X155846301Y-108632730D01*
X155833472Y-108629231D01*
X155821182Y-108624140D01*
X155814807Y-108624140D01*
X155808658Y-108622463D01*
X155795465Y-108624140D01*
X155782164Y-108624140D01*
X155776275Y-108626579D01*
X155769951Y-108627383D01*
X155758401Y-108633983D01*
X155746116Y-108639072D01*
X155741608Y-108643579D01*
X155736074Y-108646742D01*
X155727931Y-108657256D01*
X155718526Y-108666662D01*
X155716086Y-108672552D01*
X155712184Y-108677591D01*
X155708685Y-108690419D01*
X155703594Y-108702710D01*
X155702611Y-108712687D01*
X155701917Y-108715234D01*
X155702167Y-108717201D01*
X155701673Y-108722219D01*
X155412993Y-108722219D01*
X155412358Y-108720315D01*
X155386793Y-108690838D01*
X155370203Y-108680395D01*
X155287185Y-108640456D01*
X155285801Y-108639072D01*
X155275051Y-108634619D01*
X155256657Y-108625770D01*
X155253073Y-108625515D01*
X155249753Y-108624140D01*
X155230244Y-108622219D01*
X155087583Y-108623906D01*
X155074879Y-108623004D01*
X155069993Y-108624114D01*
X155067878Y-108624140D01*
X155065436Y-108625151D01*
X155055764Y-108627351D01*
X154927390Y-108671759D01*
X154925021Y-108671759D01*
X154913024Y-108676728D01*
X154895007Y-108682961D01*
X154892291Y-108685316D01*
X154888973Y-108686691D01*
X154873819Y-108699127D01*
X154779802Y-108795516D01*
X154770292Y-108803765D01*
X154767625Y-108808001D01*
X154766145Y-108809519D01*
X154765134Y-108811958D01*
X154759849Y-108820355D01*
X154716420Y-108910626D01*
X154711254Y-108917600D01*
X154706026Y-108932232D01*
X154705224Y-108933901D01*
X154705172Y-108934623D01*
X154704659Y-108936061D01*
X154660079Y-109121371D01*
X154655975Y-109131281D01*
X154654782Y-109143390D01*
X154654172Y-109145929D01*
X154654389Y-109147387D01*
X154654054Y-109150790D01*
X154542943Y-109150790D01*
X154542943Y-108511108D01*
X157631831Y-108511108D01*
X157631831Y-109933330D01*
G37*
D10*
X151130000Y-113284000D02*
X154559000Y-113284000D01*
X154559000Y-115316000D01*
X151130000Y-115316000D01*
X151130000Y-113284000D01*
G36*
X151130000Y-113284000D02*
G01*
X154559000Y-113284000D01*
X154559000Y-115316000D01*
X151130000Y-115316000D01*
X151130000Y-113284000D01*
G37*
X151130000Y-110744000D02*
X154559000Y-110744000D01*
X154559000Y-112776000D01*
X151130000Y-112776000D01*
X151130000Y-110744000D01*
G36*
X151130000Y-110744000D02*
G01*
X154559000Y-110744000D01*
X154559000Y-112776000D01*
X151130000Y-112776000D01*
X151130000Y-110744000D01*
G37*
X151130000Y-108204000D02*
X154559000Y-108204000D01*
X154559000Y-110236000D01*
X151130000Y-110236000D01*
X151130000Y-108204000D01*
G36*
X151130000Y-108204000D02*
G01*
X154559000Y-108204000D01*
X154559000Y-110236000D01*
X151130000Y-110236000D01*
X151130000Y-108204000D01*
G37*
D11*
X149467673Y-120263219D02*
X149467673Y-119263219D01*
X149467673Y-119263219D02*
X149848625Y-119263219D01*
X149848625Y-119263219D02*
X149943863Y-119310838D01*
X149943863Y-119310838D02*
X149991482Y-119358457D01*
X149991482Y-119358457D02*
X150039101Y-119453695D01*
X150039101Y-119453695D02*
X150039101Y-119596552D01*
X150039101Y-119596552D02*
X149991482Y-119691790D01*
X149991482Y-119691790D02*
X149943863Y-119739409D01*
X149943863Y-119739409D02*
X149848625Y-119787028D01*
X149848625Y-119787028D02*
X149467673Y-119787028D01*
X150610530Y-120263219D02*
X150515292Y-120215600D01*
X150515292Y-120215600D02*
X150467673Y-120167980D01*
X150467673Y-120167980D02*
X150420054Y-120072742D01*
X150420054Y-120072742D02*
X150420054Y-119787028D01*
X150420054Y-119787028D02*
X150467673Y-119691790D01*
X150467673Y-119691790D02*
X150515292Y-119644171D01*
X150515292Y-119644171D02*
X150610530Y-119596552D01*
X150610530Y-119596552D02*
X150753387Y-119596552D01*
X150753387Y-119596552D02*
X150848625Y-119644171D01*
X150848625Y-119644171D02*
X150896244Y-119691790D01*
X150896244Y-119691790D02*
X150943863Y-119787028D01*
X150943863Y-119787028D02*
X150943863Y-120072742D01*
X150943863Y-120072742D02*
X150896244Y-120167980D01*
X150896244Y-120167980D02*
X150848625Y-120215600D01*
X150848625Y-120215600D02*
X150753387Y-120263219D01*
X150753387Y-120263219D02*
X150610530Y-120263219D01*
X151277197Y-119596552D02*
X151467673Y-120263219D01*
X151467673Y-120263219D02*
X151658149Y-119787028D01*
X151658149Y-119787028D02*
X151848625Y-120263219D01*
X151848625Y-120263219D02*
X152039101Y-119596552D01*
X152801006Y-120215600D02*
X152705768Y-120263219D01*
X152705768Y-120263219D02*
X152515292Y-120263219D01*
X152515292Y-120263219D02*
X152420054Y-120215600D01*
X152420054Y-120215600D02*
X152372435Y-120120361D01*
X152372435Y-120120361D02*
X152372435Y-119739409D01*
X152372435Y-119739409D02*
X152420054Y-119644171D01*
X152420054Y-119644171D02*
X152515292Y-119596552D01*
X152515292Y-119596552D02*
X152705768Y-119596552D01*
X152705768Y-119596552D02*
X152801006Y-119644171D01*
X152801006Y-119644171D02*
X152848625Y-119739409D01*
X152848625Y-119739409D02*
X152848625Y-119834647D01*
X152848625Y-119834647D02*
X152372435Y-119929885D01*
X153277197Y-120263219D02*
X153277197Y-119596552D01*
X153277197Y-119787028D02*
X153324816Y-119691790D01*
X153324816Y-119691790D02*
X153372435Y-119644171D01*
X153372435Y-119644171D02*
X153467673Y-119596552D01*
X153467673Y-119596552D02*
X153562911Y-119596552D01*
X154452435Y-83322219D02*
X155119101Y-84322219D01*
X155119101Y-83322219D02*
X154452435Y-84322219D01*
X155452435Y-84036504D02*
X155928625Y-84036504D01*
X155357197Y-84322219D02*
X155690530Y-83322219D01*
X155690530Y-83322219D02*
X156023863Y-84322219D01*
X156833387Y-83322219D02*
X156357197Y-83322219D01*
X156357197Y-83322219D02*
X156309578Y-83798409D01*
X156309578Y-83798409D02*
X156357197Y-83750790D01*
X156357197Y-83750790D02*
X156452435Y-83703171D01*
X156452435Y-83703171D02*
X156690530Y-83703171D01*
X156690530Y-83703171D02*
X156785768Y-83750790D01*
X156785768Y-83750790D02*
X156833387Y-83798409D01*
X156833387Y-83798409D02*
X156881006Y-83893647D01*
X156881006Y-83893647D02*
X156881006Y-84131742D01*
X156881006Y-84131742D02*
X156833387Y-84226980D01*
X156833387Y-84226980D02*
X156785768Y-84274600D01*
X156785768Y-84274600D02*
X156690530Y-84322219D01*
X156690530Y-84322219D02*
X156452435Y-84322219D01*
X156452435Y-84322219D02*
X156357197Y-84274600D01*
X156357197Y-84274600D02*
X156309578Y-84226980D01*
X144974959Y-68828266D02*
X145736864Y-68828266D01*
X145355911Y-69209219D02*
X145355911Y-68447314D01*
X146689244Y-68209219D02*
X146213054Y-68209219D01*
X146213054Y-68209219D02*
X146165435Y-68685409D01*
X146165435Y-68685409D02*
X146213054Y-68637790D01*
X146213054Y-68637790D02*
X146308292Y-68590171D01*
X146308292Y-68590171D02*
X146546387Y-68590171D01*
X146546387Y-68590171D02*
X146641625Y-68637790D01*
X146641625Y-68637790D02*
X146689244Y-68685409D01*
X146689244Y-68685409D02*
X146736863Y-68780647D01*
X146736863Y-68780647D02*
X146736863Y-69018742D01*
X146736863Y-69018742D02*
X146689244Y-69113980D01*
X146689244Y-69113980D02*
X146641625Y-69161600D01*
X146641625Y-69161600D02*
X146546387Y-69209219D01*
X146546387Y-69209219D02*
X146308292Y-69209219D01*
X146308292Y-69209219D02*
X146213054Y-69161600D01*
X146213054Y-69161600D02*
X146165435Y-69113980D01*
X147022578Y-68209219D02*
X147355911Y-69209219D01*
X147355911Y-69209219D02*
X147689244Y-68209219D01*
X154452435Y-106182219D02*
X155119101Y-107182219D01*
X155119101Y-106182219D02*
X154452435Y-107182219D01*
X155500054Y-107182219D02*
X155500054Y-106182219D01*
X155500054Y-106182219D02*
X155738149Y-106182219D01*
X155738149Y-106182219D02*
X155881006Y-106229838D01*
X155881006Y-106229838D02*
X155976244Y-106325076D01*
X155976244Y-106325076D02*
X156023863Y-106420314D01*
X156023863Y-106420314D02*
X156071482Y-106610790D01*
X156071482Y-106610790D02*
X156071482Y-106753647D01*
X156071482Y-106753647D02*
X156023863Y-106944123D01*
X156023863Y-106944123D02*
X155976244Y-107039361D01*
X155976244Y-107039361D02*
X155881006Y-107134600D01*
X155881006Y-107134600D02*
X155738149Y-107182219D01*
X155738149Y-107182219D02*
X155500054Y-107182219D01*
X156404816Y-106182219D02*
X157071482Y-106182219D01*
X157071482Y-106182219D02*
X156642911Y-107182219D01*
X145165435Y-88529219D02*
X145832101Y-89529219D01*
X145832101Y-88529219D02*
X145165435Y-89529219D01*
X146165435Y-89243504D02*
X146641625Y-89243504D01*
X146070197Y-89529219D02*
X146403530Y-88529219D01*
X146403530Y-88529219D02*
X146736863Y-89529219D01*
X147213054Y-88957790D02*
X147117816Y-88910171D01*
X147117816Y-88910171D02*
X147070197Y-88862552D01*
X147070197Y-88862552D02*
X147022578Y-88767314D01*
X147022578Y-88767314D02*
X147022578Y-88719695D01*
X147022578Y-88719695D02*
X147070197Y-88624457D01*
X147070197Y-88624457D02*
X147117816Y-88576838D01*
X147117816Y-88576838D02*
X147213054Y-88529219D01*
X147213054Y-88529219D02*
X147403530Y-88529219D01*
X147403530Y-88529219D02*
X147498768Y-88576838D01*
X147498768Y-88576838D02*
X147546387Y-88624457D01*
X147546387Y-88624457D02*
X147594006Y-88719695D01*
X147594006Y-88719695D02*
X147594006Y-88767314D01*
X147594006Y-88767314D02*
X147546387Y-88862552D01*
X147546387Y-88862552D02*
X147498768Y-88910171D01*
X147498768Y-88910171D02*
X147403530Y-88957790D01*
X147403530Y-88957790D02*
X147213054Y-88957790D01*
X147213054Y-88957790D02*
X147117816Y-89005409D01*
X147117816Y-89005409D02*
X147070197Y-89053028D01*
X147070197Y-89053028D02*
X147022578Y-89148266D01*
X147022578Y-89148266D02*
X147022578Y-89338742D01*
X147022578Y-89338742D02*
X147070197Y-89433980D01*
X147070197Y-89433980D02*
X147117816Y-89481600D01*
X147117816Y-89481600D02*
X147213054Y-89529219D01*
X147213054Y-89529219D02*
X147403530Y-89529219D01*
X147403530Y-89529219D02*
X147498768Y-89481600D01*
X147498768Y-89481600D02*
X147546387Y-89433980D01*
X147546387Y-89433980D02*
X147594006Y-89338742D01*
X147594006Y-89338742D02*
X147594006Y-89148266D01*
X147594006Y-89148266D02*
X147546387Y-89053028D01*
X147546387Y-89053028D02*
X147498768Y-89005409D01*
X147498768Y-89005409D02*
X147403530Y-88957790D01*
X145165435Y-85989219D02*
X145832101Y-86989219D01*
X145832101Y-85989219D02*
X145165435Y-86989219D01*
X146165435Y-86703504D02*
X146641625Y-86703504D01*
X146070197Y-86989219D02*
X146403530Y-85989219D01*
X146403530Y-85989219D02*
X146736863Y-86989219D01*
X147498768Y-85989219D02*
X147308292Y-85989219D01*
X147308292Y-85989219D02*
X147213054Y-86036838D01*
X147213054Y-86036838D02*
X147165435Y-86084457D01*
X147165435Y-86084457D02*
X147070197Y-86227314D01*
X147070197Y-86227314D02*
X147022578Y-86417790D01*
X147022578Y-86417790D02*
X147022578Y-86798742D01*
X147022578Y-86798742D02*
X147070197Y-86893980D01*
X147070197Y-86893980D02*
X147117816Y-86941600D01*
X147117816Y-86941600D02*
X147213054Y-86989219D01*
X147213054Y-86989219D02*
X147403530Y-86989219D01*
X147403530Y-86989219D02*
X147498768Y-86941600D01*
X147498768Y-86941600D02*
X147546387Y-86893980D01*
X147546387Y-86893980D02*
X147594006Y-86798742D01*
X147594006Y-86798742D02*
X147594006Y-86560647D01*
X147594006Y-86560647D02*
X147546387Y-86465409D01*
X147546387Y-86465409D02*
X147498768Y-86417790D01*
X147498768Y-86417790D02*
X147403530Y-86370171D01*
X147403530Y-86370171D02*
X147213054Y-86370171D01*
X147213054Y-86370171D02*
X147117816Y-86417790D01*
X147117816Y-86417790D02*
X147070197Y-86465409D01*
X147070197Y-86465409D02*
X147022578Y-86560647D01*
X145641625Y-71749219D02*
X145308292Y-71273028D01*
X145070197Y-71749219D02*
X145070197Y-70749219D01*
X145070197Y-70749219D02*
X145451149Y-70749219D01*
X145451149Y-70749219D02*
X145546387Y-70796838D01*
X145546387Y-70796838D02*
X145594006Y-70844457D01*
X145594006Y-70844457D02*
X145641625Y-70939695D01*
X145641625Y-70939695D02*
X145641625Y-71082552D01*
X145641625Y-71082552D02*
X145594006Y-71177790D01*
X145594006Y-71177790D02*
X145546387Y-71225409D01*
X145546387Y-71225409D02*
X145451149Y-71273028D01*
X145451149Y-71273028D02*
X145070197Y-71273028D01*
X146070197Y-71225409D02*
X146403530Y-71225409D01*
X146546387Y-71749219D02*
X146070197Y-71749219D01*
X146070197Y-71749219D02*
X146070197Y-70749219D01*
X146070197Y-70749219D02*
X146546387Y-70749219D01*
X147641625Y-71844457D02*
X147546387Y-71796838D01*
X147546387Y-71796838D02*
X147451149Y-71701600D01*
X147451149Y-71701600D02*
X147308292Y-71558742D01*
X147308292Y-71558742D02*
X147213054Y-71511123D01*
X147213054Y-71511123D02*
X147117816Y-71511123D01*
X147165435Y-71749219D02*
X147070197Y-71701600D01*
X147070197Y-71701600D02*
X146974959Y-71606361D01*
X146974959Y-71606361D02*
X146927340Y-71415885D01*
X146927340Y-71415885D02*
X146927340Y-71082552D01*
X146927340Y-71082552D02*
X146974959Y-70892076D01*
X146974959Y-70892076D02*
X147070197Y-70796838D01*
X147070197Y-70796838D02*
X147165435Y-70749219D01*
X147165435Y-70749219D02*
X147355911Y-70749219D01*
X147355911Y-70749219D02*
X147451149Y-70796838D01*
X147451149Y-70796838D02*
X147546387Y-70892076D01*
X147546387Y-70892076D02*
X147594006Y-71082552D01*
X147594006Y-71082552D02*
X147594006Y-71415885D01*
X147594006Y-71415885D02*
X147546387Y-71606361D01*
X147546387Y-71606361D02*
X147451149Y-71701600D01*
X147451149Y-71701600D02*
X147355911Y-71749219D01*
X147355911Y-71749219D02*
X147165435Y-71749219D01*
X145165435Y-78369219D02*
X145832101Y-79369219D01*
X145832101Y-78369219D02*
X145165435Y-79369219D01*
X146165435Y-79083504D02*
X146641625Y-79083504D01*
X146070197Y-79369219D02*
X146403530Y-78369219D01*
X146403530Y-78369219D02*
X146736863Y-79369219D01*
X147260673Y-78369219D02*
X147355911Y-78369219D01*
X147355911Y-78369219D02*
X147451149Y-78416838D01*
X147451149Y-78416838D02*
X147498768Y-78464457D01*
X147498768Y-78464457D02*
X147546387Y-78559695D01*
X147546387Y-78559695D02*
X147594006Y-78750171D01*
X147594006Y-78750171D02*
X147594006Y-78988266D01*
X147594006Y-78988266D02*
X147546387Y-79178742D01*
X147546387Y-79178742D02*
X147498768Y-79273980D01*
X147498768Y-79273980D02*
X147451149Y-79321600D01*
X147451149Y-79321600D02*
X147355911Y-79369219D01*
X147355911Y-79369219D02*
X147260673Y-79369219D01*
X147260673Y-79369219D02*
X147165435Y-79321600D01*
X147165435Y-79321600D02*
X147117816Y-79273980D01*
X147117816Y-79273980D02*
X147070197Y-79178742D01*
X147070197Y-79178742D02*
X147022578Y-78988266D01*
X147022578Y-78988266D02*
X147022578Y-78750171D01*
X147022578Y-78750171D02*
X147070197Y-78559695D01*
X147070197Y-78559695D02*
X147117816Y-78464457D01*
X147117816Y-78464457D02*
X147165435Y-78416838D01*
X147165435Y-78416838D02*
X147260673Y-78369219D01*
X144213054Y-91069219D02*
X144879720Y-92069219D01*
X144879720Y-91069219D02*
X144213054Y-92069219D01*
X145213054Y-91783504D02*
X145689244Y-91783504D01*
X145117816Y-92069219D02*
X145451149Y-91069219D01*
X145451149Y-91069219D02*
X145784482Y-92069219D01*
X146641625Y-92069219D02*
X146070197Y-92069219D01*
X146355911Y-92069219D02*
X146355911Y-91069219D01*
X146355911Y-91069219D02*
X146260673Y-91212076D01*
X146260673Y-91212076D02*
X146165435Y-91307314D01*
X146165435Y-91307314D02*
X146070197Y-91354933D01*
X147260673Y-91069219D02*
X147355911Y-91069219D01*
X147355911Y-91069219D02*
X147451149Y-91116838D01*
X147451149Y-91116838D02*
X147498768Y-91164457D01*
X147498768Y-91164457D02*
X147546387Y-91259695D01*
X147546387Y-91259695D02*
X147594006Y-91450171D01*
X147594006Y-91450171D02*
X147594006Y-91688266D01*
X147594006Y-91688266D02*
X147546387Y-91878742D01*
X147546387Y-91878742D02*
X147498768Y-91973980D01*
X147498768Y-91973980D02*
X147451149Y-92021600D01*
X147451149Y-92021600D02*
X147355911Y-92069219D01*
X147355911Y-92069219D02*
X147260673Y-92069219D01*
X147260673Y-92069219D02*
X147165435Y-92021600D01*
X147165435Y-92021600D02*
X147117816Y-91973980D01*
X147117816Y-91973980D02*
X147070197Y-91878742D01*
X147070197Y-91878742D02*
X147022578Y-91688266D01*
X147022578Y-91688266D02*
X147022578Y-91450171D01*
X147022578Y-91450171D02*
X147070197Y-91259695D01*
X147070197Y-91259695D02*
X147117816Y-91164457D01*
X147117816Y-91164457D02*
X147165435Y-91116838D01*
X147165435Y-91116838D02*
X147260673Y-91069219D01*
X144213054Y-96149219D02*
X144879720Y-97149219D01*
X144879720Y-96149219D02*
X144213054Y-97149219D01*
X145213054Y-96863504D02*
X145689244Y-96863504D01*
X145117816Y-97149219D02*
X145451149Y-96149219D01*
X145451149Y-96149219D02*
X145784482Y-97149219D01*
X146641625Y-97149219D02*
X146070197Y-97149219D01*
X146355911Y-97149219D02*
X146355911Y-96149219D01*
X146355911Y-96149219D02*
X146260673Y-96292076D01*
X146260673Y-96292076D02*
X146165435Y-96387314D01*
X146165435Y-96387314D02*
X146070197Y-96434933D01*
X147498768Y-96482552D02*
X147498768Y-97149219D01*
X147260673Y-96101600D02*
X147022578Y-96815885D01*
X147022578Y-96815885D02*
X147641625Y-96815885D01*
X154452435Y-75702219D02*
X155119101Y-76702219D01*
X155119101Y-75702219D02*
X154452435Y-76702219D01*
X155404816Y-75702219D02*
X155642911Y-76702219D01*
X155642911Y-76702219D02*
X155833387Y-75987933D01*
X155833387Y-75987933D02*
X156023863Y-76702219D01*
X156023863Y-76702219D02*
X156261959Y-75702219D01*
X157214339Y-76702219D02*
X156881006Y-76226028D01*
X156642911Y-76702219D02*
X156642911Y-75702219D01*
X156642911Y-75702219D02*
X157023863Y-75702219D01*
X157023863Y-75702219D02*
X157119101Y-75749838D01*
X157119101Y-75749838D02*
X157166720Y-75797457D01*
X157166720Y-75797457D02*
X157214339Y-75892695D01*
X157214339Y-75892695D02*
X157214339Y-76035552D01*
X157214339Y-76035552D02*
X157166720Y-76130790D01*
X157166720Y-76130790D02*
X157119101Y-76178409D01*
X157119101Y-76178409D02*
X157023863Y-76226028D01*
X157023863Y-76226028D02*
X156642911Y-76226028D01*
X154452435Y-93482219D02*
X155119101Y-94482219D01*
X155119101Y-93482219D02*
X154452435Y-94482219D01*
X155452435Y-94196504D02*
X155928625Y-94196504D01*
X155357197Y-94482219D02*
X155690530Y-93482219D01*
X155690530Y-93482219D02*
X156023863Y-94482219D01*
X156881006Y-94482219D02*
X156309578Y-94482219D01*
X156595292Y-94482219D02*
X156595292Y-93482219D01*
X156595292Y-93482219D02*
X156500054Y-93625076D01*
X156500054Y-93625076D02*
X156404816Y-93720314D01*
X156404816Y-93720314D02*
X156309578Y-93767933D01*
X157214340Y-93482219D02*
X157833387Y-93482219D01*
X157833387Y-93482219D02*
X157500054Y-93863171D01*
X157500054Y-93863171D02*
X157642911Y-93863171D01*
X157642911Y-93863171D02*
X157738149Y-93910790D01*
X157738149Y-93910790D02*
X157785768Y-93958409D01*
X157785768Y-93958409D02*
X157833387Y-94053647D01*
X157833387Y-94053647D02*
X157833387Y-94291742D01*
X157833387Y-94291742D02*
X157785768Y-94386980D01*
X157785768Y-94386980D02*
X157738149Y-94434600D01*
X157738149Y-94434600D02*
X157642911Y-94482219D01*
X157642911Y-94482219D02*
X157357197Y-94482219D01*
X157357197Y-94482219D02*
X157261959Y-94434600D01*
X157261959Y-94434600D02*
X157214340Y-94386980D01*
X144974959Y-112008266D02*
X145736864Y-112008266D01*
X145355911Y-112389219D02*
X145355911Y-111627314D01*
X146689244Y-111389219D02*
X146213054Y-111389219D01*
X146213054Y-111389219D02*
X146165435Y-111865409D01*
X146165435Y-111865409D02*
X146213054Y-111817790D01*
X146213054Y-111817790D02*
X146308292Y-111770171D01*
X146308292Y-111770171D02*
X146546387Y-111770171D01*
X146546387Y-111770171D02*
X146641625Y-111817790D01*
X146641625Y-111817790D02*
X146689244Y-111865409D01*
X146689244Y-111865409D02*
X146736863Y-111960647D01*
X146736863Y-111960647D02*
X146736863Y-112198742D01*
X146736863Y-112198742D02*
X146689244Y-112293980D01*
X146689244Y-112293980D02*
X146641625Y-112341600D01*
X146641625Y-112341600D02*
X146546387Y-112389219D01*
X146546387Y-112389219D02*
X146308292Y-112389219D01*
X146308292Y-112389219D02*
X146213054Y-112341600D01*
X146213054Y-112341600D02*
X146165435Y-112293980D01*
X147022578Y-111389219D02*
X147355911Y-112389219D01*
X147355911Y-112389219D02*
X147689244Y-111389219D01*
X145451150Y-113929219D02*
X146117816Y-114929219D01*
X146117816Y-113929219D02*
X145451150Y-114929219D01*
X146498769Y-114929219D02*
X146498769Y-113929219D01*
X146974959Y-114929219D02*
X146974959Y-113929219D01*
X146974959Y-113929219D02*
X147546387Y-114929219D01*
X147546387Y-114929219D02*
X147546387Y-113929219D01*
X154452435Y-85862219D02*
X155119101Y-86862219D01*
X155119101Y-85862219D02*
X154452435Y-86862219D01*
X155452435Y-86576504D02*
X155928625Y-86576504D01*
X155357197Y-86862219D02*
X155690530Y-85862219D01*
X155690530Y-85862219D02*
X156023863Y-86862219D01*
X156261959Y-85862219D02*
X156928625Y-85862219D01*
X156928625Y-85862219D02*
X156500054Y-86862219D01*
X144974959Y-109468266D02*
X145736864Y-109468266D01*
X145355911Y-109849219D02*
X145355911Y-109087314D01*
X146689244Y-108849219D02*
X146213054Y-108849219D01*
X146213054Y-108849219D02*
X146165435Y-109325409D01*
X146165435Y-109325409D02*
X146213054Y-109277790D01*
X146213054Y-109277790D02*
X146308292Y-109230171D01*
X146308292Y-109230171D02*
X146546387Y-109230171D01*
X146546387Y-109230171D02*
X146641625Y-109277790D01*
X146641625Y-109277790D02*
X146689244Y-109325409D01*
X146689244Y-109325409D02*
X146736863Y-109420647D01*
X146736863Y-109420647D02*
X146736863Y-109658742D01*
X146736863Y-109658742D02*
X146689244Y-109753980D01*
X146689244Y-109753980D02*
X146641625Y-109801600D01*
X146641625Y-109801600D02*
X146546387Y-109849219D01*
X146546387Y-109849219D02*
X146308292Y-109849219D01*
X146308292Y-109849219D02*
X146213054Y-109801600D01*
X146213054Y-109801600D02*
X146165435Y-109753980D01*
X147022578Y-108849219D02*
X147355911Y-109849219D01*
X147355911Y-109849219D02*
X147689244Y-108849219D01*
X154452435Y-96022219D02*
X155119101Y-97022219D01*
X155119101Y-96022219D02*
X154452435Y-97022219D01*
X155452435Y-96736504D02*
X155928625Y-96736504D01*
X155357197Y-97022219D02*
X155690530Y-96022219D01*
X155690530Y-96022219D02*
X156023863Y-97022219D01*
X156881006Y-97022219D02*
X156309578Y-97022219D01*
X156595292Y-97022219D02*
X156595292Y-96022219D01*
X156595292Y-96022219D02*
X156500054Y-96165076D01*
X156500054Y-96165076D02*
X156404816Y-96260314D01*
X156404816Y-96260314D02*
X156309578Y-96307933D01*
X157785768Y-96022219D02*
X157309578Y-96022219D01*
X157309578Y-96022219D02*
X157261959Y-96498409D01*
X157261959Y-96498409D02*
X157309578Y-96450790D01*
X157309578Y-96450790D02*
X157404816Y-96403171D01*
X157404816Y-96403171D02*
X157642911Y-96403171D01*
X157642911Y-96403171D02*
X157738149Y-96450790D01*
X157738149Y-96450790D02*
X157785768Y-96498409D01*
X157785768Y-96498409D02*
X157833387Y-96593647D01*
X157833387Y-96593647D02*
X157833387Y-96831742D01*
X157833387Y-96831742D02*
X157785768Y-96926980D01*
X157785768Y-96926980D02*
X157738149Y-96974600D01*
X157738149Y-96974600D02*
X157642911Y-97022219D01*
X157642911Y-97022219D02*
X157404816Y-97022219D01*
X157404816Y-97022219D02*
X157309578Y-96974600D01*
X157309578Y-96974600D02*
X157261959Y-96926980D01*
X145117816Y-74003504D02*
X145594006Y-74003504D01*
X145022578Y-74289219D02*
X145355911Y-73289219D01*
X145355911Y-73289219D02*
X145689244Y-74289219D01*
X146594006Y-74193980D02*
X146546387Y-74241600D01*
X146546387Y-74241600D02*
X146403530Y-74289219D01*
X146403530Y-74289219D02*
X146308292Y-74289219D01*
X146308292Y-74289219D02*
X146165435Y-74241600D01*
X146165435Y-74241600D02*
X146070197Y-74146361D01*
X146070197Y-74146361D02*
X146022578Y-74051123D01*
X146022578Y-74051123D02*
X145974959Y-73860647D01*
X145974959Y-73860647D02*
X145974959Y-73717790D01*
X145974959Y-73717790D02*
X146022578Y-73527314D01*
X146022578Y-73527314D02*
X146070197Y-73432076D01*
X146070197Y-73432076D02*
X146165435Y-73336838D01*
X146165435Y-73336838D02*
X146308292Y-73289219D01*
X146308292Y-73289219D02*
X146403530Y-73289219D01*
X146403530Y-73289219D02*
X146546387Y-73336838D01*
X146546387Y-73336838D02*
X146594006Y-73384457D01*
X147022578Y-74289219D02*
X147022578Y-73289219D01*
X147594006Y-74289219D02*
X147165435Y-73717790D01*
X147594006Y-73289219D02*
X147022578Y-73860647D01*
X154452435Y-103642219D02*
X155119101Y-104642219D01*
X155119101Y-103642219D02*
X154452435Y-104642219D01*
X155500054Y-104642219D02*
X155500054Y-103642219D01*
X155500054Y-103642219D02*
X155738149Y-103642219D01*
X155738149Y-103642219D02*
X155881006Y-103689838D01*
X155881006Y-103689838D02*
X155976244Y-103785076D01*
X155976244Y-103785076D02*
X156023863Y-103880314D01*
X156023863Y-103880314D02*
X156071482Y-104070790D01*
X156071482Y-104070790D02*
X156071482Y-104213647D01*
X156071482Y-104213647D02*
X156023863Y-104404123D01*
X156023863Y-104404123D02*
X155976244Y-104499361D01*
X155976244Y-104499361D02*
X155881006Y-104594600D01*
X155881006Y-104594600D02*
X155738149Y-104642219D01*
X155738149Y-104642219D02*
X155500054Y-104642219D01*
X156976244Y-103642219D02*
X156500054Y-103642219D01*
X156500054Y-103642219D02*
X156452435Y-104118409D01*
X156452435Y-104118409D02*
X156500054Y-104070790D01*
X156500054Y-104070790D02*
X156595292Y-104023171D01*
X156595292Y-104023171D02*
X156833387Y-104023171D01*
X156833387Y-104023171D02*
X156928625Y-104070790D01*
X156928625Y-104070790D02*
X156976244Y-104118409D01*
X156976244Y-104118409D02*
X157023863Y-104213647D01*
X157023863Y-104213647D02*
X157023863Y-104451742D01*
X157023863Y-104451742D02*
X156976244Y-104546980D01*
X156976244Y-104546980D02*
X156928625Y-104594600D01*
X156928625Y-104594600D02*
X156833387Y-104642219D01*
X156833387Y-104642219D02*
X156595292Y-104642219D01*
X156595292Y-104642219D02*
X156500054Y-104594600D01*
X156500054Y-104594600D02*
X156452435Y-104546980D01*
X145165435Y-80909219D02*
X145832101Y-81909219D01*
X145832101Y-80909219D02*
X145165435Y-81909219D01*
X146165435Y-81623504D02*
X146641625Y-81623504D01*
X146070197Y-81909219D02*
X146403530Y-80909219D01*
X146403530Y-80909219D02*
X146736863Y-81909219D01*
X147022578Y-81004457D02*
X147070197Y-80956838D01*
X147070197Y-80956838D02*
X147165435Y-80909219D01*
X147165435Y-80909219D02*
X147403530Y-80909219D01*
X147403530Y-80909219D02*
X147498768Y-80956838D01*
X147498768Y-80956838D02*
X147546387Y-81004457D01*
X147546387Y-81004457D02*
X147594006Y-81099695D01*
X147594006Y-81099695D02*
X147594006Y-81194933D01*
X147594006Y-81194933D02*
X147546387Y-81337790D01*
X147546387Y-81337790D02*
X146974959Y-81909219D01*
X146974959Y-81909219D02*
X147594006Y-81909219D01*
X144213054Y-93609219D02*
X144879720Y-94609219D01*
X144879720Y-93609219D02*
X144213054Y-94609219D01*
X145213054Y-94323504D02*
X145689244Y-94323504D01*
X145117816Y-94609219D02*
X145451149Y-93609219D01*
X145451149Y-93609219D02*
X145784482Y-94609219D01*
X146641625Y-94609219D02*
X146070197Y-94609219D01*
X146355911Y-94609219D02*
X146355911Y-93609219D01*
X146355911Y-93609219D02*
X146260673Y-93752076D01*
X146260673Y-93752076D02*
X146165435Y-93847314D01*
X146165435Y-93847314D02*
X146070197Y-93894933D01*
X147022578Y-93704457D02*
X147070197Y-93656838D01*
X147070197Y-93656838D02*
X147165435Y-93609219D01*
X147165435Y-93609219D02*
X147403530Y-93609219D01*
X147403530Y-93609219D02*
X147498768Y-93656838D01*
X147498768Y-93656838D02*
X147546387Y-93704457D01*
X147546387Y-93704457D02*
X147594006Y-93799695D01*
X147594006Y-93799695D02*
X147594006Y-93894933D01*
X147594006Y-93894933D02*
X147546387Y-94037790D01*
X147546387Y-94037790D02*
X146974959Y-94609219D01*
X146974959Y-94609219D02*
X147594006Y-94609219D01*
X145022578Y-98689219D02*
X145689244Y-99689219D01*
X145689244Y-98689219D02*
X145022578Y-99689219D01*
X146070197Y-99689219D02*
X146070197Y-98689219D01*
X146070197Y-98689219D02*
X146308292Y-98689219D01*
X146308292Y-98689219D02*
X146451149Y-98736838D01*
X146451149Y-98736838D02*
X146546387Y-98832076D01*
X146546387Y-98832076D02*
X146594006Y-98927314D01*
X146594006Y-98927314D02*
X146641625Y-99117790D01*
X146641625Y-99117790D02*
X146641625Y-99260647D01*
X146641625Y-99260647D02*
X146594006Y-99451123D01*
X146594006Y-99451123D02*
X146546387Y-99546361D01*
X146546387Y-99546361D02*
X146451149Y-99641600D01*
X146451149Y-99641600D02*
X146308292Y-99689219D01*
X146308292Y-99689219D02*
X146070197Y-99689219D01*
X147260673Y-98689219D02*
X147355911Y-98689219D01*
X147355911Y-98689219D02*
X147451149Y-98736838D01*
X147451149Y-98736838D02*
X147498768Y-98784457D01*
X147498768Y-98784457D02*
X147546387Y-98879695D01*
X147546387Y-98879695D02*
X147594006Y-99070171D01*
X147594006Y-99070171D02*
X147594006Y-99308266D01*
X147594006Y-99308266D02*
X147546387Y-99498742D01*
X147546387Y-99498742D02*
X147498768Y-99593980D01*
X147498768Y-99593980D02*
X147451149Y-99641600D01*
X147451149Y-99641600D02*
X147355911Y-99689219D01*
X147355911Y-99689219D02*
X147260673Y-99689219D01*
X147260673Y-99689219D02*
X147165435Y-99641600D01*
X147165435Y-99641600D02*
X147117816Y-99593980D01*
X147117816Y-99593980D02*
X147070197Y-99498742D01*
X147070197Y-99498742D02*
X147022578Y-99308266D01*
X147022578Y-99308266D02*
X147022578Y-99070171D01*
X147022578Y-99070171D02*
X147070197Y-98879695D01*
X147070197Y-98879695D02*
X147117816Y-98784457D01*
X147117816Y-98784457D02*
X147165435Y-98736838D01*
X147165435Y-98736838D02*
X147260673Y-98689219D01*
X145022578Y-106309219D02*
X145689244Y-107309219D01*
X145689244Y-106309219D02*
X145022578Y-107309219D01*
X146070197Y-107309219D02*
X146070197Y-106309219D01*
X146070197Y-106309219D02*
X146308292Y-106309219D01*
X146308292Y-106309219D02*
X146451149Y-106356838D01*
X146451149Y-106356838D02*
X146546387Y-106452076D01*
X146546387Y-106452076D02*
X146594006Y-106547314D01*
X146594006Y-106547314D02*
X146641625Y-106737790D01*
X146641625Y-106737790D02*
X146641625Y-106880647D01*
X146641625Y-106880647D02*
X146594006Y-107071123D01*
X146594006Y-107071123D02*
X146546387Y-107166361D01*
X146546387Y-107166361D02*
X146451149Y-107261600D01*
X146451149Y-107261600D02*
X146308292Y-107309219D01*
X146308292Y-107309219D02*
X146070197Y-107309219D01*
X147498768Y-106309219D02*
X147308292Y-106309219D01*
X147308292Y-106309219D02*
X147213054Y-106356838D01*
X147213054Y-106356838D02*
X147165435Y-106404457D01*
X147165435Y-106404457D02*
X147070197Y-106547314D01*
X147070197Y-106547314D02*
X147022578Y-106737790D01*
X147022578Y-106737790D02*
X147022578Y-107118742D01*
X147022578Y-107118742D02*
X147070197Y-107213980D01*
X147070197Y-107213980D02*
X147117816Y-107261600D01*
X147117816Y-107261600D02*
X147213054Y-107309219D01*
X147213054Y-107309219D02*
X147403530Y-107309219D01*
X147403530Y-107309219D02*
X147498768Y-107261600D01*
X147498768Y-107261600D02*
X147546387Y-107213980D01*
X147546387Y-107213980D02*
X147594006Y-107118742D01*
X147594006Y-107118742D02*
X147594006Y-106880647D01*
X147594006Y-106880647D02*
X147546387Y-106785409D01*
X147546387Y-106785409D02*
X147498768Y-106737790D01*
X147498768Y-106737790D02*
X147403530Y-106690171D01*
X147403530Y-106690171D02*
X147213054Y-106690171D01*
X147213054Y-106690171D02*
X147117816Y-106737790D01*
X147117816Y-106737790D02*
X147070197Y-106785409D01*
X147070197Y-106785409D02*
X147022578Y-106880647D01*
X154452435Y-101102219D02*
X155119101Y-102102219D01*
X155119101Y-101102219D02*
X154452435Y-102102219D01*
X155500054Y-102102219D02*
X155500054Y-101102219D01*
X155500054Y-101102219D02*
X155738149Y-101102219D01*
X155738149Y-101102219D02*
X155881006Y-101149838D01*
X155881006Y-101149838D02*
X155976244Y-101245076D01*
X155976244Y-101245076D02*
X156023863Y-101340314D01*
X156023863Y-101340314D02*
X156071482Y-101530790D01*
X156071482Y-101530790D02*
X156071482Y-101673647D01*
X156071482Y-101673647D02*
X156023863Y-101864123D01*
X156023863Y-101864123D02*
X155976244Y-101959361D01*
X155976244Y-101959361D02*
X155881006Y-102054600D01*
X155881006Y-102054600D02*
X155738149Y-102102219D01*
X155738149Y-102102219D02*
X155500054Y-102102219D01*
X156404816Y-101102219D02*
X157023863Y-101102219D01*
X157023863Y-101102219D02*
X156690530Y-101483171D01*
X156690530Y-101483171D02*
X156833387Y-101483171D01*
X156833387Y-101483171D02*
X156928625Y-101530790D01*
X156928625Y-101530790D02*
X156976244Y-101578409D01*
X156976244Y-101578409D02*
X157023863Y-101673647D01*
X157023863Y-101673647D02*
X157023863Y-101911742D01*
X157023863Y-101911742D02*
X156976244Y-102006980D01*
X156976244Y-102006980D02*
X156928625Y-102054600D01*
X156928625Y-102054600D02*
X156833387Y-102102219D01*
X156833387Y-102102219D02*
X156547673Y-102102219D01*
X156547673Y-102102219D02*
X156452435Y-102054600D01*
X156452435Y-102054600D02*
X156404816Y-102006980D01*
X154452435Y-78242219D02*
X155119101Y-79242219D01*
X155119101Y-78242219D02*
X154452435Y-79242219D01*
X155452435Y-78956504D02*
X155928625Y-78956504D01*
X155357197Y-79242219D02*
X155690530Y-78242219D01*
X155690530Y-78242219D02*
X156023863Y-79242219D01*
X156881006Y-79242219D02*
X156309578Y-79242219D01*
X156595292Y-79242219D02*
X156595292Y-78242219D01*
X156595292Y-78242219D02*
X156500054Y-78385076D01*
X156500054Y-78385076D02*
X156404816Y-78480314D01*
X156404816Y-78480314D02*
X156309578Y-78527933D01*
X145165435Y-83449219D02*
X145832101Y-84449219D01*
X145832101Y-83449219D02*
X145165435Y-84449219D01*
X146165435Y-84163504D02*
X146641625Y-84163504D01*
X146070197Y-84449219D02*
X146403530Y-83449219D01*
X146403530Y-83449219D02*
X146736863Y-84449219D01*
X147498768Y-83782552D02*
X147498768Y-84449219D01*
X147260673Y-83401600D02*
X147022578Y-84115885D01*
X147022578Y-84115885D02*
X147641625Y-84115885D01*
X154452435Y-98562219D02*
X155119101Y-99562219D01*
X155119101Y-98562219D02*
X154452435Y-99562219D01*
X155500054Y-99562219D02*
X155500054Y-98562219D01*
X155500054Y-98562219D02*
X155738149Y-98562219D01*
X155738149Y-98562219D02*
X155881006Y-98609838D01*
X155881006Y-98609838D02*
X155976244Y-98705076D01*
X155976244Y-98705076D02*
X156023863Y-98800314D01*
X156023863Y-98800314D02*
X156071482Y-98990790D01*
X156071482Y-98990790D02*
X156071482Y-99133647D01*
X156071482Y-99133647D02*
X156023863Y-99324123D01*
X156023863Y-99324123D02*
X155976244Y-99419361D01*
X155976244Y-99419361D02*
X155881006Y-99514600D01*
X155881006Y-99514600D02*
X155738149Y-99562219D01*
X155738149Y-99562219D02*
X155500054Y-99562219D01*
X157023863Y-99562219D02*
X156452435Y-99562219D01*
X156738149Y-99562219D02*
X156738149Y-98562219D01*
X156738149Y-98562219D02*
X156642911Y-98705076D01*
X156642911Y-98705076D02*
X156547673Y-98800314D01*
X156547673Y-98800314D02*
X156452435Y-98847933D01*
X145022578Y-101229219D02*
X145689244Y-102229219D01*
X145689244Y-101229219D02*
X145022578Y-102229219D01*
X146070197Y-102229219D02*
X146070197Y-101229219D01*
X146070197Y-101229219D02*
X146308292Y-101229219D01*
X146308292Y-101229219D02*
X146451149Y-101276838D01*
X146451149Y-101276838D02*
X146546387Y-101372076D01*
X146546387Y-101372076D02*
X146594006Y-101467314D01*
X146594006Y-101467314D02*
X146641625Y-101657790D01*
X146641625Y-101657790D02*
X146641625Y-101800647D01*
X146641625Y-101800647D02*
X146594006Y-101991123D01*
X146594006Y-101991123D02*
X146546387Y-102086361D01*
X146546387Y-102086361D02*
X146451149Y-102181600D01*
X146451149Y-102181600D02*
X146308292Y-102229219D01*
X146308292Y-102229219D02*
X146070197Y-102229219D01*
X147022578Y-101324457D02*
X147070197Y-101276838D01*
X147070197Y-101276838D02*
X147165435Y-101229219D01*
X147165435Y-101229219D02*
X147403530Y-101229219D01*
X147403530Y-101229219D02*
X147498768Y-101276838D01*
X147498768Y-101276838D02*
X147546387Y-101324457D01*
X147546387Y-101324457D02*
X147594006Y-101419695D01*
X147594006Y-101419695D02*
X147594006Y-101514933D01*
X147594006Y-101514933D02*
X147546387Y-101657790D01*
X147546387Y-101657790D02*
X146974959Y-102229219D01*
X146974959Y-102229219D02*
X147594006Y-102229219D01*
X144974959Y-75829219D02*
X145641625Y-76829219D01*
X145641625Y-75829219D02*
X144974959Y-76829219D01*
X146594006Y-76829219D02*
X146260673Y-76353028D01*
X146022578Y-76829219D02*
X146022578Y-75829219D01*
X146022578Y-75829219D02*
X146403530Y-75829219D01*
X146403530Y-75829219D02*
X146498768Y-75876838D01*
X146498768Y-75876838D02*
X146546387Y-75924457D01*
X146546387Y-75924457D02*
X146594006Y-76019695D01*
X146594006Y-76019695D02*
X146594006Y-76162552D01*
X146594006Y-76162552D02*
X146546387Y-76257790D01*
X146546387Y-76257790D02*
X146498768Y-76305409D01*
X146498768Y-76305409D02*
X146403530Y-76353028D01*
X146403530Y-76353028D02*
X146022578Y-76353028D01*
X147022578Y-76829219D02*
X147022578Y-75829219D01*
X147022578Y-75829219D02*
X147260673Y-75829219D01*
X147260673Y-75829219D02*
X147403530Y-75876838D01*
X147403530Y-75876838D02*
X147498768Y-75972076D01*
X147498768Y-75972076D02*
X147546387Y-76067314D01*
X147546387Y-76067314D02*
X147594006Y-76257790D01*
X147594006Y-76257790D02*
X147594006Y-76400647D01*
X147594006Y-76400647D02*
X147546387Y-76591123D01*
X147546387Y-76591123D02*
X147498768Y-76686361D01*
X147498768Y-76686361D02*
X147403530Y-76781600D01*
X147403530Y-76781600D02*
X147260673Y-76829219D01*
X147260673Y-76829219D02*
X147022578Y-76829219D01*
X154452435Y-80782219D02*
X155119101Y-81782219D01*
X155119101Y-80782219D02*
X154452435Y-81782219D01*
X155452435Y-81496504D02*
X155928625Y-81496504D01*
X155357197Y-81782219D02*
X155690530Y-80782219D01*
X155690530Y-80782219D02*
X156023863Y-81782219D01*
X156261959Y-80782219D02*
X156881006Y-80782219D01*
X156881006Y-80782219D02*
X156547673Y-81163171D01*
X156547673Y-81163171D02*
X156690530Y-81163171D01*
X156690530Y-81163171D02*
X156785768Y-81210790D01*
X156785768Y-81210790D02*
X156833387Y-81258409D01*
X156833387Y-81258409D02*
X156881006Y-81353647D01*
X156881006Y-81353647D02*
X156881006Y-81591742D01*
X156881006Y-81591742D02*
X156833387Y-81686980D01*
X156833387Y-81686980D02*
X156785768Y-81734600D01*
X156785768Y-81734600D02*
X156690530Y-81782219D01*
X156690530Y-81782219D02*
X156404816Y-81782219D01*
X156404816Y-81782219D02*
X156309578Y-81734600D01*
X156309578Y-81734600D02*
X156261959Y-81686980D01*
X154452435Y-88402219D02*
X155119101Y-89402219D01*
X155119101Y-88402219D02*
X154452435Y-89402219D01*
X155452435Y-89116504D02*
X155928625Y-89116504D01*
X155357197Y-89402219D02*
X155690530Y-88402219D01*
X155690530Y-88402219D02*
X156023863Y-89402219D01*
X156404816Y-89402219D02*
X156595292Y-89402219D01*
X156595292Y-89402219D02*
X156690530Y-89354600D01*
X156690530Y-89354600D02*
X156738149Y-89306980D01*
X156738149Y-89306980D02*
X156833387Y-89164123D01*
X156833387Y-89164123D02*
X156881006Y-88973647D01*
X156881006Y-88973647D02*
X156881006Y-88592695D01*
X156881006Y-88592695D02*
X156833387Y-88497457D01*
X156833387Y-88497457D02*
X156785768Y-88449838D01*
X156785768Y-88449838D02*
X156690530Y-88402219D01*
X156690530Y-88402219D02*
X156500054Y-88402219D01*
X156500054Y-88402219D02*
X156404816Y-88449838D01*
X156404816Y-88449838D02*
X156357197Y-88497457D01*
X156357197Y-88497457D02*
X156309578Y-88592695D01*
X156309578Y-88592695D02*
X156309578Y-88830790D01*
X156309578Y-88830790D02*
X156357197Y-88926028D01*
X156357197Y-88926028D02*
X156404816Y-88973647D01*
X156404816Y-88973647D02*
X156500054Y-89021266D01*
X156500054Y-89021266D02*
X156690530Y-89021266D01*
X156690530Y-89021266D02*
X156785768Y-88973647D01*
X156785768Y-88973647D02*
X156833387Y-88926028D01*
X156833387Y-88926028D02*
X156881006Y-88830790D01*
X154452435Y-73162219D02*
X155119101Y-74162219D01*
X155119101Y-73162219D02*
X154452435Y-74162219D01*
X155500054Y-74162219D02*
X155500054Y-73162219D01*
X156547672Y-74162219D02*
X156214339Y-73686028D01*
X155976244Y-74162219D02*
X155976244Y-73162219D01*
X155976244Y-73162219D02*
X156357196Y-73162219D01*
X156357196Y-73162219D02*
X156452434Y-73209838D01*
X156452434Y-73209838D02*
X156500053Y-73257457D01*
X156500053Y-73257457D02*
X156547672Y-73352695D01*
X156547672Y-73352695D02*
X156547672Y-73495552D01*
X156547672Y-73495552D02*
X156500053Y-73590790D01*
X156500053Y-73590790D02*
X156452434Y-73638409D01*
X156452434Y-73638409D02*
X156357196Y-73686028D01*
X156357196Y-73686028D02*
X155976244Y-73686028D01*
X157642910Y-74257457D02*
X157547672Y-74209838D01*
X157547672Y-74209838D02*
X157452434Y-74114600D01*
X157452434Y-74114600D02*
X157309577Y-73971742D01*
X157309577Y-73971742D02*
X157214339Y-73924123D01*
X157214339Y-73924123D02*
X157119101Y-73924123D01*
X157166720Y-74162219D02*
X157071482Y-74114600D01*
X157071482Y-74114600D02*
X156976244Y-74019361D01*
X156976244Y-74019361D02*
X156928625Y-73828885D01*
X156928625Y-73828885D02*
X156928625Y-73495552D01*
X156928625Y-73495552D02*
X156976244Y-73305076D01*
X156976244Y-73305076D02*
X157071482Y-73209838D01*
X157071482Y-73209838D02*
X157166720Y-73162219D01*
X157166720Y-73162219D02*
X157357196Y-73162219D01*
X157357196Y-73162219D02*
X157452434Y-73209838D01*
X157452434Y-73209838D02*
X157547672Y-73305076D01*
X157547672Y-73305076D02*
X157595291Y-73495552D01*
X157595291Y-73495552D02*
X157595291Y-73828885D01*
X157595291Y-73828885D02*
X157547672Y-74019361D01*
X157547672Y-74019361D02*
X157452434Y-74114600D01*
X157452434Y-74114600D02*
X157357196Y-74162219D01*
X157357196Y-74162219D02*
X157166720Y-74162219D01*
X154452435Y-70622219D02*
X155119101Y-71622219D01*
X155119101Y-70622219D02*
X154452435Y-71622219D01*
X155452435Y-71574600D02*
X155595292Y-71622219D01*
X155595292Y-71622219D02*
X155833387Y-71622219D01*
X155833387Y-71622219D02*
X155928625Y-71574600D01*
X155928625Y-71574600D02*
X155976244Y-71526980D01*
X155976244Y-71526980D02*
X156023863Y-71431742D01*
X156023863Y-71431742D02*
X156023863Y-71336504D01*
X156023863Y-71336504D02*
X155976244Y-71241266D01*
X155976244Y-71241266D02*
X155928625Y-71193647D01*
X155928625Y-71193647D02*
X155833387Y-71146028D01*
X155833387Y-71146028D02*
X155642911Y-71098409D01*
X155642911Y-71098409D02*
X155547673Y-71050790D01*
X155547673Y-71050790D02*
X155500054Y-71003171D01*
X155500054Y-71003171D02*
X155452435Y-70907933D01*
X155452435Y-70907933D02*
X155452435Y-70812695D01*
X155452435Y-70812695D02*
X155500054Y-70717457D01*
X155500054Y-70717457D02*
X155547673Y-70669838D01*
X155547673Y-70669838D02*
X155642911Y-70622219D01*
X155642911Y-70622219D02*
X155881006Y-70622219D01*
X155881006Y-70622219D02*
X156023863Y-70669838D01*
X156928625Y-71622219D02*
X156452435Y-71622219D01*
X156452435Y-71622219D02*
X156452435Y-70622219D01*
X157833387Y-71526980D02*
X157785768Y-71574600D01*
X157785768Y-71574600D02*
X157642911Y-71622219D01*
X157642911Y-71622219D02*
X157547673Y-71622219D01*
X157547673Y-71622219D02*
X157404816Y-71574600D01*
X157404816Y-71574600D02*
X157309578Y-71479361D01*
X157309578Y-71479361D02*
X157261959Y-71384123D01*
X157261959Y-71384123D02*
X157214340Y-71193647D01*
X157214340Y-71193647D02*
X157214340Y-71050790D01*
X157214340Y-71050790D02*
X157261959Y-70860314D01*
X157261959Y-70860314D02*
X157309578Y-70765076D01*
X157309578Y-70765076D02*
X157404816Y-70669838D01*
X157404816Y-70669838D02*
X157547673Y-70622219D01*
X157547673Y-70622219D02*
X157642911Y-70622219D01*
X157642911Y-70622219D02*
X157785768Y-70669838D01*
X157785768Y-70669838D02*
X157833387Y-70717457D01*
X145022578Y-103769219D02*
X145689244Y-104769219D01*
X145689244Y-103769219D02*
X145022578Y-104769219D01*
X146070197Y-104769219D02*
X146070197Y-103769219D01*
X146070197Y-103769219D02*
X146308292Y-103769219D01*
X146308292Y-103769219D02*
X146451149Y-103816838D01*
X146451149Y-103816838D02*
X146546387Y-103912076D01*
X146546387Y-103912076D02*
X146594006Y-104007314D01*
X146594006Y-104007314D02*
X146641625Y-104197790D01*
X146641625Y-104197790D02*
X146641625Y-104340647D01*
X146641625Y-104340647D02*
X146594006Y-104531123D01*
X146594006Y-104531123D02*
X146546387Y-104626361D01*
X146546387Y-104626361D02*
X146451149Y-104721600D01*
X146451149Y-104721600D02*
X146308292Y-104769219D01*
X146308292Y-104769219D02*
X146070197Y-104769219D01*
X147498768Y-104102552D02*
X147498768Y-104769219D01*
X147260673Y-103721600D02*
X147022578Y-104435885D01*
X147022578Y-104435885D02*
X147641625Y-104435885D01*
X154452435Y-68082219D02*
X155119101Y-69082219D01*
X155119101Y-68082219D02*
X154452435Y-69082219D01*
X155500054Y-68558409D02*
X155833387Y-68558409D01*
X155976244Y-69082219D02*
X155500054Y-69082219D01*
X155500054Y-69082219D02*
X155500054Y-68082219D01*
X155500054Y-68082219D02*
X155976244Y-68082219D01*
X154452435Y-90942219D02*
X155119101Y-91942219D01*
X155119101Y-90942219D02*
X154452435Y-91942219D01*
X155452435Y-91656504D02*
X155928625Y-91656504D01*
X155357197Y-91942219D02*
X155690530Y-90942219D01*
X155690530Y-90942219D02*
X156023863Y-91942219D01*
X156881006Y-91942219D02*
X156309578Y-91942219D01*
X156595292Y-91942219D02*
X156595292Y-90942219D01*
X156595292Y-90942219D02*
X156500054Y-91085076D01*
X156500054Y-91085076D02*
X156404816Y-91180314D01*
X156404816Y-91180314D02*
X156309578Y-91227933D01*
X157833387Y-91942219D02*
X157261959Y-91942219D01*
X157547673Y-91942219D02*
X157547673Y-90942219D01*
X157547673Y-90942219D02*
X157452435Y-91085076D01*
X157452435Y-91085076D02*
X157357197Y-91180314D01*
X157357197Y-91180314D02*
X157261959Y-91227933D01*
X144165435Y-65669219D02*
X144832101Y-66669219D01*
X144832101Y-65669219D02*
X144165435Y-66669219D01*
X145784482Y-66573980D02*
X145736863Y-66621600D01*
X145736863Y-66621600D02*
X145594006Y-66669219D01*
X145594006Y-66669219D02*
X145498768Y-66669219D01*
X145498768Y-66669219D02*
X145355911Y-66621600D01*
X145355911Y-66621600D02*
X145260673Y-66526361D01*
X145260673Y-66526361D02*
X145213054Y-66431123D01*
X145213054Y-66431123D02*
X145165435Y-66240647D01*
X145165435Y-66240647D02*
X145165435Y-66097790D01*
X145165435Y-66097790D02*
X145213054Y-65907314D01*
X145213054Y-65907314D02*
X145260673Y-65812076D01*
X145260673Y-65812076D02*
X145355911Y-65716838D01*
X145355911Y-65716838D02*
X145498768Y-65669219D01*
X145498768Y-65669219D02*
X145594006Y-65669219D01*
X145594006Y-65669219D02*
X145736863Y-65716838D01*
X145736863Y-65716838D02*
X145784482Y-65764457D01*
X146689244Y-66669219D02*
X146213054Y-66669219D01*
X146213054Y-66669219D02*
X146213054Y-65669219D01*
X147022578Y-66669219D02*
X147022578Y-65669219D01*
X147594006Y-66669219D02*
X147165435Y-66097790D01*
X147594006Y-65669219D02*
X147022578Y-66240647D01*
D10*
X138096666Y-63164819D02*
X138096666Y-63879104D01*
X138096666Y-63879104D02*
X138049047Y-64021961D01*
X138049047Y-64021961D02*
X137953809Y-64117200D01*
X137953809Y-64117200D02*
X137810952Y-64164819D01*
X137810952Y-64164819D02*
X137715714Y-64164819D01*
X138525238Y-63260057D02*
X138572857Y-63212438D01*
X138572857Y-63212438D02*
X138668095Y-63164819D01*
X138668095Y-63164819D02*
X138906190Y-63164819D01*
X138906190Y-63164819D02*
X139001428Y-63212438D01*
X139001428Y-63212438D02*
X139049047Y-63260057D01*
X139049047Y-63260057D02*
X139096666Y-63355295D01*
X139096666Y-63355295D02*
X139096666Y-63450533D01*
X139096666Y-63450533D02*
X139049047Y-63593390D01*
X139049047Y-63593390D02*
X138477619Y-64164819D01*
X138477619Y-64164819D02*
X139096666Y-64164819D01*
X163496666Y-63164819D02*
X163496666Y-63879104D01*
X163496666Y-63879104D02*
X163449047Y-64021961D01*
X163449047Y-64021961D02*
X163353809Y-64117200D01*
X163353809Y-64117200D02*
X163210952Y-64164819D01*
X163210952Y-64164819D02*
X163115714Y-64164819D01*
X163877619Y-63164819D02*
X164496666Y-63164819D01*
X164496666Y-63164819D02*
X164163333Y-63545771D01*
X164163333Y-63545771D02*
X164306190Y-63545771D01*
X164306190Y-63545771D02*
X164401428Y-63593390D01*
X164401428Y-63593390D02*
X164449047Y-63641009D01*
X164449047Y-63641009D02*
X164496666Y-63736247D01*
X164496666Y-63736247D02*
X164496666Y-63974342D01*
X164496666Y-63974342D02*
X164449047Y-64069580D01*
X164449047Y-64069580D02*
X164401428Y-64117200D01*
X164401428Y-64117200D02*
X164306190Y-64164819D01*
X164306190Y-64164819D02*
X164020476Y-64164819D01*
X164020476Y-64164819D02*
X163925238Y-64117200D01*
X163925238Y-64117200D02*
X163877619Y-64069580D01*
D12*
%TO.C,D1*%
X152070000Y-119245000D02*
X156130000Y-119245000D01*
X156130000Y-116975000D02*
X152070000Y-116975000D01*
X156130000Y-119245000D02*
X156130000Y-116975000D01*
%TO.C,J2*%
X135830000Y-64710000D02*
X137160000Y-64710000D01*
X135830000Y-66040000D02*
X135830000Y-64710000D01*
X135830000Y-67310000D02*
X135830000Y-115630000D01*
X135830000Y-67310000D02*
X138430000Y-67310000D01*
X135830000Y-115630000D02*
X141030000Y-115630000D01*
X138430000Y-64710000D02*
X141030000Y-64710000D01*
X138430000Y-67310000D02*
X138430000Y-64710000D01*
X141030000Y-64710000D02*
X141030000Y-115630000D01*
%TO.C,J3*%
X161230000Y-64710000D02*
X162560000Y-64710000D01*
X161230000Y-66040000D02*
X161230000Y-64710000D01*
X161230000Y-67310000D02*
X161230000Y-115630000D01*
X161230000Y-67310000D02*
X163830000Y-67310000D01*
X161230000Y-115630000D02*
X166430000Y-115630000D01*
X163830000Y-64710000D02*
X166430000Y-64710000D01*
X163830000Y-67310000D02*
X163830000Y-64710000D01*
X166430000Y-64710000D02*
X166430000Y-115630000D01*
%TO.C,R1*%
X148362936Y-117375000D02*
X148817064Y-117375000D01*
X148362936Y-118845000D02*
X148817064Y-118845000D01*
%TO.C,J4*%
X147260000Y-62925000D02*
X147260000Y-61595000D01*
X148590000Y-62925000D02*
X147260000Y-62925000D01*
X149860000Y-60265000D02*
X155000000Y-60265000D01*
X149860000Y-62925000D02*
X149860000Y-60265000D01*
X149860000Y-62925000D02*
X155000000Y-62925000D01*
X155000000Y-62925000D02*
X155000000Y-60265000D01*
%TD*%
M02*
