M48
; DRILL file {KiCad 8.0.1} date 2024-04-12T14:48:43-0500
; FORMAT={-:-/ absolute / inch / decimal}
; #@! TF.CreationDate,2024-04-12T14:48:43-05:00
; #@! TF.GenerationSoftware,Kicad,Pcbnew,8.0.1
; #@! TF.FileFunction,Plated,1,2,PTH
FMAT,2
INCH
; #@! TA.AperFunction,Plated,PTH,ViaDrill
T1C0.0157
; #@! TA.AperFunction,Plated,PTH,ComponentDrill
T2C0.0394
%
G90
G05
T1
X6.165Y-4.74
X6.28Y-2.425
X6.515Y-2.43
T2
X5.3998Y-2.36
X5.3998Y-4.75
X5.4008Y-2.5212
X5.4008Y-2.6212
X5.4008Y-2.7212
X5.4008Y-2.8212
X5.4008Y-2.9212
X5.4008Y-3.09
X5.4008Y-3.19
X5.4008Y-3.29
X5.4008Y-3.39
X5.4008Y-3.49
X5.4008Y-3.59
X5.4008Y-3.69
X5.4008Y-3.79
X5.4008Y-3.89
X5.4008Y-3.99
X5.4008Y-4.09
X5.4008Y-4.19
X5.4008Y-4.29
X5.4008Y-4.39
X5.4008Y-4.49
X5.4008Y-4.59
X5.4998Y-2.36
X5.4998Y-4.75
X5.5008Y-2.5212
X5.5008Y-2.6212
X5.5008Y-2.7212
X5.5008Y-2.8212
X5.5008Y-2.9212
X5.5008Y-3.09
X5.5008Y-3.19
X5.5008Y-3.29
X5.5008Y-3.39
X5.5008Y-3.49
X5.5008Y-3.59
X5.5008Y-3.69
X5.5008Y-3.79
X5.5008Y-3.89
X5.5008Y-3.99
X5.5008Y-4.09
X5.5008Y-4.19
X5.5008Y-4.29
X5.5008Y-4.39
X5.5008Y-4.49
X5.5008Y-4.59
X5.85Y-2.36
X5.9Y-2.6
X5.9Y-2.7
X5.9Y-2.8
X5.9Y-2.9
X5.9Y-3.0
X5.9Y-3.1
X5.9Y-3.2
X5.9Y-3.3
X5.9Y-3.4
X5.9Y-3.5
X5.9Y-3.6
X5.9Y-3.7
X5.9Y-3.8
X5.9Y-3.9
X5.9Y-4.0
X5.9Y-4.1
X5.9Y-4.2
X5.9Y-4.3
X5.9Y-4.4
X5.9Y-4.5
X5.95Y-2.36
X6.0Y-2.6
X6.0Y-2.7
X6.0Y-2.8
X6.0Y-2.9
X6.0Y-3.0
X6.0Y-3.1
X6.0Y-3.2
X6.0Y-3.3
X6.0Y-3.4
X6.0Y-3.5
X6.0Y-3.6
X6.0Y-3.7
X6.0Y-3.8
X6.0Y-3.9
X6.0Y-4.0
X6.0Y-4.1
X6.0Y-4.2
X6.0Y-4.3
X6.0Y-4.4
X6.0Y-4.5
X6.05Y-2.36
X6.4Y-2.6
X6.4Y-2.7
X6.4Y-2.8
X6.4Y-2.9
X6.4Y-3.0
X6.4Y-3.1
X6.4Y-3.2
X6.4Y-3.3
X6.4Y-3.4
X6.4Y-3.5
X6.4Y-3.6
X6.4Y-3.7
X6.4Y-3.8
X6.4Y-3.9
X6.4Y-4.0
X6.4Y-4.1
X6.4Y-4.2
X6.4Y-4.3
X6.4Y-4.4
X6.4Y-4.5
X6.5Y-2.6
X6.5Y-2.7
X6.5Y-2.8
X6.5Y-2.9
X6.5Y-3.0
X6.5Y-3.1
X6.5Y-3.2
X6.5Y-3.3
X6.5Y-3.4
X6.5Y-3.5
X6.5Y-3.6
X6.5Y-3.7
X6.5Y-3.8
X6.5Y-3.9
X6.5Y-4.0
X6.5Y-4.1
X6.5Y-4.2
X6.5Y-4.3
X6.5Y-4.4
X6.5Y-4.5
M30
