%TF.GenerationSoftware,KiCad,Pcbnew,8.0.1*%
%TF.CreationDate,2024-04-12T14:48:39-05:00*%
%TF.ProjectId,Digilent Discovery LA Adapter,44696769-6c65-46e7-9420-446973636f76,1*%
%TF.SameCoordinates,Original*%
%TF.FileFunction,Copper,L1,Top*%
%TF.FilePolarity,Positive*%
%FSLAX46Y46*%
G04 Gerber Fmt 4.6, Leading zero omitted, Abs format (unit mm)*
G04 Created by KiCad (PCBNEW 8.0.1) date 2024-04-12 14:48:39*
%MOMM*%
%LPD*%
G01*
G04 APERTURE LIST*
G04 Aperture macros list*
%AMRoundRect*
0 Rectangle with rounded corners*
0 $1 Rounding radius*
0 $2 $3 $4 $5 $6 $7 $8 $9 X,Y pos of 4 corners*
0 Add a 4 corners polygon primitive as box body*
4,1,4,$2,$3,$4,$5,$6,$7,$8,$9,$2,$3,0*
0 Add four circle primitives for the rounded corners*
1,1,$1+$1,$2,$3*
1,1,$1+$1,$4,$5*
1,1,$1+$1,$6,$7*
1,1,$1+$1,$8,$9*
0 Add four rect primitives between the rounded corners*
20,1,$1+$1,$2,$3,$4,$5,0*
20,1,$1+$1,$4,$5,$6,$7,0*
20,1,$1+$1,$6,$7,$8,$9,0*
20,1,$1+$1,$8,$9,$2,$3,0*%
G04 Aperture macros list end*
%TA.AperFunction,SMDPad,CuDef*%
%ADD10R,3.450000X1.850000*%
%TD*%
%TA.AperFunction,ComponentPad*%
%ADD11R,1.700000X1.700000*%
%TD*%
%TA.AperFunction,ComponentPad*%
%ADD12O,1.700000X1.700000*%
%TD*%
%TA.AperFunction,SMDPad,CuDef*%
%ADD13RoundRect,0.250001X0.462499X0.624999X-0.462499X0.624999X-0.462499X-0.624999X0.462499X-0.624999X0*%
%TD*%
%TA.AperFunction,SMDPad,CuDef*%
%ADD14RoundRect,0.250000X-0.350000X-0.450000X0.350000X-0.450000X0.350000X0.450000X-0.350000X0.450000X0*%
%TD*%
%TA.AperFunction,ViaPad*%
%ADD15C,0.800000*%
%TD*%
%TA.AperFunction,Conductor*%
%ADD16C,0.254000*%
%TD*%
%TA.AperFunction,Conductor*%
%ADD17C,0.508000*%
%TD*%
%TA.AperFunction,Conductor*%
%ADD18C,0.406400*%
%TD*%
G04 APERTURE END LIST*
D10*
%TO.P,TP2,1,1*%
%TO.N,GND*%
X162560000Y-61595000D03*
%TD*%
%TO.P,TP1,1,1*%
%TO.N,GND*%
X164846000Y-120015000D03*
%TD*%
D11*
%TO.P,J4,1,Pin_1*%
%TO.N,GND*%
X139720000Y-78486000D03*
D12*
%TO.P,J4,2,Pin_2*%
X137180000Y-78486000D03*
%TO.P,J4,3,Pin_3*%
%TO.N,/XA0*%
X139720000Y-81026000D03*
%TO.P,J4,4,Pin_4*%
%TO.N,/XA1*%
X137180000Y-81026000D03*
%TO.P,J4,5,Pin_5*%
%TO.N,/XA2*%
X139720000Y-83566000D03*
%TO.P,J4,6,Pin_6*%
%TO.N,/XA3*%
X137180000Y-83566000D03*
%TO.P,J4,7,Pin_7*%
%TO.N,/XA4*%
X139720000Y-86106000D03*
%TO.P,J4,8,Pin_8*%
%TO.N,/XA5*%
X137180000Y-86106000D03*
%TO.P,J4,9,Pin_9*%
%TO.N,/XA6*%
X139720000Y-88646000D03*
%TO.P,J4,10,Pin_10*%
%TO.N,/XA7*%
X137180000Y-88646000D03*
%TO.P,J4,11,Pin_11*%
%TO.N,GND*%
X139720000Y-91186000D03*
%TO.P,J4,12,Pin_12*%
X137180000Y-91186000D03*
%TO.P,J4,13,Pin_13*%
%TO.N,/XA8*%
X139720000Y-93726000D03*
%TO.P,J4,14,Pin_14*%
%TO.N,/XA9*%
X137180000Y-93726000D03*
%TO.P,J4,15,Pin_15*%
%TO.N,/XA10*%
X139720000Y-96266000D03*
%TO.P,J4,16,Pin_16*%
%TO.N,/XA11*%
X137180000Y-96266000D03*
%TO.P,J4,17,Pin_17*%
%TO.N,/XA12*%
X139720000Y-98806000D03*
%TO.P,J4,18,Pin_18*%
%TO.N,/XA13*%
X137180000Y-98806000D03*
%TO.P,J4,19,Pin_19*%
%TO.N,/XA14*%
X139720000Y-101346000D03*
%TO.P,J4,20,Pin_20*%
%TO.N,/XA15*%
X137180000Y-101346000D03*
%TO.P,J4,21,Pin_21*%
%TO.N,GND*%
X139720000Y-103886000D03*
%TO.P,J4,22,Pin_22*%
X137180000Y-103886000D03*
%TO.P,J4,23,Pin_23*%
%TO.N,/XD0*%
X139720000Y-106426000D03*
%TO.P,J4,24,Pin_24*%
%TO.N,/XD1*%
X137180000Y-106426000D03*
%TO.P,J4,25,Pin_25*%
%TO.N,/XD2*%
X139720000Y-108966000D03*
%TO.P,J4,26,Pin_26*%
%TO.N,/XD3*%
X137180000Y-108966000D03*
%TO.P,J4,27,Pin_27*%
%TO.N,/XD4*%
X139720000Y-111506000D03*
%TO.P,J4,28,Pin_28*%
%TO.N,/XD5*%
X137180000Y-111506000D03*
%TO.P,J4,29,Pin_29*%
%TO.N,/XD6*%
X139720000Y-114046000D03*
%TO.P,J4,30,Pin_30*%
%TO.N,/XD7*%
X137180000Y-114046000D03*
%TO.P,J4,31,Pin_31*%
%TO.N,GND*%
X139720000Y-116586000D03*
%TO.P,J4,32,Pin_32*%
X137180000Y-116586000D03*
%TD*%
D13*
%TO.P,D1,1,K*%
%TO.N,GND*%
X155284500Y-120269000D03*
%TO.P,D1,2,A*%
%TO.N,Net-(D1-A)*%
X152309500Y-120269000D03*
%TD*%
D11*
%TO.P,J6,1,Pin_1*%
%TO.N,/XIN*%
X137155000Y-120650000D03*
D12*
%TO.P,J6,2,Pin_2*%
%TO.N,GND*%
X139695000Y-120650000D03*
%TD*%
D11*
%TO.P,J7,1,Pin_1*%
%TO.N,+5V*%
X137155000Y-59944000D03*
D12*
%TO.P,J7,2,Pin_2*%
%TO.N,GND*%
X139695000Y-59944000D03*
%TD*%
D11*
%TO.P,J2,1,Pin_1*%
%TO.N,/XCLK*%
X162560000Y-66039293D03*
D12*
%TO.P,J2,2,Pin_2*%
%TO.N,GND*%
X165100000Y-66039293D03*
%TO.P,J2,3,Pin_3*%
%TO.N,+5V*%
X162560000Y-68579293D03*
%TO.P,J2,4,Pin_4*%
%TO.N,/XE*%
X165100000Y-68579293D03*
%TO.P,J2,5,Pin_5*%
%TO.N,/XBUSREQ*%
X162560000Y-71119293D03*
%TO.P,J2,6,Pin_6*%
%TO.N,/XSLC*%
X165100000Y-71119293D03*
%TO.P,J2,7,Pin_7*%
%TO.N,/XBUSACK*%
X162560000Y-73659293D03*
%TO.P,J2,8,Pin_8*%
%TO.N,/XIRQ*%
X165100000Y-73659293D03*
%TO.P,J2,9,Pin_9*%
%TO.N,/XRD*%
X162560000Y-76199293D03*
%TO.P,J2,10,Pin_10*%
%TO.N,/XWR*%
X165100000Y-76199293D03*
%TO.P,J2,11,Pin_11*%
%TO.N,/XA0*%
X162560000Y-78739293D03*
%TO.P,J2,12,Pin_12*%
%TO.N,/XA1*%
X165100000Y-78739293D03*
%TO.P,J2,13,Pin_13*%
%TO.N,/XA2*%
X162560000Y-81279293D03*
%TO.P,J2,14,Pin_14*%
%TO.N,/XA3*%
X165100000Y-81279293D03*
%TO.P,J2,15,Pin_15*%
%TO.N,/XA4*%
X162560000Y-83819293D03*
%TO.P,J2,16,Pin_16*%
%TO.N,/XA5*%
X165100000Y-83819293D03*
%TO.P,J2,17,Pin_17*%
%TO.N,/XA6*%
X162560000Y-86359293D03*
%TO.P,J2,18,Pin_18*%
%TO.N,/XA7*%
X165100000Y-86359293D03*
%TO.P,J2,19,Pin_19*%
%TO.N,/XA8*%
X162560000Y-88899293D03*
%TO.P,J2,20,Pin_20*%
%TO.N,/XA9*%
X165100000Y-88899293D03*
%TO.P,J2,21,Pin_21*%
%TO.N,/XA10*%
X162560000Y-91439293D03*
%TO.P,J2,22,Pin_22*%
%TO.N,/XA11*%
X165100000Y-91439293D03*
%TO.P,J2,23,Pin_23*%
%TO.N,/XA12*%
X162560000Y-93979293D03*
%TO.P,J2,24,Pin_24*%
%TO.N,/XA13*%
X165100000Y-93979293D03*
%TO.P,J2,25,Pin_25*%
%TO.N,/XA14*%
X162560000Y-96519293D03*
%TO.P,J2,26,Pin_26*%
%TO.N,/XA15*%
X165100000Y-96519293D03*
%TO.P,J2,27,Pin_27*%
%TO.N,/XD0*%
X162560000Y-99059293D03*
%TO.P,J2,28,Pin_28*%
%TO.N,/XD1*%
X165100000Y-99059293D03*
%TO.P,J2,29,Pin_29*%
%TO.N,/XD2*%
X162560000Y-101599293D03*
%TO.P,J2,30,Pin_30*%
%TO.N,/XD3*%
X165100000Y-101599293D03*
%TO.P,J2,31,Pin_31*%
%TO.N,/XD4*%
X162560000Y-104139293D03*
%TO.P,J2,32,Pin_32*%
%TO.N,/XD5*%
X165100000Y-104139293D03*
%TO.P,J2,33,Pin_33*%
%TO.N,/XD6*%
X162560000Y-106679293D03*
%TO.P,J2,34,Pin_34*%
%TO.N,/XD7*%
X165100000Y-106679293D03*
%TO.P,J2,35,Pin_35*%
%TO.N,+5V*%
X162560000Y-109219293D03*
%TO.P,J2,36,Pin_36*%
%TO.N,GND*%
X165100000Y-109219293D03*
%TO.P,J2,37,Pin_37*%
%TO.N,+5V*%
X162560000Y-111759293D03*
%TO.P,J2,38,Pin_38*%
%TO.N,GND*%
X165100000Y-111759293D03*
%TO.P,J2,39,Pin_39*%
%TO.N,/XIN*%
X162560000Y-114299293D03*
%TO.P,J2,40,Pin_40*%
%TO.N,GND*%
X165100000Y-114299293D03*
%TD*%
D11*
%TO.P,J5,1,Pin_1*%
%TO.N,/XCLK*%
X139720000Y-64038000D03*
D12*
%TO.P,J5,2,Pin_2*%
%TO.N,/XE*%
X137180000Y-64038000D03*
%TO.P,J5,3,Pin_3*%
%TO.N,/XBUSREQ*%
X139720000Y-66578000D03*
%TO.P,J5,4,Pin_4*%
%TO.N,/XSLC*%
X137180000Y-66578000D03*
%TO.P,J5,5,Pin_5*%
%TO.N,/XBUSACK*%
X139720000Y-69118000D03*
%TO.P,J5,6,Pin_6*%
%TO.N,/XIRQ*%
X137180000Y-69118000D03*
%TO.P,J5,7,Pin_7*%
%TO.N,/XRD*%
X139720000Y-71658000D03*
%TO.P,J5,8,Pin_8*%
%TO.N,/XWR*%
X137180000Y-71658000D03*
%TO.P,J5,9,Pin_9*%
%TO.N,GND*%
X139720000Y-74198000D03*
%TO.P,J5,10,Pin_10*%
X137180000Y-74198000D03*
%TD*%
D14*
%TO.P,R1,1*%
%TO.N,+5V*%
X147844000Y-120142000D03*
%TO.P,R1,2*%
%TO.N,Net-(D1-A)*%
X149844000Y-120142000D03*
%TD*%
D11*
%TO.P,J3,1,Pin_1*%
%TO.N,+5V*%
X148590000Y-59944000D03*
D12*
%TO.P,J3,2,Pin_2*%
%TO.N,/XE*%
X151130000Y-59944000D03*
%TO.P,J3,3,Pin_3*%
%TO.N,GND*%
X153670000Y-59944000D03*
%TD*%
D11*
%TO.P,J1,1,Pin_1*%
%TO.N,/XCLK*%
X149860000Y-66040000D03*
D12*
%TO.P,J1,2,Pin_2*%
%TO.N,GND*%
X152400000Y-66040000D03*
%TO.P,J1,3,Pin_3*%
%TO.N,+5V*%
X149860000Y-68580000D03*
%TO.P,J1,4,Pin_4*%
%TO.N,/XE*%
X152400000Y-68580000D03*
%TO.P,J1,5,Pin_5*%
%TO.N,/XBUSREQ*%
X149860000Y-71120000D03*
%TO.P,J1,6,Pin_6*%
%TO.N,/XSLC*%
X152400000Y-71120000D03*
%TO.P,J1,7,Pin_7*%
%TO.N,/XBUSACK*%
X149860000Y-73660000D03*
%TO.P,J1,8,Pin_8*%
%TO.N,/XIRQ*%
X152400000Y-73660000D03*
%TO.P,J1,9,Pin_9*%
%TO.N,/XRD*%
X149860000Y-76200000D03*
%TO.P,J1,10,Pin_10*%
%TO.N,/XWR*%
X152400000Y-76200000D03*
%TO.P,J1,11,Pin_11*%
%TO.N,/XA0*%
X149860000Y-78740000D03*
%TO.P,J1,12,Pin_12*%
%TO.N,/XA1*%
X152400000Y-78740000D03*
%TO.P,J1,13,Pin_13*%
%TO.N,/XA2*%
X149860000Y-81280000D03*
%TO.P,J1,14,Pin_14*%
%TO.N,/XA3*%
X152400000Y-81280000D03*
%TO.P,J1,15,Pin_15*%
%TO.N,/XA4*%
X149860000Y-83820000D03*
%TO.P,J1,16,Pin_16*%
%TO.N,/XA5*%
X152400000Y-83820000D03*
%TO.P,J1,17,Pin_17*%
%TO.N,/XA6*%
X149860000Y-86360000D03*
%TO.P,J1,18,Pin_18*%
%TO.N,/XA7*%
X152400000Y-86360000D03*
%TO.P,J1,19,Pin_19*%
%TO.N,/XA8*%
X149860000Y-88900000D03*
%TO.P,J1,20,Pin_20*%
%TO.N,/XA9*%
X152400000Y-88900000D03*
%TO.P,J1,21,Pin_21*%
%TO.N,/XA10*%
X149860000Y-91440000D03*
%TO.P,J1,22,Pin_22*%
%TO.N,/XA11*%
X152400000Y-91440000D03*
%TO.P,J1,23,Pin_23*%
%TO.N,/XA12*%
X149860000Y-93980000D03*
%TO.P,J1,24,Pin_24*%
%TO.N,/XA13*%
X152400000Y-93980000D03*
%TO.P,J1,25,Pin_25*%
%TO.N,/XA14*%
X149860000Y-96520000D03*
%TO.P,J1,26,Pin_26*%
%TO.N,/XA15*%
X152400000Y-96520000D03*
%TO.P,J1,27,Pin_27*%
%TO.N,/XD0*%
X149860000Y-99060000D03*
%TO.P,J1,28,Pin_28*%
%TO.N,/XD1*%
X152400000Y-99060000D03*
%TO.P,J1,29,Pin_29*%
%TO.N,/XD2*%
X149860000Y-101600000D03*
%TO.P,J1,30,Pin_30*%
%TO.N,/XD3*%
X152400000Y-101600000D03*
%TO.P,J1,31,Pin_31*%
%TO.N,/XD4*%
X149860000Y-104140000D03*
%TO.P,J1,32,Pin_32*%
%TO.N,/XD5*%
X152400000Y-104140000D03*
%TO.P,J1,33,Pin_33*%
%TO.N,/XD6*%
X149860000Y-106680000D03*
%TO.P,J1,34,Pin_34*%
%TO.N,/XD7*%
X152400000Y-106680000D03*
%TO.P,J1,35,Pin_35*%
%TO.N,+5V*%
X149860000Y-109220000D03*
%TO.P,J1,36,Pin_36*%
%TO.N,GND*%
X152400000Y-109220000D03*
%TO.P,J1,37,Pin_37*%
%TO.N,+5V*%
X149860000Y-111760000D03*
%TO.P,J1,38,Pin_38*%
%TO.N,GND*%
X152400000Y-111760000D03*
%TO.P,J1,39,Pin_39*%
%TO.N,/XIN*%
X149860000Y-114300000D03*
%TO.P,J1,40,Pin_40*%
%TO.N,GND*%
X152400000Y-114300000D03*
%TD*%
D15*
%TO.N,GND*%
X165481000Y-61722000D03*
X159512000Y-61595000D03*
X156591000Y-120396000D03*
%TD*%
D16*
%TO.N,/XE*%
X165862000Y-58166000D02*
X151511000Y-58166000D01*
X166878000Y-59182000D02*
X165862000Y-58166000D01*
X151130000Y-58547000D02*
X151130000Y-59944000D01*
X166878000Y-67945000D02*
X166878000Y-59182000D01*
X151511000Y-58166000D02*
X151130000Y-58547000D01*
X166878000Y-67945000D02*
X166878000Y-68326000D01*
X166624707Y-68579293D02*
X166878000Y-68326000D01*
X165100000Y-68579293D02*
X166624707Y-68579293D01*
%TO.N,/XIN*%
X157861000Y-122301000D02*
X161060000Y-119102000D01*
X161060000Y-119102000D02*
X161060000Y-115800000D01*
X137668000Y-122301000D02*
X157861000Y-122301000D01*
X137155000Y-121788000D02*
X137668000Y-122301000D01*
X137155000Y-120650000D02*
X137155000Y-121788000D01*
%TO.N,GND*%
X156464000Y-120269000D02*
X156591000Y-120396000D01*
X155284500Y-120269000D02*
X156464000Y-120269000D01*
%TO.N,Net-(D1-A)*%
X149844000Y-120142000D02*
X149971000Y-120269000D01*
X149971000Y-120269000D02*
X152309500Y-120269000D01*
D17*
%TO.N,+5V*%
X147590000Y-114030000D02*
X149860000Y-111760000D01*
X147844000Y-120142000D02*
X147590000Y-119888000D01*
X147590000Y-119888000D02*
X147590000Y-114030000D01*
D16*
%TO.N,/XE*%
X151130000Y-59944000D02*
X151130000Y-62738000D01*
X137180000Y-62738000D02*
X137180000Y-64038000D01*
X137434000Y-62484000D02*
X137180000Y-62738000D01*
X141986000Y-63246000D02*
X141224000Y-62484000D01*
X150622000Y-63246000D02*
X141986000Y-63246000D01*
X151130000Y-62738000D02*
X150622000Y-63246000D01*
X141224000Y-62484000D02*
X137434000Y-62484000D01*
%TO.N,/XA3*%
X141986000Y-82296000D02*
X144272000Y-80010000D01*
X163850000Y-80030000D02*
X163850000Y-80000000D01*
X159250000Y-81300000D02*
X159230000Y-81280000D01*
X159230000Y-81280000D02*
X152400000Y-81280000D01*
X138430000Y-82316000D02*
X138430000Y-82296000D01*
X138430000Y-82296000D02*
X141986000Y-82296000D01*
X160750000Y-80000000D02*
X159450000Y-81300000D01*
X137180000Y-83566000D02*
X138430000Y-82316000D01*
X152146000Y-81280000D02*
X152400000Y-81280000D01*
X144272000Y-80010000D02*
X150876000Y-80010000D01*
X163850000Y-80000000D02*
X160750000Y-80000000D01*
X150876000Y-80010000D02*
X152146000Y-81280000D01*
X159450000Y-81300000D02*
X159250000Y-81300000D01*
X165100000Y-81280000D02*
X163850000Y-80030000D01*
%TO.N,/XA8*%
X150500000Y-88900000D02*
X151750000Y-90150000D01*
X151750000Y-90150000D02*
X159600000Y-90150000D01*
X160850000Y-88900000D02*
X162560000Y-88900000D01*
X149860000Y-88900000D02*
X150500000Y-88900000D01*
X139720000Y-93726000D02*
X143002000Y-93726000D01*
X159600000Y-90150000D02*
X160850000Y-88900000D01*
X147828000Y-88900000D02*
X149860000Y-88900000D01*
X143002000Y-93726000D02*
X147828000Y-88900000D01*
%TO.N,/XA11*%
X150711800Y-90259800D02*
X151892000Y-91440000D01*
X163830000Y-90170000D02*
X160780000Y-90170000D01*
X137180000Y-96266000D02*
X138450000Y-94996000D01*
X148246200Y-90259800D02*
X150711800Y-90259800D01*
X143510000Y-94996000D02*
X148246200Y-90259800D01*
X159510000Y-91440000D02*
X152400000Y-91440000D01*
X165100000Y-91440000D02*
X163830000Y-90170000D01*
X138450000Y-94996000D02*
X143510000Y-94996000D01*
X151892000Y-91440000D02*
X152400000Y-91440000D01*
X160780000Y-90170000D02*
X159510000Y-91440000D01*
%TO.N,/XD6*%
X141986000Y-114046000D02*
X149352000Y-106680000D01*
X160177719Y-107860200D02*
X161357919Y-106680000D01*
X149352000Y-106680000D02*
X149860000Y-106680000D01*
X151040200Y-107860200D02*
X160177719Y-107860200D01*
X139720000Y-114046000D02*
X141986000Y-114046000D01*
X149860000Y-106680000D02*
X151040200Y-107860200D01*
X161357919Y-106680000D02*
X162560000Y-106680000D01*
%TO.N,/XBUSREQ*%
X149860000Y-71120000D02*
X148590000Y-71120000D01*
X151598000Y-72350000D02*
X159000000Y-72350000D01*
X144048000Y-66578000D02*
X139720000Y-66578000D01*
X160230000Y-71120000D02*
X162560000Y-71120000D01*
X148590000Y-71120000D02*
X144048000Y-66578000D01*
X159000000Y-72350000D02*
X160230000Y-71120000D01*
X149860000Y-71120000D02*
X150368000Y-71120000D01*
X150368000Y-71120000D02*
X151598000Y-72350000D01*
%TO.N,/XD3*%
X151130000Y-100330000D02*
X152400000Y-101600000D01*
X137180000Y-108966000D02*
X138450000Y-107696000D01*
X160150000Y-101600000D02*
X152400000Y-101600000D01*
X165100000Y-101600000D02*
X163850000Y-100350000D01*
X138450000Y-107696000D02*
X140970000Y-107696000D01*
X148336000Y-100330000D02*
X151130000Y-100330000D01*
X140970000Y-107696000D02*
X148336000Y-100330000D01*
X163850000Y-100350000D02*
X161400000Y-100350000D01*
X161400000Y-100350000D02*
X160150000Y-101600000D01*
%TO.N,/XA7*%
X143764000Y-87376000D02*
X146050000Y-85090000D01*
X138450000Y-87376000D02*
X143764000Y-87376000D01*
X152146000Y-86360000D02*
X152400000Y-86360000D01*
X137180000Y-88646000D02*
X138450000Y-87376000D01*
X150876000Y-85090000D02*
X152146000Y-86360000D01*
X165100000Y-86360000D02*
X163830000Y-85090000D01*
X159690000Y-86360000D02*
X152400000Y-86360000D01*
X163830000Y-85090000D02*
X160960000Y-85090000D01*
X160960000Y-85090000D02*
X159690000Y-86360000D01*
X146050000Y-85090000D02*
X150876000Y-85090000D01*
%TO.N,/XA0*%
X144018000Y-78740000D02*
X149860000Y-78740000D01*
X151678000Y-80050000D02*
X159750000Y-80050000D01*
X161060000Y-78740000D02*
X162560000Y-78740000D01*
X150368000Y-78740000D02*
X151678000Y-80050000D01*
X139720000Y-81026000D02*
X141732000Y-81026000D01*
X159750000Y-80050000D02*
X161060000Y-78740000D01*
X149860000Y-78740000D02*
X150368000Y-78740000D01*
X141732000Y-81026000D02*
X144018000Y-78740000D01*
%TO.N,/XD0*%
X139720000Y-106426000D02*
X141224000Y-106426000D01*
X148590000Y-99060000D02*
X149860000Y-99060000D01*
X141224000Y-106426000D02*
X148590000Y-99060000D01*
X149860000Y-99060000D02*
X150549472Y-99060000D01*
X150549472Y-99060000D02*
X151789472Y-100300000D01*
X160100000Y-100300000D02*
X161340000Y-99060000D01*
X151789472Y-100300000D02*
X160100000Y-100300000D01*
X161340000Y-99060000D02*
X162560000Y-99060000D01*
D18*
%TO.N,+5V*%
X163843600Y-107935693D02*
X165876307Y-107935693D01*
X165876307Y-107935693D02*
X166878000Y-106934000D01*
X165607525Y-69850000D02*
X163830707Y-69850000D01*
X166878000Y-106934000D02*
X166878000Y-71120475D01*
X166878000Y-71120475D02*
X165607525Y-69850000D01*
X163830707Y-69850000D02*
X162560000Y-68579293D01*
X162560000Y-109219293D02*
X163843600Y-107935693D01*
D16*
%TO.N,/XE*%
X165100000Y-68580000D02*
X163830000Y-67310000D01*
X166624000Y-68580000D02*
X165100000Y-68580000D01*
X163830000Y-67310000D02*
X153670000Y-67310000D01*
X153670000Y-67310000D02*
X152400000Y-68580000D01*
X166878000Y-68326000D02*
X166624000Y-68580000D01*
%TO.N,/XCLK*%
X147858000Y-64038000D02*
X149860000Y-66040000D01*
X151500000Y-64300000D02*
X149860000Y-65940000D01*
X162560000Y-66040000D02*
X160820000Y-64300000D01*
X149860000Y-65940000D02*
X149860000Y-66040000D01*
X139720000Y-64038000D02*
X147858000Y-64038000D01*
X160820000Y-64300000D02*
X151500000Y-64300000D01*
%TO.N,/XWR*%
X163850000Y-74950000D02*
X160750000Y-74950000D01*
X165100000Y-76200000D02*
X163850000Y-74950000D01*
X147066000Y-74930000D02*
X150876000Y-74930000D01*
X138480000Y-70358000D02*
X142494000Y-70358000D01*
X142494000Y-70358000D02*
X147066000Y-74930000D01*
X137180000Y-71658000D02*
X138480000Y-70358000D01*
X160750000Y-74950000D02*
X159500000Y-76200000D01*
X152146000Y-76200000D02*
X152400000Y-76200000D01*
X159500000Y-76200000D02*
X152400000Y-76200000D01*
X150876000Y-74930000D02*
X152146000Y-76200000D01*
%TO.N,/XA14*%
X151900000Y-97800000D02*
X160077919Y-97800000D01*
X139720000Y-101346000D02*
X143510000Y-101346000D01*
X150620000Y-96520000D02*
X151900000Y-97800000D01*
X143510000Y-101346000D02*
X148336000Y-96520000D01*
X149860000Y-96520000D02*
X150620000Y-96520000D01*
X160077919Y-97800000D02*
X161357919Y-96520000D01*
X148336000Y-96520000D02*
X149860000Y-96520000D01*
X161357919Y-96520000D02*
X162560000Y-96520000D01*
%TO.N,/XIRQ*%
X159490000Y-73660000D02*
X152400000Y-73660000D01*
X152400000Y-73660000D02*
X151892000Y-73660000D01*
X165100000Y-73660000D02*
X163830000Y-72390000D01*
X150622000Y-72390000D02*
X147574000Y-72390000D01*
X163830000Y-72390000D02*
X160760000Y-72390000D01*
X151892000Y-73660000D02*
X150622000Y-72390000D01*
X143002000Y-67818000D02*
X138480000Y-67818000D01*
X138480000Y-67818000D02*
X137180000Y-69118000D01*
X160760000Y-72390000D02*
X159490000Y-73660000D01*
X147574000Y-72390000D02*
X143002000Y-67818000D01*
%TO.N,/XA2*%
X144526000Y-81280000D02*
X149860000Y-81280000D01*
X139720000Y-83566000D02*
X142240000Y-83566000D01*
X159739800Y-82460200D02*
X160920000Y-81280000D01*
X150114000Y-81280000D02*
X151294200Y-82460200D01*
X160920000Y-81280000D02*
X162560000Y-81280000D01*
X142240000Y-83566000D02*
X144526000Y-81280000D01*
X149860000Y-81280000D02*
X150114000Y-81280000D01*
X151294200Y-82460200D02*
X159739800Y-82460200D01*
%TO.N,/XA6*%
X139720000Y-88646000D02*
X144526000Y-88646000D01*
X160990000Y-86360000D02*
X162560000Y-86360000D01*
X159750000Y-87600000D02*
X160990000Y-86360000D01*
X144526000Y-88646000D02*
X146812000Y-86360000D01*
X146812000Y-86360000D02*
X149860000Y-86360000D01*
X150560000Y-86360000D02*
X151800000Y-87600000D01*
X149860000Y-86360000D02*
X150560000Y-86360000D01*
X151800000Y-87600000D02*
X159750000Y-87600000D01*
%TO.N,/XD1*%
X161250000Y-97750000D02*
X159940000Y-99060000D01*
X151130000Y-97790000D02*
X152400000Y-99060000D01*
X140970000Y-105156000D02*
X148336000Y-97790000D01*
X165100000Y-99060000D02*
X163790000Y-97750000D01*
X159940000Y-99060000D02*
X152400000Y-99060000D01*
X163790000Y-97750000D02*
X161250000Y-97750000D01*
X137180000Y-106426000D02*
X138450000Y-105156000D01*
X138450000Y-105156000D02*
X140970000Y-105156000D01*
X148336000Y-97790000D02*
X151130000Y-97790000D01*
%TO.N,/XA15*%
X143510000Y-100076000D02*
X148336000Y-95250000D01*
X138450000Y-100076000D02*
X143510000Y-100076000D01*
X137180000Y-101346000D02*
X138450000Y-100076000D01*
X148336000Y-95250000D02*
X151130000Y-95250000D01*
X160130000Y-96520000D02*
X152400000Y-96520000D01*
X151130000Y-95250000D02*
X152400000Y-96520000D01*
X163830000Y-95250000D02*
X161400000Y-95250000D01*
X165100000Y-96520000D02*
X163830000Y-95250000D01*
X161400000Y-95250000D02*
X160130000Y-96520000D01*
%TO.N,/XD2*%
X151872000Y-102850000D02*
X160107919Y-102850000D01*
X139720000Y-108966000D02*
X141478000Y-108966000D01*
X148844000Y-101600000D02*
X149860000Y-101600000D01*
X161357919Y-101600000D02*
X162560000Y-101600000D01*
X141478000Y-108966000D02*
X148844000Y-101600000D01*
X160107919Y-102850000D02*
X161357919Y-101600000D01*
X149860000Y-101600000D02*
X150622000Y-101600000D01*
X150622000Y-101600000D02*
X151872000Y-102850000D01*
%TO.N,/XA13*%
X143510000Y-97536000D02*
X148336000Y-92710000D01*
X138450000Y-97536000D02*
X143510000Y-97536000D01*
X151892000Y-93980000D02*
X152400000Y-93980000D01*
X137180000Y-98806000D02*
X138450000Y-97536000D01*
X161140000Y-92710000D02*
X159870000Y-93980000D01*
X159870000Y-93980000D02*
X152400000Y-93980000D01*
X150622000Y-92710000D02*
X151892000Y-93980000D01*
X165100000Y-93980000D02*
X163830000Y-92710000D01*
X163830000Y-92710000D02*
X161140000Y-92710000D01*
X148336000Y-92710000D02*
X150622000Y-92710000D01*
%TO.N,/XD5*%
X165100000Y-104140000D02*
X163860000Y-102900000D01*
X141478000Y-110236000D02*
X148844000Y-102870000D01*
X151130000Y-102870000D02*
X152400000Y-104140000D01*
X160060000Y-104140000D02*
X152400000Y-104140000D01*
X161300000Y-102900000D02*
X160060000Y-104140000D01*
X148844000Y-102870000D02*
X151130000Y-102870000D01*
X138450000Y-110236000D02*
X141478000Y-110236000D01*
X137180000Y-111506000D02*
X138450000Y-110236000D01*
X163860000Y-102900000D02*
X161300000Y-102900000D01*
%TO.N,/XA5*%
X137180000Y-86106000D02*
X138450000Y-84836000D01*
X152007422Y-83820000D02*
X152400000Y-83820000D01*
X165100000Y-83820000D02*
X163830000Y-82550000D01*
X145034000Y-82550000D02*
X150737422Y-82550000D01*
X150737422Y-82550000D02*
X152007422Y-83820000D01*
X161150000Y-82550000D02*
X159880000Y-83820000D01*
X142748000Y-84836000D02*
X145034000Y-82550000D01*
X159880000Y-83820000D02*
X152400000Y-83820000D01*
X138450000Y-84836000D02*
X142748000Y-84836000D01*
X163830000Y-82550000D02*
X161150000Y-82550000D01*
%TO.N,/XSLC*%
X164346365Y-71120000D02*
X163076365Y-69850000D01*
X152400000Y-71120000D02*
X152146000Y-71120000D01*
X150876000Y-69850000D02*
X149352000Y-69850000D01*
X149352000Y-69850000D02*
X144780000Y-65278000D01*
X138480000Y-65278000D02*
X137180000Y-66578000D01*
X153670000Y-69850000D02*
X152400000Y-71120000D01*
X144780000Y-65278000D02*
X138480000Y-65278000D01*
X163076365Y-69850000D02*
X153670000Y-69850000D01*
X152146000Y-71120000D02*
X150876000Y-69850000D01*
X165100000Y-71120000D02*
X164346365Y-71120000D01*
%TO.N,/XA10*%
X151900000Y-92750000D02*
X159500000Y-92750000D01*
X143764000Y-96266000D02*
X148590000Y-91440000D01*
X148590000Y-91440000D02*
X149860000Y-91440000D01*
X160810000Y-91440000D02*
X162560000Y-91440000D01*
X149860000Y-91440000D02*
X150590000Y-91440000D01*
X150590000Y-91440000D02*
X151900000Y-92750000D01*
X139720000Y-96266000D02*
X143764000Y-96266000D01*
X159500000Y-92750000D02*
X160810000Y-91440000D01*
%TO.N,/XRD*%
X139720000Y-71658000D02*
X142016000Y-71658000D01*
X160700000Y-76200000D02*
X162560000Y-76200000D01*
X159450000Y-77450000D02*
X160700000Y-76200000D01*
X146558000Y-76200000D02*
X149860000Y-76200000D01*
X151799472Y-77450000D02*
X159450000Y-77450000D01*
X149860000Y-76200000D02*
X150549472Y-76200000D01*
X142016000Y-71658000D02*
X146558000Y-76200000D01*
X150549472Y-76200000D02*
X151799472Y-77450000D01*
%TO.N,/XA12*%
X143510000Y-98806000D02*
X148336000Y-93980000D01*
X161070000Y-93980000D02*
X162560000Y-93980000D01*
X148336000Y-93980000D02*
X149860000Y-93980000D01*
X151750000Y-95200000D02*
X159850000Y-95200000D01*
X150530000Y-93980000D02*
X151750000Y-95200000D01*
X149860000Y-93980000D02*
X150530000Y-93980000D01*
X159850000Y-95200000D02*
X161070000Y-93980000D01*
X139720000Y-98806000D02*
X143510000Y-98806000D01*
%TO.N,/XBUSACK*%
X147574000Y-73660000D02*
X149860000Y-73660000D01*
X160740000Y-73660000D02*
X162560000Y-73660000D01*
X143032000Y-69118000D02*
X147574000Y-73660000D01*
X139720000Y-69118000D02*
X143032000Y-69118000D01*
X151638000Y-74930000D02*
X159470000Y-74930000D01*
X149860000Y-73660000D02*
X150368000Y-73660000D01*
X159470000Y-74930000D02*
X160740000Y-73660000D01*
X150368000Y-73660000D02*
X151638000Y-74930000D01*
%TO.N,/XA4*%
X150549472Y-83820000D02*
X151729672Y-85000200D01*
X143256000Y-86106000D02*
X145542000Y-83820000D01*
X139720000Y-86106000D02*
X143256000Y-86106000D01*
X149860000Y-83820000D02*
X150549472Y-83820000D01*
X145542000Y-83820000D02*
X149860000Y-83820000D01*
X159763760Y-85000200D02*
X160943960Y-83820000D01*
X151729672Y-85000200D02*
X159763760Y-85000200D01*
X160943960Y-83820000D02*
X162560000Y-83820000D01*
%TO.N,/XA9*%
X165100000Y-88900000D02*
X163830000Y-87630000D01*
X138450000Y-92456000D02*
X142240000Y-92456000D01*
X159800000Y-88900000D02*
X152400000Y-88900000D01*
X151892000Y-88900000D02*
X152400000Y-88900000D01*
X150622000Y-87630000D02*
X151892000Y-88900000D01*
X142240000Y-92456000D02*
X147066000Y-87630000D01*
X161070000Y-87630000D02*
X159800000Y-88900000D01*
X163830000Y-87630000D02*
X161070000Y-87630000D01*
X137180000Y-93726000D02*
X138450000Y-92456000D01*
X147066000Y-87630000D02*
X150622000Y-87630000D01*
%TO.N,/XD4*%
X150490000Y-104140000D02*
X151800000Y-105450000D01*
X141732000Y-111506000D02*
X149098000Y-104140000D01*
X139720000Y-111506000D02*
X141732000Y-111506000D01*
X161210000Y-104140000D02*
X162560000Y-104140000D01*
X149098000Y-104140000D02*
X149860000Y-104140000D01*
X159900000Y-105450000D02*
X161210000Y-104140000D01*
X149860000Y-104140000D02*
X150490000Y-104140000D01*
X151800000Y-105450000D02*
X159900000Y-105450000D01*
%TO.N,/XA1*%
X152146000Y-78740000D02*
X152400000Y-78740000D01*
X138450000Y-79756000D02*
X141224000Y-79756000D01*
X163810000Y-77450000D02*
X160530000Y-77450000D01*
X165100000Y-78740000D02*
X163810000Y-77450000D01*
X159240000Y-78740000D02*
X152400000Y-78740000D01*
X143510000Y-77470000D02*
X150876000Y-77470000D01*
X150876000Y-77470000D02*
X152146000Y-78740000D01*
X160530000Y-77450000D02*
X159240000Y-78740000D01*
X137180000Y-81026000D02*
X138450000Y-79756000D01*
X141224000Y-79756000D02*
X143510000Y-77470000D01*
%TO.N,/XIN*%
X149860000Y-114300000D02*
X151360000Y-115800000D01*
X151360000Y-115800000D02*
X161060000Y-115800000D01*
X161060000Y-115800000D02*
X162560000Y-114300000D01*
%TO.N,/XD7*%
X137180000Y-114046000D02*
X138450000Y-112776000D01*
X163830000Y-105410000D02*
X161290000Y-105410000D01*
X165100000Y-106680000D02*
X163830000Y-105410000D01*
X141732000Y-112776000D02*
X149098000Y-105410000D01*
X138450000Y-112776000D02*
X141732000Y-112776000D01*
X149098000Y-105410000D02*
X150876000Y-105410000D01*
X150876000Y-105410000D02*
X152146000Y-106680000D01*
X161290000Y-105410000D02*
X160020000Y-106680000D01*
X160020000Y-106680000D02*
X152400000Y-106680000D01*
X152146000Y-106680000D02*
X152400000Y-106680000D01*
%TD*%
%TA.AperFunction,Conductor*%
%TO.N,+5V*%
G36*
X149113945Y-108473944D02*
G01*
X149113944Y-108473945D01*
X148982732Y-108633828D01*
X148982729Y-108633831D01*
X148936671Y-108719999D01*
X148936672Y-108720000D01*
X149794174Y-108720000D01*
X149667007Y-108754075D01*
X149552993Y-108819901D01*
X149459901Y-108912993D01*
X149394075Y-109027007D01*
X149360000Y-109154174D01*
X149360000Y-109285826D01*
X149394075Y-109412993D01*
X149459901Y-109527007D01*
X149552993Y-109620099D01*
X149667007Y-109685925D01*
X149794174Y-109720000D01*
X149925826Y-109720000D01*
X150360000Y-109720000D01*
X150360000Y-110143326D01*
X150446172Y-110097267D01*
X150606054Y-109966055D01*
X150606055Y-109966054D01*
X150737267Y-109806171D01*
X150737270Y-109806168D01*
X150783328Y-109720000D01*
X150360000Y-109720000D01*
X149925826Y-109720000D01*
X150052993Y-109685925D01*
X150167007Y-109620099D01*
X150260099Y-109527007D01*
X150325925Y-109412993D01*
X150360000Y-109285826D01*
X150360000Y-109154174D01*
X150325925Y-109027007D01*
X150260099Y-108912993D01*
X150167007Y-108819901D01*
X150052993Y-108754075D01*
X149925826Y-108720000D01*
X150783328Y-108720000D01*
X150783328Y-108719999D01*
X150737270Y-108633831D01*
X150737267Y-108633828D01*
X150606055Y-108473945D01*
X150606054Y-108473944D01*
X150586626Y-108458000D01*
X151667543Y-108458000D01*
X151651317Y-108471316D01*
X151651316Y-108471317D01*
X151519642Y-108631762D01*
X151519637Y-108631769D01*
X151421798Y-108814813D01*
X151421795Y-108814820D01*
X151361548Y-109013433D01*
X151361547Y-109013437D01*
X151361547Y-109013439D01*
X151341202Y-109220000D01*
X151361547Y-109426561D01*
X151361547Y-109426563D01*
X151361548Y-109426566D01*
X151421795Y-109625179D01*
X151421798Y-109625186D01*
X151519637Y-109808230D01*
X151519642Y-109808237D01*
X151651317Y-109968683D01*
X151729621Y-110032946D01*
X151811762Y-110100357D01*
X151811769Y-110100362D01*
X151994813Y-110198201D01*
X151994820Y-110198204D01*
X152156458Y-110247235D01*
X152193439Y-110258453D01*
X152400000Y-110278798D01*
X152606561Y-110258453D01*
X152705872Y-110228327D01*
X152805179Y-110198204D01*
X152805186Y-110198201D01*
X152988230Y-110100362D01*
X152988231Y-110100360D01*
X152988237Y-110100358D01*
X153148683Y-109968683D01*
X153280358Y-109808237D01*
X153281463Y-109806171D01*
X153327900Y-109719293D01*
X161636672Y-109719293D01*
X161682729Y-109805461D01*
X161682732Y-109805464D01*
X161813944Y-109965347D01*
X161813945Y-109965348D01*
X161973828Y-110096560D01*
X161973827Y-110096560D01*
X162060000Y-110142619D01*
X162060000Y-109719293D01*
X161636672Y-109719293D01*
X153327900Y-109719293D01*
X153378201Y-109625186D01*
X153378204Y-109625179D01*
X153438451Y-109426566D01*
X153438453Y-109426561D01*
X153458798Y-109220000D01*
X153438453Y-109013439D01*
X153410856Y-108922463D01*
X153378204Y-108814820D01*
X153378201Y-108814813D01*
X153280362Y-108631769D01*
X153280357Y-108631762D01*
X153148683Y-108471317D01*
X153148682Y-108471316D01*
X153132456Y-108458000D01*
X161832512Y-108458000D01*
X161813944Y-108473238D01*
X161682732Y-108633121D01*
X161682729Y-108633124D01*
X161636671Y-108719292D01*
X161636672Y-108719293D01*
X162494174Y-108719293D01*
X162367007Y-108753368D01*
X162252993Y-108819194D01*
X162159901Y-108912286D01*
X162094075Y-109026300D01*
X162060000Y-109153467D01*
X162060000Y-109285119D01*
X162094075Y-109412286D01*
X162159901Y-109526300D01*
X162252993Y-109619392D01*
X162367007Y-109685218D01*
X162494174Y-109719293D01*
X162625826Y-109719293D01*
X163060000Y-109719293D01*
X163060000Y-110142619D01*
X163146172Y-110096560D01*
X163306054Y-109965348D01*
X163306055Y-109965347D01*
X163437267Y-109805464D01*
X163437270Y-109805461D01*
X163483328Y-109719293D01*
X163060000Y-109719293D01*
X162625826Y-109719293D01*
X162752993Y-109685218D01*
X162867007Y-109619392D01*
X162960099Y-109526300D01*
X163025925Y-109412286D01*
X163060000Y-109285119D01*
X163060000Y-109153467D01*
X163025925Y-109026300D01*
X162960099Y-108912286D01*
X162867007Y-108819194D01*
X162752993Y-108753368D01*
X162625826Y-108719293D01*
X163483328Y-108719293D01*
X163483328Y-108719292D01*
X163437270Y-108633124D01*
X163437267Y-108633121D01*
X163306055Y-108473238D01*
X163287487Y-108458000D01*
X163830000Y-108458000D01*
X163830000Y-112929400D01*
X163810787Y-112988531D01*
X163760487Y-113025076D01*
X163729400Y-113030000D01*
X148590000Y-113030000D01*
X148590000Y-112260000D01*
X148936672Y-112260000D01*
X148982729Y-112346168D01*
X148982732Y-112346171D01*
X149113944Y-112506054D01*
X149113945Y-112506055D01*
X149273828Y-112637267D01*
X149273827Y-112637267D01*
X149360000Y-112683326D01*
X149360000Y-112260000D01*
X148936672Y-112260000D01*
X148590000Y-112260000D01*
X148590000Y-111825826D01*
X149360000Y-111825826D01*
X149394075Y-111952993D01*
X149459901Y-112067007D01*
X149552993Y-112160099D01*
X149667007Y-112225925D01*
X149794174Y-112260000D01*
X149925826Y-112260000D01*
X150360000Y-112260000D01*
X150360000Y-112683326D01*
X150446172Y-112637267D01*
X150606054Y-112506055D01*
X150606055Y-112506054D01*
X150737267Y-112346171D01*
X150737270Y-112346168D01*
X150783328Y-112260000D01*
X150360000Y-112260000D01*
X149925826Y-112260000D01*
X150052993Y-112225925D01*
X150167007Y-112160099D01*
X150260099Y-112067007D01*
X150325925Y-111952993D01*
X150360000Y-111825826D01*
X150360000Y-111760000D01*
X151341202Y-111760000D01*
X151361547Y-111966561D01*
X151361547Y-111966563D01*
X151361548Y-111966566D01*
X151421795Y-112165179D01*
X151421798Y-112165186D01*
X151519637Y-112348230D01*
X151519642Y-112348237D01*
X151651317Y-112508683D01*
X151729621Y-112572946D01*
X151811762Y-112640357D01*
X151811769Y-112640362D01*
X151994813Y-112738201D01*
X151994820Y-112738204D01*
X152156458Y-112787235D01*
X152193439Y-112798453D01*
X152400000Y-112818798D01*
X152606561Y-112798453D01*
X152705872Y-112768327D01*
X152805179Y-112738204D01*
X152805186Y-112738201D01*
X152988230Y-112640362D01*
X152988231Y-112640360D01*
X152988237Y-112640358D01*
X153148683Y-112508683D01*
X153280358Y-112348237D01*
X153281463Y-112346171D01*
X153327900Y-112259293D01*
X161636672Y-112259293D01*
X161682729Y-112345461D01*
X161682732Y-112345464D01*
X161813944Y-112505347D01*
X161813945Y-112505348D01*
X161973828Y-112636560D01*
X161973827Y-112636560D01*
X162060000Y-112682619D01*
X162060000Y-112259293D01*
X161636672Y-112259293D01*
X153327900Y-112259293D01*
X153378201Y-112165186D01*
X153378204Y-112165179D01*
X153438451Y-111966566D01*
X153438453Y-111966561D01*
X153452384Y-111825119D01*
X162060000Y-111825119D01*
X162094075Y-111952286D01*
X162159901Y-112066300D01*
X162252993Y-112159392D01*
X162367007Y-112225218D01*
X162494174Y-112259293D01*
X162625826Y-112259293D01*
X163060000Y-112259293D01*
X163060000Y-112682619D01*
X163146172Y-112636560D01*
X163306054Y-112505348D01*
X163306055Y-112505347D01*
X163437267Y-112345464D01*
X163437270Y-112345461D01*
X163483328Y-112259293D01*
X163060000Y-112259293D01*
X162625826Y-112259293D01*
X162752993Y-112225218D01*
X162867007Y-112159392D01*
X162960099Y-112066300D01*
X163025925Y-111952286D01*
X163060000Y-111825119D01*
X163060000Y-111693467D01*
X163025925Y-111566300D01*
X162960099Y-111452286D01*
X162867007Y-111359194D01*
X162752993Y-111293368D01*
X162625826Y-111259293D01*
X162494174Y-111259293D01*
X162367007Y-111293368D01*
X162252993Y-111359194D01*
X162159901Y-111452286D01*
X162094075Y-111566300D01*
X162060000Y-111693467D01*
X162060000Y-111825119D01*
X153452384Y-111825119D01*
X153458798Y-111760000D01*
X153438453Y-111553439D01*
X153410856Y-111462463D01*
X153378204Y-111354820D01*
X153378201Y-111354813D01*
X153327144Y-111259292D01*
X161636671Y-111259292D01*
X161636672Y-111259293D01*
X162060000Y-111259293D01*
X162060000Y-110835964D01*
X163060000Y-110835964D01*
X163060000Y-111259293D01*
X163483328Y-111259293D01*
X163483328Y-111259292D01*
X163437270Y-111173124D01*
X163437267Y-111173121D01*
X163306055Y-111013238D01*
X163306054Y-111013237D01*
X163146171Y-110882025D01*
X163146168Y-110882022D01*
X163060000Y-110835964D01*
X162060000Y-110835964D01*
X162059999Y-110835964D01*
X161973831Y-110882022D01*
X161973828Y-110882025D01*
X161813945Y-111013237D01*
X161813944Y-111013238D01*
X161682732Y-111173121D01*
X161682729Y-111173124D01*
X161636671Y-111259292D01*
X153327144Y-111259292D01*
X153280362Y-111171769D01*
X153280357Y-111171762D01*
X153148683Y-111011317D01*
X153148682Y-111011316D01*
X152988237Y-110879642D01*
X152988230Y-110879637D01*
X152805186Y-110781798D01*
X152805179Y-110781795D01*
X152606566Y-110721548D01*
X152606563Y-110721547D01*
X152606561Y-110721547D01*
X152400000Y-110701202D01*
X152193439Y-110721547D01*
X152193437Y-110721547D01*
X152193433Y-110721548D01*
X151994820Y-110781795D01*
X151994813Y-110781798D01*
X151811769Y-110879637D01*
X151811762Y-110879642D01*
X151651317Y-111011316D01*
X151651316Y-111011317D01*
X151519642Y-111171762D01*
X151519637Y-111171769D01*
X151421798Y-111354813D01*
X151421795Y-111354820D01*
X151361548Y-111553433D01*
X151361547Y-111553437D01*
X151361547Y-111553439D01*
X151341202Y-111760000D01*
X150360000Y-111760000D01*
X150360000Y-111694174D01*
X150325925Y-111567007D01*
X150260099Y-111452993D01*
X150167007Y-111359901D01*
X150052993Y-111294075D01*
X149925826Y-111260000D01*
X149794174Y-111260000D01*
X149667007Y-111294075D01*
X149552993Y-111359901D01*
X149459901Y-111452993D01*
X149394075Y-111567007D01*
X149360000Y-111694174D01*
X149360000Y-111825826D01*
X148590000Y-111825826D01*
X148590000Y-111259999D01*
X148936671Y-111259999D01*
X148936672Y-111260000D01*
X149360000Y-111260000D01*
X149360000Y-110836671D01*
X150360000Y-110836671D01*
X150360000Y-111260000D01*
X150783328Y-111260000D01*
X150783328Y-111259999D01*
X150737270Y-111173831D01*
X150737267Y-111173828D01*
X150606055Y-111013945D01*
X150606054Y-111013944D01*
X150446171Y-110882732D01*
X150446168Y-110882729D01*
X150360000Y-110836671D01*
X149360000Y-110836671D01*
X149359999Y-110836671D01*
X149273831Y-110882729D01*
X149273828Y-110882732D01*
X149113945Y-111013944D01*
X149113944Y-111013945D01*
X148982732Y-111173828D01*
X148982729Y-111173831D01*
X148936671Y-111259999D01*
X148590000Y-111259999D01*
X148590000Y-109720000D01*
X148936672Y-109720000D01*
X148982729Y-109806168D01*
X148982732Y-109806171D01*
X149113944Y-109966054D01*
X149113945Y-109966055D01*
X149273828Y-110097267D01*
X149273827Y-110097267D01*
X149360000Y-110143326D01*
X149360000Y-109720000D01*
X148936672Y-109720000D01*
X148590000Y-109720000D01*
X148590000Y-108458000D01*
X149133373Y-108458000D01*
X149113945Y-108473944D01*
G37*
%TD.AperFunction*%
%TD*%
%TA.AperFunction,Conductor*%
%TO.N,+5V*%
G36*
X148541203Y-112136516D02*
G01*
X148578977Y-112195294D01*
X148579775Y-112198136D01*
X148586566Y-112223483D01*
X148586570Y-112223492D01*
X148686399Y-112437578D01*
X148821894Y-112631082D01*
X148988920Y-112798108D01*
X148997944Y-112804427D01*
X149041567Y-112859004D01*
X149048759Y-112928503D01*
X149017235Y-112990857D01*
X148957005Y-113026270D01*
X148926818Y-113030000D01*
X148590000Y-113030000D01*
X148460000Y-113030000D01*
X148392961Y-113010315D01*
X148347206Y-112957511D01*
X148336000Y-112906000D01*
X148336000Y-112230229D01*
X148355685Y-112163190D01*
X148408489Y-112117435D01*
X148477647Y-112107491D01*
X148541203Y-112136516D01*
G37*
%TD.AperFunction*%
%TA.AperFunction,Conductor*%
G36*
X151333177Y-112025306D02*
G01*
X151387055Y-112069791D01*
X151403025Y-112103299D01*
X151421797Y-112165181D01*
X151421801Y-112165191D01*
X151519638Y-112348231D01*
X151519642Y-112348238D01*
X151651316Y-112508683D01*
X151811761Y-112640357D01*
X151811768Y-112640361D01*
X151994808Y-112738198D01*
X151994809Y-112738198D01*
X151994816Y-112738202D01*
X152156803Y-112787339D01*
X152215241Y-112825637D01*
X152243697Y-112889449D01*
X152233137Y-112958516D01*
X152186913Y-113010910D01*
X152120807Y-113030000D01*
X150793182Y-113030000D01*
X150726143Y-113010315D01*
X150680388Y-112957511D01*
X150670444Y-112888353D01*
X150699469Y-112824797D01*
X150722056Y-112804427D01*
X150731079Y-112798108D01*
X150898105Y-112631082D01*
X151033600Y-112437578D01*
X151133429Y-112223492D01*
X151133433Y-112223483D01*
X151164590Y-112107202D01*
X151200954Y-112047542D01*
X151263801Y-112017012D01*
X151333177Y-112025306D01*
G37*
%TD.AperFunction*%
%TA.AperFunction,Conductor*%
G36*
X161692846Y-107969685D02*
G01*
X161738601Y-108022489D01*
X161748545Y-108091647D01*
X161719520Y-108155203D01*
X161696932Y-108175574D01*
X161688924Y-108181180D01*
X161521891Y-108348213D01*
X161521886Y-108348219D01*
X161386400Y-108541713D01*
X161386399Y-108541715D01*
X161286570Y-108755800D01*
X161286567Y-108755806D01*
X161229364Y-108969292D01*
X161229364Y-108969293D01*
X162126988Y-108969293D01*
X162094075Y-109026300D01*
X162060000Y-109153467D01*
X162060000Y-109285119D01*
X162094075Y-109412286D01*
X162126988Y-109469293D01*
X161229364Y-109469293D01*
X161286567Y-109682779D01*
X161286570Y-109682785D01*
X161386399Y-109896871D01*
X161521894Y-110090375D01*
X161688917Y-110257398D01*
X161875031Y-110387718D01*
X161918656Y-110442296D01*
X161925848Y-110511794D01*
X161894326Y-110574149D01*
X161875031Y-110590868D01*
X161688922Y-110721183D01*
X161688920Y-110721184D01*
X161521891Y-110888213D01*
X161521886Y-110888219D01*
X161386400Y-111081713D01*
X161386399Y-111081715D01*
X161286570Y-111295800D01*
X161286567Y-111295806D01*
X161229364Y-111509292D01*
X161229364Y-111509293D01*
X162126988Y-111509293D01*
X162094075Y-111566300D01*
X162060000Y-111693467D01*
X162060000Y-111825119D01*
X162094075Y-111952286D01*
X162126988Y-112009293D01*
X161229364Y-112009293D01*
X161286567Y-112222779D01*
X161286570Y-112222785D01*
X161386399Y-112436871D01*
X161521894Y-112630375D01*
X161688921Y-112797402D01*
X161698952Y-112804426D01*
X161742577Y-112859003D01*
X161749769Y-112928502D01*
X161718246Y-112990856D01*
X161658016Y-113026269D01*
X161627828Y-113030000D01*
X152679193Y-113030000D01*
X152612154Y-113010315D01*
X152566399Y-112957511D01*
X152556455Y-112888353D01*
X152585480Y-112824797D01*
X152643196Y-112787339D01*
X152805184Y-112738202D01*
X152988237Y-112640358D01*
X153148683Y-112508683D01*
X153280358Y-112348237D01*
X153378202Y-112165184D01*
X153438453Y-111966561D01*
X153458798Y-111760000D01*
X153438453Y-111553439D01*
X153378202Y-111354816D01*
X153347040Y-111296516D01*
X153280361Y-111171768D01*
X153280357Y-111171761D01*
X153148683Y-111011316D01*
X152988238Y-110879642D01*
X152988231Y-110879638D01*
X152805191Y-110781801D01*
X152805188Y-110781800D01*
X152805187Y-110781799D01*
X152805184Y-110781798D01*
X152606561Y-110721547D01*
X152606559Y-110721546D01*
X152606561Y-110721546D01*
X152400000Y-110701202D01*
X152193440Y-110721546D01*
X152076165Y-110757121D01*
X151994816Y-110781798D01*
X151994813Y-110781799D01*
X151994811Y-110781800D01*
X151994808Y-110781801D01*
X151811768Y-110879638D01*
X151811761Y-110879642D01*
X151651316Y-111011316D01*
X151519642Y-111171761D01*
X151519638Y-111171768D01*
X151421801Y-111354808D01*
X151421798Y-111354815D01*
X151403025Y-111416701D01*
X151364727Y-111475139D01*
X151300915Y-111503595D01*
X151231848Y-111493034D01*
X151179455Y-111446809D01*
X151164590Y-111412797D01*
X151133433Y-111296516D01*
X151133429Y-111296507D01*
X151033600Y-111082422D01*
X151033599Y-111082420D01*
X150898113Y-110888926D01*
X150898108Y-110888920D01*
X150731082Y-110721894D01*
X150544968Y-110591575D01*
X150501344Y-110536998D01*
X150494151Y-110467499D01*
X150525673Y-110405145D01*
X150544968Y-110388425D01*
X150731082Y-110258105D01*
X150898105Y-110091082D01*
X151033600Y-109897578D01*
X151133429Y-109683492D01*
X151133433Y-109683483D01*
X151164590Y-109567202D01*
X151200954Y-109507542D01*
X151263801Y-109477012D01*
X151333177Y-109485306D01*
X151387055Y-109529791D01*
X151403025Y-109563299D01*
X151421797Y-109625181D01*
X151421801Y-109625191D01*
X151519638Y-109808231D01*
X151519642Y-109808238D01*
X151651316Y-109968683D01*
X151811761Y-110100357D01*
X151811768Y-110100361D01*
X151994808Y-110198198D01*
X151994809Y-110198198D01*
X151994816Y-110198202D01*
X152193439Y-110258453D01*
X152193438Y-110258453D01*
X152211958Y-110260277D01*
X152400000Y-110278798D01*
X152606561Y-110258453D01*
X152805184Y-110198202D01*
X152988237Y-110100358D01*
X153148683Y-109968683D01*
X153280358Y-109808237D01*
X153378202Y-109625184D01*
X153438453Y-109426561D01*
X153458798Y-109220000D01*
X153438453Y-109013439D01*
X153378202Y-108814816D01*
X153347040Y-108756516D01*
X153280361Y-108631768D01*
X153280357Y-108631761D01*
X153148683Y-108471316D01*
X153074886Y-108410753D01*
X153035552Y-108353008D01*
X153033681Y-108283163D01*
X153069868Y-108223395D01*
X153132624Y-108192679D01*
X153153551Y-108190900D01*
X160221254Y-108190900D01*
X160221256Y-108190900D01*
X160221257Y-108190900D01*
X160305365Y-108168364D01*
X160380774Y-108124826D01*
X160442345Y-108063255D01*
X160442345Y-108063253D01*
X160452546Y-108053053D01*
X160452549Y-108053048D01*
X160519281Y-107986316D01*
X160580603Y-107952834D01*
X160606960Y-107950000D01*
X161625807Y-107950000D01*
X161692846Y-107969685D01*
G37*
%TD.AperFunction*%
%TA.AperFunction,Conductor*%
G36*
X148541203Y-109596516D02*
G01*
X148578977Y-109655294D01*
X148579775Y-109658136D01*
X148586566Y-109683483D01*
X148586570Y-109683492D01*
X148686399Y-109897578D01*
X148821894Y-110091082D01*
X148988917Y-110258105D01*
X149175031Y-110388425D01*
X149218656Y-110443003D01*
X149225848Y-110512501D01*
X149194326Y-110574856D01*
X149175031Y-110591575D01*
X148988922Y-110721890D01*
X148988920Y-110721891D01*
X148821891Y-110888920D01*
X148821886Y-110888926D01*
X148686400Y-111082420D01*
X148686399Y-111082422D01*
X148586570Y-111296507D01*
X148586567Y-111296513D01*
X148579775Y-111321864D01*
X148543410Y-111381524D01*
X148480563Y-111412053D01*
X148411187Y-111403758D01*
X148357309Y-111359273D01*
X148336035Y-111292721D01*
X148336000Y-111289770D01*
X148336000Y-109690229D01*
X148355685Y-109623190D01*
X148408489Y-109577435D01*
X148477647Y-109567491D01*
X148541203Y-109596516D01*
G37*
%TD.AperFunction*%
%TA.AperFunction,Conductor*%
G36*
X150110000Y-111326988D02*
G01*
X150052993Y-111294075D01*
X149925826Y-111260000D01*
X149794174Y-111260000D01*
X149667007Y-111294075D01*
X149610000Y-111326988D01*
X149610000Y-109653012D01*
X149667007Y-109685925D01*
X149794174Y-109720000D01*
X149925826Y-109720000D01*
X150052993Y-109685925D01*
X150110000Y-109653012D01*
X150110000Y-111326988D01*
G37*
%TD.AperFunction*%
%TA.AperFunction,Conductor*%
G36*
X162810000Y-111326281D02*
G01*
X162752993Y-111293368D01*
X162625826Y-111259293D01*
X162494174Y-111259293D01*
X162367007Y-111293368D01*
X162310000Y-111326281D01*
X162310000Y-109652305D01*
X162367007Y-109685218D01*
X162494174Y-109719293D01*
X162625826Y-109719293D01*
X162752993Y-109685218D01*
X162810000Y-109652305D01*
X162810000Y-111326281D01*
G37*
%TD.AperFunction*%
%TA.AperFunction,Conductor*%
G36*
X163790854Y-110062054D02*
G01*
X163826268Y-110122283D01*
X163830000Y-110152474D01*
X163830000Y-110826110D01*
X163810315Y-110893149D01*
X163757511Y-110938904D01*
X163688353Y-110948848D01*
X163624797Y-110919823D01*
X163604426Y-110897234D01*
X163598115Y-110888222D01*
X163598108Y-110888213D01*
X163431082Y-110721187D01*
X163244968Y-110590868D01*
X163201344Y-110536291D01*
X163194151Y-110466792D01*
X163225673Y-110404438D01*
X163244968Y-110387718D01*
X163431082Y-110257398D01*
X163598106Y-110090374D01*
X163604424Y-110081352D01*
X163659000Y-110037726D01*
X163728499Y-110030532D01*
X163790854Y-110062054D01*
G37*
%TD.AperFunction*%
%TA.AperFunction,Conductor*%
G36*
X151713488Y-108210585D02*
G01*
X151759243Y-108263389D01*
X151769187Y-108332547D01*
X151740162Y-108396103D01*
X151725114Y-108410753D01*
X151651316Y-108471316D01*
X151519642Y-108631761D01*
X151519638Y-108631768D01*
X151421801Y-108814808D01*
X151421798Y-108814815D01*
X151403025Y-108876701D01*
X151364727Y-108935139D01*
X151300915Y-108963595D01*
X151231848Y-108953034D01*
X151179455Y-108906809D01*
X151164590Y-108872797D01*
X151133433Y-108756516D01*
X151133429Y-108756507D01*
X151033601Y-108542424D01*
X150924089Y-108386025D01*
X150901762Y-108319818D01*
X150918772Y-108252051D01*
X150969720Y-108204238D01*
X151025664Y-108190901D01*
X151091333Y-108190901D01*
X151091349Y-108190900D01*
X151646449Y-108190900D01*
X151713488Y-108210585D01*
G37*
%TD.AperFunction*%
%TA.AperFunction,Conductor*%
G36*
X148993856Y-107969685D02*
G01*
X149039611Y-108022489D01*
X149049555Y-108091647D01*
X149020530Y-108155203D01*
X148997941Y-108175574D01*
X148988929Y-108181884D01*
X148988920Y-108181891D01*
X148821891Y-108348920D01*
X148821886Y-108348926D01*
X148686400Y-108542420D01*
X148686399Y-108542422D01*
X148586570Y-108756507D01*
X148586567Y-108756513D01*
X148579775Y-108781864D01*
X148543410Y-108841524D01*
X148480563Y-108872053D01*
X148411187Y-108863758D01*
X148357309Y-108819273D01*
X148336035Y-108752721D01*
X148336000Y-108749770D01*
X148336000Y-108215041D01*
X148355685Y-108148002D01*
X148372319Y-108127360D01*
X148513360Y-107986319D01*
X148574683Y-107952834D01*
X148601041Y-107950000D01*
X148926817Y-107950000D01*
X148993856Y-107969685D01*
G37*
%TD.AperFunction*%
%TD*%
%TA.AperFunction,Conductor*%
%TO.N,GND*%
G36*
X167455539Y-108350685D02*
G01*
X167501294Y-108403489D01*
X167512500Y-108455000D01*
X167512500Y-120686249D01*
X167512274Y-120693736D01*
X167495654Y-120968486D01*
X167493849Y-120983351D01*
X167444909Y-121250404D01*
X167441326Y-121264942D01*
X167360560Y-121524132D01*
X167355250Y-121538133D01*
X167243822Y-121785716D01*
X167236863Y-121798975D01*
X167096409Y-122031315D01*
X167087903Y-122043638D01*
X166920465Y-122257357D01*
X166910535Y-122268565D01*
X166718565Y-122460535D01*
X166707357Y-122470465D01*
X166493638Y-122637903D01*
X166481315Y-122646409D01*
X166248975Y-122786863D01*
X166235716Y-122793822D01*
X165988133Y-122905250D01*
X165974137Y-122910557D01*
X165884468Y-122938500D01*
X165714942Y-122991326D01*
X165700404Y-122994909D01*
X165433351Y-123043849D01*
X165418486Y-123045654D01*
X165143736Y-123062274D01*
X165136249Y-123062500D01*
X162303000Y-123062500D01*
X162235961Y-123042815D01*
X162190206Y-122990011D01*
X162179000Y-122938500D01*
X162179000Y-120940000D01*
X162867001Y-120940000D01*
X162867001Y-120965014D01*
X162881737Y-121039106D01*
X162881738Y-121039109D01*
X162937876Y-121123123D01*
X163021895Y-121179263D01*
X163021896Y-121179264D01*
X163095980Y-121193999D01*
X163920999Y-121193999D01*
X163921000Y-121193998D01*
X163921000Y-120940000D01*
X165771000Y-120940000D01*
X165771000Y-121193999D01*
X166596015Y-121193999D01*
X166670106Y-121179262D01*
X166670109Y-121179261D01*
X166754123Y-121123123D01*
X166810263Y-121039104D01*
X166810264Y-121039103D01*
X166824999Y-120965021D01*
X166825000Y-120965018D01*
X166825000Y-120940000D01*
X165771000Y-120940000D01*
X163921000Y-120940000D01*
X162867001Y-120940000D01*
X162179000Y-120940000D01*
X162179000Y-119090000D01*
X162867000Y-119090000D01*
X163921000Y-119090000D01*
X163921000Y-118836000D01*
X165771000Y-118836000D01*
X165771000Y-119090000D01*
X166824999Y-119090000D01*
X166824999Y-119064985D01*
X166810262Y-118990893D01*
X166810261Y-118990890D01*
X166754123Y-118906876D01*
X166670104Y-118850736D01*
X166670103Y-118850735D01*
X166596021Y-118836000D01*
X165771000Y-118836000D01*
X163921000Y-118836000D01*
X163095985Y-118836000D01*
X163021893Y-118850737D01*
X163021890Y-118850738D01*
X162937876Y-118906876D01*
X162881736Y-118990895D01*
X162881735Y-118990896D01*
X162867000Y-119064978D01*
X162867000Y-119090000D01*
X162179000Y-119090000D01*
X162179000Y-118361000D01*
X162198685Y-118293961D01*
X162251489Y-118248206D01*
X162303000Y-118237000D01*
X164084000Y-118237000D01*
X164084000Y-115150523D01*
X164103685Y-115083484D01*
X164156489Y-115037729D01*
X164168594Y-115032951D01*
X164250000Y-115005666D01*
X164250000Y-114365119D01*
X164600000Y-114365119D01*
X164634075Y-114492286D01*
X164699901Y-114606300D01*
X164792993Y-114699392D01*
X164907007Y-114765218D01*
X165034174Y-114799293D01*
X165165826Y-114799293D01*
X165292993Y-114765218D01*
X165407007Y-114699392D01*
X165500099Y-114606300D01*
X165565925Y-114492286D01*
X165600000Y-114365119D01*
X165600000Y-114233467D01*
X165565925Y-114106300D01*
X165500099Y-113992286D01*
X165407007Y-113899194D01*
X165292993Y-113833368D01*
X165165826Y-113799293D01*
X165034174Y-113799293D01*
X164907007Y-113833368D01*
X164792993Y-113899194D01*
X164699901Y-113992286D01*
X164634075Y-114106300D01*
X164600000Y-114233467D01*
X164600000Y-114365119D01*
X164250000Y-114365119D01*
X164250000Y-113592917D01*
X164168594Y-113565633D01*
X164111285Y-113525664D01*
X164084683Y-113461057D01*
X164084000Y-113448061D01*
X164084000Y-112610523D01*
X164103685Y-112543484D01*
X164156489Y-112497729D01*
X164168594Y-112492951D01*
X164250000Y-112465666D01*
X164250000Y-111825119D01*
X164600000Y-111825119D01*
X164634075Y-111952286D01*
X164699901Y-112066300D01*
X164792993Y-112159392D01*
X164907007Y-112225218D01*
X165034174Y-112259293D01*
X165165826Y-112259293D01*
X165292993Y-112225218D01*
X165407007Y-112159392D01*
X165500099Y-112066300D01*
X165565925Y-111952286D01*
X165600000Y-111825119D01*
X165600000Y-111693467D01*
X165565925Y-111566300D01*
X165500099Y-111452286D01*
X165407007Y-111359194D01*
X165292993Y-111293368D01*
X165165826Y-111259293D01*
X165034174Y-111259293D01*
X164907007Y-111293368D01*
X164792993Y-111359194D01*
X164699901Y-111452286D01*
X164634075Y-111566300D01*
X164600000Y-111693467D01*
X164600000Y-111825119D01*
X164250000Y-111825119D01*
X164250000Y-111052917D01*
X164168594Y-111025633D01*
X164111285Y-110985664D01*
X164084683Y-110921057D01*
X164084000Y-110908061D01*
X164084000Y-110070523D01*
X164103685Y-110003484D01*
X164156489Y-109957729D01*
X164168594Y-109952951D01*
X164250000Y-109925666D01*
X164250000Y-109285119D01*
X164600000Y-109285119D01*
X164634075Y-109412286D01*
X164699901Y-109526300D01*
X164792993Y-109619392D01*
X164907007Y-109685218D01*
X165034174Y-109719293D01*
X165165826Y-109719293D01*
X165292993Y-109685218D01*
X165407007Y-109619392D01*
X165500099Y-109526300D01*
X165565925Y-109412286D01*
X165600000Y-109285119D01*
X165600000Y-109153467D01*
X165565925Y-109026300D01*
X165500099Y-108912286D01*
X165407007Y-108819194D01*
X165292993Y-108753368D01*
X165165826Y-108719293D01*
X165034174Y-108719293D01*
X164907007Y-108753368D01*
X164792993Y-108819194D01*
X164699901Y-108912286D01*
X164634075Y-109026300D01*
X164600000Y-109153467D01*
X164600000Y-109285119D01*
X164250000Y-109285119D01*
X164250000Y-108493293D01*
X164269685Y-108426254D01*
X164322489Y-108380499D01*
X164374000Y-108369293D01*
X165826325Y-108369293D01*
X165828550Y-108366397D01*
X165894317Y-108342807D01*
X165901603Y-108342593D01*
X165929875Y-108342593D01*
X165929877Y-108342593D01*
X165943676Y-108338895D01*
X165957376Y-108335225D01*
X165989468Y-108331000D01*
X167388500Y-108331000D01*
X167455539Y-108350685D01*
G37*
%TD.AperFunction*%
%TD*%
%TA.AperFunction,Conductor*%
%TO.N,GND*%
G36*
X166300425Y-59076455D02*
G01*
X166322009Y-59093689D01*
X166460681Y-59232361D01*
X166494166Y-59293684D01*
X166497000Y-59320042D01*
X166497000Y-66810763D01*
X166477315Y-66877802D01*
X166424511Y-66923557D01*
X166378898Y-66934623D01*
X165923179Y-66956324D01*
X165855279Y-66939850D01*
X165807074Y-66889293D01*
X164386101Y-66889293D01*
X164383645Y-66915202D01*
X164367623Y-66956558D01*
X164325050Y-67011959D01*
X164259282Y-67035549D01*
X164257895Y-67035623D01*
X164070952Y-67044525D01*
X164003054Y-67028052D01*
X163957649Y-67001837D01*
X163957650Y-67001837D01*
X163948832Y-66999474D01*
X163921905Y-66992259D01*
X163862246Y-66955895D01*
X163831717Y-66893048D01*
X163830000Y-66872485D01*
X163830000Y-66492795D01*
X163849685Y-66425756D01*
X163902489Y-66380001D01*
X163971647Y-66370057D01*
X164035203Y-66399082D01*
X164065000Y-66437523D01*
X164157339Y-66622964D01*
X164250000Y-66745667D01*
X164250000Y-66105119D01*
X164600000Y-66105119D01*
X164634075Y-66232286D01*
X164699901Y-66346300D01*
X164792993Y-66439392D01*
X164907007Y-66505218D01*
X165034174Y-66539293D01*
X165165826Y-66539293D01*
X165292993Y-66505218D01*
X165407007Y-66439392D01*
X165500099Y-66346300D01*
X165565925Y-66232286D01*
X165600000Y-66105119D01*
X165600000Y-65973467D01*
X165565925Y-65846300D01*
X165500099Y-65732286D01*
X165407007Y-65639194D01*
X165292993Y-65573368D01*
X165165826Y-65539293D01*
X165034174Y-65539293D01*
X164907007Y-65573368D01*
X164792993Y-65639194D01*
X164699901Y-65732286D01*
X164634075Y-65846300D01*
X164600000Y-65973467D01*
X164600000Y-66105119D01*
X164250000Y-66105119D01*
X164250000Y-65332918D01*
X164157339Y-65455621D01*
X164157335Y-65455628D01*
X164065000Y-65641062D01*
X164017497Y-65692299D01*
X163949834Y-65709720D01*
X163883494Y-65687794D01*
X163839539Y-65633483D01*
X163830000Y-65585790D01*
X163830000Y-63881000D01*
X152524000Y-63881000D01*
X152456961Y-63861315D01*
X152411206Y-63808511D01*
X152400000Y-63757000D01*
X152400000Y-62520000D01*
X160581001Y-62520000D01*
X160581001Y-62545014D01*
X160595737Y-62619106D01*
X160595738Y-62619109D01*
X160651876Y-62703123D01*
X160735895Y-62759263D01*
X160735896Y-62759264D01*
X160809980Y-62773999D01*
X161634999Y-62773999D01*
X161635000Y-62773998D01*
X161635000Y-62520000D01*
X163485000Y-62520000D01*
X163485000Y-62773999D01*
X164310015Y-62773999D01*
X164384106Y-62759262D01*
X164384109Y-62759261D01*
X164468123Y-62703123D01*
X164524263Y-62619104D01*
X164524264Y-62619103D01*
X164538999Y-62545021D01*
X164539000Y-62545018D01*
X164539000Y-62520000D01*
X163485000Y-62520000D01*
X161635000Y-62520000D01*
X160581001Y-62520000D01*
X152400000Y-62520000D01*
X152400000Y-60670000D01*
X160581000Y-60670000D01*
X161635000Y-60670000D01*
X161635000Y-60416000D01*
X163485000Y-60416000D01*
X163485000Y-60670000D01*
X164538999Y-60670000D01*
X164538999Y-60644985D01*
X164524262Y-60570893D01*
X164524261Y-60570890D01*
X164468123Y-60486876D01*
X164384104Y-60430736D01*
X164384103Y-60430735D01*
X164310021Y-60416000D01*
X163485000Y-60416000D01*
X161635000Y-60416000D01*
X160809985Y-60416000D01*
X160735893Y-60430737D01*
X160735890Y-60430738D01*
X160651876Y-60486876D01*
X160595736Y-60570895D01*
X160595735Y-60570896D01*
X160581000Y-60644978D01*
X160581000Y-60670000D01*
X152400000Y-60670000D01*
X152400000Y-60397502D01*
X152419685Y-60330463D01*
X152472489Y-60284708D01*
X152541647Y-60274764D01*
X152605203Y-60303789D01*
X152635000Y-60342230D01*
X152727339Y-60527671D01*
X152819999Y-60650374D01*
X152820000Y-60650374D01*
X152820000Y-60009826D01*
X153170000Y-60009826D01*
X153204075Y-60136993D01*
X153269901Y-60251007D01*
X153362993Y-60344099D01*
X153477007Y-60409925D01*
X153604174Y-60444000D01*
X153735826Y-60444000D01*
X153862993Y-60409925D01*
X153977007Y-60344099D01*
X154070099Y-60251007D01*
X154135925Y-60136993D01*
X154170000Y-60009826D01*
X154170000Y-59878174D01*
X154135925Y-59751007D01*
X154070099Y-59636993D01*
X153977007Y-59543901D01*
X153862993Y-59478075D01*
X153735826Y-59444000D01*
X153604174Y-59444000D01*
X153477007Y-59478075D01*
X153362993Y-59543901D01*
X153269901Y-59636993D01*
X153204075Y-59751007D01*
X153170000Y-59878174D01*
X153170000Y-60009826D01*
X152820000Y-60009826D01*
X152820000Y-59218000D01*
X152831712Y-59178110D01*
X166233216Y-59057376D01*
X166300425Y-59076455D01*
G37*
%TD.AperFunction*%
%TD*%
M02*
