%TF.GenerationSoftware,KiCad,Pcbnew,8.0.1*%
%TF.CreationDate,2024-04-12T14:48:39-05:00*%
%TF.ProjectId,Digilent Discovery LA Adapter,44696769-6c65-46e7-9420-446973636f76,1*%
%TF.SameCoordinates,Original*%
%TF.FileFunction,Legend,Top*%
%TF.FilePolarity,Positive*%
%FSLAX46Y46*%
G04 Gerber Fmt 4.6, Leading zero omitted, Abs format (unit mm)*
G04 Created by KiCad (PCBNEW 8.0.1) date 2024-04-12 14:48:39*
%MOMM*%
%LPD*%
G01*
G04 APERTURE LIST*
%ADD10C,0.300000*%
%ADD11C,0.150000*%
%ADD12C,0.200000*%
%ADD13C,0.120000*%
G04 APERTURE END LIST*
D10*
X160401000Y-60325000D02*
X164719000Y-60325000D01*
X164719000Y-62865000D01*
X160401000Y-62865000D01*
X160401000Y-60325000D01*
X162687000Y-118745000D02*
X167005000Y-118745000D01*
X167005000Y-121285000D01*
X162687000Y-121285000D01*
X162687000Y-118745000D01*
D11*
X144145000Y-119380000D02*
X144145000Y-119761000D01*
X143510000Y-118745000D02*
X144145000Y-119380000D01*
X142875000Y-118745000D02*
X143510000Y-118745000D01*
X137160000Y-119380000D02*
X136525000Y-118745000D01*
X137795000Y-118745000D01*
X137160000Y-119380000D01*
G36*
X137160000Y-119380000D02*
G01*
X136525000Y-118745000D01*
X137795000Y-118745000D01*
X137160000Y-119380000D01*
G37*
D12*
X143149435Y-120152219D02*
X143816101Y-121152219D01*
X143816101Y-120152219D02*
X143149435Y-121152219D01*
X144197054Y-121152219D02*
X144197054Y-120152219D01*
X144673244Y-121152219D02*
X144673244Y-120152219D01*
X144673244Y-120152219D02*
X145244672Y-121152219D01*
X145244672Y-121152219D02*
X145244672Y-120152219D01*
D11*
X137160000Y-118745000D02*
X142875000Y-118745000D01*
X137160000Y-119380000D02*
X137160000Y-118745000D01*
X148590000Y-118110000D02*
X142240000Y-118110000D01*
X148590000Y-62230000D02*
X148590000Y-118110000D01*
X142240000Y-62230000D02*
X148590000Y-62230000D01*
X138430000Y-58928000D02*
X141859000Y-58928000D01*
X141859000Y-60960000D01*
X138430000Y-60960000D01*
X138430000Y-58928000D01*
G36*
X138430000Y-58928000D02*
G01*
X141859000Y-58928000D01*
X141859000Y-60960000D01*
X138430000Y-60960000D01*
X138430000Y-58928000D01*
G37*
X138684000Y-119634000D02*
X142113000Y-119634000D01*
X142113000Y-121666000D01*
X138684000Y-121666000D01*
X138684000Y-119634000D01*
G36*
X138684000Y-119634000D02*
G01*
X142113000Y-119634000D01*
X142113000Y-121666000D01*
X138684000Y-121666000D01*
X138684000Y-119634000D01*
G37*
X136271000Y-115697000D02*
X141605000Y-115697000D01*
X141605000Y-117729000D01*
X136271000Y-117729000D01*
X136271000Y-115697000D01*
G36*
X136271000Y-115697000D02*
G01*
X141605000Y-115697000D01*
X141605000Y-117729000D01*
X136271000Y-117729000D01*
X136271000Y-115697000D01*
G37*
D12*
G36*
X144284051Y-116348198D02*
G01*
X144351192Y-116413685D01*
X144386812Y-116482289D01*
X144430291Y-116649856D01*
X144431697Y-116768664D01*
X144391457Y-116935936D01*
X144355535Y-117010606D01*
X144288226Y-117079614D01*
X144185044Y-117115307D01*
X144058605Y-117116250D01*
X144057094Y-116314485D01*
X144176206Y-116313597D01*
X144284051Y-116348198D01*
G37*
G36*
X144741331Y-117426330D02*
G01*
X141652443Y-117426330D01*
X141652443Y-116643790D01*
X141763554Y-116643790D01*
X141765181Y-116781363D01*
X141763672Y-116791508D01*
X141765443Y-116803486D01*
X141765475Y-116806156D01*
X141766039Y-116807519D01*
X141766540Y-116810901D01*
X141814044Y-116993980D01*
X141814724Y-117003536D01*
X141820315Y-117018148D01*
X141820754Y-117019837D01*
X141821184Y-117020417D01*
X141821730Y-117021844D01*
X141871066Y-117116866D01*
X141875644Y-117127918D01*
X141878802Y-117131766D01*
X141879792Y-117133672D01*
X141881786Y-117135401D01*
X141888081Y-117143071D01*
X141974026Y-117226902D01*
X141975031Y-117228912D01*
X141984555Y-117237172D01*
X141998472Y-117250747D01*
X142001791Y-117252122D01*
X142004507Y-117254477D01*
X142022407Y-117262468D01*
X142165491Y-117308374D01*
X142177378Y-117313298D01*
X142182370Y-117313789D01*
X142184379Y-117314434D01*
X142187013Y-117314246D01*
X142196887Y-117315219D01*
X142293029Y-117313609D01*
X142304632Y-117314434D01*
X142309468Y-117313334D01*
X142311634Y-117313298D01*
X142314076Y-117312286D01*
X142323748Y-117310087D01*
X142452125Y-117265678D01*
X142454492Y-117265678D01*
X142466484Y-117260710D01*
X142484505Y-117254477D01*
X142487220Y-117252122D01*
X142490540Y-117250747D01*
X142505693Y-117238310D01*
X142565749Y-117175537D01*
X142580680Y-117139488D01*
X142582601Y-117119980D01*
X142580680Y-116767138D01*
X142565748Y-116731090D01*
X142538158Y-116703500D01*
X142502110Y-116688568D01*
X142482601Y-116686647D01*
X142272616Y-116688568D01*
X142236568Y-116703500D01*
X142208978Y-116731090D01*
X142194046Y-116767138D01*
X142194046Y-116806156D01*
X142208978Y-116842204D01*
X142236568Y-116869794D01*
X142272616Y-116884726D01*
X142292125Y-116886647D01*
X142383140Y-116885814D01*
X142384188Y-117078224D01*
X142382559Y-117079927D01*
X142279948Y-117115422D01*
X142216461Y-117116485D01*
X142109721Y-117082240D01*
X142042582Y-117016752D01*
X142006961Y-116948145D01*
X141963482Y-116780580D01*
X141962076Y-116661773D01*
X142002316Y-116494500D01*
X142038238Y-116419830D01*
X142105545Y-116350824D01*
X142208884Y-116315077D01*
X142314085Y-116313832D01*
X142408569Y-116359287D01*
X142447489Y-116362053D01*
X142484505Y-116349714D01*
X142513982Y-116324149D01*
X142531431Y-116289251D01*
X142534196Y-116250331D01*
X142522493Y-116215219D01*
X142811173Y-116215219D01*
X142813094Y-117234728D01*
X142828026Y-117270776D01*
X142855616Y-117298366D01*
X142891664Y-117313298D01*
X142930682Y-117313298D01*
X142966730Y-117298366D01*
X142994320Y-117270776D01*
X143009252Y-117234728D01*
X143011173Y-117215219D01*
X143009992Y-116588475D01*
X143394490Y-117258793D01*
X143399454Y-117270776D01*
X143403933Y-117275255D01*
X143407124Y-117280818D01*
X143417640Y-117288962D01*
X143427044Y-117298366D01*
X143432931Y-117300804D01*
X143437973Y-117304709D01*
X143450805Y-117308208D01*
X143463092Y-117313298D01*
X143469468Y-117313298D01*
X143475617Y-117314975D01*
X143488810Y-117313298D01*
X143502110Y-117313298D01*
X143507998Y-117310858D01*
X143514323Y-117310055D01*
X143525872Y-117303454D01*
X143538158Y-117298366D01*
X143542665Y-117293858D01*
X143548200Y-117290696D01*
X143556344Y-117280179D01*
X143565748Y-117270776D01*
X143568186Y-117264888D01*
X143572091Y-117259847D01*
X143575590Y-117247014D01*
X143580680Y-117234728D01*
X143581662Y-117224750D01*
X143582357Y-117222204D01*
X143582106Y-117220236D01*
X143582601Y-117215219D01*
X143580717Y-116215219D01*
X143858792Y-116215219D01*
X143860713Y-117234728D01*
X143875645Y-117270776D01*
X143903235Y-117298366D01*
X143939283Y-117313298D01*
X143958792Y-117315219D01*
X144195592Y-117313453D01*
X144209394Y-117314434D01*
X144214321Y-117313313D01*
X144216396Y-117313298D01*
X144218838Y-117312286D01*
X144228510Y-117310087D01*
X144356887Y-117265678D01*
X144359254Y-117265678D01*
X144371246Y-117260710D01*
X144389267Y-117254477D01*
X144391982Y-117252122D01*
X144395302Y-117250747D01*
X144410455Y-117238310D01*
X144504472Y-117141920D01*
X144513982Y-117133673D01*
X144516648Y-117129437D01*
X144518130Y-117127918D01*
X144519141Y-117125476D01*
X144524425Y-117117082D01*
X144567853Y-117026810D01*
X144573020Y-117019837D01*
X144578248Y-117005202D01*
X144579050Y-117003536D01*
X144579101Y-117002815D01*
X144579615Y-117001377D01*
X144624194Y-116816064D01*
X144628299Y-116806156D01*
X144629491Y-116794046D01*
X144630102Y-116791508D01*
X144629884Y-116790049D01*
X144630220Y-116786647D01*
X144628592Y-116649073D01*
X144630102Y-116638929D01*
X144628330Y-116626950D01*
X144628299Y-116624281D01*
X144627734Y-116622917D01*
X144627234Y-116619536D01*
X144579729Y-116436456D01*
X144579050Y-116426901D01*
X144573457Y-116412285D01*
X144573020Y-116410600D01*
X144572590Y-116410020D01*
X144572044Y-116408592D01*
X144522701Y-116313558D01*
X144518129Y-116302519D01*
X144514973Y-116298674D01*
X144513982Y-116296764D01*
X144511984Y-116295031D01*
X144505693Y-116287365D01*
X144419748Y-116203536D01*
X144418743Y-116201526D01*
X144409213Y-116193260D01*
X144395301Y-116179691D01*
X144391982Y-116178316D01*
X144389267Y-116175961D01*
X144371366Y-116167970D01*
X144228286Y-116122065D01*
X144216396Y-116117140D01*
X144211402Y-116116648D01*
X144209394Y-116116004D01*
X144206760Y-116116191D01*
X144196887Y-116115219D01*
X143939283Y-116117140D01*
X143903235Y-116132072D01*
X143875645Y-116159662D01*
X143860713Y-116195710D01*
X143858792Y-116215219D01*
X143580717Y-116215219D01*
X143580680Y-116195710D01*
X143565748Y-116159662D01*
X143538158Y-116132072D01*
X143502110Y-116117140D01*
X143463092Y-116117140D01*
X143427044Y-116132072D01*
X143399454Y-116159662D01*
X143384522Y-116195710D01*
X143382601Y-116215219D01*
X143383781Y-116841962D01*
X142999283Y-116171644D01*
X142994320Y-116159662D01*
X142989840Y-116155182D01*
X142986650Y-116149620D01*
X142976135Y-116141477D01*
X142966730Y-116132072D01*
X142960839Y-116129632D01*
X142955801Y-116125730D01*
X142942972Y-116122231D01*
X142930682Y-116117140D01*
X142924307Y-116117140D01*
X142918158Y-116115463D01*
X142904965Y-116117140D01*
X142891664Y-116117140D01*
X142885775Y-116119579D01*
X142879451Y-116120383D01*
X142867901Y-116126983D01*
X142855616Y-116132072D01*
X142851108Y-116136579D01*
X142845574Y-116139742D01*
X142837431Y-116150256D01*
X142828026Y-116159662D01*
X142825586Y-116165552D01*
X142821684Y-116170591D01*
X142818185Y-116183419D01*
X142813094Y-116195710D01*
X142812111Y-116205687D01*
X142811417Y-116208234D01*
X142811667Y-116210201D01*
X142811173Y-116215219D01*
X142522493Y-116215219D01*
X142521858Y-116213315D01*
X142496293Y-116183838D01*
X142479703Y-116173395D01*
X142396685Y-116133456D01*
X142395301Y-116132072D01*
X142384551Y-116127619D01*
X142366157Y-116118770D01*
X142362573Y-116118515D01*
X142359253Y-116117140D01*
X142339744Y-116115219D01*
X142197083Y-116116906D01*
X142184379Y-116116004D01*
X142179493Y-116117114D01*
X142177378Y-116117140D01*
X142174936Y-116118151D01*
X142165264Y-116120351D01*
X142036890Y-116164759D01*
X142034521Y-116164759D01*
X142022524Y-116169728D01*
X142004507Y-116175961D01*
X142001791Y-116178316D01*
X141998473Y-116179691D01*
X141983319Y-116192127D01*
X141889302Y-116288516D01*
X141879792Y-116296765D01*
X141877125Y-116301001D01*
X141875645Y-116302519D01*
X141874634Y-116304958D01*
X141869349Y-116313355D01*
X141825920Y-116403626D01*
X141820754Y-116410600D01*
X141815526Y-116425232D01*
X141814724Y-116426901D01*
X141814672Y-116427623D01*
X141814159Y-116429061D01*
X141769579Y-116614371D01*
X141765475Y-116624281D01*
X141764282Y-116636390D01*
X141763672Y-116638929D01*
X141763889Y-116640387D01*
X141763554Y-116643790D01*
X141652443Y-116643790D01*
X141652443Y-116004108D01*
X144741331Y-116004108D01*
X144741331Y-117426330D01*
G37*
D11*
X136271000Y-102870000D02*
X141605000Y-102870000D01*
X141605000Y-104902000D01*
X136271000Y-104902000D01*
X136271000Y-102870000D01*
G36*
X136271000Y-102870000D02*
G01*
X141605000Y-102870000D01*
X141605000Y-104902000D01*
X136271000Y-104902000D01*
X136271000Y-102870000D01*
G37*
D12*
G36*
X144284051Y-103521198D02*
G01*
X144351192Y-103586685D01*
X144386812Y-103655289D01*
X144430291Y-103822856D01*
X144431697Y-103941664D01*
X144391457Y-104108936D01*
X144355535Y-104183606D01*
X144288226Y-104252614D01*
X144185044Y-104288307D01*
X144058605Y-104289250D01*
X144057094Y-103487485D01*
X144176206Y-103486597D01*
X144284051Y-103521198D01*
G37*
G36*
X144741331Y-104599330D02*
G01*
X141652443Y-104599330D01*
X141652443Y-103816790D01*
X141763554Y-103816790D01*
X141765181Y-103954363D01*
X141763672Y-103964508D01*
X141765443Y-103976486D01*
X141765475Y-103979156D01*
X141766039Y-103980519D01*
X141766540Y-103983901D01*
X141814044Y-104166980D01*
X141814724Y-104176536D01*
X141820315Y-104191148D01*
X141820754Y-104192837D01*
X141821184Y-104193417D01*
X141821730Y-104194844D01*
X141871066Y-104289866D01*
X141875644Y-104300918D01*
X141878802Y-104304766D01*
X141879792Y-104306672D01*
X141881786Y-104308401D01*
X141888081Y-104316071D01*
X141974026Y-104399902D01*
X141975031Y-104401912D01*
X141984555Y-104410172D01*
X141998472Y-104423747D01*
X142001791Y-104425122D01*
X142004507Y-104427477D01*
X142022407Y-104435468D01*
X142165491Y-104481374D01*
X142177378Y-104486298D01*
X142182370Y-104486789D01*
X142184379Y-104487434D01*
X142187013Y-104487246D01*
X142196887Y-104488219D01*
X142293029Y-104486609D01*
X142304632Y-104487434D01*
X142309468Y-104486334D01*
X142311634Y-104486298D01*
X142314076Y-104485286D01*
X142323748Y-104483087D01*
X142452125Y-104438678D01*
X142454492Y-104438678D01*
X142466484Y-104433710D01*
X142484505Y-104427477D01*
X142487220Y-104425122D01*
X142490540Y-104423747D01*
X142505693Y-104411310D01*
X142565749Y-104348537D01*
X142580680Y-104312488D01*
X142582601Y-104292980D01*
X142580680Y-103940138D01*
X142565748Y-103904090D01*
X142538158Y-103876500D01*
X142502110Y-103861568D01*
X142482601Y-103859647D01*
X142272616Y-103861568D01*
X142236568Y-103876500D01*
X142208978Y-103904090D01*
X142194046Y-103940138D01*
X142194046Y-103979156D01*
X142208978Y-104015204D01*
X142236568Y-104042794D01*
X142272616Y-104057726D01*
X142292125Y-104059647D01*
X142383140Y-104058814D01*
X142384188Y-104251224D01*
X142382559Y-104252927D01*
X142279948Y-104288422D01*
X142216461Y-104289485D01*
X142109721Y-104255240D01*
X142042582Y-104189752D01*
X142006961Y-104121145D01*
X141963482Y-103953580D01*
X141962076Y-103834773D01*
X142002316Y-103667500D01*
X142038238Y-103592830D01*
X142105545Y-103523824D01*
X142208884Y-103488077D01*
X142314085Y-103486832D01*
X142408569Y-103532287D01*
X142447489Y-103535053D01*
X142484505Y-103522714D01*
X142513982Y-103497149D01*
X142531431Y-103462251D01*
X142534196Y-103423331D01*
X142522493Y-103388219D01*
X142811173Y-103388219D01*
X142813094Y-104407728D01*
X142828026Y-104443776D01*
X142855616Y-104471366D01*
X142891664Y-104486298D01*
X142930682Y-104486298D01*
X142966730Y-104471366D01*
X142994320Y-104443776D01*
X143009252Y-104407728D01*
X143011173Y-104388219D01*
X143009992Y-103761475D01*
X143394490Y-104431793D01*
X143399454Y-104443776D01*
X143403933Y-104448255D01*
X143407124Y-104453818D01*
X143417640Y-104461962D01*
X143427044Y-104471366D01*
X143432931Y-104473804D01*
X143437973Y-104477709D01*
X143450805Y-104481208D01*
X143463092Y-104486298D01*
X143469468Y-104486298D01*
X143475617Y-104487975D01*
X143488810Y-104486298D01*
X143502110Y-104486298D01*
X143507998Y-104483858D01*
X143514323Y-104483055D01*
X143525872Y-104476454D01*
X143538158Y-104471366D01*
X143542665Y-104466858D01*
X143548200Y-104463696D01*
X143556344Y-104453179D01*
X143565748Y-104443776D01*
X143568186Y-104437888D01*
X143572091Y-104432847D01*
X143575590Y-104420014D01*
X143580680Y-104407728D01*
X143581662Y-104397750D01*
X143582357Y-104395204D01*
X143582106Y-104393236D01*
X143582601Y-104388219D01*
X143580717Y-103388219D01*
X143858792Y-103388219D01*
X143860713Y-104407728D01*
X143875645Y-104443776D01*
X143903235Y-104471366D01*
X143939283Y-104486298D01*
X143958792Y-104488219D01*
X144195592Y-104486453D01*
X144209394Y-104487434D01*
X144214321Y-104486313D01*
X144216396Y-104486298D01*
X144218838Y-104485286D01*
X144228510Y-104483087D01*
X144356887Y-104438678D01*
X144359254Y-104438678D01*
X144371246Y-104433710D01*
X144389267Y-104427477D01*
X144391982Y-104425122D01*
X144395302Y-104423747D01*
X144410455Y-104411310D01*
X144504472Y-104314920D01*
X144513982Y-104306673D01*
X144516648Y-104302437D01*
X144518130Y-104300918D01*
X144519141Y-104298476D01*
X144524425Y-104290082D01*
X144567853Y-104199810D01*
X144573020Y-104192837D01*
X144578248Y-104178202D01*
X144579050Y-104176536D01*
X144579101Y-104175815D01*
X144579615Y-104174377D01*
X144624194Y-103989064D01*
X144628299Y-103979156D01*
X144629491Y-103967046D01*
X144630102Y-103964508D01*
X144629884Y-103963049D01*
X144630220Y-103959647D01*
X144628592Y-103822073D01*
X144630102Y-103811929D01*
X144628330Y-103799950D01*
X144628299Y-103797281D01*
X144627734Y-103795917D01*
X144627234Y-103792536D01*
X144579729Y-103609456D01*
X144579050Y-103599901D01*
X144573457Y-103585285D01*
X144573020Y-103583600D01*
X144572590Y-103583020D01*
X144572044Y-103581592D01*
X144522701Y-103486558D01*
X144518129Y-103475519D01*
X144514973Y-103471674D01*
X144513982Y-103469764D01*
X144511984Y-103468031D01*
X144505693Y-103460365D01*
X144419748Y-103376536D01*
X144418743Y-103374526D01*
X144409213Y-103366260D01*
X144395301Y-103352691D01*
X144391982Y-103351316D01*
X144389267Y-103348961D01*
X144371366Y-103340970D01*
X144228286Y-103295065D01*
X144216396Y-103290140D01*
X144211402Y-103289648D01*
X144209394Y-103289004D01*
X144206760Y-103289191D01*
X144196887Y-103288219D01*
X143939283Y-103290140D01*
X143903235Y-103305072D01*
X143875645Y-103332662D01*
X143860713Y-103368710D01*
X143858792Y-103388219D01*
X143580717Y-103388219D01*
X143580680Y-103368710D01*
X143565748Y-103332662D01*
X143538158Y-103305072D01*
X143502110Y-103290140D01*
X143463092Y-103290140D01*
X143427044Y-103305072D01*
X143399454Y-103332662D01*
X143384522Y-103368710D01*
X143382601Y-103388219D01*
X143383781Y-104014962D01*
X142999283Y-103344644D01*
X142994320Y-103332662D01*
X142989840Y-103328182D01*
X142986650Y-103322620D01*
X142976135Y-103314477D01*
X142966730Y-103305072D01*
X142960839Y-103302632D01*
X142955801Y-103298730D01*
X142942972Y-103295231D01*
X142930682Y-103290140D01*
X142924307Y-103290140D01*
X142918158Y-103288463D01*
X142904965Y-103290140D01*
X142891664Y-103290140D01*
X142885775Y-103292579D01*
X142879451Y-103293383D01*
X142867901Y-103299983D01*
X142855616Y-103305072D01*
X142851108Y-103309579D01*
X142845574Y-103312742D01*
X142837431Y-103323256D01*
X142828026Y-103332662D01*
X142825586Y-103338552D01*
X142821684Y-103343591D01*
X142818185Y-103356419D01*
X142813094Y-103368710D01*
X142812111Y-103378687D01*
X142811417Y-103381234D01*
X142811667Y-103383201D01*
X142811173Y-103388219D01*
X142522493Y-103388219D01*
X142521858Y-103386315D01*
X142496293Y-103356838D01*
X142479703Y-103346395D01*
X142396685Y-103306456D01*
X142395301Y-103305072D01*
X142384551Y-103300619D01*
X142366157Y-103291770D01*
X142362573Y-103291515D01*
X142359253Y-103290140D01*
X142339744Y-103288219D01*
X142197083Y-103289906D01*
X142184379Y-103289004D01*
X142179493Y-103290114D01*
X142177378Y-103290140D01*
X142174936Y-103291151D01*
X142165264Y-103293351D01*
X142036890Y-103337759D01*
X142034521Y-103337759D01*
X142022524Y-103342728D01*
X142004507Y-103348961D01*
X142001791Y-103351316D01*
X141998473Y-103352691D01*
X141983319Y-103365127D01*
X141889302Y-103461516D01*
X141879792Y-103469765D01*
X141877125Y-103474001D01*
X141875645Y-103475519D01*
X141874634Y-103477958D01*
X141869349Y-103486355D01*
X141825920Y-103576626D01*
X141820754Y-103583600D01*
X141815526Y-103598232D01*
X141814724Y-103599901D01*
X141814672Y-103600623D01*
X141814159Y-103602061D01*
X141769579Y-103787371D01*
X141765475Y-103797281D01*
X141764282Y-103809390D01*
X141763672Y-103811929D01*
X141763889Y-103813387D01*
X141763554Y-103816790D01*
X141652443Y-103816790D01*
X141652443Y-103177108D01*
X144741331Y-103177108D01*
X144741331Y-104599330D01*
G37*
D11*
X136271000Y-90297000D02*
X141605000Y-90297000D01*
X141605000Y-92329000D01*
X136271000Y-92329000D01*
X136271000Y-90297000D01*
G36*
X136271000Y-90297000D02*
G01*
X141605000Y-90297000D01*
X141605000Y-92329000D01*
X136271000Y-92329000D01*
X136271000Y-90297000D01*
G37*
D12*
G36*
X144284051Y-90948198D02*
G01*
X144351192Y-91013685D01*
X144386812Y-91082289D01*
X144430291Y-91249856D01*
X144431697Y-91368664D01*
X144391457Y-91535936D01*
X144355535Y-91610606D01*
X144288226Y-91679614D01*
X144185044Y-91715307D01*
X144058605Y-91716250D01*
X144057094Y-90914485D01*
X144176206Y-90913597D01*
X144284051Y-90948198D01*
G37*
G36*
X144741331Y-92026330D02*
G01*
X141652443Y-92026330D01*
X141652443Y-91243790D01*
X141763554Y-91243790D01*
X141765181Y-91381363D01*
X141763672Y-91391508D01*
X141765443Y-91403486D01*
X141765475Y-91406156D01*
X141766039Y-91407519D01*
X141766540Y-91410901D01*
X141814044Y-91593980D01*
X141814724Y-91603536D01*
X141820315Y-91618148D01*
X141820754Y-91619837D01*
X141821184Y-91620417D01*
X141821730Y-91621844D01*
X141871066Y-91716866D01*
X141875644Y-91727918D01*
X141878802Y-91731766D01*
X141879792Y-91733672D01*
X141881786Y-91735401D01*
X141888081Y-91743071D01*
X141974026Y-91826902D01*
X141975031Y-91828912D01*
X141984555Y-91837172D01*
X141998472Y-91850747D01*
X142001791Y-91852122D01*
X142004507Y-91854477D01*
X142022407Y-91862468D01*
X142165491Y-91908374D01*
X142177378Y-91913298D01*
X142182370Y-91913789D01*
X142184379Y-91914434D01*
X142187013Y-91914246D01*
X142196887Y-91915219D01*
X142293029Y-91913609D01*
X142304632Y-91914434D01*
X142309468Y-91913334D01*
X142311634Y-91913298D01*
X142314076Y-91912286D01*
X142323748Y-91910087D01*
X142452125Y-91865678D01*
X142454492Y-91865678D01*
X142466484Y-91860710D01*
X142484505Y-91854477D01*
X142487220Y-91852122D01*
X142490540Y-91850747D01*
X142505693Y-91838310D01*
X142565749Y-91775537D01*
X142580680Y-91739488D01*
X142582601Y-91719980D01*
X142580680Y-91367138D01*
X142565748Y-91331090D01*
X142538158Y-91303500D01*
X142502110Y-91288568D01*
X142482601Y-91286647D01*
X142272616Y-91288568D01*
X142236568Y-91303500D01*
X142208978Y-91331090D01*
X142194046Y-91367138D01*
X142194046Y-91406156D01*
X142208978Y-91442204D01*
X142236568Y-91469794D01*
X142272616Y-91484726D01*
X142292125Y-91486647D01*
X142383140Y-91485814D01*
X142384188Y-91678224D01*
X142382559Y-91679927D01*
X142279948Y-91715422D01*
X142216461Y-91716485D01*
X142109721Y-91682240D01*
X142042582Y-91616752D01*
X142006961Y-91548145D01*
X141963482Y-91380580D01*
X141962076Y-91261773D01*
X142002316Y-91094500D01*
X142038238Y-91019830D01*
X142105545Y-90950824D01*
X142208884Y-90915077D01*
X142314085Y-90913832D01*
X142408569Y-90959287D01*
X142447489Y-90962053D01*
X142484505Y-90949714D01*
X142513982Y-90924149D01*
X142531431Y-90889251D01*
X142534196Y-90850331D01*
X142522493Y-90815219D01*
X142811173Y-90815219D01*
X142813094Y-91834728D01*
X142828026Y-91870776D01*
X142855616Y-91898366D01*
X142891664Y-91913298D01*
X142930682Y-91913298D01*
X142966730Y-91898366D01*
X142994320Y-91870776D01*
X143009252Y-91834728D01*
X143011173Y-91815219D01*
X143009992Y-91188475D01*
X143394490Y-91858793D01*
X143399454Y-91870776D01*
X143403933Y-91875255D01*
X143407124Y-91880818D01*
X143417640Y-91888962D01*
X143427044Y-91898366D01*
X143432931Y-91900804D01*
X143437973Y-91904709D01*
X143450805Y-91908208D01*
X143463092Y-91913298D01*
X143469468Y-91913298D01*
X143475617Y-91914975D01*
X143488810Y-91913298D01*
X143502110Y-91913298D01*
X143507998Y-91910858D01*
X143514323Y-91910055D01*
X143525872Y-91903454D01*
X143538158Y-91898366D01*
X143542665Y-91893858D01*
X143548200Y-91890696D01*
X143556344Y-91880179D01*
X143565748Y-91870776D01*
X143568186Y-91864888D01*
X143572091Y-91859847D01*
X143575590Y-91847014D01*
X143580680Y-91834728D01*
X143581662Y-91824750D01*
X143582357Y-91822204D01*
X143582106Y-91820236D01*
X143582601Y-91815219D01*
X143580717Y-90815219D01*
X143858792Y-90815219D01*
X143860713Y-91834728D01*
X143875645Y-91870776D01*
X143903235Y-91898366D01*
X143939283Y-91913298D01*
X143958792Y-91915219D01*
X144195592Y-91913453D01*
X144209394Y-91914434D01*
X144214321Y-91913313D01*
X144216396Y-91913298D01*
X144218838Y-91912286D01*
X144228510Y-91910087D01*
X144356887Y-91865678D01*
X144359254Y-91865678D01*
X144371246Y-91860710D01*
X144389267Y-91854477D01*
X144391982Y-91852122D01*
X144395302Y-91850747D01*
X144410455Y-91838310D01*
X144504472Y-91741920D01*
X144513982Y-91733673D01*
X144516648Y-91729437D01*
X144518130Y-91727918D01*
X144519141Y-91725476D01*
X144524425Y-91717082D01*
X144567853Y-91626810D01*
X144573020Y-91619837D01*
X144578248Y-91605202D01*
X144579050Y-91603536D01*
X144579101Y-91602815D01*
X144579615Y-91601377D01*
X144624194Y-91416064D01*
X144628299Y-91406156D01*
X144629491Y-91394046D01*
X144630102Y-91391508D01*
X144629884Y-91390049D01*
X144630220Y-91386647D01*
X144628592Y-91249073D01*
X144630102Y-91238929D01*
X144628330Y-91226950D01*
X144628299Y-91224281D01*
X144627734Y-91222917D01*
X144627234Y-91219536D01*
X144579729Y-91036456D01*
X144579050Y-91026901D01*
X144573457Y-91012285D01*
X144573020Y-91010600D01*
X144572590Y-91010020D01*
X144572044Y-91008592D01*
X144522701Y-90913558D01*
X144518129Y-90902519D01*
X144514973Y-90898674D01*
X144513982Y-90896764D01*
X144511984Y-90895031D01*
X144505693Y-90887365D01*
X144419748Y-90803536D01*
X144418743Y-90801526D01*
X144409213Y-90793260D01*
X144395301Y-90779691D01*
X144391982Y-90778316D01*
X144389267Y-90775961D01*
X144371366Y-90767970D01*
X144228286Y-90722065D01*
X144216396Y-90717140D01*
X144211402Y-90716648D01*
X144209394Y-90716004D01*
X144206760Y-90716191D01*
X144196887Y-90715219D01*
X143939283Y-90717140D01*
X143903235Y-90732072D01*
X143875645Y-90759662D01*
X143860713Y-90795710D01*
X143858792Y-90815219D01*
X143580717Y-90815219D01*
X143580680Y-90795710D01*
X143565748Y-90759662D01*
X143538158Y-90732072D01*
X143502110Y-90717140D01*
X143463092Y-90717140D01*
X143427044Y-90732072D01*
X143399454Y-90759662D01*
X143384522Y-90795710D01*
X143382601Y-90815219D01*
X143383781Y-91441962D01*
X142999283Y-90771644D01*
X142994320Y-90759662D01*
X142989840Y-90755182D01*
X142986650Y-90749620D01*
X142976135Y-90741477D01*
X142966730Y-90732072D01*
X142960839Y-90729632D01*
X142955801Y-90725730D01*
X142942972Y-90722231D01*
X142930682Y-90717140D01*
X142924307Y-90717140D01*
X142918158Y-90715463D01*
X142904965Y-90717140D01*
X142891664Y-90717140D01*
X142885775Y-90719579D01*
X142879451Y-90720383D01*
X142867901Y-90726983D01*
X142855616Y-90732072D01*
X142851108Y-90736579D01*
X142845574Y-90739742D01*
X142837431Y-90750256D01*
X142828026Y-90759662D01*
X142825586Y-90765552D01*
X142821684Y-90770591D01*
X142818185Y-90783419D01*
X142813094Y-90795710D01*
X142812111Y-90805687D01*
X142811417Y-90808234D01*
X142811667Y-90810201D01*
X142811173Y-90815219D01*
X142522493Y-90815219D01*
X142521858Y-90813315D01*
X142496293Y-90783838D01*
X142479703Y-90773395D01*
X142396685Y-90733456D01*
X142395301Y-90732072D01*
X142384551Y-90727619D01*
X142366157Y-90718770D01*
X142362573Y-90718515D01*
X142359253Y-90717140D01*
X142339744Y-90715219D01*
X142197083Y-90716906D01*
X142184379Y-90716004D01*
X142179493Y-90717114D01*
X142177378Y-90717140D01*
X142174936Y-90718151D01*
X142165264Y-90720351D01*
X142036890Y-90764759D01*
X142034521Y-90764759D01*
X142022524Y-90769728D01*
X142004507Y-90775961D01*
X142001791Y-90778316D01*
X141998473Y-90779691D01*
X141983319Y-90792127D01*
X141889302Y-90888516D01*
X141879792Y-90896765D01*
X141877125Y-90901001D01*
X141875645Y-90902519D01*
X141874634Y-90904958D01*
X141869349Y-90913355D01*
X141825920Y-91003626D01*
X141820754Y-91010600D01*
X141815526Y-91025232D01*
X141814724Y-91026901D01*
X141814672Y-91027623D01*
X141814159Y-91029061D01*
X141769579Y-91214371D01*
X141765475Y-91224281D01*
X141764282Y-91236390D01*
X141763672Y-91238929D01*
X141763889Y-91240387D01*
X141763554Y-91243790D01*
X141652443Y-91243790D01*
X141652443Y-90604108D01*
X144741331Y-90604108D01*
X144741331Y-92026330D01*
G37*
D11*
X136271000Y-77470000D02*
X141605000Y-77470000D01*
X141605000Y-79502000D01*
X136271000Y-79502000D01*
X136271000Y-77470000D01*
G36*
X136271000Y-77470000D02*
G01*
X141605000Y-77470000D01*
X141605000Y-79502000D01*
X136271000Y-79502000D01*
X136271000Y-77470000D01*
G37*
D12*
G36*
X144284051Y-78121198D02*
G01*
X144351192Y-78186685D01*
X144386812Y-78255289D01*
X144430291Y-78422856D01*
X144431697Y-78541664D01*
X144391457Y-78708936D01*
X144355535Y-78783606D01*
X144288226Y-78852614D01*
X144185044Y-78888307D01*
X144058605Y-78889250D01*
X144057094Y-78087485D01*
X144176206Y-78086597D01*
X144284051Y-78121198D01*
G37*
G36*
X144741331Y-79199330D02*
G01*
X141652443Y-79199330D01*
X141652443Y-78416790D01*
X141763554Y-78416790D01*
X141765181Y-78554363D01*
X141763672Y-78564508D01*
X141765443Y-78576486D01*
X141765475Y-78579156D01*
X141766039Y-78580519D01*
X141766540Y-78583901D01*
X141814044Y-78766980D01*
X141814724Y-78776536D01*
X141820315Y-78791148D01*
X141820754Y-78792837D01*
X141821184Y-78793417D01*
X141821730Y-78794844D01*
X141871066Y-78889866D01*
X141875644Y-78900918D01*
X141878802Y-78904766D01*
X141879792Y-78906672D01*
X141881786Y-78908401D01*
X141888081Y-78916071D01*
X141974026Y-78999902D01*
X141975031Y-79001912D01*
X141984555Y-79010172D01*
X141998472Y-79023747D01*
X142001791Y-79025122D01*
X142004507Y-79027477D01*
X142022407Y-79035468D01*
X142165491Y-79081374D01*
X142177378Y-79086298D01*
X142182370Y-79086789D01*
X142184379Y-79087434D01*
X142187013Y-79087246D01*
X142196887Y-79088219D01*
X142293029Y-79086609D01*
X142304632Y-79087434D01*
X142309468Y-79086334D01*
X142311634Y-79086298D01*
X142314076Y-79085286D01*
X142323748Y-79083087D01*
X142452125Y-79038678D01*
X142454492Y-79038678D01*
X142466484Y-79033710D01*
X142484505Y-79027477D01*
X142487220Y-79025122D01*
X142490540Y-79023747D01*
X142505693Y-79011310D01*
X142565749Y-78948537D01*
X142580680Y-78912488D01*
X142582601Y-78892980D01*
X142580680Y-78540138D01*
X142565748Y-78504090D01*
X142538158Y-78476500D01*
X142502110Y-78461568D01*
X142482601Y-78459647D01*
X142272616Y-78461568D01*
X142236568Y-78476500D01*
X142208978Y-78504090D01*
X142194046Y-78540138D01*
X142194046Y-78579156D01*
X142208978Y-78615204D01*
X142236568Y-78642794D01*
X142272616Y-78657726D01*
X142292125Y-78659647D01*
X142383140Y-78658814D01*
X142384188Y-78851224D01*
X142382559Y-78852927D01*
X142279948Y-78888422D01*
X142216461Y-78889485D01*
X142109721Y-78855240D01*
X142042582Y-78789752D01*
X142006961Y-78721145D01*
X141963482Y-78553580D01*
X141962076Y-78434773D01*
X142002316Y-78267500D01*
X142038238Y-78192830D01*
X142105545Y-78123824D01*
X142208884Y-78088077D01*
X142314085Y-78086832D01*
X142408569Y-78132287D01*
X142447489Y-78135053D01*
X142484505Y-78122714D01*
X142513982Y-78097149D01*
X142531431Y-78062251D01*
X142534196Y-78023331D01*
X142522493Y-77988219D01*
X142811173Y-77988219D01*
X142813094Y-79007728D01*
X142828026Y-79043776D01*
X142855616Y-79071366D01*
X142891664Y-79086298D01*
X142930682Y-79086298D01*
X142966730Y-79071366D01*
X142994320Y-79043776D01*
X143009252Y-79007728D01*
X143011173Y-78988219D01*
X143009992Y-78361475D01*
X143394490Y-79031793D01*
X143399454Y-79043776D01*
X143403933Y-79048255D01*
X143407124Y-79053818D01*
X143417640Y-79061962D01*
X143427044Y-79071366D01*
X143432931Y-79073804D01*
X143437973Y-79077709D01*
X143450805Y-79081208D01*
X143463092Y-79086298D01*
X143469468Y-79086298D01*
X143475617Y-79087975D01*
X143488810Y-79086298D01*
X143502110Y-79086298D01*
X143507998Y-79083858D01*
X143514323Y-79083055D01*
X143525872Y-79076454D01*
X143538158Y-79071366D01*
X143542665Y-79066858D01*
X143548200Y-79063696D01*
X143556344Y-79053179D01*
X143565748Y-79043776D01*
X143568186Y-79037888D01*
X143572091Y-79032847D01*
X143575590Y-79020014D01*
X143580680Y-79007728D01*
X143581662Y-78997750D01*
X143582357Y-78995204D01*
X143582106Y-78993236D01*
X143582601Y-78988219D01*
X143580717Y-77988219D01*
X143858792Y-77988219D01*
X143860713Y-79007728D01*
X143875645Y-79043776D01*
X143903235Y-79071366D01*
X143939283Y-79086298D01*
X143958792Y-79088219D01*
X144195592Y-79086453D01*
X144209394Y-79087434D01*
X144214321Y-79086313D01*
X144216396Y-79086298D01*
X144218838Y-79085286D01*
X144228510Y-79083087D01*
X144356887Y-79038678D01*
X144359254Y-79038678D01*
X144371246Y-79033710D01*
X144389267Y-79027477D01*
X144391982Y-79025122D01*
X144395302Y-79023747D01*
X144410455Y-79011310D01*
X144504472Y-78914920D01*
X144513982Y-78906673D01*
X144516648Y-78902437D01*
X144518130Y-78900918D01*
X144519141Y-78898476D01*
X144524425Y-78890082D01*
X144567853Y-78799810D01*
X144573020Y-78792837D01*
X144578248Y-78778202D01*
X144579050Y-78776536D01*
X144579101Y-78775815D01*
X144579615Y-78774377D01*
X144624194Y-78589064D01*
X144628299Y-78579156D01*
X144629491Y-78567046D01*
X144630102Y-78564508D01*
X144629884Y-78563049D01*
X144630220Y-78559647D01*
X144628592Y-78422073D01*
X144630102Y-78411929D01*
X144628330Y-78399950D01*
X144628299Y-78397281D01*
X144627734Y-78395917D01*
X144627234Y-78392536D01*
X144579729Y-78209456D01*
X144579050Y-78199901D01*
X144573457Y-78185285D01*
X144573020Y-78183600D01*
X144572590Y-78183020D01*
X144572044Y-78181592D01*
X144522701Y-78086558D01*
X144518129Y-78075519D01*
X144514973Y-78071674D01*
X144513982Y-78069764D01*
X144511984Y-78068031D01*
X144505693Y-78060365D01*
X144419748Y-77976536D01*
X144418743Y-77974526D01*
X144409213Y-77966260D01*
X144395301Y-77952691D01*
X144391982Y-77951316D01*
X144389267Y-77948961D01*
X144371366Y-77940970D01*
X144228286Y-77895065D01*
X144216396Y-77890140D01*
X144211402Y-77889648D01*
X144209394Y-77889004D01*
X144206760Y-77889191D01*
X144196887Y-77888219D01*
X143939283Y-77890140D01*
X143903235Y-77905072D01*
X143875645Y-77932662D01*
X143860713Y-77968710D01*
X143858792Y-77988219D01*
X143580717Y-77988219D01*
X143580680Y-77968710D01*
X143565748Y-77932662D01*
X143538158Y-77905072D01*
X143502110Y-77890140D01*
X143463092Y-77890140D01*
X143427044Y-77905072D01*
X143399454Y-77932662D01*
X143384522Y-77968710D01*
X143382601Y-77988219D01*
X143383781Y-78614962D01*
X142999283Y-77944644D01*
X142994320Y-77932662D01*
X142989840Y-77928182D01*
X142986650Y-77922620D01*
X142976135Y-77914477D01*
X142966730Y-77905072D01*
X142960839Y-77902632D01*
X142955801Y-77898730D01*
X142942972Y-77895231D01*
X142930682Y-77890140D01*
X142924307Y-77890140D01*
X142918158Y-77888463D01*
X142904965Y-77890140D01*
X142891664Y-77890140D01*
X142885775Y-77892579D01*
X142879451Y-77893383D01*
X142867901Y-77899983D01*
X142855616Y-77905072D01*
X142851108Y-77909579D01*
X142845574Y-77912742D01*
X142837431Y-77923256D01*
X142828026Y-77932662D01*
X142825586Y-77938552D01*
X142821684Y-77943591D01*
X142818185Y-77956419D01*
X142813094Y-77968710D01*
X142812111Y-77978687D01*
X142811417Y-77981234D01*
X142811667Y-77983201D01*
X142811173Y-77988219D01*
X142522493Y-77988219D01*
X142521858Y-77986315D01*
X142496293Y-77956838D01*
X142479703Y-77946395D01*
X142396685Y-77906456D01*
X142395301Y-77905072D01*
X142384551Y-77900619D01*
X142366157Y-77891770D01*
X142362573Y-77891515D01*
X142359253Y-77890140D01*
X142339744Y-77888219D01*
X142197083Y-77889906D01*
X142184379Y-77889004D01*
X142179493Y-77890114D01*
X142177378Y-77890140D01*
X142174936Y-77891151D01*
X142165264Y-77893351D01*
X142036890Y-77937759D01*
X142034521Y-77937759D01*
X142022524Y-77942728D01*
X142004507Y-77948961D01*
X142001791Y-77951316D01*
X141998473Y-77952691D01*
X141983319Y-77965127D01*
X141889302Y-78061516D01*
X141879792Y-78069765D01*
X141877125Y-78074001D01*
X141875645Y-78075519D01*
X141874634Y-78077958D01*
X141869349Y-78086355D01*
X141825920Y-78176626D01*
X141820754Y-78183600D01*
X141815526Y-78198232D01*
X141814724Y-78199901D01*
X141814672Y-78200623D01*
X141814159Y-78202061D01*
X141769579Y-78387371D01*
X141765475Y-78397281D01*
X141764282Y-78409390D01*
X141763672Y-78411929D01*
X141763889Y-78413387D01*
X141763554Y-78416790D01*
X141652443Y-78416790D01*
X141652443Y-77777108D01*
X144741331Y-77777108D01*
X144741331Y-79199330D01*
G37*
G36*
X144220551Y-73930198D02*
G01*
X144287692Y-73995685D01*
X144323312Y-74064289D01*
X144366791Y-74231856D01*
X144368197Y-74350664D01*
X144327957Y-74517936D01*
X144292035Y-74592606D01*
X144224726Y-74661614D01*
X144121544Y-74697307D01*
X143995105Y-74698250D01*
X143993594Y-73896485D01*
X144112706Y-73895597D01*
X144220551Y-73930198D01*
G37*
G36*
X144677831Y-75008330D02*
G01*
X141588943Y-75008330D01*
X141588943Y-74225790D01*
X141700054Y-74225790D01*
X141701681Y-74363363D01*
X141700172Y-74373508D01*
X141701943Y-74385486D01*
X141701975Y-74388156D01*
X141702539Y-74389519D01*
X141703040Y-74392901D01*
X141750544Y-74575980D01*
X141751224Y-74585536D01*
X141756815Y-74600148D01*
X141757254Y-74601837D01*
X141757684Y-74602417D01*
X141758230Y-74603844D01*
X141807566Y-74698866D01*
X141812144Y-74709918D01*
X141815302Y-74713766D01*
X141816292Y-74715672D01*
X141818286Y-74717401D01*
X141824581Y-74725071D01*
X141910526Y-74808902D01*
X141911531Y-74810912D01*
X141921055Y-74819172D01*
X141934972Y-74832747D01*
X141938291Y-74834122D01*
X141941007Y-74836477D01*
X141958907Y-74844468D01*
X142101991Y-74890374D01*
X142113878Y-74895298D01*
X142118870Y-74895789D01*
X142120879Y-74896434D01*
X142123513Y-74896246D01*
X142133387Y-74897219D01*
X142229529Y-74895609D01*
X142241132Y-74896434D01*
X142245968Y-74895334D01*
X142248134Y-74895298D01*
X142250576Y-74894286D01*
X142260248Y-74892087D01*
X142388625Y-74847678D01*
X142390992Y-74847678D01*
X142402984Y-74842710D01*
X142421005Y-74836477D01*
X142423720Y-74834122D01*
X142427040Y-74832747D01*
X142442193Y-74820310D01*
X142502249Y-74757537D01*
X142517180Y-74721488D01*
X142519101Y-74701980D01*
X142517180Y-74349138D01*
X142502248Y-74313090D01*
X142474658Y-74285500D01*
X142438610Y-74270568D01*
X142419101Y-74268647D01*
X142209116Y-74270568D01*
X142173068Y-74285500D01*
X142145478Y-74313090D01*
X142130546Y-74349138D01*
X142130546Y-74388156D01*
X142145478Y-74424204D01*
X142173068Y-74451794D01*
X142209116Y-74466726D01*
X142228625Y-74468647D01*
X142319640Y-74467814D01*
X142320688Y-74660224D01*
X142319059Y-74661927D01*
X142216448Y-74697422D01*
X142152961Y-74698485D01*
X142046221Y-74664240D01*
X141979082Y-74598752D01*
X141943461Y-74530145D01*
X141899982Y-74362580D01*
X141898576Y-74243773D01*
X141938816Y-74076500D01*
X141974738Y-74001830D01*
X142042045Y-73932824D01*
X142145384Y-73897077D01*
X142250585Y-73895832D01*
X142345069Y-73941287D01*
X142383989Y-73944053D01*
X142421005Y-73931714D01*
X142450482Y-73906149D01*
X142467931Y-73871251D01*
X142470696Y-73832331D01*
X142458993Y-73797219D01*
X142747673Y-73797219D01*
X142749594Y-74816728D01*
X142764526Y-74852776D01*
X142792116Y-74880366D01*
X142828164Y-74895298D01*
X142867182Y-74895298D01*
X142903230Y-74880366D01*
X142930820Y-74852776D01*
X142945752Y-74816728D01*
X142947673Y-74797219D01*
X142946492Y-74170475D01*
X143330990Y-74840793D01*
X143335954Y-74852776D01*
X143340433Y-74857255D01*
X143343624Y-74862818D01*
X143354140Y-74870962D01*
X143363544Y-74880366D01*
X143369431Y-74882804D01*
X143374473Y-74886709D01*
X143387305Y-74890208D01*
X143399592Y-74895298D01*
X143405968Y-74895298D01*
X143412117Y-74896975D01*
X143425310Y-74895298D01*
X143438610Y-74895298D01*
X143444498Y-74892858D01*
X143450823Y-74892055D01*
X143462372Y-74885454D01*
X143474658Y-74880366D01*
X143479165Y-74875858D01*
X143484700Y-74872696D01*
X143492844Y-74862179D01*
X143502248Y-74852776D01*
X143504686Y-74846888D01*
X143508591Y-74841847D01*
X143512090Y-74829014D01*
X143517180Y-74816728D01*
X143518162Y-74806750D01*
X143518857Y-74804204D01*
X143518606Y-74802236D01*
X143519101Y-74797219D01*
X143517217Y-73797219D01*
X143795292Y-73797219D01*
X143797213Y-74816728D01*
X143812145Y-74852776D01*
X143839735Y-74880366D01*
X143875783Y-74895298D01*
X143895292Y-74897219D01*
X144132092Y-74895453D01*
X144145894Y-74896434D01*
X144150821Y-74895313D01*
X144152896Y-74895298D01*
X144155338Y-74894286D01*
X144165010Y-74892087D01*
X144293387Y-74847678D01*
X144295754Y-74847678D01*
X144307746Y-74842710D01*
X144325767Y-74836477D01*
X144328482Y-74834122D01*
X144331802Y-74832747D01*
X144346955Y-74820310D01*
X144440972Y-74723920D01*
X144450482Y-74715673D01*
X144453148Y-74711437D01*
X144454630Y-74709918D01*
X144455641Y-74707476D01*
X144460925Y-74699082D01*
X144504353Y-74608810D01*
X144509520Y-74601837D01*
X144514748Y-74587202D01*
X144515550Y-74585536D01*
X144515601Y-74584815D01*
X144516115Y-74583377D01*
X144560694Y-74398064D01*
X144564799Y-74388156D01*
X144565991Y-74376046D01*
X144566602Y-74373508D01*
X144566384Y-74372049D01*
X144566720Y-74368647D01*
X144565092Y-74231073D01*
X144566602Y-74220929D01*
X144564830Y-74208950D01*
X144564799Y-74206281D01*
X144564234Y-74204917D01*
X144563734Y-74201536D01*
X144516229Y-74018456D01*
X144515550Y-74008901D01*
X144509957Y-73994285D01*
X144509520Y-73992600D01*
X144509090Y-73992020D01*
X144508544Y-73990592D01*
X144459201Y-73895558D01*
X144454629Y-73884519D01*
X144451473Y-73880674D01*
X144450482Y-73878764D01*
X144448484Y-73877031D01*
X144442193Y-73869365D01*
X144356248Y-73785536D01*
X144355243Y-73783526D01*
X144345713Y-73775260D01*
X144331801Y-73761691D01*
X144328482Y-73760316D01*
X144325767Y-73757961D01*
X144307866Y-73749970D01*
X144164786Y-73704065D01*
X144152896Y-73699140D01*
X144147902Y-73698648D01*
X144145894Y-73698004D01*
X144143260Y-73698191D01*
X144133387Y-73697219D01*
X143875783Y-73699140D01*
X143839735Y-73714072D01*
X143812145Y-73741662D01*
X143797213Y-73777710D01*
X143795292Y-73797219D01*
X143517217Y-73797219D01*
X143517180Y-73777710D01*
X143502248Y-73741662D01*
X143474658Y-73714072D01*
X143438610Y-73699140D01*
X143399592Y-73699140D01*
X143363544Y-73714072D01*
X143335954Y-73741662D01*
X143321022Y-73777710D01*
X143319101Y-73797219D01*
X143320281Y-74423962D01*
X142935783Y-73753644D01*
X142930820Y-73741662D01*
X142926340Y-73737182D01*
X142923150Y-73731620D01*
X142912635Y-73723477D01*
X142903230Y-73714072D01*
X142897339Y-73711632D01*
X142892301Y-73707730D01*
X142879472Y-73704231D01*
X142867182Y-73699140D01*
X142860807Y-73699140D01*
X142854658Y-73697463D01*
X142841465Y-73699140D01*
X142828164Y-73699140D01*
X142822275Y-73701579D01*
X142815951Y-73702383D01*
X142804401Y-73708983D01*
X142792116Y-73714072D01*
X142787608Y-73718579D01*
X142782074Y-73721742D01*
X142773931Y-73732256D01*
X142764526Y-73741662D01*
X142762086Y-73747552D01*
X142758184Y-73752591D01*
X142754685Y-73765419D01*
X142749594Y-73777710D01*
X142748611Y-73787687D01*
X142747917Y-73790234D01*
X142748167Y-73792201D01*
X142747673Y-73797219D01*
X142458993Y-73797219D01*
X142458358Y-73795315D01*
X142432793Y-73765838D01*
X142416203Y-73755395D01*
X142333185Y-73715456D01*
X142331801Y-73714072D01*
X142321051Y-73709619D01*
X142302657Y-73700770D01*
X142299073Y-73700515D01*
X142295753Y-73699140D01*
X142276244Y-73697219D01*
X142133583Y-73698906D01*
X142120879Y-73698004D01*
X142115993Y-73699114D01*
X142113878Y-73699140D01*
X142111436Y-73700151D01*
X142101764Y-73702351D01*
X141973390Y-73746759D01*
X141971021Y-73746759D01*
X141959024Y-73751728D01*
X141941007Y-73757961D01*
X141938291Y-73760316D01*
X141934973Y-73761691D01*
X141919819Y-73774127D01*
X141825802Y-73870516D01*
X141816292Y-73878765D01*
X141813625Y-73883001D01*
X141812145Y-73884519D01*
X141811134Y-73886958D01*
X141805849Y-73895355D01*
X141762420Y-73985626D01*
X141757254Y-73992600D01*
X141752026Y-74007232D01*
X141751224Y-74008901D01*
X141751172Y-74009623D01*
X141750659Y-74011061D01*
X141706079Y-74196371D01*
X141701975Y-74206281D01*
X141700782Y-74218390D01*
X141700172Y-74220929D01*
X141700389Y-74222387D01*
X141700054Y-74225790D01*
X141588943Y-74225790D01*
X141588943Y-73586108D01*
X144677831Y-73586108D01*
X144677831Y-75008330D01*
G37*
D11*
X136207500Y-73279000D02*
X141541500Y-73279000D01*
X141541500Y-75311000D01*
X136207500Y-75311000D01*
X136207500Y-73279000D01*
G36*
X136207500Y-73279000D02*
G01*
X141541500Y-73279000D01*
X141541500Y-75311000D01*
X136207500Y-75311000D01*
X136207500Y-73279000D01*
G37*
D12*
X141625435Y-71130219D02*
X142292101Y-72130219D01*
X142292101Y-71130219D02*
X141625435Y-72130219D01*
X142577816Y-71130219D02*
X142815911Y-72130219D01*
X142815911Y-72130219D02*
X143006387Y-71415933D01*
X143006387Y-71415933D02*
X143196863Y-72130219D01*
X143196863Y-72130219D02*
X143434959Y-71130219D01*
X144387339Y-72130219D02*
X144054006Y-71654028D01*
X143815911Y-72130219D02*
X143815911Y-71130219D01*
X143815911Y-71130219D02*
X144196863Y-71130219D01*
X144196863Y-71130219D02*
X144292101Y-71177838D01*
X144292101Y-71177838D02*
X144339720Y-71225457D01*
X144339720Y-71225457D02*
X144387339Y-71320695D01*
X144387339Y-71320695D02*
X144387339Y-71463552D01*
X144387339Y-71463552D02*
X144339720Y-71558790D01*
X144339720Y-71558790D02*
X144292101Y-71606409D01*
X144292101Y-71606409D02*
X144196863Y-71654028D01*
X144196863Y-71654028D02*
X143815911Y-71654028D01*
X145054006Y-72463552D02*
X145054006Y-71034980D01*
X145673054Y-71130219D02*
X146339720Y-72130219D01*
X146339720Y-71130219D02*
X145673054Y-72130219D01*
X147292101Y-72130219D02*
X146958768Y-71654028D01*
X146720673Y-72130219D02*
X146720673Y-71130219D01*
X146720673Y-71130219D02*
X147101625Y-71130219D01*
X147101625Y-71130219D02*
X147196863Y-71177838D01*
X147196863Y-71177838D02*
X147244482Y-71225457D01*
X147244482Y-71225457D02*
X147292101Y-71320695D01*
X147292101Y-71320695D02*
X147292101Y-71463552D01*
X147292101Y-71463552D02*
X147244482Y-71558790D01*
X147244482Y-71558790D02*
X147196863Y-71606409D01*
X147196863Y-71606409D02*
X147101625Y-71654028D01*
X147101625Y-71654028D02*
X146720673Y-71654028D01*
X147720673Y-72130219D02*
X147720673Y-71130219D01*
X147720673Y-71130219D02*
X147958768Y-71130219D01*
X147958768Y-71130219D02*
X148101625Y-71177838D01*
X148101625Y-71177838D02*
X148196863Y-71273076D01*
X148196863Y-71273076D02*
X148244482Y-71368314D01*
X148244482Y-71368314D02*
X148292101Y-71558790D01*
X148292101Y-71558790D02*
X148292101Y-71701647D01*
X148292101Y-71701647D02*
X148244482Y-71892123D01*
X148244482Y-71892123D02*
X148196863Y-71987361D01*
X148196863Y-71987361D02*
X148101625Y-72082600D01*
X148101625Y-72082600D02*
X147958768Y-72130219D01*
X147958768Y-72130219D02*
X147720673Y-72130219D01*
X142228673Y-69463219D02*
X142228673Y-68463219D01*
X143276291Y-69463219D02*
X142942958Y-68987028D01*
X142704863Y-69463219D02*
X142704863Y-68463219D01*
X142704863Y-68463219D02*
X143085815Y-68463219D01*
X143085815Y-68463219D02*
X143181053Y-68510838D01*
X143181053Y-68510838D02*
X143228672Y-68558457D01*
X143228672Y-68558457D02*
X143276291Y-68653695D01*
X143276291Y-68653695D02*
X143276291Y-68796552D01*
X143276291Y-68796552D02*
X143228672Y-68891790D01*
X143228672Y-68891790D02*
X143181053Y-68939409D01*
X143181053Y-68939409D02*
X143085815Y-68987028D01*
X143085815Y-68987028D02*
X142704863Y-68987028D01*
X144371529Y-69558457D02*
X144276291Y-69510838D01*
X144276291Y-69510838D02*
X144181053Y-69415600D01*
X144181053Y-69415600D02*
X144038196Y-69272742D01*
X144038196Y-69272742D02*
X143942958Y-69225123D01*
X143942958Y-69225123D02*
X143847720Y-69225123D01*
X143895339Y-69463219D02*
X143800101Y-69415600D01*
X143800101Y-69415600D02*
X143704863Y-69320361D01*
X143704863Y-69320361D02*
X143657244Y-69129885D01*
X143657244Y-69129885D02*
X143657244Y-68796552D01*
X143657244Y-68796552D02*
X143704863Y-68606076D01*
X143704863Y-68606076D02*
X143800101Y-68510838D01*
X143800101Y-68510838D02*
X143895339Y-68463219D01*
X143895339Y-68463219D02*
X144085815Y-68463219D01*
X144085815Y-68463219D02*
X144181053Y-68510838D01*
X144181053Y-68510838D02*
X144276291Y-68606076D01*
X144276291Y-68606076D02*
X144323910Y-68796552D01*
X144323910Y-68796552D02*
X144323910Y-69129885D01*
X144323910Y-69129885D02*
X144276291Y-69320361D01*
X144276291Y-69320361D02*
X144181053Y-69415600D01*
X144181053Y-69415600D02*
X144085815Y-69463219D01*
X144085815Y-69463219D02*
X143895339Y-69463219D01*
X144990577Y-69796552D02*
X144990577Y-68367980D01*
X145657244Y-69177504D02*
X146133434Y-69177504D01*
X145562006Y-69463219D02*
X145895339Y-68463219D01*
X145895339Y-68463219D02*
X146228672Y-69463219D01*
X147133434Y-69367980D02*
X147085815Y-69415600D01*
X147085815Y-69415600D02*
X146942958Y-69463219D01*
X146942958Y-69463219D02*
X146847720Y-69463219D01*
X146847720Y-69463219D02*
X146704863Y-69415600D01*
X146704863Y-69415600D02*
X146609625Y-69320361D01*
X146609625Y-69320361D02*
X146562006Y-69225123D01*
X146562006Y-69225123D02*
X146514387Y-69034647D01*
X146514387Y-69034647D02*
X146514387Y-68891790D01*
X146514387Y-68891790D02*
X146562006Y-68701314D01*
X146562006Y-68701314D02*
X146609625Y-68606076D01*
X146609625Y-68606076D02*
X146704863Y-68510838D01*
X146704863Y-68510838D02*
X146847720Y-68463219D01*
X146847720Y-68463219D02*
X146942958Y-68463219D01*
X146942958Y-68463219D02*
X147085815Y-68510838D01*
X147085815Y-68510838D02*
X147133434Y-68558457D01*
X147562006Y-69463219D02*
X147562006Y-68463219D01*
X148133434Y-69463219D02*
X147704863Y-68891790D01*
X148133434Y-68463219D02*
X147562006Y-69034647D01*
X141927054Y-66875600D02*
X142069911Y-66923219D01*
X142069911Y-66923219D02*
X142308006Y-66923219D01*
X142308006Y-66923219D02*
X142403244Y-66875600D01*
X142403244Y-66875600D02*
X142450863Y-66827980D01*
X142450863Y-66827980D02*
X142498482Y-66732742D01*
X142498482Y-66732742D02*
X142498482Y-66637504D01*
X142498482Y-66637504D02*
X142450863Y-66542266D01*
X142450863Y-66542266D02*
X142403244Y-66494647D01*
X142403244Y-66494647D02*
X142308006Y-66447028D01*
X142308006Y-66447028D02*
X142117530Y-66399409D01*
X142117530Y-66399409D02*
X142022292Y-66351790D01*
X142022292Y-66351790D02*
X141974673Y-66304171D01*
X141974673Y-66304171D02*
X141927054Y-66208933D01*
X141927054Y-66208933D02*
X141927054Y-66113695D01*
X141927054Y-66113695D02*
X141974673Y-66018457D01*
X141974673Y-66018457D02*
X142022292Y-65970838D01*
X142022292Y-65970838D02*
X142117530Y-65923219D01*
X142117530Y-65923219D02*
X142355625Y-65923219D01*
X142355625Y-65923219D02*
X142498482Y-65970838D01*
X143403244Y-66923219D02*
X142927054Y-66923219D01*
X142927054Y-66923219D02*
X142927054Y-65923219D01*
X144308006Y-66827980D02*
X144260387Y-66875600D01*
X144260387Y-66875600D02*
X144117530Y-66923219D01*
X144117530Y-66923219D02*
X144022292Y-66923219D01*
X144022292Y-66923219D02*
X143879435Y-66875600D01*
X143879435Y-66875600D02*
X143784197Y-66780361D01*
X143784197Y-66780361D02*
X143736578Y-66685123D01*
X143736578Y-66685123D02*
X143688959Y-66494647D01*
X143688959Y-66494647D02*
X143688959Y-66351790D01*
X143688959Y-66351790D02*
X143736578Y-66161314D01*
X143736578Y-66161314D02*
X143784197Y-66066076D01*
X143784197Y-66066076D02*
X143879435Y-65970838D01*
X143879435Y-65970838D02*
X144022292Y-65923219D01*
X144022292Y-65923219D02*
X144117530Y-65923219D01*
X144117530Y-65923219D02*
X144260387Y-65970838D01*
X144260387Y-65970838D02*
X144308006Y-66018457D01*
X144974673Y-67256552D02*
X144974673Y-65827980D01*
X146260387Y-66923219D02*
X145927054Y-66447028D01*
X145688959Y-66923219D02*
X145688959Y-65923219D01*
X145688959Y-65923219D02*
X146069911Y-65923219D01*
X146069911Y-65923219D02*
X146165149Y-65970838D01*
X146165149Y-65970838D02*
X146212768Y-66018457D01*
X146212768Y-66018457D02*
X146260387Y-66113695D01*
X146260387Y-66113695D02*
X146260387Y-66256552D01*
X146260387Y-66256552D02*
X146212768Y-66351790D01*
X146212768Y-66351790D02*
X146165149Y-66399409D01*
X146165149Y-66399409D02*
X146069911Y-66447028D01*
X146069911Y-66447028D02*
X145688959Y-66447028D01*
X146688959Y-66399409D02*
X147022292Y-66399409D01*
X147165149Y-66923219D02*
X146688959Y-66923219D01*
X146688959Y-66923219D02*
X146688959Y-65923219D01*
X146688959Y-65923219D02*
X147165149Y-65923219D01*
X148260387Y-67018457D02*
X148165149Y-66970838D01*
X148165149Y-66970838D02*
X148069911Y-66875600D01*
X148069911Y-66875600D02*
X147927054Y-66732742D01*
X147927054Y-66732742D02*
X147831816Y-66685123D01*
X147831816Y-66685123D02*
X147736578Y-66685123D01*
X147784197Y-66923219D02*
X147688959Y-66875600D01*
X147688959Y-66875600D02*
X147593721Y-66780361D01*
X147593721Y-66780361D02*
X147546102Y-66589885D01*
X147546102Y-66589885D02*
X147546102Y-66256552D01*
X147546102Y-66256552D02*
X147593721Y-66066076D01*
X147593721Y-66066076D02*
X147688959Y-65970838D01*
X147688959Y-65970838D02*
X147784197Y-65923219D01*
X147784197Y-65923219D02*
X147974673Y-65923219D01*
X147974673Y-65923219D02*
X148069911Y-65970838D01*
X148069911Y-65970838D02*
X148165149Y-66066076D01*
X148165149Y-66066076D02*
X148212768Y-66256552D01*
X148212768Y-66256552D02*
X148212768Y-66589885D01*
X148212768Y-66589885D02*
X148165149Y-66780361D01*
X148165149Y-66780361D02*
X148069911Y-66875600D01*
X148069911Y-66875600D02*
X147974673Y-66923219D01*
X147974673Y-66923219D02*
X147784197Y-66923219D01*
X141879435Y-63510219D02*
X142546101Y-64510219D01*
X142546101Y-63510219D02*
X141879435Y-64510219D01*
X142927054Y-63986409D02*
X143260387Y-63986409D01*
X143403244Y-64510219D02*
X142927054Y-64510219D01*
X142927054Y-64510219D02*
X142927054Y-63510219D01*
X142927054Y-63510219D02*
X143403244Y-63510219D01*
X144831816Y-64843552D02*
X144831816Y-63414980D01*
X146117530Y-64414980D02*
X146069911Y-64462600D01*
X146069911Y-64462600D02*
X145927054Y-64510219D01*
X145927054Y-64510219D02*
X145831816Y-64510219D01*
X145831816Y-64510219D02*
X145688959Y-64462600D01*
X145688959Y-64462600D02*
X145593721Y-64367361D01*
X145593721Y-64367361D02*
X145546102Y-64272123D01*
X145546102Y-64272123D02*
X145498483Y-64081647D01*
X145498483Y-64081647D02*
X145498483Y-63938790D01*
X145498483Y-63938790D02*
X145546102Y-63748314D01*
X145546102Y-63748314D02*
X145593721Y-63653076D01*
X145593721Y-63653076D02*
X145688959Y-63557838D01*
X145688959Y-63557838D02*
X145831816Y-63510219D01*
X145831816Y-63510219D02*
X145927054Y-63510219D01*
X145927054Y-63510219D02*
X146069911Y-63557838D01*
X146069911Y-63557838D02*
X146117530Y-63605457D01*
X147022292Y-64510219D02*
X146546102Y-64510219D01*
X146546102Y-64510219D02*
X146546102Y-63510219D01*
X147355626Y-64510219D02*
X147355626Y-63510219D01*
X147927054Y-64510219D02*
X147498483Y-63938790D01*
X147927054Y-63510219D02*
X147355626Y-64081647D01*
X141752435Y-113675219D02*
X142419101Y-114675219D01*
X142419101Y-113675219D02*
X141752435Y-114675219D01*
X142800054Y-114675219D02*
X142800054Y-113675219D01*
X142800054Y-113675219D02*
X143038149Y-113675219D01*
X143038149Y-113675219D02*
X143181006Y-113722838D01*
X143181006Y-113722838D02*
X143276244Y-113818076D01*
X143276244Y-113818076D02*
X143323863Y-113913314D01*
X143323863Y-113913314D02*
X143371482Y-114103790D01*
X143371482Y-114103790D02*
X143371482Y-114246647D01*
X143371482Y-114246647D02*
X143323863Y-114437123D01*
X143323863Y-114437123D02*
X143276244Y-114532361D01*
X143276244Y-114532361D02*
X143181006Y-114627600D01*
X143181006Y-114627600D02*
X143038149Y-114675219D01*
X143038149Y-114675219D02*
X142800054Y-114675219D01*
X143704816Y-113675219D02*
X144371482Y-113675219D01*
X144371482Y-113675219D02*
X143942911Y-114675219D01*
X144990530Y-115008552D02*
X144990530Y-113579980D01*
X145609578Y-113675219D02*
X146276244Y-114675219D01*
X146276244Y-113675219D02*
X145609578Y-114675219D01*
X146657197Y-114675219D02*
X146657197Y-113675219D01*
X146657197Y-113675219D02*
X146895292Y-113675219D01*
X146895292Y-113675219D02*
X147038149Y-113722838D01*
X147038149Y-113722838D02*
X147133387Y-113818076D01*
X147133387Y-113818076D02*
X147181006Y-113913314D01*
X147181006Y-113913314D02*
X147228625Y-114103790D01*
X147228625Y-114103790D02*
X147228625Y-114246647D01*
X147228625Y-114246647D02*
X147181006Y-114437123D01*
X147181006Y-114437123D02*
X147133387Y-114532361D01*
X147133387Y-114532361D02*
X147038149Y-114627600D01*
X147038149Y-114627600D02*
X146895292Y-114675219D01*
X146895292Y-114675219D02*
X146657197Y-114675219D01*
X148085768Y-113675219D02*
X147895292Y-113675219D01*
X147895292Y-113675219D02*
X147800054Y-113722838D01*
X147800054Y-113722838D02*
X147752435Y-113770457D01*
X147752435Y-113770457D02*
X147657197Y-113913314D01*
X147657197Y-113913314D02*
X147609578Y-114103790D01*
X147609578Y-114103790D02*
X147609578Y-114484742D01*
X147609578Y-114484742D02*
X147657197Y-114579980D01*
X147657197Y-114579980D02*
X147704816Y-114627600D01*
X147704816Y-114627600D02*
X147800054Y-114675219D01*
X147800054Y-114675219D02*
X147990530Y-114675219D01*
X147990530Y-114675219D02*
X148085768Y-114627600D01*
X148085768Y-114627600D02*
X148133387Y-114579980D01*
X148133387Y-114579980D02*
X148181006Y-114484742D01*
X148181006Y-114484742D02*
X148181006Y-114246647D01*
X148181006Y-114246647D02*
X148133387Y-114151409D01*
X148133387Y-114151409D02*
X148085768Y-114103790D01*
X148085768Y-114103790D02*
X147990530Y-114056171D01*
X147990530Y-114056171D02*
X147800054Y-114056171D01*
X147800054Y-114056171D02*
X147704816Y-114103790D01*
X147704816Y-114103790D02*
X147657197Y-114151409D01*
X147657197Y-114151409D02*
X147609578Y-114246647D01*
X141752435Y-111135219D02*
X142419101Y-112135219D01*
X142419101Y-111135219D02*
X141752435Y-112135219D01*
X142800054Y-112135219D02*
X142800054Y-111135219D01*
X142800054Y-111135219D02*
X143038149Y-111135219D01*
X143038149Y-111135219D02*
X143181006Y-111182838D01*
X143181006Y-111182838D02*
X143276244Y-111278076D01*
X143276244Y-111278076D02*
X143323863Y-111373314D01*
X143323863Y-111373314D02*
X143371482Y-111563790D01*
X143371482Y-111563790D02*
X143371482Y-111706647D01*
X143371482Y-111706647D02*
X143323863Y-111897123D01*
X143323863Y-111897123D02*
X143276244Y-111992361D01*
X143276244Y-111992361D02*
X143181006Y-112087600D01*
X143181006Y-112087600D02*
X143038149Y-112135219D01*
X143038149Y-112135219D02*
X142800054Y-112135219D01*
X144276244Y-111135219D02*
X143800054Y-111135219D01*
X143800054Y-111135219D02*
X143752435Y-111611409D01*
X143752435Y-111611409D02*
X143800054Y-111563790D01*
X143800054Y-111563790D02*
X143895292Y-111516171D01*
X143895292Y-111516171D02*
X144133387Y-111516171D01*
X144133387Y-111516171D02*
X144228625Y-111563790D01*
X144228625Y-111563790D02*
X144276244Y-111611409D01*
X144276244Y-111611409D02*
X144323863Y-111706647D01*
X144323863Y-111706647D02*
X144323863Y-111944742D01*
X144323863Y-111944742D02*
X144276244Y-112039980D01*
X144276244Y-112039980D02*
X144228625Y-112087600D01*
X144228625Y-112087600D02*
X144133387Y-112135219D01*
X144133387Y-112135219D02*
X143895292Y-112135219D01*
X143895292Y-112135219D02*
X143800054Y-112087600D01*
X143800054Y-112087600D02*
X143752435Y-112039980D01*
X144990530Y-112468552D02*
X144990530Y-111039980D01*
X145609578Y-111135219D02*
X146276244Y-112135219D01*
X146276244Y-111135219D02*
X145609578Y-112135219D01*
X146657197Y-112135219D02*
X146657197Y-111135219D01*
X146657197Y-111135219D02*
X146895292Y-111135219D01*
X146895292Y-111135219D02*
X147038149Y-111182838D01*
X147038149Y-111182838D02*
X147133387Y-111278076D01*
X147133387Y-111278076D02*
X147181006Y-111373314D01*
X147181006Y-111373314D02*
X147228625Y-111563790D01*
X147228625Y-111563790D02*
X147228625Y-111706647D01*
X147228625Y-111706647D02*
X147181006Y-111897123D01*
X147181006Y-111897123D02*
X147133387Y-111992361D01*
X147133387Y-111992361D02*
X147038149Y-112087600D01*
X147038149Y-112087600D02*
X146895292Y-112135219D01*
X146895292Y-112135219D02*
X146657197Y-112135219D01*
X148085768Y-111468552D02*
X148085768Y-112135219D01*
X147847673Y-111087600D02*
X147609578Y-111801885D01*
X147609578Y-111801885D02*
X148228625Y-111801885D01*
X141752435Y-108595219D02*
X142419101Y-109595219D01*
X142419101Y-108595219D02*
X141752435Y-109595219D01*
X142800054Y-109595219D02*
X142800054Y-108595219D01*
X142800054Y-108595219D02*
X143038149Y-108595219D01*
X143038149Y-108595219D02*
X143181006Y-108642838D01*
X143181006Y-108642838D02*
X143276244Y-108738076D01*
X143276244Y-108738076D02*
X143323863Y-108833314D01*
X143323863Y-108833314D02*
X143371482Y-109023790D01*
X143371482Y-109023790D02*
X143371482Y-109166647D01*
X143371482Y-109166647D02*
X143323863Y-109357123D01*
X143323863Y-109357123D02*
X143276244Y-109452361D01*
X143276244Y-109452361D02*
X143181006Y-109547600D01*
X143181006Y-109547600D02*
X143038149Y-109595219D01*
X143038149Y-109595219D02*
X142800054Y-109595219D01*
X143704816Y-108595219D02*
X144323863Y-108595219D01*
X144323863Y-108595219D02*
X143990530Y-108976171D01*
X143990530Y-108976171D02*
X144133387Y-108976171D01*
X144133387Y-108976171D02*
X144228625Y-109023790D01*
X144228625Y-109023790D02*
X144276244Y-109071409D01*
X144276244Y-109071409D02*
X144323863Y-109166647D01*
X144323863Y-109166647D02*
X144323863Y-109404742D01*
X144323863Y-109404742D02*
X144276244Y-109499980D01*
X144276244Y-109499980D02*
X144228625Y-109547600D01*
X144228625Y-109547600D02*
X144133387Y-109595219D01*
X144133387Y-109595219D02*
X143847673Y-109595219D01*
X143847673Y-109595219D02*
X143752435Y-109547600D01*
X143752435Y-109547600D02*
X143704816Y-109499980D01*
X144990530Y-109928552D02*
X144990530Y-108499980D01*
X145609578Y-108595219D02*
X146276244Y-109595219D01*
X146276244Y-108595219D02*
X145609578Y-109595219D01*
X146657197Y-109595219D02*
X146657197Y-108595219D01*
X146657197Y-108595219D02*
X146895292Y-108595219D01*
X146895292Y-108595219D02*
X147038149Y-108642838D01*
X147038149Y-108642838D02*
X147133387Y-108738076D01*
X147133387Y-108738076D02*
X147181006Y-108833314D01*
X147181006Y-108833314D02*
X147228625Y-109023790D01*
X147228625Y-109023790D02*
X147228625Y-109166647D01*
X147228625Y-109166647D02*
X147181006Y-109357123D01*
X147181006Y-109357123D02*
X147133387Y-109452361D01*
X147133387Y-109452361D02*
X147038149Y-109547600D01*
X147038149Y-109547600D02*
X146895292Y-109595219D01*
X146895292Y-109595219D02*
X146657197Y-109595219D01*
X147609578Y-108690457D02*
X147657197Y-108642838D01*
X147657197Y-108642838D02*
X147752435Y-108595219D01*
X147752435Y-108595219D02*
X147990530Y-108595219D01*
X147990530Y-108595219D02*
X148085768Y-108642838D01*
X148085768Y-108642838D02*
X148133387Y-108690457D01*
X148133387Y-108690457D02*
X148181006Y-108785695D01*
X148181006Y-108785695D02*
X148181006Y-108880933D01*
X148181006Y-108880933D02*
X148133387Y-109023790D01*
X148133387Y-109023790D02*
X147561959Y-109595219D01*
X147561959Y-109595219D02*
X148181006Y-109595219D01*
X141752435Y-105801219D02*
X142419101Y-106801219D01*
X142419101Y-105801219D02*
X141752435Y-106801219D01*
X142800054Y-106801219D02*
X142800054Y-105801219D01*
X142800054Y-105801219D02*
X143038149Y-105801219D01*
X143038149Y-105801219D02*
X143181006Y-105848838D01*
X143181006Y-105848838D02*
X143276244Y-105944076D01*
X143276244Y-105944076D02*
X143323863Y-106039314D01*
X143323863Y-106039314D02*
X143371482Y-106229790D01*
X143371482Y-106229790D02*
X143371482Y-106372647D01*
X143371482Y-106372647D02*
X143323863Y-106563123D01*
X143323863Y-106563123D02*
X143276244Y-106658361D01*
X143276244Y-106658361D02*
X143181006Y-106753600D01*
X143181006Y-106753600D02*
X143038149Y-106801219D01*
X143038149Y-106801219D02*
X142800054Y-106801219D01*
X144323863Y-106801219D02*
X143752435Y-106801219D01*
X144038149Y-106801219D02*
X144038149Y-105801219D01*
X144038149Y-105801219D02*
X143942911Y-105944076D01*
X143942911Y-105944076D02*
X143847673Y-106039314D01*
X143847673Y-106039314D02*
X143752435Y-106086933D01*
X144990530Y-107134552D02*
X144990530Y-105705980D01*
X145609578Y-105801219D02*
X146276244Y-106801219D01*
X146276244Y-105801219D02*
X145609578Y-106801219D01*
X146657197Y-106801219D02*
X146657197Y-105801219D01*
X146657197Y-105801219D02*
X146895292Y-105801219D01*
X146895292Y-105801219D02*
X147038149Y-105848838D01*
X147038149Y-105848838D02*
X147133387Y-105944076D01*
X147133387Y-105944076D02*
X147181006Y-106039314D01*
X147181006Y-106039314D02*
X147228625Y-106229790D01*
X147228625Y-106229790D02*
X147228625Y-106372647D01*
X147228625Y-106372647D02*
X147181006Y-106563123D01*
X147181006Y-106563123D02*
X147133387Y-106658361D01*
X147133387Y-106658361D02*
X147038149Y-106753600D01*
X147038149Y-106753600D02*
X146895292Y-106801219D01*
X146895292Y-106801219D02*
X146657197Y-106801219D01*
X147847673Y-105801219D02*
X147942911Y-105801219D01*
X147942911Y-105801219D02*
X148038149Y-105848838D01*
X148038149Y-105848838D02*
X148085768Y-105896457D01*
X148085768Y-105896457D02*
X148133387Y-105991695D01*
X148133387Y-105991695D02*
X148181006Y-106182171D01*
X148181006Y-106182171D02*
X148181006Y-106420266D01*
X148181006Y-106420266D02*
X148133387Y-106610742D01*
X148133387Y-106610742D02*
X148085768Y-106705980D01*
X148085768Y-106705980D02*
X148038149Y-106753600D01*
X148038149Y-106753600D02*
X147942911Y-106801219D01*
X147942911Y-106801219D02*
X147847673Y-106801219D01*
X147847673Y-106801219D02*
X147752435Y-106753600D01*
X147752435Y-106753600D02*
X147704816Y-106705980D01*
X147704816Y-106705980D02*
X147657197Y-106610742D01*
X147657197Y-106610742D02*
X147609578Y-106420266D01*
X147609578Y-106420266D02*
X147609578Y-106182171D01*
X147609578Y-106182171D02*
X147657197Y-105991695D01*
X147657197Y-105991695D02*
X147704816Y-105896457D01*
X147704816Y-105896457D02*
X147752435Y-105848838D01*
X147752435Y-105848838D02*
X147847673Y-105801219D01*
X141800054Y-101435504D02*
X142276244Y-101435504D01*
X141704816Y-101721219D02*
X142038149Y-100721219D01*
X142038149Y-100721219D02*
X142371482Y-101721219D01*
X143228625Y-101721219D02*
X142657197Y-101721219D01*
X142942911Y-101721219D02*
X142942911Y-100721219D01*
X142942911Y-100721219D02*
X142847673Y-100864076D01*
X142847673Y-100864076D02*
X142752435Y-100959314D01*
X142752435Y-100959314D02*
X142657197Y-101006933D01*
X144133387Y-100721219D02*
X143657197Y-100721219D01*
X143657197Y-100721219D02*
X143609578Y-101197409D01*
X143609578Y-101197409D02*
X143657197Y-101149790D01*
X143657197Y-101149790D02*
X143752435Y-101102171D01*
X143752435Y-101102171D02*
X143990530Y-101102171D01*
X143990530Y-101102171D02*
X144085768Y-101149790D01*
X144085768Y-101149790D02*
X144133387Y-101197409D01*
X144133387Y-101197409D02*
X144181006Y-101292647D01*
X144181006Y-101292647D02*
X144181006Y-101530742D01*
X144181006Y-101530742D02*
X144133387Y-101625980D01*
X144133387Y-101625980D02*
X144085768Y-101673600D01*
X144085768Y-101673600D02*
X143990530Y-101721219D01*
X143990530Y-101721219D02*
X143752435Y-101721219D01*
X143752435Y-101721219D02*
X143657197Y-101673600D01*
X143657197Y-101673600D02*
X143609578Y-101625980D01*
X144847673Y-102054552D02*
X144847673Y-100625980D01*
X145514340Y-101435504D02*
X145990530Y-101435504D01*
X145419102Y-101721219D02*
X145752435Y-100721219D01*
X145752435Y-100721219D02*
X146085768Y-101721219D01*
X146942911Y-101721219D02*
X146371483Y-101721219D01*
X146657197Y-101721219D02*
X146657197Y-100721219D01*
X146657197Y-100721219D02*
X146561959Y-100864076D01*
X146561959Y-100864076D02*
X146466721Y-100959314D01*
X146466721Y-100959314D02*
X146371483Y-101006933D01*
X147800054Y-101054552D02*
X147800054Y-101721219D01*
X147561959Y-100673600D02*
X147323864Y-101387885D01*
X147323864Y-101387885D02*
X147942911Y-101387885D01*
X141800054Y-98895504D02*
X142276244Y-98895504D01*
X141704816Y-99181219D02*
X142038149Y-98181219D01*
X142038149Y-98181219D02*
X142371482Y-99181219D01*
X143228625Y-99181219D02*
X142657197Y-99181219D01*
X142942911Y-99181219D02*
X142942911Y-98181219D01*
X142942911Y-98181219D02*
X142847673Y-98324076D01*
X142847673Y-98324076D02*
X142752435Y-98419314D01*
X142752435Y-98419314D02*
X142657197Y-98466933D01*
X143561959Y-98181219D02*
X144181006Y-98181219D01*
X144181006Y-98181219D02*
X143847673Y-98562171D01*
X143847673Y-98562171D02*
X143990530Y-98562171D01*
X143990530Y-98562171D02*
X144085768Y-98609790D01*
X144085768Y-98609790D02*
X144133387Y-98657409D01*
X144133387Y-98657409D02*
X144181006Y-98752647D01*
X144181006Y-98752647D02*
X144181006Y-98990742D01*
X144181006Y-98990742D02*
X144133387Y-99085980D01*
X144133387Y-99085980D02*
X144085768Y-99133600D01*
X144085768Y-99133600D02*
X143990530Y-99181219D01*
X143990530Y-99181219D02*
X143704816Y-99181219D01*
X143704816Y-99181219D02*
X143609578Y-99133600D01*
X143609578Y-99133600D02*
X143561959Y-99085980D01*
X144847673Y-99514552D02*
X144847673Y-98085980D01*
X145514340Y-98895504D02*
X145990530Y-98895504D01*
X145419102Y-99181219D02*
X145752435Y-98181219D01*
X145752435Y-98181219D02*
X146085768Y-99181219D01*
X146942911Y-99181219D02*
X146371483Y-99181219D01*
X146657197Y-99181219D02*
X146657197Y-98181219D01*
X146657197Y-98181219D02*
X146561959Y-98324076D01*
X146561959Y-98324076D02*
X146466721Y-98419314D01*
X146466721Y-98419314D02*
X146371483Y-98466933D01*
X147323864Y-98276457D02*
X147371483Y-98228838D01*
X147371483Y-98228838D02*
X147466721Y-98181219D01*
X147466721Y-98181219D02*
X147704816Y-98181219D01*
X147704816Y-98181219D02*
X147800054Y-98228838D01*
X147800054Y-98228838D02*
X147847673Y-98276457D01*
X147847673Y-98276457D02*
X147895292Y-98371695D01*
X147895292Y-98371695D02*
X147895292Y-98466933D01*
X147895292Y-98466933D02*
X147847673Y-98609790D01*
X147847673Y-98609790D02*
X147276245Y-99181219D01*
X147276245Y-99181219D02*
X147895292Y-99181219D01*
X141800054Y-96355504D02*
X142276244Y-96355504D01*
X141704816Y-96641219D02*
X142038149Y-95641219D01*
X142038149Y-95641219D02*
X142371482Y-96641219D01*
X143228625Y-96641219D02*
X142657197Y-96641219D01*
X142942911Y-96641219D02*
X142942911Y-95641219D01*
X142942911Y-95641219D02*
X142847673Y-95784076D01*
X142847673Y-95784076D02*
X142752435Y-95879314D01*
X142752435Y-95879314D02*
X142657197Y-95926933D01*
X144181006Y-96641219D02*
X143609578Y-96641219D01*
X143895292Y-96641219D02*
X143895292Y-95641219D01*
X143895292Y-95641219D02*
X143800054Y-95784076D01*
X143800054Y-95784076D02*
X143704816Y-95879314D01*
X143704816Y-95879314D02*
X143609578Y-95926933D01*
X144847673Y-96974552D02*
X144847673Y-95545980D01*
X145514340Y-96355504D02*
X145990530Y-96355504D01*
X145419102Y-96641219D02*
X145752435Y-95641219D01*
X145752435Y-95641219D02*
X146085768Y-96641219D01*
X146942911Y-96641219D02*
X146371483Y-96641219D01*
X146657197Y-96641219D02*
X146657197Y-95641219D01*
X146657197Y-95641219D02*
X146561959Y-95784076D01*
X146561959Y-95784076D02*
X146466721Y-95879314D01*
X146466721Y-95879314D02*
X146371483Y-95926933D01*
X147561959Y-95641219D02*
X147657197Y-95641219D01*
X147657197Y-95641219D02*
X147752435Y-95688838D01*
X147752435Y-95688838D02*
X147800054Y-95736457D01*
X147800054Y-95736457D02*
X147847673Y-95831695D01*
X147847673Y-95831695D02*
X147895292Y-96022171D01*
X147895292Y-96022171D02*
X147895292Y-96260266D01*
X147895292Y-96260266D02*
X147847673Y-96450742D01*
X147847673Y-96450742D02*
X147800054Y-96545980D01*
X147800054Y-96545980D02*
X147752435Y-96593600D01*
X147752435Y-96593600D02*
X147657197Y-96641219D01*
X147657197Y-96641219D02*
X147561959Y-96641219D01*
X147561959Y-96641219D02*
X147466721Y-96593600D01*
X147466721Y-96593600D02*
X147419102Y-96545980D01*
X147419102Y-96545980D02*
X147371483Y-96450742D01*
X147371483Y-96450742D02*
X147323864Y-96260266D01*
X147323864Y-96260266D02*
X147323864Y-96022171D01*
X147323864Y-96022171D02*
X147371483Y-95831695D01*
X147371483Y-95831695D02*
X147419102Y-95736457D01*
X147419102Y-95736457D02*
X147466721Y-95688838D01*
X147466721Y-95688838D02*
X147561959Y-95641219D01*
X141752435Y-85481219D02*
X142419101Y-86481219D01*
X142419101Y-85481219D02*
X141752435Y-86481219D01*
X142752435Y-86195504D02*
X143228625Y-86195504D01*
X142657197Y-86481219D02*
X142990530Y-85481219D01*
X142990530Y-85481219D02*
X143323863Y-86481219D01*
X144133387Y-85481219D02*
X143657197Y-85481219D01*
X143657197Y-85481219D02*
X143609578Y-85957409D01*
X143609578Y-85957409D02*
X143657197Y-85909790D01*
X143657197Y-85909790D02*
X143752435Y-85862171D01*
X143752435Y-85862171D02*
X143990530Y-85862171D01*
X143990530Y-85862171D02*
X144085768Y-85909790D01*
X144085768Y-85909790D02*
X144133387Y-85957409D01*
X144133387Y-85957409D02*
X144181006Y-86052647D01*
X144181006Y-86052647D02*
X144181006Y-86290742D01*
X144181006Y-86290742D02*
X144133387Y-86385980D01*
X144133387Y-86385980D02*
X144085768Y-86433600D01*
X144085768Y-86433600D02*
X143990530Y-86481219D01*
X143990530Y-86481219D02*
X143752435Y-86481219D01*
X143752435Y-86481219D02*
X143657197Y-86433600D01*
X143657197Y-86433600D02*
X143609578Y-86385980D01*
X144847673Y-86814552D02*
X144847673Y-85385980D01*
X145466721Y-85481219D02*
X146133387Y-86481219D01*
X146133387Y-85481219D02*
X145466721Y-86481219D01*
X146466721Y-86195504D02*
X146942911Y-86195504D01*
X146371483Y-86481219D02*
X146704816Y-85481219D01*
X146704816Y-85481219D02*
X147038149Y-86481219D01*
X147800054Y-85814552D02*
X147800054Y-86481219D01*
X147561959Y-85433600D02*
X147323864Y-86147885D01*
X147323864Y-86147885D02*
X147942911Y-86147885D01*
X141752435Y-93355219D02*
X142419101Y-94355219D01*
X142419101Y-93355219D02*
X141752435Y-94355219D01*
X142752435Y-94069504D02*
X143228625Y-94069504D01*
X142657197Y-94355219D02*
X142990530Y-93355219D01*
X142990530Y-93355219D02*
X143323863Y-94355219D01*
X143704816Y-94355219D02*
X143895292Y-94355219D01*
X143895292Y-94355219D02*
X143990530Y-94307600D01*
X143990530Y-94307600D02*
X144038149Y-94259980D01*
X144038149Y-94259980D02*
X144133387Y-94117123D01*
X144133387Y-94117123D02*
X144181006Y-93926647D01*
X144181006Y-93926647D02*
X144181006Y-93545695D01*
X144181006Y-93545695D02*
X144133387Y-93450457D01*
X144133387Y-93450457D02*
X144085768Y-93402838D01*
X144085768Y-93402838D02*
X143990530Y-93355219D01*
X143990530Y-93355219D02*
X143800054Y-93355219D01*
X143800054Y-93355219D02*
X143704816Y-93402838D01*
X143704816Y-93402838D02*
X143657197Y-93450457D01*
X143657197Y-93450457D02*
X143609578Y-93545695D01*
X143609578Y-93545695D02*
X143609578Y-93783790D01*
X143609578Y-93783790D02*
X143657197Y-93879028D01*
X143657197Y-93879028D02*
X143704816Y-93926647D01*
X143704816Y-93926647D02*
X143800054Y-93974266D01*
X143800054Y-93974266D02*
X143990530Y-93974266D01*
X143990530Y-93974266D02*
X144085768Y-93926647D01*
X144085768Y-93926647D02*
X144133387Y-93879028D01*
X144133387Y-93879028D02*
X144181006Y-93783790D01*
X144847673Y-94688552D02*
X144847673Y-93259980D01*
X145466721Y-93355219D02*
X146133387Y-94355219D01*
X146133387Y-93355219D02*
X145466721Y-94355219D01*
X146466721Y-94069504D02*
X146942911Y-94069504D01*
X146371483Y-94355219D02*
X146704816Y-93355219D01*
X146704816Y-93355219D02*
X147038149Y-94355219D01*
X147514340Y-93783790D02*
X147419102Y-93736171D01*
X147419102Y-93736171D02*
X147371483Y-93688552D01*
X147371483Y-93688552D02*
X147323864Y-93593314D01*
X147323864Y-93593314D02*
X147323864Y-93545695D01*
X147323864Y-93545695D02*
X147371483Y-93450457D01*
X147371483Y-93450457D02*
X147419102Y-93402838D01*
X147419102Y-93402838D02*
X147514340Y-93355219D01*
X147514340Y-93355219D02*
X147704816Y-93355219D01*
X147704816Y-93355219D02*
X147800054Y-93402838D01*
X147800054Y-93402838D02*
X147847673Y-93450457D01*
X147847673Y-93450457D02*
X147895292Y-93545695D01*
X147895292Y-93545695D02*
X147895292Y-93593314D01*
X147895292Y-93593314D02*
X147847673Y-93688552D01*
X147847673Y-93688552D02*
X147800054Y-93736171D01*
X147800054Y-93736171D02*
X147704816Y-93783790D01*
X147704816Y-93783790D02*
X147514340Y-93783790D01*
X147514340Y-93783790D02*
X147419102Y-93831409D01*
X147419102Y-93831409D02*
X147371483Y-93879028D01*
X147371483Y-93879028D02*
X147323864Y-93974266D01*
X147323864Y-93974266D02*
X147323864Y-94164742D01*
X147323864Y-94164742D02*
X147371483Y-94259980D01*
X147371483Y-94259980D02*
X147419102Y-94307600D01*
X147419102Y-94307600D02*
X147514340Y-94355219D01*
X147514340Y-94355219D02*
X147704816Y-94355219D01*
X147704816Y-94355219D02*
X147800054Y-94307600D01*
X147800054Y-94307600D02*
X147847673Y-94259980D01*
X147847673Y-94259980D02*
X147895292Y-94164742D01*
X147895292Y-94164742D02*
X147895292Y-93974266D01*
X147895292Y-93974266D02*
X147847673Y-93879028D01*
X147847673Y-93879028D02*
X147800054Y-93831409D01*
X147800054Y-93831409D02*
X147704816Y-93783790D01*
X141752435Y-82941219D02*
X142419101Y-83941219D01*
X142419101Y-82941219D02*
X141752435Y-83941219D01*
X142752435Y-83655504D02*
X143228625Y-83655504D01*
X142657197Y-83941219D02*
X142990530Y-82941219D01*
X142990530Y-82941219D02*
X143323863Y-83941219D01*
X143561959Y-82941219D02*
X144181006Y-82941219D01*
X144181006Y-82941219D02*
X143847673Y-83322171D01*
X143847673Y-83322171D02*
X143990530Y-83322171D01*
X143990530Y-83322171D02*
X144085768Y-83369790D01*
X144085768Y-83369790D02*
X144133387Y-83417409D01*
X144133387Y-83417409D02*
X144181006Y-83512647D01*
X144181006Y-83512647D02*
X144181006Y-83750742D01*
X144181006Y-83750742D02*
X144133387Y-83845980D01*
X144133387Y-83845980D02*
X144085768Y-83893600D01*
X144085768Y-83893600D02*
X143990530Y-83941219D01*
X143990530Y-83941219D02*
X143704816Y-83941219D01*
X143704816Y-83941219D02*
X143609578Y-83893600D01*
X143609578Y-83893600D02*
X143561959Y-83845980D01*
X144847673Y-84274552D02*
X144847673Y-82845980D01*
X145466721Y-82941219D02*
X146133387Y-83941219D01*
X146133387Y-82941219D02*
X145466721Y-83941219D01*
X146466721Y-83655504D02*
X146942911Y-83655504D01*
X146371483Y-83941219D02*
X146704816Y-82941219D01*
X146704816Y-82941219D02*
X147038149Y-83941219D01*
X147323864Y-83036457D02*
X147371483Y-82988838D01*
X147371483Y-82988838D02*
X147466721Y-82941219D01*
X147466721Y-82941219D02*
X147704816Y-82941219D01*
X147704816Y-82941219D02*
X147800054Y-82988838D01*
X147800054Y-82988838D02*
X147847673Y-83036457D01*
X147847673Y-83036457D02*
X147895292Y-83131695D01*
X147895292Y-83131695D02*
X147895292Y-83226933D01*
X147895292Y-83226933D02*
X147847673Y-83369790D01*
X147847673Y-83369790D02*
X147276245Y-83941219D01*
X147276245Y-83941219D02*
X147895292Y-83941219D01*
X141752435Y-88021219D02*
X142419101Y-89021219D01*
X142419101Y-88021219D02*
X141752435Y-89021219D01*
X142752435Y-88735504D02*
X143228625Y-88735504D01*
X142657197Y-89021219D02*
X142990530Y-88021219D01*
X142990530Y-88021219D02*
X143323863Y-89021219D01*
X143561959Y-88021219D02*
X144228625Y-88021219D01*
X144228625Y-88021219D02*
X143800054Y-89021219D01*
X144847673Y-89354552D02*
X144847673Y-87925980D01*
X145466721Y-88021219D02*
X146133387Y-89021219D01*
X146133387Y-88021219D02*
X145466721Y-89021219D01*
X146466721Y-88735504D02*
X146942911Y-88735504D01*
X146371483Y-89021219D02*
X146704816Y-88021219D01*
X146704816Y-88021219D02*
X147038149Y-89021219D01*
X147800054Y-88021219D02*
X147609578Y-88021219D01*
X147609578Y-88021219D02*
X147514340Y-88068838D01*
X147514340Y-88068838D02*
X147466721Y-88116457D01*
X147466721Y-88116457D02*
X147371483Y-88259314D01*
X147371483Y-88259314D02*
X147323864Y-88449790D01*
X147323864Y-88449790D02*
X147323864Y-88830742D01*
X147323864Y-88830742D02*
X147371483Y-88925980D01*
X147371483Y-88925980D02*
X147419102Y-88973600D01*
X147419102Y-88973600D02*
X147514340Y-89021219D01*
X147514340Y-89021219D02*
X147704816Y-89021219D01*
X147704816Y-89021219D02*
X147800054Y-88973600D01*
X147800054Y-88973600D02*
X147847673Y-88925980D01*
X147847673Y-88925980D02*
X147895292Y-88830742D01*
X147895292Y-88830742D02*
X147895292Y-88592647D01*
X147895292Y-88592647D02*
X147847673Y-88497409D01*
X147847673Y-88497409D02*
X147800054Y-88449790D01*
X147800054Y-88449790D02*
X147704816Y-88402171D01*
X147704816Y-88402171D02*
X147514340Y-88402171D01*
X147514340Y-88402171D02*
X147419102Y-88449790D01*
X147419102Y-88449790D02*
X147371483Y-88497409D01*
X147371483Y-88497409D02*
X147323864Y-88592647D01*
X141752435Y-80401219D02*
X142419101Y-81401219D01*
X142419101Y-80401219D02*
X141752435Y-81401219D01*
X142752435Y-81115504D02*
X143228625Y-81115504D01*
X142657197Y-81401219D02*
X142990530Y-80401219D01*
X142990530Y-80401219D02*
X143323863Y-81401219D01*
X144181006Y-81401219D02*
X143609578Y-81401219D01*
X143895292Y-81401219D02*
X143895292Y-80401219D01*
X143895292Y-80401219D02*
X143800054Y-80544076D01*
X143800054Y-80544076D02*
X143704816Y-80639314D01*
X143704816Y-80639314D02*
X143609578Y-80686933D01*
X144847673Y-81734552D02*
X144847673Y-80305980D01*
X145466721Y-80401219D02*
X146133387Y-81401219D01*
X146133387Y-80401219D02*
X145466721Y-81401219D01*
X146466721Y-81115504D02*
X146942911Y-81115504D01*
X146371483Y-81401219D02*
X146704816Y-80401219D01*
X146704816Y-80401219D02*
X147038149Y-81401219D01*
X147561959Y-80401219D02*
X147657197Y-80401219D01*
X147657197Y-80401219D02*
X147752435Y-80448838D01*
X147752435Y-80448838D02*
X147800054Y-80496457D01*
X147800054Y-80496457D02*
X147847673Y-80591695D01*
X147847673Y-80591695D02*
X147895292Y-80782171D01*
X147895292Y-80782171D02*
X147895292Y-81020266D01*
X147895292Y-81020266D02*
X147847673Y-81210742D01*
X147847673Y-81210742D02*
X147800054Y-81305980D01*
X147800054Y-81305980D02*
X147752435Y-81353600D01*
X147752435Y-81353600D02*
X147657197Y-81401219D01*
X147657197Y-81401219D02*
X147561959Y-81401219D01*
X147561959Y-81401219D02*
X147466721Y-81353600D01*
X147466721Y-81353600D02*
X147419102Y-81305980D01*
X147419102Y-81305980D02*
X147371483Y-81210742D01*
X147371483Y-81210742D02*
X147323864Y-81020266D01*
X147323864Y-81020266D02*
X147323864Y-80782171D01*
X147323864Y-80782171D02*
X147371483Y-80591695D01*
X147371483Y-80591695D02*
X147419102Y-80496457D01*
X147419102Y-80496457D02*
X147466721Y-80448838D01*
X147466721Y-80448838D02*
X147561959Y-80401219D01*
D11*
X152327730Y-58928000D02*
X155756730Y-58928000D01*
X155756730Y-60960000D01*
X152327730Y-60960000D01*
X152327730Y-58928000D01*
G36*
X152327730Y-58928000D02*
G01*
X155756730Y-58928000D01*
X155756730Y-60960000D01*
X152327730Y-60960000D01*
X152327730Y-58928000D01*
G37*
X151384000Y-65024000D02*
X154813000Y-65024000D01*
X154813000Y-67056000D01*
X151384000Y-67056000D01*
X151384000Y-65024000D01*
G36*
X151384000Y-65024000D02*
G01*
X154813000Y-65024000D01*
X154813000Y-67056000D01*
X151384000Y-67056000D01*
X151384000Y-65024000D01*
G37*
X163830000Y-65024000D02*
X167132000Y-65024000D01*
X167132000Y-67056000D01*
X163830000Y-67056000D01*
X163830000Y-65024000D01*
G36*
X163830000Y-65024000D02*
G01*
X167132000Y-65024000D01*
X167132000Y-67056000D01*
X163830000Y-67056000D01*
X163830000Y-65024000D01*
G37*
X163957000Y-113284000D02*
X167259000Y-113284000D01*
X167259000Y-115316000D01*
X163957000Y-115316000D01*
X163957000Y-113284000D01*
G36*
X163957000Y-113284000D02*
G01*
X167259000Y-113284000D01*
X167259000Y-115316000D01*
X163957000Y-115316000D01*
X163957000Y-113284000D01*
G37*
X151130000Y-110744000D02*
X154559000Y-110744000D01*
X154559000Y-112776000D01*
X151130000Y-112776000D01*
X151130000Y-110744000D01*
G36*
X151130000Y-110744000D02*
G01*
X154559000Y-110744000D01*
X154559000Y-112776000D01*
X151130000Y-112776000D01*
X151130000Y-110744000D01*
G37*
X163957000Y-108204000D02*
X167259000Y-108204000D01*
X167259000Y-110236000D01*
X163957000Y-110236000D01*
X163957000Y-108204000D01*
G36*
X163957000Y-108204000D02*
G01*
X167259000Y-108204000D01*
X167259000Y-110236000D01*
X163957000Y-110236000D01*
X163957000Y-108204000D01*
G37*
X151130000Y-108204000D02*
X154559000Y-108204000D01*
X154559000Y-110236000D01*
X151130000Y-110236000D01*
X151130000Y-108204000D01*
G36*
X151130000Y-108204000D02*
G01*
X154559000Y-108204000D01*
X154559000Y-110236000D01*
X151130000Y-110236000D01*
X151130000Y-108204000D01*
G37*
X163957000Y-110744000D02*
X167259000Y-110744000D01*
X167259000Y-112776000D01*
X163957000Y-112776000D01*
X163957000Y-110744000D01*
G36*
X163957000Y-110744000D02*
G01*
X167259000Y-110744000D01*
X167259000Y-112776000D01*
X163957000Y-112776000D01*
X163957000Y-110744000D01*
G37*
X151130000Y-113284000D02*
X154559000Y-113284000D01*
X154559000Y-115316000D01*
X151130000Y-115316000D01*
X151130000Y-113284000D01*
G36*
X151130000Y-113284000D02*
G01*
X154559000Y-113284000D01*
X154559000Y-115316000D01*
X151130000Y-115316000D01*
X151130000Y-113284000D01*
G37*
D12*
X149467673Y-122422219D02*
X149467673Y-121422219D01*
X149467673Y-121422219D02*
X149848625Y-121422219D01*
X149848625Y-121422219D02*
X149943863Y-121469838D01*
X149943863Y-121469838D02*
X149991482Y-121517457D01*
X149991482Y-121517457D02*
X150039101Y-121612695D01*
X150039101Y-121612695D02*
X150039101Y-121755552D01*
X150039101Y-121755552D02*
X149991482Y-121850790D01*
X149991482Y-121850790D02*
X149943863Y-121898409D01*
X149943863Y-121898409D02*
X149848625Y-121946028D01*
X149848625Y-121946028D02*
X149467673Y-121946028D01*
X150610530Y-122422219D02*
X150515292Y-122374600D01*
X150515292Y-122374600D02*
X150467673Y-122326980D01*
X150467673Y-122326980D02*
X150420054Y-122231742D01*
X150420054Y-122231742D02*
X150420054Y-121946028D01*
X150420054Y-121946028D02*
X150467673Y-121850790D01*
X150467673Y-121850790D02*
X150515292Y-121803171D01*
X150515292Y-121803171D02*
X150610530Y-121755552D01*
X150610530Y-121755552D02*
X150753387Y-121755552D01*
X150753387Y-121755552D02*
X150848625Y-121803171D01*
X150848625Y-121803171D02*
X150896244Y-121850790D01*
X150896244Y-121850790D02*
X150943863Y-121946028D01*
X150943863Y-121946028D02*
X150943863Y-122231742D01*
X150943863Y-122231742D02*
X150896244Y-122326980D01*
X150896244Y-122326980D02*
X150848625Y-122374600D01*
X150848625Y-122374600D02*
X150753387Y-122422219D01*
X150753387Y-122422219D02*
X150610530Y-122422219D01*
X151277197Y-121755552D02*
X151467673Y-122422219D01*
X151467673Y-122422219D02*
X151658149Y-121946028D01*
X151658149Y-121946028D02*
X151848625Y-122422219D01*
X151848625Y-122422219D02*
X152039101Y-121755552D01*
X152801006Y-122374600D02*
X152705768Y-122422219D01*
X152705768Y-122422219D02*
X152515292Y-122422219D01*
X152515292Y-122422219D02*
X152420054Y-122374600D01*
X152420054Y-122374600D02*
X152372435Y-122279361D01*
X152372435Y-122279361D02*
X152372435Y-121898409D01*
X152372435Y-121898409D02*
X152420054Y-121803171D01*
X152420054Y-121803171D02*
X152515292Y-121755552D01*
X152515292Y-121755552D02*
X152705768Y-121755552D01*
X152705768Y-121755552D02*
X152801006Y-121803171D01*
X152801006Y-121803171D02*
X152848625Y-121898409D01*
X152848625Y-121898409D02*
X152848625Y-121993647D01*
X152848625Y-121993647D02*
X152372435Y-122088885D01*
X153277197Y-122422219D02*
X153277197Y-121755552D01*
X153277197Y-121946028D02*
X153324816Y-121850790D01*
X153324816Y-121850790D02*
X153372435Y-121803171D01*
X153372435Y-121803171D02*
X153467673Y-121755552D01*
X153467673Y-121755552D02*
X153562911Y-121755552D01*
G36*
X157428551Y-65675198D02*
G01*
X157495692Y-65740685D01*
X157531312Y-65809289D01*
X157574791Y-65976856D01*
X157576197Y-66095664D01*
X157535957Y-66262936D01*
X157500035Y-66337606D01*
X157432726Y-66406614D01*
X157329544Y-66442307D01*
X157203105Y-66443250D01*
X157201594Y-65641485D01*
X157320706Y-65640597D01*
X157428551Y-65675198D01*
G37*
G36*
X157885831Y-66753330D02*
G01*
X154796943Y-66753330D01*
X154796943Y-65970790D01*
X154908054Y-65970790D01*
X154909681Y-66108363D01*
X154908172Y-66118508D01*
X154909943Y-66130486D01*
X154909975Y-66133156D01*
X154910539Y-66134519D01*
X154911040Y-66137901D01*
X154958544Y-66320980D01*
X154959224Y-66330536D01*
X154964815Y-66345148D01*
X154965254Y-66346837D01*
X154965684Y-66347417D01*
X154966230Y-66348844D01*
X155015566Y-66443866D01*
X155020144Y-66454918D01*
X155023302Y-66458766D01*
X155024292Y-66460672D01*
X155026286Y-66462401D01*
X155032581Y-66470071D01*
X155118526Y-66553902D01*
X155119531Y-66555912D01*
X155129055Y-66564172D01*
X155142972Y-66577747D01*
X155146291Y-66579122D01*
X155149007Y-66581477D01*
X155166907Y-66589468D01*
X155309991Y-66635374D01*
X155321878Y-66640298D01*
X155326870Y-66640789D01*
X155328879Y-66641434D01*
X155331513Y-66641246D01*
X155341387Y-66642219D01*
X155437529Y-66640609D01*
X155449132Y-66641434D01*
X155453968Y-66640334D01*
X155456134Y-66640298D01*
X155458576Y-66639286D01*
X155468248Y-66637087D01*
X155596625Y-66592678D01*
X155598992Y-66592678D01*
X155610984Y-66587710D01*
X155629005Y-66581477D01*
X155631720Y-66579122D01*
X155635040Y-66577747D01*
X155650193Y-66565310D01*
X155710249Y-66502537D01*
X155725180Y-66466488D01*
X155727101Y-66446980D01*
X155725180Y-66094138D01*
X155710248Y-66058090D01*
X155682658Y-66030500D01*
X155646610Y-66015568D01*
X155627101Y-66013647D01*
X155417116Y-66015568D01*
X155381068Y-66030500D01*
X155353478Y-66058090D01*
X155338546Y-66094138D01*
X155338546Y-66133156D01*
X155353478Y-66169204D01*
X155381068Y-66196794D01*
X155417116Y-66211726D01*
X155436625Y-66213647D01*
X155527640Y-66212814D01*
X155528688Y-66405224D01*
X155527059Y-66406927D01*
X155424448Y-66442422D01*
X155360961Y-66443485D01*
X155254221Y-66409240D01*
X155187082Y-66343752D01*
X155151461Y-66275145D01*
X155107982Y-66107580D01*
X155106576Y-65988773D01*
X155146816Y-65821500D01*
X155182738Y-65746830D01*
X155250045Y-65677824D01*
X155353384Y-65642077D01*
X155458585Y-65640832D01*
X155553069Y-65686287D01*
X155591989Y-65689053D01*
X155629005Y-65676714D01*
X155658482Y-65651149D01*
X155675931Y-65616251D01*
X155678696Y-65577331D01*
X155666993Y-65542219D01*
X155955673Y-65542219D01*
X155957594Y-66561728D01*
X155972526Y-66597776D01*
X156000116Y-66625366D01*
X156036164Y-66640298D01*
X156075182Y-66640298D01*
X156111230Y-66625366D01*
X156138820Y-66597776D01*
X156153752Y-66561728D01*
X156155673Y-66542219D01*
X156154492Y-65915475D01*
X156538990Y-66585793D01*
X156543954Y-66597776D01*
X156548433Y-66602255D01*
X156551624Y-66607818D01*
X156562140Y-66615962D01*
X156571544Y-66625366D01*
X156577431Y-66627804D01*
X156582473Y-66631709D01*
X156595305Y-66635208D01*
X156607592Y-66640298D01*
X156613968Y-66640298D01*
X156620117Y-66641975D01*
X156633310Y-66640298D01*
X156646610Y-66640298D01*
X156652498Y-66637858D01*
X156658823Y-66637055D01*
X156670372Y-66630454D01*
X156682658Y-66625366D01*
X156687165Y-66620858D01*
X156692700Y-66617696D01*
X156700844Y-66607179D01*
X156710248Y-66597776D01*
X156712686Y-66591888D01*
X156716591Y-66586847D01*
X156720090Y-66574014D01*
X156725180Y-66561728D01*
X156726162Y-66551750D01*
X156726857Y-66549204D01*
X156726606Y-66547236D01*
X156727101Y-66542219D01*
X156725217Y-65542219D01*
X157003292Y-65542219D01*
X157005213Y-66561728D01*
X157020145Y-66597776D01*
X157047735Y-66625366D01*
X157083783Y-66640298D01*
X157103292Y-66642219D01*
X157340092Y-66640453D01*
X157353894Y-66641434D01*
X157358821Y-66640313D01*
X157360896Y-66640298D01*
X157363338Y-66639286D01*
X157373010Y-66637087D01*
X157501387Y-66592678D01*
X157503754Y-66592678D01*
X157515746Y-66587710D01*
X157533767Y-66581477D01*
X157536482Y-66579122D01*
X157539802Y-66577747D01*
X157554955Y-66565310D01*
X157648972Y-66468920D01*
X157658482Y-66460673D01*
X157661148Y-66456437D01*
X157662630Y-66454918D01*
X157663641Y-66452476D01*
X157668925Y-66444082D01*
X157712353Y-66353810D01*
X157717520Y-66346837D01*
X157722748Y-66332202D01*
X157723550Y-66330536D01*
X157723601Y-66329815D01*
X157724115Y-66328377D01*
X157768694Y-66143064D01*
X157772799Y-66133156D01*
X157773991Y-66121046D01*
X157774602Y-66118508D01*
X157774384Y-66117049D01*
X157774720Y-66113647D01*
X157773092Y-65976073D01*
X157774602Y-65965929D01*
X157772830Y-65953950D01*
X157772799Y-65951281D01*
X157772234Y-65949917D01*
X157771734Y-65946536D01*
X157724229Y-65763456D01*
X157723550Y-65753901D01*
X157717957Y-65739285D01*
X157717520Y-65737600D01*
X157717090Y-65737020D01*
X157716544Y-65735592D01*
X157667201Y-65640558D01*
X157662629Y-65629519D01*
X157659473Y-65625674D01*
X157658482Y-65623764D01*
X157656484Y-65622031D01*
X157650193Y-65614365D01*
X157564248Y-65530536D01*
X157563243Y-65528526D01*
X157553713Y-65520260D01*
X157539801Y-65506691D01*
X157536482Y-65505316D01*
X157533767Y-65502961D01*
X157515866Y-65494970D01*
X157372786Y-65449065D01*
X157360896Y-65444140D01*
X157355902Y-65443648D01*
X157353894Y-65443004D01*
X157351260Y-65443191D01*
X157341387Y-65442219D01*
X157083783Y-65444140D01*
X157047735Y-65459072D01*
X157020145Y-65486662D01*
X157005213Y-65522710D01*
X157003292Y-65542219D01*
X156725217Y-65542219D01*
X156725180Y-65522710D01*
X156710248Y-65486662D01*
X156682658Y-65459072D01*
X156646610Y-65444140D01*
X156607592Y-65444140D01*
X156571544Y-65459072D01*
X156543954Y-65486662D01*
X156529022Y-65522710D01*
X156527101Y-65542219D01*
X156528281Y-66168962D01*
X156143783Y-65498644D01*
X156138820Y-65486662D01*
X156134340Y-65482182D01*
X156131150Y-65476620D01*
X156120635Y-65468477D01*
X156111230Y-65459072D01*
X156105339Y-65456632D01*
X156100301Y-65452730D01*
X156087472Y-65449231D01*
X156075182Y-65444140D01*
X156068807Y-65444140D01*
X156062658Y-65442463D01*
X156049465Y-65444140D01*
X156036164Y-65444140D01*
X156030275Y-65446579D01*
X156023951Y-65447383D01*
X156012401Y-65453983D01*
X156000116Y-65459072D01*
X155995608Y-65463579D01*
X155990074Y-65466742D01*
X155981931Y-65477256D01*
X155972526Y-65486662D01*
X155970086Y-65492552D01*
X155966184Y-65497591D01*
X155962685Y-65510419D01*
X155957594Y-65522710D01*
X155956611Y-65532687D01*
X155955917Y-65535234D01*
X155956167Y-65537201D01*
X155955673Y-65542219D01*
X155666993Y-65542219D01*
X155666358Y-65540315D01*
X155640793Y-65510838D01*
X155624203Y-65500395D01*
X155541185Y-65460456D01*
X155539801Y-65459072D01*
X155529051Y-65454619D01*
X155510657Y-65445770D01*
X155507073Y-65445515D01*
X155503753Y-65444140D01*
X155484244Y-65442219D01*
X155341583Y-65443906D01*
X155328879Y-65443004D01*
X155323993Y-65444114D01*
X155321878Y-65444140D01*
X155319436Y-65445151D01*
X155309764Y-65447351D01*
X155181390Y-65491759D01*
X155179021Y-65491759D01*
X155167024Y-65496728D01*
X155149007Y-65502961D01*
X155146291Y-65505316D01*
X155142973Y-65506691D01*
X155127819Y-65519127D01*
X155033802Y-65615516D01*
X155024292Y-65623765D01*
X155021625Y-65628001D01*
X155020145Y-65629519D01*
X155019134Y-65631958D01*
X155013849Y-65640355D01*
X154970420Y-65730626D01*
X154965254Y-65737600D01*
X154960026Y-65752232D01*
X154959224Y-65753901D01*
X154959172Y-65754623D01*
X154958659Y-65756061D01*
X154914079Y-65941371D01*
X154909975Y-65951281D01*
X154908782Y-65963390D01*
X154908172Y-65965929D01*
X154908389Y-65967387D01*
X154908054Y-65970790D01*
X154796943Y-65970790D01*
X154796943Y-65331108D01*
X157885831Y-65331108D01*
X157885831Y-66753330D01*
G37*
X143625673Y-59938266D02*
X144387578Y-59938266D01*
X144006625Y-60319219D02*
X144006625Y-59557314D01*
X145339958Y-59319219D02*
X144863768Y-59319219D01*
X144863768Y-59319219D02*
X144816149Y-59795409D01*
X144816149Y-59795409D02*
X144863768Y-59747790D01*
X144863768Y-59747790D02*
X144959006Y-59700171D01*
X144959006Y-59700171D02*
X145197101Y-59700171D01*
X145197101Y-59700171D02*
X145292339Y-59747790D01*
X145292339Y-59747790D02*
X145339958Y-59795409D01*
X145339958Y-59795409D02*
X145387577Y-59890647D01*
X145387577Y-59890647D02*
X145387577Y-60128742D01*
X145387577Y-60128742D02*
X145339958Y-60223980D01*
X145339958Y-60223980D02*
X145292339Y-60271600D01*
X145292339Y-60271600D02*
X145197101Y-60319219D01*
X145197101Y-60319219D02*
X144959006Y-60319219D01*
X144959006Y-60319219D02*
X144863768Y-60271600D01*
X144863768Y-60271600D02*
X144816149Y-60223980D01*
X145673292Y-59319219D02*
X146006625Y-60319219D01*
X146006625Y-60319219D02*
X146339958Y-59319219D01*
G36*
X158372281Y-59579198D02*
G01*
X158439422Y-59644685D01*
X158475042Y-59713289D01*
X158518521Y-59880856D01*
X158519927Y-59999664D01*
X158479687Y-60166936D01*
X158443765Y-60241606D01*
X158376456Y-60310614D01*
X158273274Y-60346307D01*
X158146835Y-60347250D01*
X158145324Y-59545485D01*
X158264436Y-59544597D01*
X158372281Y-59579198D01*
G37*
G36*
X158829561Y-60657330D02*
G01*
X155740673Y-60657330D01*
X155740673Y-59874790D01*
X155851784Y-59874790D01*
X155853411Y-60012363D01*
X155851902Y-60022508D01*
X155853673Y-60034486D01*
X155853705Y-60037156D01*
X155854269Y-60038519D01*
X155854770Y-60041901D01*
X155902274Y-60224980D01*
X155902954Y-60234536D01*
X155908545Y-60249148D01*
X155908984Y-60250837D01*
X155909414Y-60251417D01*
X155909960Y-60252844D01*
X155959296Y-60347866D01*
X155963874Y-60358918D01*
X155967032Y-60362766D01*
X155968022Y-60364672D01*
X155970016Y-60366401D01*
X155976311Y-60374071D01*
X156062256Y-60457902D01*
X156063261Y-60459912D01*
X156072785Y-60468172D01*
X156086702Y-60481747D01*
X156090021Y-60483122D01*
X156092737Y-60485477D01*
X156110637Y-60493468D01*
X156253721Y-60539374D01*
X156265608Y-60544298D01*
X156270600Y-60544789D01*
X156272609Y-60545434D01*
X156275243Y-60545246D01*
X156285117Y-60546219D01*
X156381259Y-60544609D01*
X156392862Y-60545434D01*
X156397698Y-60544334D01*
X156399864Y-60544298D01*
X156402306Y-60543286D01*
X156411978Y-60541087D01*
X156540355Y-60496678D01*
X156542722Y-60496678D01*
X156554714Y-60491710D01*
X156572735Y-60485477D01*
X156575450Y-60483122D01*
X156578770Y-60481747D01*
X156593923Y-60469310D01*
X156653979Y-60406537D01*
X156668910Y-60370488D01*
X156670831Y-60350980D01*
X156668910Y-59998138D01*
X156653978Y-59962090D01*
X156626388Y-59934500D01*
X156590340Y-59919568D01*
X156570831Y-59917647D01*
X156360846Y-59919568D01*
X156324798Y-59934500D01*
X156297208Y-59962090D01*
X156282276Y-59998138D01*
X156282276Y-60037156D01*
X156297208Y-60073204D01*
X156324798Y-60100794D01*
X156360846Y-60115726D01*
X156380355Y-60117647D01*
X156471370Y-60116814D01*
X156472418Y-60309224D01*
X156470789Y-60310927D01*
X156368178Y-60346422D01*
X156304691Y-60347485D01*
X156197951Y-60313240D01*
X156130812Y-60247752D01*
X156095191Y-60179145D01*
X156051712Y-60011580D01*
X156050306Y-59892773D01*
X156090546Y-59725500D01*
X156126468Y-59650830D01*
X156193775Y-59581824D01*
X156297114Y-59546077D01*
X156402315Y-59544832D01*
X156496799Y-59590287D01*
X156535719Y-59593053D01*
X156572735Y-59580714D01*
X156602212Y-59555149D01*
X156619661Y-59520251D01*
X156622426Y-59481331D01*
X156610723Y-59446219D01*
X156899403Y-59446219D01*
X156901324Y-60465728D01*
X156916256Y-60501776D01*
X156943846Y-60529366D01*
X156979894Y-60544298D01*
X157018912Y-60544298D01*
X157054960Y-60529366D01*
X157082550Y-60501776D01*
X157097482Y-60465728D01*
X157099403Y-60446219D01*
X157098222Y-59819475D01*
X157482720Y-60489793D01*
X157487684Y-60501776D01*
X157492163Y-60506255D01*
X157495354Y-60511818D01*
X157505870Y-60519962D01*
X157515274Y-60529366D01*
X157521161Y-60531804D01*
X157526203Y-60535709D01*
X157539035Y-60539208D01*
X157551322Y-60544298D01*
X157557698Y-60544298D01*
X157563847Y-60545975D01*
X157577040Y-60544298D01*
X157590340Y-60544298D01*
X157596228Y-60541858D01*
X157602553Y-60541055D01*
X157614102Y-60534454D01*
X157626388Y-60529366D01*
X157630895Y-60524858D01*
X157636430Y-60521696D01*
X157644574Y-60511179D01*
X157653978Y-60501776D01*
X157656416Y-60495888D01*
X157660321Y-60490847D01*
X157663820Y-60478014D01*
X157668910Y-60465728D01*
X157669892Y-60455750D01*
X157670587Y-60453204D01*
X157670336Y-60451236D01*
X157670831Y-60446219D01*
X157668947Y-59446219D01*
X157947022Y-59446219D01*
X157948943Y-60465728D01*
X157963875Y-60501776D01*
X157991465Y-60529366D01*
X158027513Y-60544298D01*
X158047022Y-60546219D01*
X158283822Y-60544453D01*
X158297624Y-60545434D01*
X158302551Y-60544313D01*
X158304626Y-60544298D01*
X158307068Y-60543286D01*
X158316740Y-60541087D01*
X158445117Y-60496678D01*
X158447484Y-60496678D01*
X158459476Y-60491710D01*
X158477497Y-60485477D01*
X158480212Y-60483122D01*
X158483532Y-60481747D01*
X158498685Y-60469310D01*
X158592702Y-60372920D01*
X158602212Y-60364673D01*
X158604878Y-60360437D01*
X158606360Y-60358918D01*
X158607371Y-60356476D01*
X158612655Y-60348082D01*
X158656083Y-60257810D01*
X158661250Y-60250837D01*
X158666478Y-60236202D01*
X158667280Y-60234536D01*
X158667331Y-60233815D01*
X158667845Y-60232377D01*
X158712424Y-60047064D01*
X158716529Y-60037156D01*
X158717721Y-60025046D01*
X158718332Y-60022508D01*
X158718114Y-60021049D01*
X158718450Y-60017647D01*
X158716822Y-59880073D01*
X158718332Y-59869929D01*
X158716560Y-59857950D01*
X158716529Y-59855281D01*
X158715964Y-59853917D01*
X158715464Y-59850536D01*
X158667959Y-59667456D01*
X158667280Y-59657901D01*
X158661687Y-59643285D01*
X158661250Y-59641600D01*
X158660820Y-59641020D01*
X158660274Y-59639592D01*
X158610931Y-59544558D01*
X158606359Y-59533519D01*
X158603203Y-59529674D01*
X158602212Y-59527764D01*
X158600214Y-59526031D01*
X158593923Y-59518365D01*
X158507978Y-59434536D01*
X158506973Y-59432526D01*
X158497443Y-59424260D01*
X158483531Y-59410691D01*
X158480212Y-59409316D01*
X158477497Y-59406961D01*
X158459596Y-59398970D01*
X158316516Y-59353065D01*
X158304626Y-59348140D01*
X158299632Y-59347648D01*
X158297624Y-59347004D01*
X158294990Y-59347191D01*
X158285117Y-59346219D01*
X158027513Y-59348140D01*
X157991465Y-59363072D01*
X157963875Y-59390662D01*
X157948943Y-59426710D01*
X157947022Y-59446219D01*
X157668947Y-59446219D01*
X157668910Y-59426710D01*
X157653978Y-59390662D01*
X157626388Y-59363072D01*
X157590340Y-59348140D01*
X157551322Y-59348140D01*
X157515274Y-59363072D01*
X157487684Y-59390662D01*
X157472752Y-59426710D01*
X157470831Y-59446219D01*
X157472011Y-60072962D01*
X157087513Y-59402644D01*
X157082550Y-59390662D01*
X157078070Y-59386182D01*
X157074880Y-59380620D01*
X157064365Y-59372477D01*
X157054960Y-59363072D01*
X157049069Y-59360632D01*
X157044031Y-59356730D01*
X157031202Y-59353231D01*
X157018912Y-59348140D01*
X157012537Y-59348140D01*
X157006388Y-59346463D01*
X156993195Y-59348140D01*
X156979894Y-59348140D01*
X156974005Y-59350579D01*
X156967681Y-59351383D01*
X156956131Y-59357983D01*
X156943846Y-59363072D01*
X156939338Y-59367579D01*
X156933804Y-59370742D01*
X156925661Y-59381256D01*
X156916256Y-59390662D01*
X156913816Y-59396552D01*
X156909914Y-59401591D01*
X156906415Y-59414419D01*
X156901324Y-59426710D01*
X156900341Y-59436687D01*
X156899647Y-59439234D01*
X156899897Y-59441201D01*
X156899403Y-59446219D01*
X156610723Y-59446219D01*
X156610088Y-59444315D01*
X156584523Y-59414838D01*
X156567933Y-59404395D01*
X156484915Y-59364456D01*
X156483531Y-59363072D01*
X156472781Y-59358619D01*
X156454387Y-59349770D01*
X156450803Y-59349515D01*
X156447483Y-59348140D01*
X156427974Y-59346219D01*
X156285313Y-59347906D01*
X156272609Y-59347004D01*
X156267723Y-59348114D01*
X156265608Y-59348140D01*
X156263166Y-59349151D01*
X156253494Y-59351351D01*
X156125120Y-59395759D01*
X156122751Y-59395759D01*
X156110754Y-59400728D01*
X156092737Y-59406961D01*
X156090021Y-59409316D01*
X156086703Y-59410691D01*
X156071549Y-59423127D01*
X155977532Y-59519516D01*
X155968022Y-59527765D01*
X155965355Y-59532001D01*
X155963875Y-59533519D01*
X155962864Y-59535958D01*
X155957579Y-59544355D01*
X155914150Y-59634626D01*
X155908984Y-59641600D01*
X155903756Y-59656232D01*
X155902954Y-59657901D01*
X155902902Y-59658623D01*
X155902389Y-59660061D01*
X155857809Y-59845371D01*
X155853705Y-59855281D01*
X155852512Y-59867390D01*
X155851902Y-59869929D01*
X155852119Y-59871387D01*
X155851784Y-59874790D01*
X155740673Y-59874790D01*
X155740673Y-59235108D01*
X158829561Y-59235108D01*
X158829561Y-60657330D01*
G37*
X150515435Y-62113219D02*
X151182101Y-63113219D01*
X151182101Y-62113219D02*
X150515435Y-63113219D01*
X151563054Y-62589409D02*
X151896387Y-62589409D01*
X152039244Y-63113219D02*
X151563054Y-63113219D01*
X151563054Y-63113219D02*
X151563054Y-62113219D01*
X151563054Y-62113219D02*
X152039244Y-62113219D01*
G36*
X157174551Y-108855198D02*
G01*
X157241692Y-108920685D01*
X157277312Y-108989289D01*
X157320791Y-109156856D01*
X157322197Y-109275664D01*
X157281957Y-109442936D01*
X157246035Y-109517606D01*
X157178726Y-109586614D01*
X157075544Y-109622307D01*
X156949105Y-109623250D01*
X156947594Y-108821485D01*
X157066706Y-108820597D01*
X157174551Y-108855198D01*
G37*
G36*
X157631831Y-109933330D02*
G01*
X154542943Y-109933330D01*
X154542943Y-109150790D01*
X154654054Y-109150790D01*
X154655681Y-109288363D01*
X154654172Y-109298508D01*
X154655943Y-109310486D01*
X154655975Y-109313156D01*
X154656539Y-109314519D01*
X154657040Y-109317901D01*
X154704544Y-109500980D01*
X154705224Y-109510536D01*
X154710815Y-109525148D01*
X154711254Y-109526837D01*
X154711684Y-109527417D01*
X154712230Y-109528844D01*
X154761566Y-109623866D01*
X154766144Y-109634918D01*
X154769302Y-109638766D01*
X154770292Y-109640672D01*
X154772286Y-109642401D01*
X154778581Y-109650071D01*
X154864526Y-109733902D01*
X154865531Y-109735912D01*
X154875055Y-109744172D01*
X154888972Y-109757747D01*
X154892291Y-109759122D01*
X154895007Y-109761477D01*
X154912907Y-109769468D01*
X155055991Y-109815374D01*
X155067878Y-109820298D01*
X155072870Y-109820789D01*
X155074879Y-109821434D01*
X155077513Y-109821246D01*
X155087387Y-109822219D01*
X155183529Y-109820609D01*
X155195132Y-109821434D01*
X155199968Y-109820334D01*
X155202134Y-109820298D01*
X155204576Y-109819286D01*
X155214248Y-109817087D01*
X155342625Y-109772678D01*
X155344992Y-109772678D01*
X155356984Y-109767710D01*
X155375005Y-109761477D01*
X155377720Y-109759122D01*
X155381040Y-109757747D01*
X155396193Y-109745310D01*
X155456249Y-109682537D01*
X155471180Y-109646488D01*
X155473101Y-109626980D01*
X155471180Y-109274138D01*
X155456248Y-109238090D01*
X155428658Y-109210500D01*
X155392610Y-109195568D01*
X155373101Y-109193647D01*
X155163116Y-109195568D01*
X155127068Y-109210500D01*
X155099478Y-109238090D01*
X155084546Y-109274138D01*
X155084546Y-109313156D01*
X155099478Y-109349204D01*
X155127068Y-109376794D01*
X155163116Y-109391726D01*
X155182625Y-109393647D01*
X155273640Y-109392814D01*
X155274688Y-109585224D01*
X155273059Y-109586927D01*
X155170448Y-109622422D01*
X155106961Y-109623485D01*
X155000221Y-109589240D01*
X154933082Y-109523752D01*
X154897461Y-109455145D01*
X154853982Y-109287580D01*
X154852576Y-109168773D01*
X154892816Y-109001500D01*
X154928738Y-108926830D01*
X154996045Y-108857824D01*
X155099384Y-108822077D01*
X155204585Y-108820832D01*
X155299069Y-108866287D01*
X155337989Y-108869053D01*
X155375005Y-108856714D01*
X155404482Y-108831149D01*
X155421931Y-108796251D01*
X155424696Y-108757331D01*
X155412993Y-108722219D01*
X155701673Y-108722219D01*
X155703594Y-109741728D01*
X155718526Y-109777776D01*
X155746116Y-109805366D01*
X155782164Y-109820298D01*
X155821182Y-109820298D01*
X155857230Y-109805366D01*
X155884820Y-109777776D01*
X155899752Y-109741728D01*
X155901673Y-109722219D01*
X155900492Y-109095475D01*
X156284990Y-109765793D01*
X156289954Y-109777776D01*
X156294433Y-109782255D01*
X156297624Y-109787818D01*
X156308140Y-109795962D01*
X156317544Y-109805366D01*
X156323431Y-109807804D01*
X156328473Y-109811709D01*
X156341305Y-109815208D01*
X156353592Y-109820298D01*
X156359968Y-109820298D01*
X156366117Y-109821975D01*
X156379310Y-109820298D01*
X156392610Y-109820298D01*
X156398498Y-109817858D01*
X156404823Y-109817055D01*
X156416372Y-109810454D01*
X156428658Y-109805366D01*
X156433165Y-109800858D01*
X156438700Y-109797696D01*
X156446844Y-109787179D01*
X156456248Y-109777776D01*
X156458686Y-109771888D01*
X156462591Y-109766847D01*
X156466090Y-109754014D01*
X156471180Y-109741728D01*
X156472162Y-109731750D01*
X156472857Y-109729204D01*
X156472606Y-109727236D01*
X156473101Y-109722219D01*
X156471217Y-108722219D01*
X156749292Y-108722219D01*
X156751213Y-109741728D01*
X156766145Y-109777776D01*
X156793735Y-109805366D01*
X156829783Y-109820298D01*
X156849292Y-109822219D01*
X157086092Y-109820453D01*
X157099894Y-109821434D01*
X157104821Y-109820313D01*
X157106896Y-109820298D01*
X157109338Y-109819286D01*
X157119010Y-109817087D01*
X157247387Y-109772678D01*
X157249754Y-109772678D01*
X157261746Y-109767710D01*
X157279767Y-109761477D01*
X157282482Y-109759122D01*
X157285802Y-109757747D01*
X157300955Y-109745310D01*
X157394972Y-109648920D01*
X157404482Y-109640673D01*
X157407148Y-109636437D01*
X157408630Y-109634918D01*
X157409641Y-109632476D01*
X157414925Y-109624082D01*
X157458353Y-109533810D01*
X157463520Y-109526837D01*
X157468748Y-109512202D01*
X157469550Y-109510536D01*
X157469601Y-109509815D01*
X157470115Y-109508377D01*
X157514694Y-109323064D01*
X157518799Y-109313156D01*
X157519991Y-109301046D01*
X157520602Y-109298508D01*
X157520384Y-109297049D01*
X157520720Y-109293647D01*
X157519092Y-109156073D01*
X157520602Y-109145929D01*
X157518830Y-109133950D01*
X157518799Y-109131281D01*
X157518234Y-109129917D01*
X157517734Y-109126536D01*
X157470229Y-108943456D01*
X157469550Y-108933901D01*
X157463957Y-108919285D01*
X157463520Y-108917600D01*
X157463090Y-108917020D01*
X157462544Y-108915592D01*
X157413201Y-108820558D01*
X157408629Y-108809519D01*
X157405473Y-108805674D01*
X157404482Y-108803764D01*
X157402484Y-108802031D01*
X157396193Y-108794365D01*
X157310248Y-108710536D01*
X157309243Y-108708526D01*
X157299713Y-108700260D01*
X157285801Y-108686691D01*
X157282482Y-108685316D01*
X157279767Y-108682961D01*
X157261866Y-108674970D01*
X157118786Y-108629065D01*
X157106896Y-108624140D01*
X157101902Y-108623648D01*
X157099894Y-108623004D01*
X157097260Y-108623191D01*
X157087387Y-108622219D01*
X156829783Y-108624140D01*
X156793735Y-108639072D01*
X156766145Y-108666662D01*
X156751213Y-108702710D01*
X156749292Y-108722219D01*
X156471217Y-108722219D01*
X156471180Y-108702710D01*
X156456248Y-108666662D01*
X156428658Y-108639072D01*
X156392610Y-108624140D01*
X156353592Y-108624140D01*
X156317544Y-108639072D01*
X156289954Y-108666662D01*
X156275022Y-108702710D01*
X156273101Y-108722219D01*
X156274281Y-109348962D01*
X155889783Y-108678644D01*
X155884820Y-108666662D01*
X155880340Y-108662182D01*
X155877150Y-108656620D01*
X155866635Y-108648477D01*
X155857230Y-108639072D01*
X155851339Y-108636632D01*
X155846301Y-108632730D01*
X155833472Y-108629231D01*
X155821182Y-108624140D01*
X155814807Y-108624140D01*
X155808658Y-108622463D01*
X155795465Y-108624140D01*
X155782164Y-108624140D01*
X155776275Y-108626579D01*
X155769951Y-108627383D01*
X155758401Y-108633983D01*
X155746116Y-108639072D01*
X155741608Y-108643579D01*
X155736074Y-108646742D01*
X155727931Y-108657256D01*
X155718526Y-108666662D01*
X155716086Y-108672552D01*
X155712184Y-108677591D01*
X155708685Y-108690419D01*
X155703594Y-108702710D01*
X155702611Y-108712687D01*
X155701917Y-108715234D01*
X155702167Y-108717201D01*
X155701673Y-108722219D01*
X155412993Y-108722219D01*
X155412358Y-108720315D01*
X155386793Y-108690838D01*
X155370203Y-108680395D01*
X155287185Y-108640456D01*
X155285801Y-108639072D01*
X155275051Y-108634619D01*
X155256657Y-108625770D01*
X155253073Y-108625515D01*
X155249753Y-108624140D01*
X155230244Y-108622219D01*
X155087583Y-108623906D01*
X155074879Y-108623004D01*
X155069993Y-108624114D01*
X155067878Y-108624140D01*
X155065436Y-108625151D01*
X155055764Y-108627351D01*
X154927390Y-108671759D01*
X154925021Y-108671759D01*
X154913024Y-108676728D01*
X154895007Y-108682961D01*
X154892291Y-108685316D01*
X154888973Y-108686691D01*
X154873819Y-108699127D01*
X154779802Y-108795516D01*
X154770292Y-108803765D01*
X154767625Y-108808001D01*
X154766145Y-108809519D01*
X154765134Y-108811958D01*
X154759849Y-108820355D01*
X154716420Y-108910626D01*
X154711254Y-108917600D01*
X154706026Y-108932232D01*
X154705224Y-108933901D01*
X154705172Y-108934623D01*
X154704659Y-108936061D01*
X154660079Y-109121371D01*
X154655975Y-109131281D01*
X154654782Y-109143390D01*
X154654172Y-109145929D01*
X154654389Y-109147387D01*
X154654054Y-109150790D01*
X154542943Y-109150790D01*
X154542943Y-108511108D01*
X157631831Y-108511108D01*
X157631831Y-109933330D01*
G37*
G36*
X157174551Y-111395198D02*
G01*
X157241692Y-111460685D01*
X157277312Y-111529289D01*
X157320791Y-111696856D01*
X157322197Y-111815664D01*
X157281957Y-111982936D01*
X157246035Y-112057606D01*
X157178726Y-112126614D01*
X157075544Y-112162307D01*
X156949105Y-112163250D01*
X156947594Y-111361485D01*
X157066706Y-111360597D01*
X157174551Y-111395198D01*
G37*
G36*
X157631831Y-112473330D02*
G01*
X154542943Y-112473330D01*
X154542943Y-111690790D01*
X154654054Y-111690790D01*
X154655681Y-111828363D01*
X154654172Y-111838508D01*
X154655943Y-111850486D01*
X154655975Y-111853156D01*
X154656539Y-111854519D01*
X154657040Y-111857901D01*
X154704544Y-112040980D01*
X154705224Y-112050536D01*
X154710815Y-112065148D01*
X154711254Y-112066837D01*
X154711684Y-112067417D01*
X154712230Y-112068844D01*
X154761566Y-112163866D01*
X154766144Y-112174918D01*
X154769302Y-112178766D01*
X154770292Y-112180672D01*
X154772286Y-112182401D01*
X154778581Y-112190071D01*
X154864526Y-112273902D01*
X154865531Y-112275912D01*
X154875055Y-112284172D01*
X154888972Y-112297747D01*
X154892291Y-112299122D01*
X154895007Y-112301477D01*
X154912907Y-112309468D01*
X155055991Y-112355374D01*
X155067878Y-112360298D01*
X155072870Y-112360789D01*
X155074879Y-112361434D01*
X155077513Y-112361246D01*
X155087387Y-112362219D01*
X155183529Y-112360609D01*
X155195132Y-112361434D01*
X155199968Y-112360334D01*
X155202134Y-112360298D01*
X155204576Y-112359286D01*
X155214248Y-112357087D01*
X155342625Y-112312678D01*
X155344992Y-112312678D01*
X155356984Y-112307710D01*
X155375005Y-112301477D01*
X155377720Y-112299122D01*
X155381040Y-112297747D01*
X155396193Y-112285310D01*
X155456249Y-112222537D01*
X155471180Y-112186488D01*
X155473101Y-112166980D01*
X155471180Y-111814138D01*
X155456248Y-111778090D01*
X155428658Y-111750500D01*
X155392610Y-111735568D01*
X155373101Y-111733647D01*
X155163116Y-111735568D01*
X155127068Y-111750500D01*
X155099478Y-111778090D01*
X155084546Y-111814138D01*
X155084546Y-111853156D01*
X155099478Y-111889204D01*
X155127068Y-111916794D01*
X155163116Y-111931726D01*
X155182625Y-111933647D01*
X155273640Y-111932814D01*
X155274688Y-112125224D01*
X155273059Y-112126927D01*
X155170448Y-112162422D01*
X155106961Y-112163485D01*
X155000221Y-112129240D01*
X154933082Y-112063752D01*
X154897461Y-111995145D01*
X154853982Y-111827580D01*
X154852576Y-111708773D01*
X154892816Y-111541500D01*
X154928738Y-111466830D01*
X154996045Y-111397824D01*
X155099384Y-111362077D01*
X155204585Y-111360832D01*
X155299069Y-111406287D01*
X155337989Y-111409053D01*
X155375005Y-111396714D01*
X155404482Y-111371149D01*
X155421931Y-111336251D01*
X155424696Y-111297331D01*
X155412993Y-111262219D01*
X155701673Y-111262219D01*
X155703594Y-112281728D01*
X155718526Y-112317776D01*
X155746116Y-112345366D01*
X155782164Y-112360298D01*
X155821182Y-112360298D01*
X155857230Y-112345366D01*
X155884820Y-112317776D01*
X155899752Y-112281728D01*
X155901673Y-112262219D01*
X155900492Y-111635475D01*
X156284990Y-112305793D01*
X156289954Y-112317776D01*
X156294433Y-112322255D01*
X156297624Y-112327818D01*
X156308140Y-112335962D01*
X156317544Y-112345366D01*
X156323431Y-112347804D01*
X156328473Y-112351709D01*
X156341305Y-112355208D01*
X156353592Y-112360298D01*
X156359968Y-112360298D01*
X156366117Y-112361975D01*
X156379310Y-112360298D01*
X156392610Y-112360298D01*
X156398498Y-112357858D01*
X156404823Y-112357055D01*
X156416372Y-112350454D01*
X156428658Y-112345366D01*
X156433165Y-112340858D01*
X156438700Y-112337696D01*
X156446844Y-112327179D01*
X156456248Y-112317776D01*
X156458686Y-112311888D01*
X156462591Y-112306847D01*
X156466090Y-112294014D01*
X156471180Y-112281728D01*
X156472162Y-112271750D01*
X156472857Y-112269204D01*
X156472606Y-112267236D01*
X156473101Y-112262219D01*
X156471217Y-111262219D01*
X156749292Y-111262219D01*
X156751213Y-112281728D01*
X156766145Y-112317776D01*
X156793735Y-112345366D01*
X156829783Y-112360298D01*
X156849292Y-112362219D01*
X157086092Y-112360453D01*
X157099894Y-112361434D01*
X157104821Y-112360313D01*
X157106896Y-112360298D01*
X157109338Y-112359286D01*
X157119010Y-112357087D01*
X157247387Y-112312678D01*
X157249754Y-112312678D01*
X157261746Y-112307710D01*
X157279767Y-112301477D01*
X157282482Y-112299122D01*
X157285802Y-112297747D01*
X157300955Y-112285310D01*
X157394972Y-112188920D01*
X157404482Y-112180673D01*
X157407148Y-112176437D01*
X157408630Y-112174918D01*
X157409641Y-112172476D01*
X157414925Y-112164082D01*
X157458353Y-112073810D01*
X157463520Y-112066837D01*
X157468748Y-112052202D01*
X157469550Y-112050536D01*
X157469601Y-112049815D01*
X157470115Y-112048377D01*
X157514694Y-111863064D01*
X157518799Y-111853156D01*
X157519991Y-111841046D01*
X157520602Y-111838508D01*
X157520384Y-111837049D01*
X157520720Y-111833647D01*
X157519092Y-111696073D01*
X157520602Y-111685929D01*
X157518830Y-111673950D01*
X157518799Y-111671281D01*
X157518234Y-111669917D01*
X157517734Y-111666536D01*
X157470229Y-111483456D01*
X157469550Y-111473901D01*
X157463957Y-111459285D01*
X157463520Y-111457600D01*
X157463090Y-111457020D01*
X157462544Y-111455592D01*
X157413201Y-111360558D01*
X157408629Y-111349519D01*
X157405473Y-111345674D01*
X157404482Y-111343764D01*
X157402484Y-111342031D01*
X157396193Y-111334365D01*
X157310248Y-111250536D01*
X157309243Y-111248526D01*
X157299713Y-111240260D01*
X157285801Y-111226691D01*
X157282482Y-111225316D01*
X157279767Y-111222961D01*
X157261866Y-111214970D01*
X157118786Y-111169065D01*
X157106896Y-111164140D01*
X157101902Y-111163648D01*
X157099894Y-111163004D01*
X157097260Y-111163191D01*
X157087387Y-111162219D01*
X156829783Y-111164140D01*
X156793735Y-111179072D01*
X156766145Y-111206662D01*
X156751213Y-111242710D01*
X156749292Y-111262219D01*
X156471217Y-111262219D01*
X156471180Y-111242710D01*
X156456248Y-111206662D01*
X156428658Y-111179072D01*
X156392610Y-111164140D01*
X156353592Y-111164140D01*
X156317544Y-111179072D01*
X156289954Y-111206662D01*
X156275022Y-111242710D01*
X156273101Y-111262219D01*
X156274281Y-111888962D01*
X155889783Y-111218644D01*
X155884820Y-111206662D01*
X155880340Y-111202182D01*
X155877150Y-111196620D01*
X155866635Y-111188477D01*
X155857230Y-111179072D01*
X155851339Y-111176632D01*
X155846301Y-111172730D01*
X155833472Y-111169231D01*
X155821182Y-111164140D01*
X155814807Y-111164140D01*
X155808658Y-111162463D01*
X155795465Y-111164140D01*
X155782164Y-111164140D01*
X155776275Y-111166579D01*
X155769951Y-111167383D01*
X155758401Y-111173983D01*
X155746116Y-111179072D01*
X155741608Y-111183579D01*
X155736074Y-111186742D01*
X155727931Y-111197256D01*
X155718526Y-111206662D01*
X155716086Y-111212552D01*
X155712184Y-111217591D01*
X155708685Y-111230419D01*
X155703594Y-111242710D01*
X155702611Y-111252687D01*
X155701917Y-111255234D01*
X155702167Y-111257201D01*
X155701673Y-111262219D01*
X155412993Y-111262219D01*
X155412358Y-111260315D01*
X155386793Y-111230838D01*
X155370203Y-111220395D01*
X155287185Y-111180456D01*
X155285801Y-111179072D01*
X155275051Y-111174619D01*
X155256657Y-111165770D01*
X155253073Y-111165515D01*
X155249753Y-111164140D01*
X155230244Y-111162219D01*
X155087583Y-111163906D01*
X155074879Y-111163004D01*
X155069993Y-111164114D01*
X155067878Y-111164140D01*
X155065436Y-111165151D01*
X155055764Y-111167351D01*
X154927390Y-111211759D01*
X154925021Y-111211759D01*
X154913024Y-111216728D01*
X154895007Y-111222961D01*
X154892291Y-111225316D01*
X154888973Y-111226691D01*
X154873819Y-111239127D01*
X154779802Y-111335516D01*
X154770292Y-111343765D01*
X154767625Y-111348001D01*
X154766145Y-111349519D01*
X154765134Y-111351958D01*
X154759849Y-111360355D01*
X154716420Y-111450626D01*
X154711254Y-111457600D01*
X154706026Y-111472232D01*
X154705224Y-111473901D01*
X154705172Y-111474623D01*
X154704659Y-111476061D01*
X154660079Y-111661371D01*
X154655975Y-111671281D01*
X154654782Y-111683390D01*
X154654172Y-111685929D01*
X154654389Y-111687387D01*
X154654054Y-111690790D01*
X154542943Y-111690790D01*
X154542943Y-111051108D01*
X157631831Y-111051108D01*
X157631831Y-112473330D01*
G37*
G36*
X157174551Y-113935198D02*
G01*
X157241692Y-114000685D01*
X157277312Y-114069289D01*
X157320791Y-114236856D01*
X157322197Y-114355664D01*
X157281957Y-114522936D01*
X157246035Y-114597606D01*
X157178726Y-114666614D01*
X157075544Y-114702307D01*
X156949105Y-114703250D01*
X156947594Y-113901485D01*
X157066706Y-113900597D01*
X157174551Y-113935198D01*
G37*
G36*
X157631831Y-115013330D02*
G01*
X154542943Y-115013330D01*
X154542943Y-114230790D01*
X154654054Y-114230790D01*
X154655681Y-114368363D01*
X154654172Y-114378508D01*
X154655943Y-114390486D01*
X154655975Y-114393156D01*
X154656539Y-114394519D01*
X154657040Y-114397901D01*
X154704544Y-114580980D01*
X154705224Y-114590536D01*
X154710815Y-114605148D01*
X154711254Y-114606837D01*
X154711684Y-114607417D01*
X154712230Y-114608844D01*
X154761566Y-114703866D01*
X154766144Y-114714918D01*
X154769302Y-114718766D01*
X154770292Y-114720672D01*
X154772286Y-114722401D01*
X154778581Y-114730071D01*
X154864526Y-114813902D01*
X154865531Y-114815912D01*
X154875055Y-114824172D01*
X154888972Y-114837747D01*
X154892291Y-114839122D01*
X154895007Y-114841477D01*
X154912907Y-114849468D01*
X155055991Y-114895374D01*
X155067878Y-114900298D01*
X155072870Y-114900789D01*
X155074879Y-114901434D01*
X155077513Y-114901246D01*
X155087387Y-114902219D01*
X155183529Y-114900609D01*
X155195132Y-114901434D01*
X155199968Y-114900334D01*
X155202134Y-114900298D01*
X155204576Y-114899286D01*
X155214248Y-114897087D01*
X155342625Y-114852678D01*
X155344992Y-114852678D01*
X155356984Y-114847710D01*
X155375005Y-114841477D01*
X155377720Y-114839122D01*
X155381040Y-114837747D01*
X155396193Y-114825310D01*
X155456249Y-114762537D01*
X155471180Y-114726488D01*
X155473101Y-114706980D01*
X155471180Y-114354138D01*
X155456248Y-114318090D01*
X155428658Y-114290500D01*
X155392610Y-114275568D01*
X155373101Y-114273647D01*
X155163116Y-114275568D01*
X155127068Y-114290500D01*
X155099478Y-114318090D01*
X155084546Y-114354138D01*
X155084546Y-114393156D01*
X155099478Y-114429204D01*
X155127068Y-114456794D01*
X155163116Y-114471726D01*
X155182625Y-114473647D01*
X155273640Y-114472814D01*
X155274688Y-114665224D01*
X155273059Y-114666927D01*
X155170448Y-114702422D01*
X155106961Y-114703485D01*
X155000221Y-114669240D01*
X154933082Y-114603752D01*
X154897461Y-114535145D01*
X154853982Y-114367580D01*
X154852576Y-114248773D01*
X154892816Y-114081500D01*
X154928738Y-114006830D01*
X154996045Y-113937824D01*
X155099384Y-113902077D01*
X155204585Y-113900832D01*
X155299069Y-113946287D01*
X155337989Y-113949053D01*
X155375005Y-113936714D01*
X155404482Y-113911149D01*
X155421931Y-113876251D01*
X155424696Y-113837331D01*
X155412993Y-113802219D01*
X155701673Y-113802219D01*
X155703594Y-114821728D01*
X155718526Y-114857776D01*
X155746116Y-114885366D01*
X155782164Y-114900298D01*
X155821182Y-114900298D01*
X155857230Y-114885366D01*
X155884820Y-114857776D01*
X155899752Y-114821728D01*
X155901673Y-114802219D01*
X155900492Y-114175475D01*
X156284990Y-114845793D01*
X156289954Y-114857776D01*
X156294433Y-114862255D01*
X156297624Y-114867818D01*
X156308140Y-114875962D01*
X156317544Y-114885366D01*
X156323431Y-114887804D01*
X156328473Y-114891709D01*
X156341305Y-114895208D01*
X156353592Y-114900298D01*
X156359968Y-114900298D01*
X156366117Y-114901975D01*
X156379310Y-114900298D01*
X156392610Y-114900298D01*
X156398498Y-114897858D01*
X156404823Y-114897055D01*
X156416372Y-114890454D01*
X156428658Y-114885366D01*
X156433165Y-114880858D01*
X156438700Y-114877696D01*
X156446844Y-114867179D01*
X156456248Y-114857776D01*
X156458686Y-114851888D01*
X156462591Y-114846847D01*
X156466090Y-114834014D01*
X156471180Y-114821728D01*
X156472162Y-114811750D01*
X156472857Y-114809204D01*
X156472606Y-114807236D01*
X156473101Y-114802219D01*
X156471217Y-113802219D01*
X156749292Y-113802219D01*
X156751213Y-114821728D01*
X156766145Y-114857776D01*
X156793735Y-114885366D01*
X156829783Y-114900298D01*
X156849292Y-114902219D01*
X157086092Y-114900453D01*
X157099894Y-114901434D01*
X157104821Y-114900313D01*
X157106896Y-114900298D01*
X157109338Y-114899286D01*
X157119010Y-114897087D01*
X157247387Y-114852678D01*
X157249754Y-114852678D01*
X157261746Y-114847710D01*
X157279767Y-114841477D01*
X157282482Y-114839122D01*
X157285802Y-114837747D01*
X157300955Y-114825310D01*
X157394972Y-114728920D01*
X157404482Y-114720673D01*
X157407148Y-114716437D01*
X157408630Y-114714918D01*
X157409641Y-114712476D01*
X157414925Y-114704082D01*
X157458353Y-114613810D01*
X157463520Y-114606837D01*
X157468748Y-114592202D01*
X157469550Y-114590536D01*
X157469601Y-114589815D01*
X157470115Y-114588377D01*
X157514694Y-114403064D01*
X157518799Y-114393156D01*
X157519991Y-114381046D01*
X157520602Y-114378508D01*
X157520384Y-114377049D01*
X157520720Y-114373647D01*
X157519092Y-114236073D01*
X157520602Y-114225929D01*
X157518830Y-114213950D01*
X157518799Y-114211281D01*
X157518234Y-114209917D01*
X157517734Y-114206536D01*
X157470229Y-114023456D01*
X157469550Y-114013901D01*
X157463957Y-113999285D01*
X157463520Y-113997600D01*
X157463090Y-113997020D01*
X157462544Y-113995592D01*
X157413201Y-113900558D01*
X157408629Y-113889519D01*
X157405473Y-113885674D01*
X157404482Y-113883764D01*
X157402484Y-113882031D01*
X157396193Y-113874365D01*
X157310248Y-113790536D01*
X157309243Y-113788526D01*
X157299713Y-113780260D01*
X157285801Y-113766691D01*
X157282482Y-113765316D01*
X157279767Y-113762961D01*
X157261866Y-113754970D01*
X157118786Y-113709065D01*
X157106896Y-113704140D01*
X157101902Y-113703648D01*
X157099894Y-113703004D01*
X157097260Y-113703191D01*
X157087387Y-113702219D01*
X156829783Y-113704140D01*
X156793735Y-113719072D01*
X156766145Y-113746662D01*
X156751213Y-113782710D01*
X156749292Y-113802219D01*
X156471217Y-113802219D01*
X156471180Y-113782710D01*
X156456248Y-113746662D01*
X156428658Y-113719072D01*
X156392610Y-113704140D01*
X156353592Y-113704140D01*
X156317544Y-113719072D01*
X156289954Y-113746662D01*
X156275022Y-113782710D01*
X156273101Y-113802219D01*
X156274281Y-114428962D01*
X155889783Y-113758644D01*
X155884820Y-113746662D01*
X155880340Y-113742182D01*
X155877150Y-113736620D01*
X155866635Y-113728477D01*
X155857230Y-113719072D01*
X155851339Y-113716632D01*
X155846301Y-113712730D01*
X155833472Y-113709231D01*
X155821182Y-113704140D01*
X155814807Y-113704140D01*
X155808658Y-113702463D01*
X155795465Y-113704140D01*
X155782164Y-113704140D01*
X155776275Y-113706579D01*
X155769951Y-113707383D01*
X155758401Y-113713983D01*
X155746116Y-113719072D01*
X155741608Y-113723579D01*
X155736074Y-113726742D01*
X155727931Y-113737256D01*
X155718526Y-113746662D01*
X155716086Y-113752552D01*
X155712184Y-113757591D01*
X155708685Y-113770419D01*
X155703594Y-113782710D01*
X155702611Y-113792687D01*
X155701917Y-113795234D01*
X155702167Y-113797201D01*
X155701673Y-113802219D01*
X155412993Y-113802219D01*
X155412358Y-113800315D01*
X155386793Y-113770838D01*
X155370203Y-113760395D01*
X155287185Y-113720456D01*
X155285801Y-113719072D01*
X155275051Y-113714619D01*
X155256657Y-113705770D01*
X155253073Y-113705515D01*
X155249753Y-113704140D01*
X155230244Y-113702219D01*
X155087583Y-113703906D01*
X155074879Y-113703004D01*
X155069993Y-113704114D01*
X155067878Y-113704140D01*
X155065436Y-113705151D01*
X155055764Y-113707351D01*
X154927390Y-113751759D01*
X154925021Y-113751759D01*
X154913024Y-113756728D01*
X154895007Y-113762961D01*
X154892291Y-113765316D01*
X154888973Y-113766691D01*
X154873819Y-113779127D01*
X154779802Y-113875516D01*
X154770292Y-113883765D01*
X154767625Y-113888001D01*
X154766145Y-113889519D01*
X154765134Y-113891958D01*
X154759849Y-113900355D01*
X154716420Y-113990626D01*
X154711254Y-113997600D01*
X154706026Y-114012232D01*
X154705224Y-114013901D01*
X154705172Y-114014623D01*
X154704659Y-114016061D01*
X154660079Y-114201371D01*
X154655975Y-114211281D01*
X154654782Y-114223390D01*
X154654172Y-114225929D01*
X154654389Y-114227387D01*
X154654054Y-114230790D01*
X154542943Y-114230790D01*
X154542943Y-113591108D01*
X157631831Y-113591108D01*
X157631831Y-115013330D01*
G37*
D13*
%TO.C,J4*%
X135850000Y-77156000D02*
X135850000Y-117916000D01*
X135850000Y-77156000D02*
X138450000Y-77156000D01*
X135850000Y-117916000D02*
X141050000Y-117916000D01*
X138450000Y-77156000D02*
X138450000Y-79756000D01*
X138450000Y-79756000D02*
X141050000Y-79756000D01*
X139720000Y-77156000D02*
X141050000Y-77156000D01*
X141050000Y-77156000D02*
X141050000Y-78486000D01*
X141050000Y-79756000D02*
X141050000Y-117916000D01*
%TO.C,D1*%
X152197000Y-121404000D02*
X156257000Y-121404000D01*
X156257000Y-119134000D02*
X152197000Y-119134000D01*
X156257000Y-121404000D02*
X156257000Y-119134000D01*
%TO.C,J6*%
X135825000Y-121980000D02*
X135825000Y-120650000D01*
X137155000Y-121980000D02*
X135825000Y-121980000D01*
X138425000Y-119320000D02*
X141025000Y-119320000D01*
X138425000Y-121980000D02*
X138425000Y-119320000D01*
X138425000Y-121980000D02*
X141025000Y-121980000D01*
X141025000Y-121980000D02*
X141025000Y-119320000D01*
%TO.C,J7*%
X135825000Y-61274000D02*
X135825000Y-59944000D01*
X137155000Y-61274000D02*
X135825000Y-61274000D01*
X138425000Y-58614000D02*
X141025000Y-58614000D01*
X138425000Y-61274000D02*
X138425000Y-58614000D01*
X138425000Y-61274000D02*
X141025000Y-61274000D01*
X141025000Y-61274000D02*
X141025000Y-58614000D01*
%TO.C,J2*%
X161230000Y-64709293D02*
X162560000Y-64709293D01*
X161230000Y-66039293D02*
X161230000Y-64709293D01*
X161230000Y-67309293D02*
X161230000Y-115629293D01*
X161230000Y-67309293D02*
X163830000Y-67309293D01*
X161230000Y-115629293D02*
X166430000Y-115629293D01*
X163830000Y-64709293D02*
X166430000Y-64709293D01*
X163830000Y-67309293D02*
X163830000Y-64709293D01*
X166430000Y-64709293D02*
X166430000Y-115629293D01*
%TO.C,J5*%
X135850000Y-62708000D02*
X135850000Y-75528000D01*
X135850000Y-62708000D02*
X138450000Y-62708000D01*
X135850000Y-75528000D02*
X141050000Y-75528000D01*
X138450000Y-62708000D02*
X138450000Y-65308000D01*
X138450000Y-65308000D02*
X141050000Y-65308000D01*
X139720000Y-62708000D02*
X141050000Y-62708000D01*
X141050000Y-62708000D02*
X141050000Y-64038000D01*
X141050000Y-65308000D02*
X141050000Y-75528000D01*
%TO.C,R1*%
X148616936Y-119407000D02*
X149071064Y-119407000D01*
X148616936Y-120877000D02*
X149071064Y-120877000D01*
%TO.C,J3*%
X147260000Y-61274000D02*
X147260000Y-59944000D01*
X148590000Y-61274000D02*
X147260000Y-61274000D01*
X149860000Y-58614000D02*
X155000000Y-58614000D01*
X149860000Y-61274000D02*
X149860000Y-58614000D01*
X149860000Y-61274000D02*
X155000000Y-61274000D01*
X155000000Y-61274000D02*
X155000000Y-58614000D01*
%TD*%
M02*
